<?xml version="1.0" encoding="utf-8" ?>
<svg baseProfile="full" height="518px" version="1.1" viewBox="0,0,518,518" width="518px" xmlns="http://www.w3.org/2000/svg" xmlns:ev="http://www.w3.org/2001/xml-events" xmlns:xlink="http://www.w3.org/1999/xlink"><defs /><rect fill="white" height="100%" width="100%" x="0" y="0" /><line stroke="black" stroke-width="1px" x1="274.4924974158546" x2="275.8134672762424" y1="284.6437703976613" y2="204.80281929647657" /><line stroke="black" stroke-width="1px" x1="275.8134672762424" x2="142.0869667758032" y1="204.80281929647657" y2="261.86139934047753" /><line stroke="black" stroke-width="1px" x1="142.0869667758032" x2="153.05465560658115" y1="261.86139934047753" y2="351.8414786135973" /><line stroke="black" stroke-width="1px" x1="153.05465560658115" x2="274.4924974158546" y1="351.8414786135973" y2="284.6437703976613" /><line stroke="black" stroke-width="1px" x1="377.03040035581773" x2="388.82227296278666" y1="338.70664616519525" y2="250.5579624748451" /><line stroke="black" stroke-width="1px" x1="388.82227296278666" x2="255.5884963372129" y1="250.5579624748451" y2="331.8828688592336" /><line stroke="black" stroke-width="1px" x1="255.5884963372129" x2="255.97004864895464" y1="331.8828688592336" y2="431.32743189806513" /><line stroke="black" stroke-width="1px" x1="255.97004864895464" x2="377.03040035581773" y1="431.32743189806513" y2="338.70664616519525" /><line stroke="black" stroke-width="1px" x1="274.4924974158546" x2="377.03040035581773" y1="284.6437703976613" y2="338.70664616519525" /><line stroke="black" stroke-width="1px" x1="275.8134672762424" x2="388.82227296278666" y1="204.80281929647657" y2="250.5579624748451" /><line stroke="black" stroke-width="1px" x1="142.0869667758032" x2="255.5884963372129" y1="261.86139934047753" y2="331.8828688592336" /><line stroke="black" stroke-width="1px" x1="153.05465560658115" x2="255.97004864895464" y1="351.8414786135973" y2="431.32743189806513" /><line stroke="black" stroke-width="1px" x1="291.38024710726535" x2="294.21835895580364" y1="293.54779795608056" y2="212.25461430364172" /><line stroke="black" stroke-width="1px" x1="258.4013848048399" x2="258.348916493759" y1="293.5477979560806" y2="212.25461430364177" /><line stroke="black" stroke-width="1px" x1="258.4013848048399" x2="291.38024710726535" y1="293.5477979560806" y2="293.54779795608056" /><line stroke="black" stroke-width="1px" x1="258.348916493759" x2="294.21835895580364" y1="212.25461430364177" y2="212.25461430364172" /><line stroke="black" stroke-width="1px" x1="142.0869667758032" x2="203.18916809306026" y1="261.86139934047753" y2="223.03579404739224" /><line stroke="black" stroke-width="1px" x1="203.18916809306026" x2="195.5650289763523" y1="223.03579404739224" y2="288.32490473281877" /><line stroke="black" stroke-width="1px" x1="195.5650289763523" x2="142.0869667758032" y1="288.32490473281877" y2="261.86139934047753" /><line stroke="black" stroke-width="1px" x1="142.0869667758032" x2="203.18916809306026" y1="261.86139934047753" y2="223.03579404739224" /><line stroke="black" stroke-width="1px" x1="203.18916809306026" x2="195.5650289763523" y1="223.03579404739224" y2="288.32490473281877" /><line stroke="black" stroke-width="1px" x1="195.5650289763523" x2="142.0869667758032" y1="288.32490473281877" y2="261.86139934047753" /><line stroke="black" stroke-width="1px" x1="142.0869667758032" x2="142.0869667758032" y1="261.86139934047753" y2="261.86139934047753" /><line stroke="black" stroke-width="1px" x1="203.18916809306026" x2="203.18916809306026" y1="223.03579404739224" y2="223.03579404739224" /><line stroke="black" stroke-width="1px" x1="195.5650289763523" x2="195.5650289763523" y1="288.32490473281877" y2="288.32490473281877" /><line stroke="black" stroke-width="1px" x1="350.4046131273259" x2="359.18548406780036" y1="324.668260496341" y2="238.55858321409568" /><line stroke="black" stroke-width="1px" x1="357.2977242177626" x2="367.52702736006063" y1="353.80371091637346" y2="263.5564220166865" /><line stroke="black" stroke-width="1px" x1="142.0869667758032" x2="253.8466860245689" y1="261.86139934047753" y2="156.57875494148243" /><line stroke="black" stroke-width="1px" x1="253.8466860245689" x2="261.1313509800654" y1="156.57875494148243" y2="137.7801524465474" /><line stroke="black" stroke-width="1px" x1="261.1313509800654" x2="142.0869667758032" y1="137.7801524465474" y2="261.86139934047753" /><line stroke="black" stroke-width="1px" x1="142.0869667758032" x2="253.8466860245689" y1="261.86139934047753" y2="156.57875494148243" /><line stroke="black" stroke-width="1px" x1="253.8466860245689" x2="261.1313509800654" y1="156.57875494148243" y2="137.7801524465474" /><line stroke="black" stroke-width="1px" x1="261.1313509800654" x2="142.0869667758032" y1="137.7801524465474" y2="261.86139934047753" /><line stroke="black" stroke-width="1px" x1="142.0869667758032" x2="142.0869667758032" y1="261.86139934047753" y2="261.86139934047753" /><line stroke="black" stroke-width="1px" x1="253.8466860245689" x2="253.8466860245689" y1="156.57875494148243" y2="156.57875494148243" /><line stroke="black" stroke-width="1px" x1="261.1313509800654" x2="261.1313509800654" y1="137.7801524465474" y2="137.7801524465474" /><line stroke="black" stroke-width="1px" x1="230.1260156575187" x2="233.24037235930064" y1="316.1745315207445" y2="413.7723321766207" /><line stroke="black" stroke-width="1px" x1="281.3233074936286" x2="278.9155087820239" y1="316.1745315207445" y2="413.7723321766207" /><line stroke="black" stroke-width="1px" x1="281.3233074936286" x2="230.1260156575187" y1="316.1745315207445" y2="316.1745315207445" /><line stroke="black" stroke-width="1px" x1="278.9155087820239" x2="233.24037235930064" y1="413.7723321766207" y2="413.7723321766207" /></svg>