<?xml version="1.0" encoding="utf-8" ?>
<svg baseProfile="full" height="518px" version="1.1" viewBox="0,0,518,518" width="518px" xmlns="http://www.w3.org/2000/svg" xmlns:ev="http://www.w3.org/2001/xml-events" xmlns:xlink="http://www.w3.org/1999/xlink"><defs /><rect fill="white" height="100%" width="100%" x="0" y="0" /><line stroke="black" stroke-width="1px" x1="188.77933433186809" x2="179.69471540300628" y1="302.10674544368305" y2="183.22362205360383" /><line stroke="black" stroke-width="1px" x1="179.69471540300628" x2="291.48135036758003" y1="183.22362205360383" y2="231.93221743192063" /><line stroke="black" stroke-width="1px" x1="291.48135036758003" x2="287.1198593734202" y1="231.93221743192063" y2="364.7448488542642" /><line stroke="black" stroke-width="1px" x1="287.1198593734202" x2="188.77933433186809" y1="364.7448488542642" y2="302.10674544368305" /><line stroke="black" stroke-width="1px" x1="236.62371927514187" x2="233.9467752113361" y1="277.64689412504526" y2="164.78724333545864" /><line stroke="black" stroke-width="1px" x1="233.9467752113361" x2="345.62383063844237" y1="164.78724333545864" y2="205.82375364631903" /><line stroke="black" stroke-width="1px" x1="345.62383063844237" x2="334.89851010214903" y1="205.82375364631903" y2="331.52119724801844" /><line stroke="black" stroke-width="1px" x1="334.89851010214903" x2="236.62371927514187" y1="331.52119724801844" y2="277.64689412504526" /><line stroke="black" stroke-width="1px" x1="188.77933433186809" x2="236.62371927514187" y1="302.10674544368305" y2="277.64689412504526" /><line stroke="black" stroke-width="1px" x1="179.69471540300628" x2="233.9467752113361" y1="183.22362205360383" y2="164.78724333545864" /><line stroke="black" stroke-width="1px" x1="291.48135036758003" x2="345.62383063844237" y1="231.93221743192063" y2="205.82375364631903" /><line stroke="black" stroke-width="1px" x1="287.1198593734202" x2="334.89851010214903" y1="364.7448488542642" y2="331.52119724801844" /><line stroke="black" stroke-width="1px" x1="197.04987721713508" x2="308.9769887590991" y1="177.32584900958673" y2="223.49551044942243" /><line stroke="black" stroke-width="1px" x1="181.26103274632885" x2="290.7152439348213" y1="203.7207611688896" y2="255.26107708576836" /><line stroke="black" stroke-width="1px" x1="231.8385798798726" x2="193.12270582148824" y1="269.7101924740889" y2="288.90188816568724" /><line stroke="black" stroke-width="1px" x1="193.12270582148824" x2="208.50938365776327" y1="288.90188816568724" y2="186.50527697686732" /><line stroke="black" stroke-width="1px" x1="208.50938365776327" x2="231.8385798798726" y1="186.50527697686732" y2="269.7101924740889" /><line stroke="black" stroke-width="1px" x1="231.8385798798726" x2="193.12270582148824" y1="269.7101924740889" y2="288.90188816568724" /><line stroke="black" stroke-width="1px" x1="193.12270582148824" x2="208.50938365776327" y1="288.90188816568724" y2="186.50527697686732" /><line stroke="black" stroke-width="1px" x1="208.50938365776327" x2="231.8385798798726" y1="186.50527697686732" y2="269.7101924740889" /><line stroke="black" stroke-width="1px" x1="231.8385798798726" x2="231.8385798798726" y1="269.7101924740889" y2="269.7101924740889" /><line stroke="black" stroke-width="1px" x1="193.12270582148824" x2="193.12270582148824" y1="288.90188816568724" y2="288.90188816568724" /><line stroke="black" stroke-width="1px" x1="208.50938365776327" x2="208.50938365776327" y1="186.50527697686732" y2="186.50527697686732" /><line stroke="black" stroke-width="1px" x1="307.139867723792" x2="300.8202166208399" y1="224.38140277980932" y2="355.2180855587975" /><line stroke="black" stroke-width="1px" x1="274.1521674041873" x2="272.16303831065926" y1="224.38140277980935" y2="355.2180855587975" /></svg>