<?xml version="1.0" encoding="utf-8" ?>
<svg baseProfile="full" height="518px" version="1.1" viewBox="0,0,518,518" width="518px" xmlns="http://www.w3.org/2000/svg" xmlns:ev="http://www.w3.org/2001/xml-events" xmlns:xlink="http://www.w3.org/1999/xlink"><defs /><rect fill="white" height="100%" width="100%" x="0" y="0" /><line stroke="black" stroke-width="1px" x1="284.0234406391298" x2="286.920759192285" y1="284.4816196608996" y2="176.0443314371439" /><line stroke="black" stroke-width="1px" x1="286.920759192285" x2="196.43353563459104" y1="176.0443314371439" y2="211.11045346376767" /><line stroke="black" stroke-width="1px" x1="196.43353563459104" x2="203.77140041906813" y1="211.11045346376767" y2="329.55474475940395" /><line stroke="black" stroke-width="1px" x1="203.77140041906813" x2="284.0234406391298" y1="329.55474475940395" y2="284.4816196608996" /><line stroke="black" stroke-width="1px" x1="332.4342811634998" x2="341.63186598864655" y1="309.62927684831004" y2="195.47728130091414" /><line stroke="black" stroke-width="1px" x1="341.63186598864655" x2="251.38955444632902" y1="195.47728130091414" y2="237.01168431767292" /><line stroke="black" stroke-width="1px" x1="251.38955444632902" x2="252.35610181935039" y1="237.01168431767292" y2="361.9844810980851" /><line stroke="black" stroke-width="1px" x1="252.35610181935039" x2="332.4342811634998" y1="361.9844810980851" y2="309.62927684831004" /><line stroke="black" stroke-width="1px" x1="284.0234406391298" x2="332.4342811634998" y1="284.4816196608996" y2="309.62927684831004" /><line stroke="black" stroke-width="1px" x1="286.920759192285" x2="341.63186598864655" y1="176.0443314371439" y2="195.47728130091414" /><line stroke="black" stroke-width="1px" x1="196.43353563459104" x2="251.38955444632902" y1="211.11045346376767" y2="237.01168431767292" /><line stroke="black" stroke-width="1px" x1="203.77140041906813" x2="252.35610181935039" y1="329.55474475940395" y2="361.9844810980851" /><line stroke="black" stroke-width="1px" x1="305.3384147239298" x2="214.78504797276878" y1="182.58613615491004" y2="219.75967456578658" /><line stroke="black" stroke-width="1px" x1="286.3232723655033" x2="197.96508299544536" y1="198.4063361863512" y2="235.83195584492913" /><line stroke="black" stroke-width="1px" x1="286.3232723655033" x2="305.3384147239298" y1="198.4063361863512" y2="182.58613615491004" /><line stroke="black" stroke-width="1px" x1="197.96508299544536" x2="214.78504797276878" y1="235.83195584492913" y2="219.75967456578658" /><line stroke="black" stroke-width="1px" x1="341.63186598864655" x2="246.8021838217094" y1="195.47728130091414" y2="220.0412929011734" /><line stroke="black" stroke-width="1px" x1="246.8021838217094" x2="272.2168017115338" y1="220.0412929011734" y2="224.90268354973563" /><line stroke="black" stroke-width="1px" x1="272.2168017115338" x2="341.63186598864655" y1="224.90268354973563" y2="195.47728130091414" /><line stroke="black" stroke-width="1px" x1="341.63186598864655" x2="246.8021838217094" y1="195.47728130091414" y2="220.0412929011734" /><line stroke="black" stroke-width="1px" x1="246.8021838217094" x2="272.2168017115338" y1="220.0412929011734" y2="224.90268354973563" /><line stroke="black" stroke-width="1px" x1="272.2168017115338" x2="341.63186598864655" y1="224.90268354973563" y2="195.47728130091414" /><line stroke="black" stroke-width="1px" x1="341.63186598864655" x2="341.63186598864655" y1="195.47728130091414" y2="195.47728130091414" /><line stroke="black" stroke-width="1px" x1="246.8021838217094" x2="246.8021838217094" y1="220.0412929011734" y2="220.0412929011734" /><line stroke="black" stroke-width="1px" x1="272.2168017115338" x2="272.2168017115338" y1="224.90268354973563" y2="224.90268354973563" /><line stroke="black" stroke-width="1px" x1="225.91320649898776" x2="306.2001879384844" y1="344.33414882156063" y2="296.00162700998203" /><line stroke="black" stroke-width="1px" x1="252.11159619071188" x2="334.79208291366297" y1="330.37035323181294" y2="280.3664018650421" /></svg>