<?xml version="1.0" encoding="utf-8" ?>
<svg baseProfile="full" height="518px" version="1.1" viewBox="0,0,518,518" width="518px" xmlns="http://www.w3.org/2000/svg" xmlns:ev="http://www.w3.org/2001/xml-events" xmlns:xlink="http://www.w3.org/1999/xlink"><defs /><rect fill="white" height="100%" width="100%" x="0" y="0" /><line stroke="black" stroke-width="1px" x1="278.03385723950197" x2="381.7353528961236" y1="210.10770632954672" y2="252.7863589809073" /><line stroke="black" stroke-width="1px" x1="381.7353528961236" x2="287.60538915360144" y1="252.7863589809073" y2="309.8619053921673" /><line stroke="black" stroke-width="1px" x1="287.60538915360144" x2="182.7585926610425" y1="309.8619053921673" y2="251.71707606564695" /><line stroke="black" stroke-width="1px" x1="182.7585926610425" x2="278.03385723950197" y1="251.71707606564695" y2="210.10770632954672" /><line stroke="black" stroke-width="1px" x1="280.4292664560361" x2="399.96744324546495" y1="82.88344202414365" y2="108.95596328383297" /><line stroke="black" stroke-width="1px" x1="399.96744324546495" x2="292.7650264792231" y1="108.95596328383297" y2="145.51217169239243" /><line stroke="black" stroke-width="1px" x1="292.7650264792231" x2="171.47729368067286" y1="145.51217169239243" y2="108.28990184057267" /><line stroke="black" stroke-width="1px" x1="171.47729368067286" x2="280.4292664560361" y1="108.28990184057267" y2="82.88344202414365" /><line stroke="black" stroke-width="1px" x1="278.03385723950197" x2="280.4292664560361" y1="210.10770632954672" y2="82.88344202414365" /><line stroke="black" stroke-width="1px" x1="381.7353528961236" x2="399.96744324546495" y1="252.7863589809073" y2="108.95596328383297" /><line stroke="black" stroke-width="1px" x1="287.60538915360144" x2="292.7650264792231" y1="309.8619053921673" y2="145.51217169239243" /><line stroke="black" stroke-width="1px" x1="182.7585926610425" x2="171.47729368067286" y1="251.71707606564695" y2="108.28990184057267" /><line stroke="black" stroke-width="1px" x1="366.6752410108568" x2="383.2059673129808" y1="261.91803268703467" y2="114.67165539140024" /><line stroke="black" stroke-width="1px" x1="360.76493794608064" x2="375.40733349213053" y1="244.15592361504446" y2="103.59914757120833" /><line stroke="black" stroke-width="1px" x1="399.96744324546495" x2="321.25186698769556" y1="108.95596328383297" y2="274.6325456830335" /><line stroke="black" stroke-width="1px" x1="321.25186698769556" x2="194.47470157041226" y1="274.6325456830335" y2="427.69770428821914" /><line stroke="black" stroke-width="1px" x1="194.47470157041226" x2="399.96744324546495" y1="427.69770428821914" y2="108.95596328383297" /><line stroke="black" stroke-width="1px" x1="399.96744324546495" x2="321.25186698769556" y1="108.95596328383297" y2="274.6325456830335" /><line stroke="black" stroke-width="1px" x1="321.25186698769556" x2="194.47470157041226" y1="274.6325456830335" y2="427.69770428821914" /><line stroke="black" stroke-width="1px" x1="194.47470157041226" x2="399.96744324546495" y1="427.69770428821914" y2="108.95596328383297" /><line stroke="black" stroke-width="1px" x1="399.96744324546495" x2="399.96744324546495" y1="108.95596328383297" y2="108.95596328383297" /><line stroke="black" stroke-width="1px" x1="321.25186698769556" x2="321.25186698769556" y1="274.6325456830335" y2="274.6325456830335" /><line stroke="black" stroke-width="1px" x1="194.47470157041226" x2="194.47470157041226" y1="427.69770428821914" y2="427.69770428821914" /><line stroke="black" stroke-width="1px" x1="203.52298251628545" x2="195.58566812187382" y1="242.6486869233651" y2="102.6680812266159" /><line stroke="black" stroke-width="1px" x1="200.1151837878109" x2="191.093496962018" y1="261.3425111053124" y2="114.30996335181487" /><line stroke="black" stroke-width="1px" x1="292.7650264792231" x2="238.11203898267826" y1="145.51217169239243" y2="338.6741645984123" /><line stroke="black" stroke-width="1px" x1="238.11203898267826" x2="192.89598735454285" y1="338.6741645984123" y2="357.8370163984152" /><line stroke="black" stroke-width="1px" x1="192.89598735454285" x2="292.7650264792231" y1="357.8370163984152" y2="145.51217169239243" /><line stroke="black" stroke-width="1px" x1="292.7650264792231" x2="238.11203898267826" y1="145.51217169239243" y2="338.6741645984123" /><line stroke="black" stroke-width="1px" x1="238.11203898267826" x2="192.89598735454285" y1="338.6741645984123" y2="357.8370163984152" /><line stroke="black" stroke-width="1px" x1="192.89598735454285" x2="292.7650264792231" y1="357.8370163984152" y2="145.51217169239243" /><line stroke="black" stroke-width="1px" x1="292.7650264792231" x2="292.7650264792231" y1="145.51217169239243" y2="145.51217169239243" /><line stroke="black" stroke-width="1px" x1="238.11203898267826" x2="238.11203898267826" y1="338.6741645984123" y2="338.6741645984123" /><line stroke="black" stroke-width="1px" x1="192.89598735454285" x2="192.89598735454285" y1="357.8370163984152" y2="357.8370163984152" /><line stroke="black" stroke-width="1px" x1="181.25470326469406" x2="278.35860781813045" y1="232.59706099994878" y2="192.8596498540246" /><line stroke="black" stroke-width="1px" x1="196.47163454297268" x2="291.8865807421364" y1="259.32191003717264" y2="215.80883504423684" /></svg>