<?xml version="1.0" encoding="utf-8" ?>
<svg baseProfile="full" height="518px" version="1.1" viewBox="0,0,518,518" width="518px" xmlns="http://www.w3.org/2000/svg" xmlns:ev="http://www.w3.org/2001/xml-events" xmlns:xlink="http://www.w3.org/1999/xlink"><defs /><rect fill="white" height="100%" width="100%" x="0" y="0" /><line stroke="black" stroke-width="1px" x1="167.99824828183029" x2="152.84454654276868" y1="333.28369237622445" y2="185.45558352737203" /><line stroke="black" stroke-width="1px" x1="152.84454654276868" x2="243.66634758033828" y1="185.45558352737203" y2="227.39332831765464" /><line stroke="black" stroke-width="1px" x1="243.66634758033828" x2="246.16612106736025" y1="227.39332831765464" y2="389.380979135048" /><line stroke="black" stroke-width="1px" x1="246.16612106736025" x2="167.99824828183029" y1="389.380979135048" y2="333.28369237622445" /><line stroke="black" stroke-width="1px" x1="268.6926241997858" x2="270.05357077115514" y1="278.9790358121178" y2="146.70539385278943" /><line stroke="black" stroke-width="1px" x1="270.05357077115514" x2="360.9863069691755" y1="146.70539385278943" y2="175.74974041216402" /><line stroke="black" stroke-width="1px" x1="360.9863069691755" x2="346.9206665495882" y1="175.74974041216402" y2="319.91137013398065" /><line stroke="black" stroke-width="1px" x1="346.9206665495882" x2="268.6926241997858" y1="319.91137013398065" y2="278.9790358121178" /><line stroke="black" stroke-width="1px" x1="167.99824828183029" x2="268.6926241997858" y1="333.28369237622445" y2="278.9790358121178" /><line stroke="black" stroke-width="1px" x1="152.84454654276868" x2="270.05357077115514" y1="185.45558352737203" y2="146.70539385278943" /><line stroke="black" stroke-width="1px" x1="243.66634758033828" x2="360.9863069691755" y1="227.39332831765464" y2="175.74974041216402" /><line stroke="black" stroke-width="1px" x1="246.16612106736025" x2="346.9206665495882" y1="389.380979135048" y2="319.91137013398065" /><line stroke="black" stroke-width="1px" x1="193.46748005805563" x2="182.99509477739304" y1="319.5480902440212" y2="175.48758430055662" /><line stroke="black" stroke-width="1px" x1="188.56866873369637" x2="176.32580572858294" y1="348.0460843118984" y2="196.2982561438488" /><line stroke="black" stroke-width="1px" x1="268.09677484869894" x2="174.42139013454477" y1="152.68896476551828" y2="184.44943532148517" /><line stroke="black" stroke-width="1px" x1="174.42139013454477" x2="247.19036209944917" y1="184.44943532148517" y2="216.61745203408233" /><line stroke="black" stroke-width="1px" x1="247.19036209944917" x2="340.91074160656746" y1="216.61745203408233" y2="176.68588262341177" /><line stroke="black" stroke-width="1px" x1="340.91074160656746" x2="268.09677484869894" y1="176.68588262341177" y2="152.68896476551828" /><line stroke="black" stroke-width="1px" x1="268.09677484869894" x2="174.42139013454477" y1="152.68896476551828" y2="184.44943532148517" /><line stroke="black" stroke-width="1px" x1="174.42139013454477" x2="247.19036209944917" y1="184.44943532148517" y2="216.61745203408233" /><line stroke="black" stroke-width="1px" x1="247.19036209944917" x2="340.91074160656746" y1="216.61745203408233" y2="176.68588262341177" /><line stroke="black" stroke-width="1px" x1="340.91074160656746" x2="268.09677484869894" y1="176.68588262341177" y2="152.68896476551828" /><line stroke="black" stroke-width="1px" x1="268.09677484869894" x2="268.09677484869894" y1="152.68896476551828" y2="152.68896476551828" /><line stroke="black" stroke-width="1px" x1="174.42139013454477" x2="174.42139013454477" y1="184.44943532148517" y2="184.44943532148517" /><line stroke="black" stroke-width="1px" x1="247.19036209944917" x2="247.19036209944917" y1="216.61745203408233" y2="216.61745203408233" /><line stroke="black" stroke-width="1px" x1="340.91074160656746" x2="340.91074160656746" y1="176.68588262341177" y2="176.68588262341177" /><line stroke="black" stroke-width="1px" x1="336.6006948037102" x2="325.4836879013675" y1="186.48415007320446" y2="334.69202859190403" /><line stroke="black" stroke-width="1px" x1="330.1656632029048" x2="320.70355612173546" y1="165.90548084010814" y2="306.193430930191" /></svg>