<?xml version="1.0" encoding="utf-8" ?>
<svg baseProfile="full" height="518px" version="1.1" viewBox="0,0,518,518" width="518px" xmlns="http://www.w3.org/2000/svg" xmlns:ev="http://www.w3.org/2001/xml-events" xmlns:xlink="http://www.w3.org/1999/xlink"><defs /><rect fill="white" height="100%" width="100%" x="0" y="0" /><line stroke="black" stroke-width="1px" x1="218.44425754647216" x2="213.7720023395143" y1="266.40455536023575" y2="156.42640068371117" /><line stroke="black" stroke-width="1px" x1="213.7720023395143" x2="342.2679429728205" y1="156.42640068371117" y2="203.43889532688806" /><line stroke="black" stroke-width="1px" x1="342.2679429728205" x2="332.03958031071386" y1="203.43889532688806" y2="328.4362592823196" /><line stroke="black" stroke-width="1px" x1="332.03958031071386" x2="218.44425754647216" y1="328.4362592823196" y2="266.40455536023575" /><line stroke="black" stroke-width="1px" x1="242.62414135096066" x2="240.81184849234367" y1="254.77109044760152" y2="147.83678791528132" /><line stroke="black" stroke-width="1px" x1="240.81184849234367" x2="368.75996580507103" y1="147.83678791528132" y2="190.85399902012017" /><line stroke="black" stroke-width="1px" x1="368.75996580507103" x2="355.8420964596196" y1="190.85399902012017" y2="312.0972665545526" /><line stroke="black" stroke-width="1px" x1="355.8420964596196" x2="242.62414135096066" y1="312.0972665545526" y2="254.77109044760152" /><line stroke="black" stroke-width="1px" x1="218.44425754647216" x2="242.62414135096066" y1="266.40455536023575" y2="254.77109044760152" /><line stroke="black" stroke-width="1px" x1="213.7720023395143" x2="240.81184849234367" y1="156.42640068371117" y2="147.83678791528132" /><line stroke="black" stroke-width="1px" x1="342.2679429728205" x2="368.75996580507103" y1="203.43889532688806" y2="190.85399902012017" /><line stroke="black" stroke-width="1px" x1="332.03958031071386" x2="355.8420964596196" y1="328.4362592823196" y2="312.0972665545526" /><line stroke="black" stroke-width="1px" x1="233.98694833889692" x2="261.0844133973449" y1="163.8223933961981" y2="154.6525912461228" /><line stroke="black" stroke-width="1px" x1="214.95160910492433" x2="241.26800605433226" y1="184.19264408380286" y2="174.75235539884864" /><line stroke="black" stroke-width="1px" x1="218.44425754647216" x2="193.07847361811355" y1="266.40455536023575" y2="330.00678191305934" /><line stroke="black" stroke-width="1px" x1="193.07847361811355" x2="270.0904743742524" y1="330.00678191305934" y2="294.9487250051893" /><line stroke="black" stroke-width="1px" x1="270.0904743742524" x2="218.44425754647216" y1="294.9487250051893" y2="266.40455536023575" /><line stroke="black" stroke-width="1px" x1="218.44425754647216" x2="193.07847361811355" y1="266.40455536023575" y2="330.00678191305934" /><line stroke="black" stroke-width="1px" x1="193.07847361811355" x2="270.0904743742524" y1="330.00678191305934" y2="294.9487250051893" /><line stroke="black" stroke-width="1px" x1="270.0904743742524" x2="218.44425754647216" y1="294.9487250051893" y2="266.40455536023575" /><line stroke="black" stroke-width="1px" x1="218.44425754647216" x2="218.44425754647216" y1="266.40455536023575" y2="266.40455536023575" /><line stroke="black" stroke-width="1px" x1="193.07847361811355" x2="193.07847361811355" y1="330.00678191305934" y2="330.00678191305934" /><line stroke="black" stroke-width="1px" x1="270.0904743742524" x2="270.0904743742524" y1="294.9487250051893" y2="294.9487250051893" /><line stroke="black" stroke-width="1px" x1="348.9788682546345" x2="338.04291196814114" y1="200.250905518451" y2="324.31533392806506" /><line stroke="black" stroke-width="1px" x1="342.74629541919984" x2="333.19244190926315" y1="182.1079887301399" y2="300.62896115838817" /><line stroke="black" stroke-width="1px" x1="342.74629541919984" x2="348.9788682546345" y1="182.1079887301399" y2="200.250905518451" /><line stroke="black" stroke-width="1px" x1="333.19244190926315" x2="338.04291196814114" y1="300.62896115838817" y2="324.31533392806506" /></svg>