<?xml version="1.0" encoding="utf-8" ?>
<svg baseProfile="full" height="518px" version="1.1" viewBox="0,0,518,518" width="518px" xmlns="http://www.w3.org/2000/svg" xmlns:ev="http://www.w3.org/2001/xml-events" xmlns:xlink="http://www.w3.org/1999/xlink"><defs /><rect fill="white" height="100%" width="100%" x="0" y="0" /><line stroke="black" stroke-width="1px" x1="322.60922369881206" x2="405.7516023402512" y1="212.92485090546174" y2="245.31098638605351" /><line stroke="black" stroke-width="1px" x1="405.7516023402512" x2="277.30959759333854" y1="245.31098638605351" y2="325.03195132814284" /><line stroke="black" stroke-width="1px" x1="277.30959759333854" x2="191.98279374486413" y1="325.03195132814284" y2="275.01152842366884" /><line stroke="black" stroke-width="1px" x1="191.98279374486413" x2="322.60922369881206" y1="275.01152842366884" y2="212.92485090546174" /><line stroke="black" stroke-width="1px" x1="324.6540720406268" x2="411.04569622316154" y1="180.51730799433682" y2="210.11178632223582" /><line stroke="black" stroke-width="1px" x1="411.04569622316154" x2="278.14951866614535" y1="210.11178632223582" y2="283.9296713637218" /><line stroke="black" stroke-width="1px" x1="278.14951866614535" x2="189.3219425138288" y1="283.9296713637218" y2="237.4508778645206" /><line stroke="black" stroke-width="1px" x1="189.3219425138288" x2="324.6540720406268" y1="237.4508778645206" y2="180.51730799433682" /><line stroke="black" stroke-width="1px" x1="322.60922369881206" x2="324.6540720406268" y1="212.92485090546174" y2="180.51730799433682" /><line stroke="black" stroke-width="1px" x1="405.7516023402512" x2="411.04569622316154" y1="245.31098638605351" y2="210.11178632223582" /><line stroke="black" stroke-width="1px" x1="277.30959759333854" x2="278.14951866614535" y1="325.03195132814284" y2="283.9296713637218" /><line stroke="black" stroke-width="1px" x1="191.98279374486413" x2="189.3219425138288" y1="275.01152842366884" y2="237.4508778645206" /><line stroke="black" stroke-width="1px" x1="409.79330359101033" x2="277.94939215565114" y1="218.43865392083396" y2="293.72303901331196" /><line stroke="black" stroke-width="1px" x1="380.7029867714854" x2="251.1148095709342" y1="235.5538941466094" y2="309.6759985011679" /><line stroke="black" stroke-width="1px" x1="191.98279374486413" x2="180.90316741447737" y1="275.01152842366884" y2="274.3405848926051" /><line stroke="black" stroke-width="1px" x1="180.90316741447737" x2="180.8319455973602" y1="274.3405848926051" y2="276.3603831953028" /><line stroke="black" stroke-width="1px" x1="180.8319455973602" x2="191.98279374486413" y1="276.3603831953028" y2="275.01152842366884" /><line stroke="black" stroke-width="1px" x1="191.98279374486413" x2="180.90316741447737" y1="275.01152842366884" y2="274.3405848926051" /><line stroke="black" stroke-width="1px" x1="180.90316741447737" x2="180.8319455973602" y1="274.3405848926051" y2="276.3603831953028" /><line stroke="black" stroke-width="1px" x1="180.8319455973602" x2="191.98279374486413" y1="276.3603831953028" y2="275.01152842366884" /><line stroke="black" stroke-width="1px" x1="191.98279374486413" x2="191.98279374486413" y1="275.01152842366884" y2="275.01152842366884" /><line stroke="black" stroke-width="1px" x1="180.90316741447737" x2="180.90316741447737" y1="274.3405848926051" y2="274.3405848926051" /><line stroke="black" stroke-width="1px" x1="180.8319455973602" x2="180.8319455973602" y1="276.3603831953028" y2="276.3603831953028" /><line stroke="black" stroke-width="1px" x1="323.3065443173366" x2="407.5524426466134" y1="201.8734455735678" y2="233.3376176418293" /><line stroke="black" stroke-width="1px" x1="309.49005269187694" x2="396.5356646965817" y1="186.8967373148066" y2="218.17146011321356" /><line stroke="black" stroke-width="1px" x1="309.49005269187694" x2="323.3065443173366" y1="186.8967373148066" y2="201.8734455735678" /><line stroke="black" stroke-width="1px" x1="396.5356646965817" x2="407.5524426466134" y1="218.17146011321356" y2="233.3376176418293" /></svg>