<?xml version="1.0" encoding="utf-8" ?>
<svg baseProfile="full" height="518px" version="1.1" viewBox="0,0,518,518" width="518px" xmlns="http://www.w3.org/2000/svg" xmlns:ev="http://www.w3.org/2001/xml-events" xmlns:xlink="http://www.w3.org/1999/xlink"><defs /><rect fill="white" height="100%" width="100%" x="0" y="0" /><line stroke="black" stroke-width="1px" x1="238.44897000792793" x2="235.49975363966934" y1="260.4524168214178" y2="122.60306862278134" /><line stroke="black" stroke-width="1px" x1="235.49975363966934" x2="95.99185861757454" y1="122.60306862278134" y2="161.27089462253323" /><line stroke="black" stroke-width="1px" x1="95.99185861757454" x2="120.10647805052565" y1="161.27089462253323" y2="318.04617021874674" /><line stroke="black" stroke-width="1px" x1="120.10647805052565" x2="238.44897000792793" y1="318.04617021874674" y2="260.4524168214178" /><line stroke="black" stroke-width="1px" x1="322.39851377526224" x2="332.9313648144693" y1="304.01313052214203" y2="151.66280708097293" /><line stroke="black" stroke-width="1px" x1="332.9313648144693" x2="190.37510344812918" y1="151.66280708097293" y2="205.26111542291434" /><line stroke="black" stroke-width="1px" x1="190.37510344812918" x2="202.1855143062709" y1="205.26111542291434" y2="380.0756255365596" /><line stroke="black" stroke-width="1px" x1="202.1855143062709" x2="322.39851377526224" y1="380.0756255365596" y2="304.01313052214203" /><line stroke="black" stroke-width="1px" x1="238.44897000792793" x2="322.39851377526224" y1="260.4524168214178" y2="304.01313052214203" /><line stroke="black" stroke-width="1px" x1="235.49975363966934" x2="332.9313648144693" y1="122.60306862278134" y2="151.66280708097293" /><line stroke="black" stroke-width="1px" x1="95.99185861757454" x2="190.37510344812918" y1="161.27089462253323" y2="205.26111542291434" /><line stroke="black" stroke-width="1px" x1="120.10647805052565" x2="202.1855143062709" y1="318.04617021874674" y2="380.0756255365596" /><line stroke="black" stroke-width="1px" x1="255.82130721389373" x2="115.15849642069725" y1="128.66413058009223" y2="170.20409701956874" /><line stroke="black" stroke-width="1px" x1="236.0952753322263" x2="100.96300612094336" y1="150.43835329048488" y2="193.5895891819481" /><line stroke="black" stroke-width="1px" x1="332.9313648144693" x2="296.7649857272214" y1="151.66280708097293" y2="188.20050334358086" /><line stroke="black" stroke-width="1px" x1="296.7649857272214" x2="273.2746150910695" y1="188.20050334358086" y2="159.85081564377475" /><line stroke="black" stroke-width="1px" x1="273.2746150910695" x2="332.9313648144693" y1="159.85081564377475" y2="151.66280708097293" /><line stroke="black" stroke-width="1px" x1="437.8665793338227" x2="393.20263774676215" y1="182.9605538001131" y2="223.68408901295402" /><line stroke="black" stroke-width="1px" x1="393.20263774676215" x2="373.07040811070965" y1="223.68408901295402" y2="193.5703853885048" /><line stroke="black" stroke-width="1px" x1="373.07040811070965" x2="437.8665793338227" y1="193.5703853885048" y2="182.9605538001131" /><line stroke="black" stroke-width="1px" x1="332.9313648144693" x2="437.8665793338227" y1="151.66280708097293" y2="182.9605538001131" /><line stroke="black" stroke-width="1px" x1="296.7649857272214" x2="393.20263774676215" y1="188.20050334358086" y2="223.68408901295402" /><line stroke="black" stroke-width="1px" x1="273.2746150910695" x2="373.07040811070965" y1="159.85081564377475" y2="193.5703853885048" /><line stroke="black" stroke-width="1px" x1="135.67309936321664" x2="218.33732343154406" y1="310.47036093601304" y2="369.8558747068516" /><line stroke="black" stroke-width="1px" x1="117.75884192550382" x2="201.06524910874472" y1="302.78359054075247" y2="363.4937628007768" /><line stroke="black" stroke-width="1px" x1="117.75884192550382" x2="135.67309936321664" y1="302.78359054075247" y2="310.47036093601304" /><line stroke="black" stroke-width="1px" x1="201.06524910874472" x2="218.33732343154406" y1="363.4937628007768" y2="369.8558747068516" /></svg>