<?xml version="1.0" encoding="utf-8" ?>
<svg baseProfile="full" height="518px" version="1.1" viewBox="0,0,518,518" width="518px" xmlns="http://www.w3.org/2000/svg" xmlns:ev="http://www.w3.org/2001/xml-events" xmlns:xlink="http://www.w3.org/1999/xlink"><defs /><rect fill="white" height="100%" width="100%" x="0" y="0" /><line stroke="black" stroke-width="1px" x1="254.74147643655087" x2="254.2226483769372" y1="257.88732197295053" y2="140.54511350056956" /><line stroke="black" stroke-width="1px" x1="254.2226483769372" x2="161.49579300497942" y1="140.54511350056956" y2="169.5661311261282" /><line stroke="black" stroke-width="1px" x1="161.49579300497942" x2="173.4187376834709" y1="169.5661311261282" y2="298.14032851237835" /><line stroke="black" stroke-width="1px" x1="173.4187376834709" x2="254.74147643655087" y1="298.14032851237835" y2="257.88732197295053" /><line stroke="black" stroke-width="1px" x1="375.76424606873087" x2="393.09335032099244" y1="318.5918177668202" y2="184.66027415420567" /><line stroke="black" stroke-width="1px" x1="393.09335032099244" x2="301.5490281791225" y1="184.66027415420567" y2="229.1162681632826" /><line stroke="black" stroke-width="1px" x1="301.5490281791225" x2="295.2059428094258" y1="229.1162681632826" y2="376.98762751808874" /><line stroke="black" stroke-width="1px" x1="295.2059428094258" x2="375.76424606873087" y1="376.98762751808874" y2="318.5918177668202" /><line stroke="black" stroke-width="1px" x1="254.74147643655087" x2="375.76424606873087" y1="257.88732197295053" y2="318.5918177668202" /><line stroke="black" stroke-width="1px" x1="254.2226483769372" x2="393.09335032099244" y1="140.54511350056956" y2="184.66027415420567" /><line stroke="black" stroke-width="1px" x1="161.49579300497942" x2="301.5490281791225" y1="169.5661311261282" y2="229.1162681632826" /><line stroke="black" stroke-width="1px" x1="173.4187376834709" x2="295.2059428094258" y1="298.14032851237835" y2="376.98762751808874" /><line stroke="black" stroke-width="1px" x1="192.88992681197544" x2="314.8516310322757" y1="288.5025086930053" y2="362.74668865171844" /><line stroke="black" stroke-width="1px" x1="171.45133577366587" x2="296.22579753426265" y1="276.9243346190506" y2="353.2125565996811" /><line stroke="black" stroke-width="1px" x1="171.45133577366587" x2="192.88992681197544" y1="276.9243346190506" y2="288.5025086930053" /><line stroke="black" stroke-width="1px" x1="296.22579753426265" x2="314.8516310322757" y1="353.2125565996811" y2="362.74668865171844" /><line stroke="black" stroke-width="1px" x1="301.5490281791225" x2="199.326485067125" y1="229.1162681632826" y2="212.41846182605263" /><line stroke="black" stroke-width="1px" x1="199.326485067125" x2="183.19202486137254" y1="212.41846182605263" y2="265.0688640140712" /><line stroke="black" stroke-width="1px" x1="183.19202486137254" x2="301.5490281791225" y1="265.0688640140712" y2="229.1162681632826" /><line stroke="black" stroke-width="1px" x1="301.5490281791225" x2="199.326485067125" y1="229.1162681632826" y2="212.41846182605263" /><line stroke="black" stroke-width="1px" x1="199.326485067125" x2="183.19202486137254" y1="212.41846182605263" y2="265.0688640140712" /><line stroke="black" stroke-width="1px" x1="183.19202486137254" x2="301.5490281791225" y1="265.0688640140712" y2="229.1162681632826" /><line stroke="black" stroke-width="1px" x1="301.5490281791225" x2="301.5490281791225" y1="229.1162681632826" y2="229.1162681632826" /><line stroke="black" stroke-width="1px" x1="199.326485067125" x2="199.326485067125" y1="212.41846182605263" y2="212.41846182605263" /><line stroke="black" stroke-width="1px" x1="183.19202486137254" x2="183.19202486137254" y1="265.0688640140712" y2="265.0688640140712" /><line stroke="black" stroke-width="1px" x1="355.1726154142597" x2="369.0022665865776" y1="308.263145234764" y2="177.0072414094583" /><line stroke="black" stroke-width="1px" x1="360.6971218411337" x2="376.2900632808603" y1="329.51380698823374" y2="192.82033051282116" /><line stroke="black" stroke-width="1px" x1="360.6971218411337" x2="355.1726154142597" y1="329.51380698823374" y2="308.263145234764" /><line stroke="black" stroke-width="1px" x1="376.2900632808603" x2="369.0022665865776" y1="192.82033051282116" y2="177.0072414094583" /><line stroke="black" stroke-width="1px" x1="295.2059428094258" x2="147.05896051150472" y1="376.98762751808874" y2="251.25510933554196" /><line stroke="black" stroke-width="1px" x1="147.05896051150472" x2="236.5719029693086" y1="251.25510933554196" y2="295.6311002794154" /><line stroke="black" stroke-width="1px" x1="236.5719029693086" x2="295.2059428094258" y1="295.6311002794154" y2="376.98762751808874" /><line stroke="black" stroke-width="1px" x1="432.52951920475823" x2="210.20728203119927" y1="465.89346189845867" y2="288.58163762125656" /><line stroke="black" stroke-width="1px" x1="210.20728203119927" x2="328.68659404032877" y1="288.58163762125656" y2="348.80925614539706" /><line stroke="black" stroke-width="1px" x1="328.68659404032877" x2="432.52951920475823" y1="348.80925614539706" y2="465.89346189845867" /><line stroke="black" stroke-width="1px" x1="295.2059428094258" x2="432.52951920475823" y1="376.98762751808874" y2="465.89346189845867" /><line stroke="black" stroke-width="1px" x1="147.05896051150472" x2="210.20728203119927" y1="251.25510933554196" y2="288.58163762125656" /><line stroke="black" stroke-width="1px" x1="236.5719029693086" x2="328.68659404032877" y1="295.6311002794154" y2="348.80925614539706" /><line stroke="black" stroke-width="1px" x1="156.91291108358428" x2="222.95057029202428" y1="256.1401997966684" y2="295.0595441105936" /><line stroke="black" stroke-width="1px" x1="153.92785002052534" x2="219.8315117778891" y1="257.0847439436237" y2="296.25738681910354" /></svg>