<?xml version="1.0" encoding="utf-8" ?>
<svg baseProfile="full" height="518px" version="1.1" viewBox="0,0,518,518" width="518px" xmlns="http://www.w3.org/2000/svg" xmlns:ev="http://www.w3.org/2001/xml-events" xmlns:xlink="http://www.w3.org/1999/xlink"><defs /><rect fill="white" height="100%" width="100%" x="0" y="0" /><line stroke="black" stroke-width="1px" x1="241.29829276352876" x2="363.634940481803" y1="152.3213613389812" y2="194.29957224553766" /><line stroke="black" stroke-width="1px" x1="363.634940481803" x2="283.3417708609897" y1="194.29957224553766" y2="232.59366041584792" /><line stroke="black" stroke-width="1px" x1="283.3417708609897" x2="160.84612048220805" y1="232.59366041584792" y2="178.4445059676823" /><line stroke="black" stroke-width="1px" x1="160.84612048220805" x2="241.29829276352876" y1="178.4445059676823" y2="152.3213613389812" /><line stroke="black" stroke-width="1px" x1="243.34655182633045" x2="349.4740949699552" y1="275.98110915994533" y2="333.25264750855297" /><line stroke="black" stroke-width="1px" x1="349.4740949699552" x2="279.62978304353794" y1="333.25264750855297" y2="383.3245717239371" /><line stroke="black" stroke-width="1px" x1="279.62978304353794" x2="173.4123951577081" y1="383.3245717239371" y2="311.9226147430094" /><line stroke="black" stroke-width="1px" x1="173.4123951577081" x2="243.34655182633045" y1="311.9226147430094" y2="275.98110915994533" /><line stroke="black" stroke-width="1px" x1="241.29829276352876" x2="243.34655182633045" y1="152.3213613389812" y2="275.98110915994533" /><line stroke="black" stroke-width="1px" x1="363.634940481803" x2="349.4740949699552" y1="194.29957224553766" y2="333.25264750855297" /><line stroke="black" stroke-width="1px" x1="283.3417708609897" x2="279.62978304353794" y1="232.59366041584792" y2="383.3245717239371" /><line stroke="black" stroke-width="1px" x1="160.84612048220805" x2="173.4123951577081" y1="178.4445059676823" y2="311.9226147430094" /><line stroke="black" stroke-width="1px" x1="252.47720750055885" x2="338.32392334084534" y1="269.78095969544995" y2="314.6032374490223" /><line stroke="black" stroke-width="1px" x1="338.32392334084534" x2="347.9180688829932" y1="314.6032374490223" y2="204.97207556881486" /><line stroke="black" stroke-width="1px" x1="347.9180688829932" x2="251.79212926237855" y1="204.97207556881486" y2="169.8730068628754" /><line stroke="black" stroke-width="1px" x1="251.79212926237855" x2="252.47720750055885" y1="169.8730068628754" y2="269.78095969544995" /><line stroke="black" stroke-width="1px" x1="252.47720750055885" x2="338.32392334084534" y1="269.78095969544995" y2="314.6032374490223" /><line stroke="black" stroke-width="1px" x1="338.32392334084534" x2="347.9180688829932" y1="314.6032374490223" y2="204.97207556881486" /><line stroke="black" stroke-width="1px" x1="347.9180688829932" x2="251.79212926237855" y1="204.97207556881486" y2="169.8730068628754" /><line stroke="black" stroke-width="1px" x1="251.79212926237855" x2="252.47720750055885" y1="169.8730068628754" y2="269.78095969544995" /><line stroke="black" stroke-width="1px" x1="252.47720750055885" x2="252.47720750055885" y1="269.78095969544995" y2="269.78095969544995" /><line stroke="black" stroke-width="1px" x1="338.32392334084534" x2="338.32392334084534" y1="314.6032374490223" y2="314.6032374490223" /><line stroke="black" stroke-width="1px" x1="347.9180688829932" x2="347.9180688829932" y1="204.97207556881486" y2="204.97207556881486" /><line stroke="black" stroke-width="1px" x1="251.79212926237855" x2="251.79212926237855" y1="169.8730068628754" y2="169.8730068628754" /></svg>