<?xml version="1.0" encoding="utf-8" ?>
<svg baseProfile="full" height="518px" version="1.1" viewBox="0,0,518,518" width="518px" xmlns="http://www.w3.org/2000/svg" xmlns:ev="http://www.w3.org/2001/xml-events" xmlns:xlink="http://www.w3.org/1999/xlink"><defs /><rect fill="white" height="100%" width="100%" x="0" y="0" /><line stroke="black" stroke-width="1px" x1="254.02701061523422" x2="253.3048573517459" y1="273.748478122467" y2="136.18912399529853" /><line stroke="black" stroke-width="1px" x1="253.3048573517459" x2="133.46104933867744" y1="136.18912399529853" y2="172.83701697705715" /><line stroke="black" stroke-width="1px" x1="133.46104933867744" x2="151.89503041522653" y1="172.83701697705715" y2="326.75210067422245" /><line stroke="black" stroke-width="1px" x1="151.89503041522653" x2="254.02701061523422" y1="326.75210067422245" y2="273.748478122467" /><line stroke="black" stroke-width="1px" x1="368.0635731318443" x2="387.2382641029417" y1="333.8551963408741" y2="177.87947110695765" /><line stroke="black" stroke-width="1px" x1="387.2382641029417" x2="267.5040753661136" y1="177.87947110695765" y2="233.77932089033683" /><line stroke="black" stroke-width="1px" x1="267.5040753661136" x2="265.9886698478758" y1="233.77932089033683" y2="409.7046827682908" /><line stroke="black" stroke-width="1px" x1="265.9886698478758" x2="368.0635731318443" y1="409.7046827682908" y2="333.8551963408741" /><line stroke="black" stroke-width="1px" x1="254.02701061523422" x2="368.0635731318443" y1="273.748478122467" y2="333.8551963408741" /><line stroke="black" stroke-width="1px" x1="253.3048573517459" x2="387.2382641029417" y1="136.18912399529853" y2="177.87947110695765" /><line stroke="black" stroke-width="1px" x1="133.46104933867744" x2="267.5040753661136" y1="172.83701697705715" y2="233.77932089033683" /><line stroke="black" stroke-width="1px" x1="151.89503041522653" x2="265.9886698478758" y1="326.75210067422245" y2="409.7046827682908" /><line stroke="black" stroke-width="1px" x1="137.34732053058121" x2="267.1750519768414" y1="205.2855560792646" y2="271.97606633398124" /><line stroke="black" stroke-width="1px" x1="162.33610840502394" x2="297.233380224868" y1="164.00710667922988" y2="219.89971228981108" /><line stroke="black" stroke-width="1px" x1="263.91016645204905" x2="356.28214749187356" y1="266.6358032436708" y2="313.5622877190409" /><line stroke="black" stroke-width="1px" x1="356.28214749187356" x2="369.4556733214444" y1="313.5622877190409" y2="190.67718358057095" /><line stroke="black" stroke-width="1px" x1="369.4556733214444" x2="264.48223932931876" y1="190.67718358057095" y2="155.44159801955198" /><line stroke="black" stroke-width="1px" x1="264.48223932931876" x2="263.91016645204905" y1="155.44159801955198" y2="266.6358032436708" /><line stroke="black" stroke-width="1px" x1="263.91016645204905" x2="356.28214749187356" y1="266.6358032436708" y2="313.5622877190409" /><line stroke="black" stroke-width="1px" x1="356.28214749187356" x2="369.4556733214444" y1="313.5622877190409" y2="190.67718358057095" /><line stroke="black" stroke-width="1px" x1="369.4556733214444" x2="264.48223932931876" y1="190.67718358057095" y2="155.44159801955198" /><line stroke="black" stroke-width="1px" x1="264.48223932931876" x2="263.91016645204905" y1="155.44159801955198" y2="266.6358032436708" /><line stroke="black" stroke-width="1px" x1="263.91016645204905" x2="263.91016645204905" y1="266.6358032436708" y2="266.6358032436708" /><line stroke="black" stroke-width="1px" x1="356.28214749187356" x2="356.28214749187356" y1="313.5622877190409" y2="313.5622877190409" /><line stroke="black" stroke-width="1px" x1="369.4556733214444" x2="369.4556733214444" y1="190.67718358057095" y2="190.67718358057095" /><line stroke="black" stroke-width="1px" x1="264.48223932931876" x2="264.48223932931876" y1="155.44159801955198" y2="155.44159801955198" /><line stroke="black" stroke-width="1px" x1="164.3533674324935" x2="266.80134082223196" y1="335.81002212645615" y2="280.4816087012589" /><line stroke="black" stroke-width="1px" x1="149.8644166390091" x2="253.94580290665417" y1="309.79742940569633" y2="258.2796289083036" /><line stroke="black" stroke-width="1px" x1="149.8644166390091" x2="164.3533674324935" y1="309.79742940569633" y2="335.81002212645615" /><line stroke="black" stroke-width="1px" x1="253.94580290665417" x2="266.80134082223196" y1="258.2796289083036" y2="280.4816087012589" /></svg>