<?xml version="1.0" encoding="utf-8" ?>
<svg baseProfile="full" height="518px" version="1.1" viewBox="0,0,518,518" width="518px" xmlns="http://www.w3.org/2000/svg" xmlns:ev="http://www.w3.org/2001/xml-events" xmlns:xlink="http://www.w3.org/1999/xlink"><defs /><rect fill="white" height="100%" width="100%" x="0" y="0" /><line stroke="black" stroke-width="1px" x1="254.20164622988563" x2="363.1507177642811" y1="231.0318422245718" y2="281.1301311546998" /><line stroke="black" stroke-width="1px" x1="363.1507177642811" x2="265.6396675984088" y1="281.1301311546998" y2="343.35519343612646" /><line stroke="black" stroke-width="1px" x1="265.6396675984088" x2="156.643013461189" y1="343.35519343612646" y2="275.2261657423778" /><line stroke="black" stroke-width="1px" x1="156.643013461189" x2="254.20164622988563" y1="275.2261657423778" y2="231.0318422245718" /><line stroke="black" stroke-width="1px" x1="254.03123800333606" x2="367.50907291337006" y1="195.87321343208401" y2="241.79857329546823" /><line stroke="black" stroke-width="1px" x1="367.50907291337006" x2="265.97046187914145" y1="241.79857329546823" y2="299.62872121218993" /><line stroke="black" stroke-width="1px" x1="265.97046187914145" x2="152.43652035885384" y1="299.62872121218993" y2="236.35720087789426" /><line stroke="black" stroke-width="1px" x1="152.43652035885384" x2="254.03123800333606" y1="236.35720087789426" y2="195.87321343208401" /><line stroke="black" stroke-width="1px" x1="254.20164622988563" x2="254.03123800333606" y1="231.0318422245718" y2="195.87321343208401" /><line stroke="black" stroke-width="1px" x1="363.1507177642811" x2="367.50907291337006" y1="281.1301311546998" y2="241.79857329546823" /><line stroke="black" stroke-width="1px" x1="265.6396675984088" x2="265.97046187914145" y1="343.35519343612646" y2="299.62872121218993" /><line stroke="black" stroke-width="1px" x1="156.643013461189" x2="152.43652035885384" y1="275.2261657423778" y2="236.35720087789426" /><line stroke="black" stroke-width="1px" x1="366.02712117364337" x2="265.85741669581574" y1="255.17230457751702" y2="314.57174579470103" /><line stroke="black" stroke-width="1px" x1="339.3940188306494" x2="241.3824319961214" y1="270.2060365255188" y2="328.19305943115523" /><line stroke="black" stroke-width="1px" x1="339.3940188306494" x2="366.02712117364337" y1="270.2060365255188" y2="255.17230457751702" /><line stroke="black" stroke-width="1px" x1="241.3824319961214" x2="265.85741669581574" y1="328.19305943115523" y2="314.57174579470103" /><line stroke="black" stroke-width="1px" x1="165.48894935810398" x2="252.76659096574122" y1="277.20063276352005" y2="331.1877458754244" /><line stroke="black" stroke-width="1px" x1="252.76659096574122" x2="252.5244934823806" y1="331.1877458754244" y2="296.6274987891354" /><line stroke="black" stroke-width="1px" x1="252.5244934823806" x2="162.3728196729132" y1="296.6274987891354" y2="245.74884860136504" /><line stroke="black" stroke-width="1px" x1="162.3728196729132" x2="165.48894935810398" y1="245.74884860136504" y2="277.20063276352005" /><line stroke="black" stroke-width="1px" x1="165.48894935810398" x2="252.76659096574122" y1="277.20063276352005" y2="331.1877458754244" /><line stroke="black" stroke-width="1px" x1="252.76659096574122" x2="252.5244934823806" y1="331.1877458754244" y2="296.6274987891354" /><line stroke="black" stroke-width="1px" x1="252.5244934823806" x2="162.3728196729132" y1="296.6274987891354" y2="245.74884860136504" /><line stroke="black" stroke-width="1px" x1="162.3728196729132" x2="165.48894935810398" y1="245.74884860136504" y2="277.20063276352005" /><line stroke="black" stroke-width="1px" x1="165.48894935810398" x2="165.48894935810398" y1="277.20063276352005" y2="277.20063276352005" /><line stroke="black" stroke-width="1px" x1="252.76659096574122" x2="252.76659096574122" y1="331.1877458754244" y2="331.1877458754244" /><line stroke="black" stroke-width="1px" x1="252.5244934823806" x2="252.5244934823806" y1="296.6274987891354" y2="296.6274987891354" /><line stroke="black" stroke-width="1px" x1="162.3728196729132" x2="162.3728196729132" y1="245.74884860136504" y2="245.74884860136504" /><line stroke="black" stroke-width="1px" x1="254.10782617263885" x2="365.54367923105525" y1="211.67488609153094" y2="259.53508000219955" /><line stroke="black" stroke-width="1px" x1="241.39663607461702" x2="355.19246077797345" y1="200.90791481936478" y2="248.81335805929336" /><line stroke="black" stroke-width="1px" x1="241.39663607461702" x2="254.10782617263885" y1="200.90791481936478" y2="211.67488609153094" /><line stroke="black" stroke-width="1px" x1="355.19246077797345" x2="365.54367923105525" y1="248.81335805929336" y2="259.53508000219955" /></svg>