<?xml version="1.0" encoding="utf-8" ?>
<svg baseProfile="full" height="518px" version="1.1" viewBox="0,0,518,518" width="518px" xmlns="http://www.w3.org/2000/svg" xmlns:ev="http://www.w3.org/2001/xml-events" xmlns:xlink="http://www.w3.org/1999/xlink"><defs /><rect fill="white" height="100%" width="100%" x="0" y="0" /><line stroke="black" stroke-width="1px" x1="204.21396335260008" x2="194.69165107511037" y1="318.8012405746756" y2="161.98595991068152" /><line stroke="black" stroke-width="1px" x1="194.69165107511037" x2="290.2604738271372" y1="161.98595991068152" y2="199.0284128389198" /><line stroke="black" stroke-width="1px" x1="290.2604738271372" x2="284.9941820064274" y1="199.0284128389198" y2="371.19949461968775" /><line stroke="black" stroke-width="1px" x1="284.9941820064274" x2="204.21396335260008" y1="371.19949461968775" y2="318.8012405746756" /><line stroke="black" stroke-width="1px" x1="237.23614078372864" x2="233.66228940297816" y1="300.75282777758275" y2="149.63405330074207" /><line stroke="black" stroke-width="1px" x1="233.66228940297816" x2="329.1774313135541" y1="149.63405330074207" y2="182.3984111699054" /><line stroke="black" stroke-width="1px" x1="329.1774313135541" x2="317.9889030228021" y1="182.3984111699054" y2="347.9892509814405" /><line stroke="black" stroke-width="1px" x1="317.9889030228021" x2="237.23614078372864" y1="347.9892509814405" y2="300.75282777758275" /><line stroke="black" stroke-width="1px" x1="204.21396335260008" x2="237.23614078372864" y1="318.8012405746756" y2="300.75282777758275" /><line stroke="black" stroke-width="1px" x1="194.69165107511037" x2="233.66228940297816" y1="161.98595991068152" y2="149.63405330074207" /><line stroke="black" stroke-width="1px" x1="290.2604738271372" x2="329.1774313135541" y1="199.0284128389198" y2="182.3984111699054" /><line stroke="black" stroke-width="1px" x1="284.9941820064274" x2="317.9889030228021" y1="371.19949461968775" y2="347.9892509814405" /><line stroke="black" stroke-width="1px" x1="317.12324887361837" x2="307.6927074480472" y1="187.54940670095897" y2="355.23214319194005" /><line stroke="black" stroke-width="1px" x1="260.64485671091995" x2="260.3779774560251" y1="187.54940670095897" y2="355.23214319194005" /><line stroke="black" stroke-width="1px" x1="260.64485671091995" x2="317.12324887361837" y1="187.54940670095897" y2="187.54940670095897" /><line stroke="black" stroke-width="1px" x1="260.3779774560251" x2="307.6927074480472" y1="355.23214319194005" y2="355.23214319194005" /><line stroke="black" stroke-width="1px" x1="238.33836603598957" x2="207.11943304727316" y1="153.71495824122712" y2="163.87226709733912" /><line stroke="black" stroke-width="1px" x1="207.11943304727316" x2="283.4371535211483" y1="163.87226709733912" y2="193.07356570261658" /><line stroke="black" stroke-width="1px" x1="283.4371535211483" x2="314.63420116421105" y1="193.07356570261658" y2="180.19101812025505" /><line stroke="black" stroke-width="1px" x1="314.63420116421105" x2="238.33836603598957" y1="180.19101812025505" y2="153.71495824122712" /><line stroke="black" stroke-width="1px" x1="238.33836603598957" x2="207.11943304727316" y1="153.71495824122712" y2="163.87226709733912" /><line stroke="black" stroke-width="1px" x1="207.11943304727316" x2="283.4371535211483" y1="163.87226709733912" y2="193.07356570261658" /><line stroke="black" stroke-width="1px" x1="283.4371535211483" x2="314.63420116421105" y1="193.07356570261658" y2="180.19101812025505" /><line stroke="black" stroke-width="1px" x1="314.63420116421105" x2="238.33836603598957" y1="180.19101812025505" y2="153.71495824122712" /><line stroke="black" stroke-width="1px" x1="238.33836603598957" x2="238.33836603598957" y1="153.71495824122712" y2="153.71495824122712" /><line stroke="black" stroke-width="1px" x1="207.11943304727316" x2="207.11943304727316" y1="163.87226709733912" y2="163.87226709733912" /><line stroke="black" stroke-width="1px" x1="283.4371535211483" x2="283.4371535211483" y1="193.07356570261658" y2="193.07356570261658" /><line stroke="black" stroke-width="1px" x1="314.63420116421105" x2="314.63420116421105" y1="180.19101812025505" y2="180.19101812025505" /><line stroke="black" stroke-width="1px" x1="218.0872228791447" x2="211.14198115155006" y1="311.21875104022575" y2="156.77195907504318" /><line stroke="black" stroke-width="1px" x1="216.38883684155235" x2="208.80153182478375" y1="326.6984971638638" y2="167.4549463274023" /></svg>