<?xml version="1.0" encoding="utf-8" ?>
<svg baseProfile="full" height="518px" version="1.1" viewBox="0,0,518,518" width="518px" xmlns="http://www.w3.org/2000/svg" xmlns:ev="http://www.w3.org/2001/xml-events" xmlns:xlink="http://www.w3.org/1999/xlink"><defs /><rect fill="white" height="100%" width="100%" x="0" y="0" /><line stroke="black" stroke-width="1px" x1="210.47461852678893" x2="204.62858868486674" y1="301.33985860040457" y2="190.54163601761286" /><line stroke="black" stroke-width="1px" x1="204.62858868486674" x2="282.817325150556" y1="190.54163601761286" y2="224.1382825149115" /><line stroke="black" stroke-width="1px" x1="282.817325150556" x2="279.9563379200814" y1="224.1382825149115" y2="343.88680862464054" /><line stroke="black" stroke-width="1px" x1="279.9563379200814" x2="210.47461852678893" y1="343.88680862464054" y2="301.33985860040457" /><line stroke="black" stroke-width="1px" x1="241.0741624280979" x2="239.02132962181557" y1="285.23827323869943" y2="178.07338126368958" /><line stroke="black" stroke-width="1px" x1="239.02132962181557" x2="317.18495422070913" y1="178.07338126368958" y2="208.2318728965406" /><line stroke="black" stroke-width="1px" x1="317.18495422070913" x2="310.54020896653606" y1="208.2318728965406" y2="323.89363251414034" /><line stroke="black" stroke-width="1px" x1="310.54020896653606" x2="241.0741624280979" y1="323.89363251414034" y2="285.23827323869943" /><line stroke="black" stroke-width="1px" x1="210.47461852678893" x2="241.0741624280979" y1="301.33985860040457" y2="285.23827323869943" /><line stroke="black" stroke-width="1px" x1="204.62858868486674" x2="239.02132962181557" y1="190.54163601761286" y2="178.07338126368958" /><line stroke="black" stroke-width="1px" x1="282.817325150556" x2="317.18495422070913" y1="224.1382825149115" y2="208.2318728965406" /><line stroke="black" stroke-width="1px" x1="279.9563379200814" x2="310.54020896653606" y1="343.88680862464054" y2="323.89363251414034" /><line stroke="black" stroke-width="1px" x1="263.0349327705214" x2="293.6888892175408" y1="333.52503022415266" y2="314.5164784709445" /><line stroke="black" stroke-width="1px" x1="280.41477961068057" x2="311.6109673622973" y1="324.69842631669326" y2="305.25547628064413" /><line stroke="black" stroke-width="1px" x1="308.18263774533705" x2="283.448888451935" y1="315.410375725997" y2="331.16053069639656" /><line stroke="black" stroke-width="1px" x1="283.448888451935" x2="299.9499387859085" y1="331.16053069639656" y2="229.1116069772822" /><line stroke="black" stroke-width="1px" x1="299.9499387859085" x2="308.18263774533705" y1="229.1116069772822" y2="315.410375725997" /><line stroke="black" stroke-width="1px" x1="308.18263774533705" x2="283.448888451935" y1="315.410375725997" y2="331.16053069639656" /><line stroke="black" stroke-width="1px" x1="283.448888451935" x2="299.9499387859085" y1="331.16053069639656" y2="229.1116069772822" /><line stroke="black" stroke-width="1px" x1="299.9499387859085" x2="308.18263774533705" y1="229.1116069772822" y2="315.410375725997" /><line stroke="black" stroke-width="1px" x1="308.18263774533705" x2="308.18263774533705" y1="315.410375725997" y2="315.410375725997" /><line stroke="black" stroke-width="1px" x1="283.448888451935" x2="283.448888451935" y1="331.16053069639656" y2="331.16053069639656" /><line stroke="black" stroke-width="1px" x1="299.9499387859085" x2="299.9499387859085" y1="229.1116069772822" y2="229.1116069772822" /><line stroke="black" stroke-width="1px" x1="228.85855181142963" x2="307.07649121529096" y1="181.7576500743583" y2="212.91038455203235" /><line stroke="black" stroke-width="1px" x1="206.1846453888065" x2="282.0478337197744" y1="220.03315790452" y2="256.3458588747943" /><line stroke="black" stroke-width="1px" x1="206.1846453888065" x2="228.85855181142963" y1="220.03315790452" y2="181.7576500743583" /><line stroke="black" stroke-width="1px" x1="282.0478337197744" x2="307.07649121529096" y1="256.3458588747943" y2="212.91038455203235" /></svg>