<?xml version="1.0" encoding="utf-8" ?>
<svg baseProfile="full" height="518px" version="1.1" viewBox="0,0,518,518" width="518px" xmlns="http://www.w3.org/2000/svg" xmlns:ev="http://www.w3.org/2001/xml-events" xmlns:xlink="http://www.w3.org/1999/xlink"><defs /><rect fill="white" height="100%" width="100%" x="0" y="0" /><line stroke="black" stroke-width="1px" x1="152.79058430757004" x2="142.15179343383693" y1="306.5151291237569" y2="214.91012206931103" /><line stroke="black" stroke-width="1px" x1="142.15179343383693" x2="249.14563925596536" y1="214.91012206931103" y2="271.33109119414985" /><line stroke="black" stroke-width="1px" x1="249.14563925596536" x2="250.20618552858062" y1="271.33109119414985" y2="373.5394282805139" /><line stroke="black" stroke-width="1px" x1="250.20618552858062" x2="152.79058430757004" y1="373.5394282805139" y2="306.5151291237569" /><line stroke="black" stroke-width="1px" x1="265.31968342706864" x2="265.84943722613747" y1="251.09196875560747" y2="169.7860841873736" /><line stroke="black" stroke-width="1px" x1="265.84943722613747" x2="372.940066852671" y1="169.7860841873736" y2="208.02639324791974" /><line stroke="black" stroke-width="1px" x1="372.940066852671" x2="362.8012717626808" y1="208.02639324791974" y2="298.1669289205177" /><line stroke="black" stroke-width="1px" x1="362.8012717626808" x2="265.31968342706864" y1="298.1669289205177" y2="251.09196875560747" /><line stroke="black" stroke-width="1px" x1="152.79058430757004" x2="265.31968342706864" y1="306.5151291237569" y2="251.09196875560747" /><line stroke="black" stroke-width="1px" x1="142.15179343383693" x2="265.84943722613747" y1="214.91012206931103" y2="169.7860841873736" /><line stroke="black" stroke-width="1px" x1="249.14563925596536" x2="372.940066852671" y1="271.33109119414985" y2="208.02639324791974" /><line stroke="black" stroke-width="1px" x1="250.20618552858062" x2="362.8012717626808" y1="373.5394282805139" y2="298.1669289205177" /><line stroke="black" stroke-width="1px" x1="248.07189153329108" x2="355.64157273037335" y1="176.2712088890117" y2="216.87231601355668" /><line stroke="black" stroke-width="1px" x1="265.70033355597053" x2="370.06031073361584" y1="192.6703104385138" y2="233.62931320774342" /><line stroke="black" stroke-width="1px" x1="274.02262164303653" x2="352.5725057019414" y1="247.60938459312297" y2="284.6222896289272" /><line stroke="black" stroke-width="1px" x1="352.5725057019414" x2="314.80559994651884" y1="284.6222896289272" y2="196.68912584866578" /><line stroke="black" stroke-width="1px" x1="314.80559994651884" x2="274.02262164303653" y1="196.68912584866578" y2="247.60938459312297" /><line stroke="black" stroke-width="1px" x1="243.05480738049874" x2="322.06674591478327" y1="262.9014860213721" y2="303.9075892202721" /><line stroke="black" stroke-width="1px" x1="322.06674591478327" x2="281.81646452511137" y1="303.9075892202721" y2="211.2451755473196" /><line stroke="black" stroke-width="1px" x1="281.81646452511137" x2="243.05480738049874" y1="211.2451755473196" y2="262.9014860213721" /><line stroke="black" stroke-width="1px" x1="274.02262164303653" x2="243.05480738049874" y1="247.60938459312297" y2="262.9014860213721" /><line stroke="black" stroke-width="1px" x1="352.5725057019414" x2="322.06674591478327" y1="284.6222896289272" y2="303.9075892202721" /><line stroke="black" stroke-width="1px" x1="314.80559994651884" x2="281.81646452511137" y1="196.68912584866578" y2="211.2451755473196" /><line stroke="black" stroke-width="1px" x1="359.89037503102924" x2="350.7108675511853" y1="214.69960798866472" y2="306.26039031543473" /><line stroke="black" stroke-width="1px" x1="355.13315398951374" x2="346.7629992019677" y1="201.66783644723554" y2="290.42186593169765" /></svg>