<?xml version="1.0" encoding="utf-8" ?>
<svg baseProfile="full" height="518px" version="1.1" viewBox="0,0,518,518" width="518px" xmlns="http://www.w3.org/2000/svg" xmlns:ev="http://www.w3.org/2001/xml-events" xmlns:xlink="http://www.w3.org/1999/xlink"><defs /><rect fill="white" height="100%" width="100%" x="0" y="0" /><line stroke="black" stroke-width="1px" x1="320.6614211220422" x2="328.8486084809152" y1="300.93178720419326" y2="178.76459866768448" /><line stroke="black" stroke-width="1px" x1="328.8486084809152" x2="220.03079375387907" y1="178.76459866768448" y2="224.54599310391714" /><line stroke="black" stroke-width="1px" x1="220.03079375387907" x2="225.3495199784966" y1="224.54599310391714" y2="360.5512402560316" /><line stroke="black" stroke-width="1px" x1="225.3495199784966" x2="320.6614211220422" y1="360.5512402560316" y2="300.93178720419326" /><line stroke="black" stroke-width="1px" x1="286.49444589981863" x2="289.9453705041749" y1="283.30877915894484" y2="165.61230529629216" /><line stroke="black" stroke-width="1px" x1="289.9453705041749" x2="181.2102655142326" y1="165.61230529629216" y2="206.10043113226482" /><line stroke="black" stroke-width="1px" x1="181.2102655142326" x2="191.23134679509377" y1="206.10043113226482" y2="336.84614763129946" /><line stroke="black" stroke-width="1px" x1="191.23134679509377" x2="286.49444589981863" y1="336.84614763129946" y2="283.30877915894484" /><line stroke="black" stroke-width="1px" x1="320.6614211220422" x2="286.49444589981863" y1="300.93178720419326" y2="283.30877915894484" /><line stroke="black" stroke-width="1px" x1="328.8486084809152" x2="289.9453705041749" y1="178.76459866768448" y2="165.61230529629216" /><line stroke="black" stroke-width="1px" x1="220.03079375387907" x2="181.2102655142326" y1="224.54599310391714" y2="206.10043113226482" /><line stroke="black" stroke-width="1px" x1="225.3495199784966" x2="191.23134679509377" y1="360.5512402560316" y2="336.84614763129946" /><line stroke="black" stroke-width="1px" x1="193.62283501818405" x2="221.2438647724082" y1="327.5208124126128" y2="346.18484969823544" /><line stroke="black" stroke-width="1px" x1="221.2438647724082" x2="200.86257163833878" y1="346.18484969823544" y2="230.15620332113525" /><line stroke="black" stroke-width="1px" x1="200.86257163833878" x2="193.62283501818405" y1="230.15620332113525" y2="327.5208124126128" /><line stroke="black" stroke-width="1px" x1="193.62283501818405" x2="221.2438647724082" y1="327.5208124126128" y2="346.18484969823544" /><line stroke="black" stroke-width="1px" x1="221.2438647724082" x2="200.86257163833878" y1="346.18484969823544" y2="230.15620332113525" /><line stroke="black" stroke-width="1px" x1="200.86257163833878" x2="193.62283501818405" y1="230.15620332113525" y2="327.5208124126128" /><line stroke="black" stroke-width="1px" x1="193.62283501818405" x2="193.62283501818405" y1="327.5208124126128" y2="327.5208124126128" /><line stroke="black" stroke-width="1px" x1="221.2438647724082" x2="221.2438647724082" y1="346.18484969823544" y2="346.18484969823544" /><line stroke="black" stroke-width="1px" x1="200.86257163833878" x2="200.86257163833878" y1="230.15620332113525" y2="230.15620332113525" /></svg>