<?xml version="1.0" encoding="utf-8" ?>
<svg baseProfile="full" height="518px" version="1.1" viewBox="0,0,518,518" width="518px" xmlns="http://www.w3.org/2000/svg" xmlns:ev="http://www.w3.org/2001/xml-events" xmlns:xlink="http://www.w3.org/1999/xlink"><defs /><rect fill="white" height="100%" width="100%" x="0" y="0" /><line stroke="black" stroke-width="1px" x1="279.44467103270773" x2="282.7540601717641" y1="297.03529141150403" y2="147.46808192113778" /><line stroke="black" stroke-width="1px" x1="282.7540601717641" x2="180.51222250344074" y1="147.46808192113778" y2="182.0913814622684" /><line stroke="black" stroke-width="1px" x1="180.51222250344074" x2="192.96996190622338" y1="182.0913814622684" y2="346.99355706084475" /><line stroke="black" stroke-width="1px" x1="192.96996190622338" x2="279.44467103270773" y1="346.99355706084475" y2="297.03529141150403" /><line stroke="black" stroke-width="1px" x1="320.55877013046603" x2="331.2498781067195" y1="319.3202195376659" y2="162.71770249785902" /><line stroke="black" stroke-width="1px" x1="331.2498781067195" x2="228.93182403136217" y1="162.71770249785902" y2="203.06112803918995" /><line stroke="black" stroke-width="1px" x1="228.93182403136217" x2="234.0450369011727" y1="203.06112803918995" y2="376.17049127070266" /><line stroke="black" stroke-width="1px" x1="234.0450369011727" x2="320.55877013046603" y1="376.17049127070266" y2="319.3202195376659" /><line stroke="black" stroke-width="1px" x1="279.44467103270773" x2="320.55877013046603" y1="297.03529141150403" y2="319.3202195376659" /><line stroke="black" stroke-width="1px" x1="282.7540601717641" x2="331.2498781067195" y1="147.46808192113778" y2="162.71770249785902" /><line stroke="black" stroke-width="1px" x1="180.51222250344074" x2="228.93182403136217" y1="182.0913814622684" y2="203.06112803918995" /><line stroke="black" stroke-width="1px" x1="192.96996190622338" x2="234.0450369011727" y1="346.99355706084475" y2="376.17049127070266" /><line stroke="black" stroke-width="1px" x1="298.889389568183" x2="305.5677828482395" y1="307.57484267264647" y2="154.64190905867383" /><line stroke="black" stroke-width="1px" x1="261.20135097776125" x2="261.5699073215929" y1="307.5748426726464" y2="154.6419090586738" /><line stroke="black" stroke-width="1px" x1="275.65678705902707" x2="206.55688554565126" y1="303.6378766753456" y2="344.04662520209797" /><line stroke="black" stroke-width="1px" x1="206.55688554565126" x2="275.93160761699903" y1="344.04662520209797" y2="343.0827251177296" /><line stroke="black" stroke-width="1px" x1="275.93160761699903" x2="275.65678705902707" y1="343.0827251177296" y2="303.6378766753456" /><line stroke="black" stroke-width="1px" x1="275.65678705902707" x2="206.55688554565126" y1="303.6378766753456" y2="344.04662520209797" /><line stroke="black" stroke-width="1px" x1="206.55688554565126" x2="275.93160761699903" y1="344.04662520209797" y2="343.0827251177296" /><line stroke="black" stroke-width="1px" x1="275.93160761699903" x2="275.65678705902707" y1="343.0827251177296" y2="303.6378766753456" /><line stroke="black" stroke-width="1px" x1="275.65678705902707" x2="275.65678705902707" y1="303.6378766753456" y2="303.6378766753456" /><line stroke="black" stroke-width="1px" x1="206.55688554565126" x2="206.55688554565126" y1="344.04662520209797" y2="344.04662520209797" /><line stroke="black" stroke-width="1px" x1="275.93160761699903" x2="275.93160761699903" y1="343.0827251177296" y2="343.0827251177296" /><line stroke="black" stroke-width="1px" x1="182.1436250160217" x2="229.60935567687508" y1="203.68613592803405" y2="225.99916615929772" /><line stroke="black" stroke-width="1px" x1="198.75187817016553" x2="247.36791458299587" y1="175.91468241148687" y2="195.79188261457233" /></svg>