<?xml version="1.0" encoding="utf-8" ?>
<svg baseProfile="full" height="518px" version="1.1" viewBox="0,0,518,518" width="518px" xmlns="http://www.w3.org/2000/svg" xmlns:ev="http://www.w3.org/2001/xml-events" xmlns:xlink="http://www.w3.org/1999/xlink"><defs /><rect fill="white" height="100%" width="100%" x="0" y="0" /><line stroke="black" stroke-width="1px" x1="243.37222448900204" x2="376.92541164422477" y1="165.37783996850328" y2="213.83971237519845" /><line stroke="black" stroke-width="1px" x1="376.92541164422477" x2="281.4232970826956" y1="213.83971237519845" y2="264.109097279617" /><line stroke="black" stroke-width="1px" x1="281.4232970826956" x2="147.6588025480911" y1="264.109097279617" y2="198.4566403501346" /><line stroke="black" stroke-width="1px" x1="147.6588025480911" x2="243.37222448900204" y1="198.4566403501346" y2="165.37783996850328" /><line stroke="black" stroke-width="1px" x1="244.7099996358024" x2="364.8959119414487" y1="255.74405589342214" y2="316.5824082087029" /><line stroke="black" stroke-width="1px" x1="364.8959119414487" x2="278.76798488428545" y1="316.5824082087029" y2="377.425136260394" /><line stroke="black" stroke-width="1px" x1="278.76798488428545" x2="158.44392703504343" y1="377.425136260394" y2="297.50858872741" /><line stroke="black" stroke-width="1px" x1="158.44392703504343" x2="244.7099996358024" y1="297.50858872741" y2="255.74405589342214" /><line stroke="black" stroke-width="1px" x1="243.37222448900204" x2="244.7099996358024" y1="165.37783996850328" y2="255.74405589342214" /><line stroke="black" stroke-width="1px" x1="376.92541164422477" x2="364.8959119414487" y1="213.83971237519845" y2="316.5824082087029" /><line stroke="black" stroke-width="1px" x1="281.4232970826956" x2="278.76798488428545" y1="264.109097279617" y2="377.425136260394" /><line stroke="black" stroke-width="1px" x1="147.6588025480911" x2="158.44392703504343" y1="198.4566403501346" y2="297.50858872741" /><line stroke="black" stroke-width="1px" x1="230.50705060441737" x2="232.9897163707776" y1="169.82407655866382" y2="261.41826987452157" /><line stroke="black" stroke-width="1px" x1="255.62534303297457" x2="255.91938578751447" y1="169.82407655866385" y2="261.41826987452157" /><line stroke="black" stroke-width="1px" x1="358.40050148957636" x2="288.95699544074375" y1="312.4992044797928" y2="360.4445198580779" /><line stroke="black" stroke-width="1px" x1="288.95699544074375" x2="292.077302158614" y1="360.4445198580779" y2="270.8065144137839" /><line stroke="black" stroke-width="1px" x1="292.077302158614" x2="367.4707321207416" y1="270.8065144137839" y2="229.596520684062" /><line stroke="black" stroke-width="1px" x1="367.4707321207416" x2="358.40050148957636" y1="229.596520684062" y2="312.4992044797928" /><line stroke="black" stroke-width="1px" x1="358.40050148957636" x2="288.95699544074375" y1="312.4992044797928" y2="360.4445198580779" /><line stroke="black" stroke-width="1px" x1="288.95699544074375" x2="292.077302158614" y1="360.4445198580779" y2="270.8065144137839" /><line stroke="black" stroke-width="1px" x1="292.077302158614" x2="367.4707321207416" y1="270.8065144137839" y2="229.596520684062" /><line stroke="black" stroke-width="1px" x1="367.4707321207416" x2="358.40050148957636" y1="229.596520684062" y2="312.4992044797928" /><line stroke="black" stroke-width="1px" x1="358.40050148957636" x2="358.40050148957636" y1="312.4992044797928" y2="312.4992044797928" /><line stroke="black" stroke-width="1px" x1="288.95699544074375" x2="288.95699544074375" y1="360.4445198580779" y2="360.4445198580779" /><line stroke="black" stroke-width="1px" x1="292.077302158614" x2="292.077302158614" y1="270.8065144137839" y2="270.8065144137839" /><line stroke="black" stroke-width="1px" x1="367.4707321207416" x2="367.4707321207416" y1="229.596520684062" y2="229.596520684062" /><line stroke="black" stroke-width="1px" x1="165.88111907681866" x2="174.70344831716596" y1="192.15896173075765" y2="289.6367650778637" /><line stroke="black" stroke-width="1px" x1="161.14298388539447" x2="170.83921827316271" y1="205.07476153062188" y2="305.74126388084835" /></svg>