<?xml version="1.0" encoding="utf-8" ?>
<svg baseProfile="full" height="518px" version="1.1" viewBox="0,0,518,518" width="518px" xmlns="http://www.w3.org/2000/svg" xmlns:ev="http://www.w3.org/2001/xml-events" xmlns:xlink="http://www.w3.org/1999/xlink"><defs /><rect fill="white" height="100%" width="100%" x="0" y="0" /><line stroke="black" stroke-width="1px" x1="170.04400418346447" x2="159.27043391433665" y1="307.54603208931576" y2="196.91307015312728" /><line stroke="black" stroke-width="1px" x1="159.27043391433665" x2="268.2023046847444" y1="196.91307015312728" y2="248.92087094680312" /><line stroke="black" stroke-width="1px" x1="268.2023046847444" x2="267.033654674841" y1="248.92087094680312" y2="372.37400407518226" /><line stroke="black" stroke-width="1px" x1="267.033654674841" x2="170.04400418346447" y1="372.37400407518226" y2="307.54603208931576" /><line stroke="black" stroke-width="1px" x1="252.9419279934154" x2="252.3003307442548" y1="265.6353040525979" y2="164.4517078158765" /><line stroke="black" stroke-width="1px" x1="252.3003307442548" x2="361.17057273887036" y1="164.4517078158765" y2="203.24236548377786" /><line stroke="black" stroke-width="1px" x1="361.17057273887036" x2="349.89297407275853" y1="203.24236548377786" y2="315.5856839282913" /><line stroke="black" stroke-width="1px" x1="349.89297407275853" x2="252.9419279934154" y1="315.5856839282913" y2="265.6353040525979" /><line stroke="black" stroke-width="1px" x1="170.04400418346447" x2="252.9419279934154" y1="307.54603208931576" y2="265.6353040525979" /><line stroke="black" stroke-width="1px" x1="159.27043391433665" x2="252.3003307442548" y1="196.91307015312728" y2="164.4517078158765" /><line stroke="black" stroke-width="1px" x1="268.2023046847444" x2="361.17057273887036" y1="248.92087094680312" y2="203.24236548377786" /><line stroke="black" stroke-width="1px" x1="267.033654674841" x2="349.89297407275853" y1="372.37400407518226" y2="315.5856839282913" /><line stroke="black" stroke-width="1px" x1="249.0214661751399" x2="332.17549074945094" y1="360.334640642621" y2="306.45741705310763" /><line stroke="black" stroke-width="1px" x1="267.2252493643384" x2="351.7712118560345" y1="352.13444175218274" y2="296.8753652116709" /><line stroke="black" stroke-width="1px" x1="267.2252493643384" x2="249.0214661751399" y1="352.13444175218274" y2="360.334640642621" /><line stroke="black" stroke-width="1px" x1="351.7712118560345" x2="332.17549074945094" y1="296.8753652116709" y2="306.45741705310763" /><line stroke="black" stroke-width="1px" x1="343.54118386314883" x2="276.646251348258" y1="310.4022167147957" y2="355.1034766356981" /><line stroke="black" stroke-width="1px" x1="276.646251348258" x2="278.6365703576233" y1="355.1034766356981" y2="257.4358993446938" /><line stroke="black" stroke-width="1px" x1="278.6365703576233" x2="351.95211891504596" y1="257.4358993446938" y2="219.80475389171508" /><line stroke="black" stroke-width="1px" x1="351.95211891504596" x2="343.54118386314883" y1="219.80475389171508" y2="310.4022167147957" /><line stroke="black" stroke-width="1px" x1="343.54118386314883" x2="276.646251348258" y1="310.4022167147957" y2="355.1034766356981" /><line stroke="black" stroke-width="1px" x1="276.646251348258" x2="278.6365703576233" y1="355.1034766356981" y2="257.4358993446938" /><line stroke="black" stroke-width="1px" x1="278.6365703576233" x2="351.95211891504596" y1="257.4358993446938" y2="219.80475389171508" /><line stroke="black" stroke-width="1px" x1="351.95211891504596" x2="343.54118386314883" y1="219.80475389171508" y2="310.4022167147957" /><line stroke="black" stroke-width="1px" x1="343.54118386314883" x2="343.54118386314883" y1="310.4022167147957" y2="310.4022167147957" /><line stroke="black" stroke-width="1px" x1="276.646251348258" x2="276.646251348258" y1="355.1034766356981" y2="355.1034766356981" /><line stroke="black" stroke-width="1px" x1="278.6365703576233" x2="278.6365703576233" y1="257.4358993446938" y2="257.4358993446938" /><line stroke="black" stroke-width="1px" x1="351.95211891504596" x2="351.95211891504596" y1="219.80475389171508" y2="219.80475389171508" /><line stroke="black" stroke-width="1px" x1="172.9727538152435" x2="266.2962009140961" y1="203.45502632057037" y2="169.4384608401745" /><line stroke="black" stroke-width="1px" x1="161.23996409969016" x2="252.41631891876654" y1="217.13802368155785" y2="182.743713639438" /><line stroke="black" stroke-width="1px" x1="161.23996409969016" x2="172.9727538152435" y1="217.13802368155785" y2="203.45502632057037" /><line stroke="black" stroke-width="1px" x1="252.41631891876654" x2="266.2962009140961" y1="182.743713639438" y2="169.4384608401745" /></svg>