<?xml version="1.0" encoding="utf-8" ?>
<svg baseProfile="full" height="518px" version="1.1" viewBox="0,0,518,518" width="518px" xmlns="http://www.w3.org/2000/svg" xmlns:ev="http://www.w3.org/2001/xml-events" xmlns:xlink="http://www.w3.org/1999/xlink"><defs /><rect fill="white" height="100%" width="100%" x="0" y="0" /><line stroke="black" stroke-width="1px" x1="274.35763851238164" x2="276.7682719466204" y1="293.0850717086921" y2="147.42915291807432" /><line stroke="black" stroke-width="1px" x1="276.7682719466204" x2="369.8128287472536" y1="147.42915291807432" y2="176.94743720955876" /><line stroke="black" stroke-width="1px" x1="369.8128287472536" x2="352.978901819147" y1="176.94743720955876" y2="335.55705838610805" /><line stroke="black" stroke-width="1px" x1="352.978901819147" x2="274.35763851238164" y1="335.55705838610805" y2="293.0850717086921" /><line stroke="black" stroke-width="1px" x1="193.20711227972544" x2="181.29875261027425" y1="339.07437828896826" y2="179.4427712744051" /><line stroke="black" stroke-width="1px" x1="181.29875261027425" x2="275.0747260403297" y1="179.4427712744051" y2="219.55830149379463" /><line stroke="black" stroke-width="1px" x1="275.0747260403297" x2="272.2727141240668" y1="219.55830149379463" y2="394.1261812551561" /><line stroke="black" stroke-width="1px" x1="272.2727141240668" x2="193.20711227972544" y1="394.1261812551561" y2="339.07437828896826" /><line stroke="black" stroke-width="1px" x1="274.35763851238164" x2="193.20711227972544" y1="293.0850717086921" y2="339.07437828896826" /><line stroke="black" stroke-width="1px" x1="276.7682719466204" x2="181.29875261027425" y1="147.42915291807432" y2="179.4427712744051" /><line stroke="black" stroke-width="1px" x1="369.8128287472536" x2="275.0747260403297" y1="176.94743720955876" y2="219.55830149379463" /><line stroke="black" stroke-width="1px" x1="352.978901819147" x2="272.2727141240668" y1="335.55705838610805" y2="394.1261812551561" /><line stroke="black" stroke-width="1px" x1="256.2119724539815" x2="255.75960203733723" y1="303.3685121027885" y2="154.47395156506894" /><line stroke="black" stroke-width="1px" x1="293.3936464360136" x2="298.9741752906848" y1="303.3685121027885" y2="154.47395156506894" /><line stroke="black" stroke-width="1px" x1="274.35763851238164" x2="275.14830464149867" y1="293.0850717086921" y2="225.89069644416662" /><line stroke="black" stroke-width="1px" x1="275.14830464149867" x2="244.36998234672672" y1="225.89069644416662" y2="285.7296366533055" /><line stroke="black" stroke-width="1px" x1="244.36998234672672" x2="274.35763851238164" y1="285.7296366533055" y2="293.0850717086921" /><line stroke="black" stroke-width="1px" x1="274.35763851238164" x2="275.14830464149867" y1="293.0850717086921" y2="225.89069644416662" /><line stroke="black" stroke-width="1px" x1="275.14830464149867" x2="244.36998234672672" y1="225.89069644416662" y2="285.7296366533055" /><line stroke="black" stroke-width="1px" x1="244.36998234672672" x2="274.35763851238164" y1="285.7296366533055" y2="293.0850717086921" /><line stroke="black" stroke-width="1px" x1="274.35763851238164" x2="274.35763851238164" y1="293.0850717086921" y2="293.0850717086921" /><line stroke="black" stroke-width="1px" x1="275.14830464149867" x2="275.14830464149867" y1="225.89069644416662" y2="225.89069644416662" /><line stroke="black" stroke-width="1px" x1="244.36998234672672" x2="244.36998234672672" y1="285.7296366533055" y2="285.7296366533055" /><line stroke="black" stroke-width="1px" x1="297.83076935353904" x2="202.1701482517713" y1="154.11120727702254" y2="188.371146762843" /><line stroke="black" stroke-width="1px" x1="276.3301049346322" x2="183.49991550510873" y1="173.90419379671224" y2="208.94936831687147" /></svg>