<?xml version="1.0" encoding="utf-8" ?>
<svg baseProfile="full" height="518px" version="1.1" viewBox="0,0,518,518" width="518px" xmlns="http://www.w3.org/2000/svg" xmlns:ev="http://www.w3.org/2001/xml-events" xmlns:xlink="http://www.w3.org/1999/xlink"><defs /><rect fill="white" height="100%" width="100%" x="0" y="0" /><line stroke="black" stroke-width="1px" x1="262.67594213981016" x2="333.8264335003104" y1="179.4579133271522" y2="206.05644810952268" /><line stroke="black" stroke-width="1px" x1="333.8264335003104" x2="254.34597835676055" y1="206.05644810952268" y2="243.61785488890501" /><line stroke="black" stroke-width="1px" x1="254.34597835676055" x2="183.20893197232374" y1="243.61785488890501" y2="209.5079564178515" /><line stroke="black" stroke-width="1px" x1="183.20893197232374" x2="262.67594213981016" y1="209.5079564178515" y2="179.4579133271522" /><line stroke="black" stroke-width="1px" x1="262.3560726385382" x2="326.66577087426555" y1="270.0922553195173" y2="303.18617349350353" /><line stroke="black" stroke-width="1px" x1="326.66577087426555" x2="254.8471098086922" y1="303.18617349350353" y2="348.8625546801659" /><line stroke="black" stroke-width="1px" x1="254.8471098086922" x2="190.54635774591395" y1="348.8625546801659" y2="307.4344741722368" /><line stroke="black" stroke-width="1px" x1="190.54635774591395" x2="262.3560726385382" y1="307.4344741722368" y2="270.0922553195173" /><line stroke="black" stroke-width="1px" x1="262.67594213981016" x2="262.3560726385382" y1="179.4579133271522" y2="270.0922553195173" /><line stroke="black" stroke-width="1px" x1="333.8264335003104" x2="326.66577087426555" y1="206.05644810952268" y2="303.18617349350353" /><line stroke="black" stroke-width="1px" x1="254.34597835676055" x2="254.8471098086922" y1="243.61785488890501" y2="348.8625546801659" /><line stroke="black" stroke-width="1px" x1="183.20893197232374" x2="190.54635774591395" y1="209.5079564178515" y2="307.4344741722368" /><line stroke="black" stroke-width="1px" x1="254.50660299220502" x2="185.5414533988481" y1="277.35130241304415" y2="240.63817945999276" /><line stroke="black" stroke-width="1px" x1="281.4423047230024" x2="210.054069494968" y1="230.81249116733213" y2="199.35660508814883" /><line stroke="black" stroke-width="1px" x1="255.8075566767298" x2="197.8613594620482" y1="265.0796011029148" y2="294.4557668904301" /><line stroke="black" stroke-width="1px" x1="197.8613594620482" x2="192.73746063506584" y1="294.4557668904301" y2="216.80170352908576" /><line stroke="black" stroke-width="1px" x1="192.73746063506584" x2="255.5637596886206" y1="216.80170352908576" y2="192.0767667124079" /><line stroke="black" stroke-width="1px" x1="255.5637596886206" x2="255.8075566767298" y1="192.0767667124079" y2="265.0796011029148" /><line stroke="black" stroke-width="1px" x1="255.8075566767298" x2="197.8613594620482" y1="265.0796011029148" y2="294.4557668904301" /><line stroke="black" stroke-width="1px" x1="197.8613594620482" x2="192.73746063506584" y1="294.4557668904301" y2="216.80170352908576" /><line stroke="black" stroke-width="1px" x1="192.73746063506584" x2="255.5637596886206" y1="216.80170352908576" y2="192.0767667124079" /><line stroke="black" stroke-width="1px" x1="255.5637596886206" x2="255.8075566767298" y1="192.0767667124079" y2="265.0796011029148" /><line stroke="black" stroke-width="1px" x1="255.8075566767298" x2="255.8075566767298" y1="265.0796011029148" y2="265.0796011029148" /><line stroke="black" stroke-width="1px" x1="197.8613594620482" x2="197.8613594620482" y1="294.4557668904301" y2="294.4557668904301" /><line stroke="black" stroke-width="1px" x1="192.73746063506584" x2="192.73746063506584" y1="216.80170352908576" y2="216.80170352908576" /><line stroke="black" stroke-width="1px" x1="255.5637596886206" x2="255.5637596886206" y1="192.0767667124079" y2="192.0767667124079" /><line stroke="black" stroke-width="1px" x1="332.0908650612144" x2="254.46867175613932" y1="229.59830375586353" y2="269.3852058189076" /><line stroke="black" stroke-width="1px" x1="313.58712613746934" x2="233.90948090634976" y1="198.4902892458542" y2="233.8186449333738" /><line stroke="black" stroke-width="1px" x1="195.76810196701314" x2="247.6539018271654" y1="302.2113386776635" y2="334.86992339391827" /><line stroke="black" stroke-width="1px" x1="247.6539018271654" x2="246.58493499102852" y1="334.86992339391827" y2="251.38096609505763" /><line stroke="black" stroke-width="1px" x1="246.58493499102852" x2="190.34346634721007" y1="251.38096609505763" y2="223.38645251628535" /><line stroke="black" stroke-width="1px" x1="190.34346634721007" x2="195.76810196701314" y1="223.38645251628535" y2="302.2113386776635" /><line stroke="black" stroke-width="1px" x1="195.76810196701314" x2="247.6539018271654" y1="302.2113386776635" y2="334.86992339391827" /><line stroke="black" stroke-width="1px" x1="247.6539018271654" x2="246.58493499102852" y1="334.86992339391827" y2="251.38096609505763" /><line stroke="black" stroke-width="1px" x1="246.58493499102852" x2="190.34346634721007" y1="251.38096609505763" y2="223.38645251628535" /><line stroke="black" stroke-width="1px" x1="190.34346634721007" x2="195.76810196701314" y1="223.38645251628535" y2="302.2113386776635" /><line stroke="black" stroke-width="1px" x1="195.76810196701314" x2="195.76810196701314" y1="302.2113386776635" y2="302.2113386776635" /><line stroke="black" stroke-width="1px" x1="247.6539018271654" x2="247.6539018271654" y1="334.86992339391827" y2="334.86992339391827" /><line stroke="black" stroke-width="1px" x1="246.58493499102852" x2="246.58493499102852" y1="251.38096609505763" y2="251.38096609505763" /><line stroke="black" stroke-width="1px" x1="190.34346634721007" x2="190.34346634721007" y1="223.38645251628535" y2="223.38645251628535" /><line stroke="black" stroke-width="1px" x1="318.05852347209606" x2="312.26493086551926" y1="213.50815282813267" y2="312.34505014043873" /><line stroke="black" stroke-width="1px" x1="314.9443642769932" x2="309.71862416168256" y1="198.99767219109873" y2="294.46513293546866" /></svg>