<?xml version="1.0" encoding="utf-8" ?>
<svg baseProfile="full" height="518px" version="1.1" viewBox="0,0,518,518" width="518px" xmlns="http://www.w3.org/2000/svg" xmlns:ev="http://www.w3.org/2001/xml-events" xmlns:xlink="http://www.w3.org/1999/xlink"><defs /><rect fill="white" height="100%" width="100%" x="0" y="0" /><line stroke="black" stroke-width="1px" x1="280.33385117632486" x2="283.02362891862276" y1="289.8677569343332" y2="172.46678433752714" /><line stroke="black" stroke-width="1px" x1="283.02362891862276" x2="200.2875060768693" y1="172.46678433752714" y2="203.84727648452784" /><line stroke="black" stroke-width="1px" x1="200.2875060768693" x2="207.63199577156058" y1="203.84727648452784" y2="331.0889413315953" /><line stroke="black" stroke-width="1px" x1="207.63199577156058" x2="280.33385117632486" y1="331.0889413315953" y2="289.8677569343332" /><line stroke="black" stroke-width="1px" x1="306.81405238835015" x2="313.1150944505796" y1="303.9150604125515" y2="183.05584122651646" /><line stroke="black" stroke-width="1px" x1="313.1150944505796" x2="230.35093614846545" y1="183.05584122651646" y2="217.54792779529913" /><line stroke="black" stroke-width="1px" x1="230.35093614846545" x2="234.09546661100538" y1="217.54792779529913" y2="348.70623738916254" /><line stroke="black" stroke-width="1px" x1="234.09546661100538" x2="306.81405238835015" y1="348.70623738916254" y2="303.9150604125515" /><line stroke="black" stroke-width="1px" x1="280.33385117632486" x2="306.81405238835015" y1="289.8677569343332" y2="303.9150604125515" /><line stroke="black" stroke-width="1px" x1="283.02362891862276" x2="313.1150944505796" y1="172.46678433752714" y2="183.05584122651646" /><line stroke="black" stroke-width="1px" x1="200.2875060768693" x2="230.35093614846545" y1="203.84727648452784" y2="217.54792779529913" /><line stroke="black" stroke-width="1px" x1="207.63199577156058" x2="234.09546661100538" y1="331.0889413315953" y2="348.70623738916254" /><line stroke="black" stroke-width="1px" x1="227.21032951746025" x2="253.74558189370708" y1="319.9882328140795" y2="336.6027045463592" /><line stroke="black" stroke-width="1px" x1="206.38244425253217" x2="233.4617868455599" y1="309.4407367315833" y2="326.51056621193067" /><line stroke="black" stroke-width="1px" x1="206.38244425253217" x2="227.21032951746025" y1="309.4407367315833" y2="319.9882328140795" /><line stroke="black" stroke-width="1px" x1="233.4617868455599" x2="253.74558189370708" y1="326.51056621193067" y2="336.6027045463592" /><line stroke="black" stroke-width="1px" x1="283.1615114413513" x2="304.6000239314136" y1="280.654323284135" y2="291.6819774573163" /><line stroke="black" stroke-width="1px" x1="304.6000239314136" x2="297.24382359513385" y1="291.6819774573163" y2="190.9190707946507" /><line stroke="black" stroke-width="1px" x1="297.24382359513385" x2="283.1615114413513" y1="190.9190707946507" y2="280.654323284135" /><line stroke="black" stroke-width="1px" x1="283.1615114413513" x2="304.6000239314136" y1="280.654323284135" y2="291.6819774573163" /><line stroke="black" stroke-width="1px" x1="304.6000239314136" x2="297.24382359513385" y1="291.6819774573163" y2="190.9190707946507" /><line stroke="black" stroke-width="1px" x1="297.24382359513385" x2="283.1615114413513" y1="190.9190707946507" y2="280.654323284135" /><line stroke="black" stroke-width="1px" x1="283.1615114413513" x2="283.1615114413513" y1="280.654323284135" y2="280.654323284135" /><line stroke="black" stroke-width="1px" x1="304.6000239314136" x2="304.6000239314136" y1="291.6819774573163" y2="291.6819774573163" /><line stroke="black" stroke-width="1px" x1="297.24382359513385" x2="297.24382359513385" y1="190.9190707946507" y2="190.9190707946507" /><line stroke="black" stroke-width="1px" x1="201.93927210601169" x2="231.19728319745275" y1="232.46375880294198" y2="247.19261873463572" /><line stroke="black" stroke-width="1px" x1="224.25731106779477" x2="254.4325383457667" y1="194.75591165563017" y2="207.51188411716166" /><line stroke="black" stroke-width="1px" x1="278.53428717238336" x2="212.42568142791674" y1="176.309091397398" y2="201.6105000843642" /><line stroke="black" stroke-width="1px" x1="212.42568142791674" x2="271.3064427838711" y1="201.6105000843642" y2="197.91529503978924" /><line stroke="black" stroke-width="1px" x1="271.3064427838711" x2="278.53428717238336" y1="197.91529503978924" y2="176.309091397398" /><line stroke="black" stroke-width="1px" x1="278.53428717238336" x2="212.42568142791674" y1="176.309091397398" y2="201.6105000843642" /><line stroke="black" stroke-width="1px" x1="212.42568142791674" x2="271.3064427838711" y1="201.6105000843642" y2="197.91529503978924" /><line stroke="black" stroke-width="1px" x1="271.3064427838711" x2="278.53428717238336" y1="197.91529503978924" y2="176.309091397398" /><line stroke="black" stroke-width="1px" x1="278.53428717238336" x2="278.53428717238336" y1="176.309091397398" y2="176.309091397398" /><line stroke="black" stroke-width="1px" x1="212.42568142791674" x2="212.42568142791674" y1="201.6105000843642" y2="201.6105000843642" /><line stroke="black" stroke-width="1px" x1="271.3064427838711" x2="271.3064427838711" y1="197.91529503978924" y2="197.91529503978924" /><line stroke="black" stroke-width="1px" x1="282.8899464327754" x2="285.915086528724" y1="291.2237226801784" y2="173.4842757951282" /><line stroke="black" stroke-width="1px" x1="284.6723557192136" x2="288.19906076532135" y1="317.55328843181405" y2="193.43963547336352" /><line stroke="black" stroke-width="1px" x1="284.6723557192136" x2="282.8899464327754" y1="317.55328843181405" y2="291.2237226801784" /><line stroke="black" stroke-width="1px" x1="288.19906076532135" x2="285.915086528724" y1="193.43963547336352" y2="173.4842757951282" /></svg>