<?xml version="1.0" encoding="utf-8" ?>
<svg baseProfile="full" height="518px" version="1.1" viewBox="0,0,518,518" width="518px" xmlns="http://www.w3.org/2000/svg" xmlns:ev="http://www.w3.org/2001/xml-events" xmlns:xlink="http://www.w3.org/1999/xlink"><defs /><rect fill="white" height="100%" width="100%" x="0" y="0" /><line stroke="black" stroke-width="1px" x1="258.27208546718794" x2="368.617377624586" y1="228.72319966787742" y2="278.7434631171494" /><line stroke="black" stroke-width="1px" x1="368.617377624586" x2="260.0275535241477" y1="278.7434631171494" y2="348.2632670146364" /><line stroke="black" stroke-width="1px" x1="260.0275535241477" x2="149.67353198339015" y1="348.2632670146364" y2="277.8400359154972" /><line stroke="black" stroke-width="1px" x1="149.67353198339015" x2="258.27208546718794" y1="277.8400359154972" y2="228.72319966787742" /><line stroke="black" stroke-width="1px" x1="258.2462641797308" x2="373.2036260631649" y1="193.52319494599314" y2="239.3194921070427" /><line stroke="black" stroke-width="1px" x1="373.2036260631649" x2="260.07977082122824" y1="239.3194921070427" y2="303.9118736955103" /><line stroke="black" stroke-width="1px" x1="260.07977082122824" x2="145.1121002777735" y1="303.9118736955103" y2="238.487362347272" /><line stroke="black" stroke-width="1px" x1="145.1121002777735" x2="258.2462641797308" y1="238.487362347272" y2="193.52319494599314" /><line stroke="black" stroke-width="1px" x1="258.27208546718794" x2="258.2462641797308" y1="228.72319966787742" y2="193.52319494599314" /><line stroke="black" stroke-width="1px" x1="368.617377624586" x2="373.2036260631649" y1="278.7434631171494" y2="239.3194921070427" /><line stroke="black" stroke-width="1px" x1="260.0275535241477" x2="260.07977082122824" y1="348.2632670146364" y2="303.9118736955103" /><line stroke="black" stroke-width="1px" x1="149.67353198339015" x2="145.1121002777735" y1="277.8400359154972" y2="238.487362347272" /><line stroke="black" stroke-width="1px" x1="258.25741356419405" x2="371.2164287603708" y1="208.7222196423486" y2="256.401691186732" /><line stroke="black" stroke-width="1px" x1="242.34953204598824" x2="353.0936298906971" y1="235.9246348983174" y2="288.68185197774676" /><line stroke="black" stroke-width="1px" x1="242.34953204598824" x2="258.25741356419405" y1="235.9246348983174" y2="208.7222196423486" /><line stroke="black" stroke-width="1px" x1="353.0936298906971" x2="371.2164287603708" y1="288.68185197774676" y2="256.401691186732" /><line stroke="black" stroke-width="1px" x1="158.56362433775467" x2="246.91667681296096" y1="279.939383272604" y2="335.7387691225462" /><line stroke="black" stroke-width="1px" x1="246.91667681296096" x2="246.4383029296539" y1="335.7387691225462" y2="300.6905146337931" /><line stroke="black" stroke-width="1px" x1="246.4383029296539" x2="155.1645696967115" y1="300.6905146337931" y2="248.090239013816" /><line stroke="black" stroke-width="1px" x1="155.1645696967115" x2="158.56362433775467" y1="248.090239013816" y2="279.939383272604" /><line stroke="black" stroke-width="1px" x1="158.56362433775467" x2="246.91667681296096" y1="279.939383272604" y2="335.7387691225462" /><line stroke="black" stroke-width="1px" x1="246.91667681296096" x2="246.4383029296539" y1="335.7387691225462" y2="300.6905146337931" /><line stroke="black" stroke-width="1px" x1="246.4383029296539" x2="155.1645696967115" y1="300.6905146337931" y2="248.090239013816" /><line stroke="black" stroke-width="1px" x1="155.1645696967115" x2="158.56362433775467" y1="248.090239013816" y2="279.939383272604" /><line stroke="black" stroke-width="1px" x1="158.56362433775467" x2="158.56362433775467" y1="279.939383272604" y2="279.939383272604" /><line stroke="black" stroke-width="1px" x1="246.91667681296096" x2="246.91667681296096" y1="335.7387691225462" y2="335.7387691225462" /><line stroke="black" stroke-width="1px" x1="246.4383029296539" x2="246.4383029296539" y1="300.6905146337931" y2="300.6905146337931" /><line stroke="black" stroke-width="1px" x1="155.1645696967115" x2="155.1645696967115" y1="248.090239013816" y2="248.090239013816" /><line stroke="black" stroke-width="1px" x1="258.25720774369046" x2="371.25301760136676" y1="208.44164173892224" y2="256.08716888685296" /><line stroke="black" stroke-width="1px" x1="246.4470856506735" x2="361.74075840460546" y1="198.21267352858888" y2="245.864653782414" /></svg>