<?xml version="1.0" encoding="utf-8" ?>
<svg baseProfile="full" height="518px" version="1.1" viewBox="0,0,518,518" width="518px" xmlns="http://www.w3.org/2000/svg" xmlns:ev="http://www.w3.org/2001/xml-events" xmlns:xlink="http://www.w3.org/1999/xlink"><defs /><rect fill="white" height="100%" width="100%" x="0" y="0" /><line stroke="black" stroke-width="1px" x1="286.8082545344146" x2="290.76723552542853" y1="290.08542695869846" y2="157.54977660364983" /><line stroke="black" stroke-width="1px" x1="290.76723552542853" x2="181.20984221799117" y1="157.54977660364983" y2="196.95005201593042" /><line stroke="black" stroke-width="1px" x1="181.20984221799117" x2="192.39621351403585" y1="196.95005201593042" y2="344.21443271698854" /><line stroke="black" stroke-width="1px" x1="192.39621351403585" x2="286.8082545344146" y1="344.21443271698854" y2="290.08542695869846" /><line stroke="black" stroke-width="1px" x1="328.73531394028987" x2="339.38033686743177" y1="312.12547183055653" y2="173.38240472170395" /><line stroke="black" stroke-width="1px" x1="339.38033686743177" x2="229.8570057377238" y1="173.38240472170395" y2="219.27488540117267" /><line stroke="black" stroke-width="1px" x1="229.8570057377238" x2="234.35375956668963" y1="219.27488540117267" y2="373.84508566693387" /><line stroke="black" stroke-width="1px" x1="234.35375956668963" x2="328.73531394028987" y1="373.84508566693387" y2="312.12547183055653" /><line stroke="black" stroke-width="1px" x1="286.8082545344146" x2="328.73531394028987" y1="290.08542695869846" y2="312.12547183055653" /><line stroke="black" stroke-width="1px" x1="290.76723552542853" x2="339.38033686743177" y1="157.54977660364983" y2="173.38240472170395" /><line stroke="black" stroke-width="1px" x1="181.20984221799117" x2="229.8570057377238" y1="196.95005201593042" y2="219.27488540117267" /><line stroke="black" stroke-width="1px" x1="192.39621351403585" x2="234.35375956668963" y1="344.21443271698854" y2="373.84508566693387" /><line stroke="black" stroke-width="1px" x1="212.52031189935838" x2="219.51960207764805" y1="211.3188449377761" y2="363.36912094270946" /><line stroke="black" stroke-width="1px" x1="248.84425683534798" x2="250.37359139610635" y1="211.31884493777608" y2="363.3691209427094" /><line stroke="black" stroke-width="1px" x1="248.84425683534798" x2="212.52031189935838" y1="211.31884493777608" y2="211.3188449377761" /><line stroke="black" stroke-width="1px" x1="250.37359139610635" x2="219.51960207764805" y1="363.3691209427094" y2="363.36912094270946" /><line stroke="black" stroke-width="1px" x1="339.38033686743177" x2="258.2996501080195" y1="173.38240472170395" y2="170.85814874516274" /><line stroke="black" stroke-width="1px" x1="258.2996501080195" x2="241.53213388583433" y1="170.85814874516274" y2="180.93263541766595" /><line stroke="black" stroke-width="1px" x1="241.53213388583433" x2="339.38033686743177" y1="180.93263541766595" y2="173.38240472170395" /><line stroke="black" stroke-width="1px" x1="339.38033686743177" x2="258.2996501080195" y1="173.38240472170395" y2="170.85814874516274" /><line stroke="black" stroke-width="1px" x1="258.2996501080195" x2="241.53213388583433" y1="170.85814874516274" y2="180.93263541766595" /><line stroke="black" stroke-width="1px" x1="241.53213388583433" x2="339.38033686743177" y1="180.93263541766595" y2="173.38240472170395" /><line stroke="black" stroke-width="1px" x1="339.38033686743177" x2="339.38033686743177" y1="173.38240472170395" y2="173.38240472170395" /><line stroke="black" stroke-width="1px" x1="258.2996501080195" x2="258.2996501080195" y1="170.85814874516274" y2="170.85814874516274" /><line stroke="black" stroke-width="1px" x1="241.53213388583433" x2="241.53213388583433" y1="180.93263541766595" y2="180.93263541766595" /><line stroke="black" stroke-width="1px" x1="215.79138812317362" x2="310.28657666502414" y1="360.73623546200133" y2="302.42741517841273" /><line stroke="black" stroke-width="1px" x1="190.19901200184" x2="287.5998033006044" y1="315.28909925488915" y2="263.58658022191753" /><line stroke="black" stroke-width="1px" x1="190.19901200184" x2="215.79138812317362" y1="315.28909925488915" y2="360.73623546200133" /><line stroke="black" stroke-width="1px" x1="287.5998033006044" x2="310.28657666502414" y1="263.58658022191753" y2="302.42741517841273" /><line stroke="black" stroke-width="1px" x1="183.75222064059614" x2="230.8887791561169" y1="230.41950998439938" y2="254.74078590980466" /><line stroke="black" stroke-width="1px" x1="209.7855965189812" x2="258.7006099697465" y1="186.67331435740277" y2="207.1888345452442" /></svg>