<?xml version="1.0" encoding="utf-8" ?>
<svg baseProfile="full" height="518px" version="1.1" viewBox="0,0,518,518" width="518px" xmlns="http://www.w3.org/2000/svg" xmlns:ev="http://www.w3.org/2001/xml-events" xmlns:xlink="http://www.w3.org/1999/xlink"><defs /><rect fill="white" height="100%" width="100%" x="0" y="0" /><line stroke="black" stroke-width="1px" x1="222.7306880149114" x2="218.28472151239302" y1="276.7277546258086" y2="160.97346207275928" /><line stroke="black" stroke-width="1px" x1="218.28472151239302" x2="354.8947330351077" y1="160.97346207275928" y2="211.61330460902104" /><line stroke="black" stroke-width="1px" x1="354.8947330351077" x2="342.35321329494013" y1="211.61330460902104" y2="343.6288759468331" /><line stroke="black" stroke-width="1px" x1="342.35321329494013" x2="222.7306880149114" y1="343.6288759468331" y2="276.7277546258086" /><line stroke="black" stroke-width="1px" x1="185.59096451901908" x2="176.03492609725132" y1="295.27531453692313" y2="174.76520364738275" /><line stroke="black" stroke-width="1px" x1="176.03492609725132" x2="312.82970145407796" y1="174.76520364738275" y2="232.6890586909738" /><line stroke="black" stroke-width="1px" x1="312.82970145407796" x2="305.3224204131342" y1="232.6890586909738" y2="370.52635251879326" /><line stroke="black" stroke-width="1px" x1="305.3224204131342" x2="185.59096451901908" y1="370.52635251879326" y2="295.27531453692313" /><line stroke="black" stroke-width="1px" x1="222.7306880149114" x2="185.59096451901908" y1="276.7277546258086" y2="295.27531453692313" /><line stroke="black" stroke-width="1px" x1="218.28472151239302" x2="176.03492609725132" y1="160.97346207275928" y2="174.76520364738275" /><line stroke="black" stroke-width="1px" x1="354.8947330351077" x2="312.82970145407796" y1="211.61330460902104" y2="232.6890586909738" /><line stroke="black" stroke-width="1px" x1="342.35321329494013" x2="305.3224204131342" y1="343.6288759468331" y2="370.52635251879326" /><line stroke="black" stroke-width="1px" x1="337.6533722342881" x2="327.08528902697645" y1="220.2517072588878" y2="354.71879877432366" /><line stroke="black" stroke-width="1px" x1="332.9767134662184" x2="323.55271632023897" y1="203.48853361088155" y2="333.1143484692057" /><line stroke="black" stroke-width="1px" x1="332.9767134662184" x2="337.6533722342881" y1="203.48853361088155" y2="220.2517072588878" /><line stroke="black" stroke-width="1px" x1="323.55271632023897" x2="327.08528902697645" y1="333.1143484692057" y2="354.71879877432366" /><line stroke="black" stroke-width="1px" x1="194.90332138046176" x2="291.56930582443397" y1="290.69474761918883" y2="349.7020220087901" /><line stroke="black" stroke-width="1px" x1="291.56930582443397" x2="295.6268417232452" y1="349.7020220087901" y2="241.1508102481697" /><line stroke="black" stroke-width="1px" x1="295.6268417232452" x2="188.1835272175421" y1="241.1508102481697" y2="193.16005401611216" /><line stroke="black" stroke-width="1px" x1="188.1835272175421" x2="194.90332138046176" y1="193.16005401611216" y2="290.69474761918883" /><line stroke="black" stroke-width="1px" x1="227.08280467430816" x2="323.7438456077208" y1="274.621135274258" y2="327.9604423496269" /><line stroke="black" stroke-width="1px" x1="323.7438456077208" x2="331.3334779040438" y1="327.9604423496269" y2="223.27008114996283" /><line stroke="black" stroke-width="1px" x1="331.3334779040438" x2="223.90449266386415" y1="223.27008114996283" y2="180.377978972138" /><line stroke="black" stroke-width="1px" x1="223.90449266386415" x2="227.08280467430816" y1="180.377978972138" y2="274.621135274258" /><line stroke="black" stroke-width="1px" x1="194.90332138046176" x2="227.08280467430816" y1="290.69474761918883" y2="274.621135274258" /><line stroke="black" stroke-width="1px" x1="291.56930582443397" x2="323.7438456077208" y1="349.7020220087901" y2="327.9604423496269" /><line stroke="black" stroke-width="1px" x1="295.6268417232452" x2="331.3334779040438" y1="241.1508102481697" y2="223.27008114996283" /><line stroke="black" stroke-width="1px" x1="188.1835272175421" x2="223.90449266386415" y1="193.16005401611216" y2="180.377978972138" /><line stroke="black" stroke-width="1px" x1="205.38795714026622" x2="302.1061831375753" y1="285.4576849466156" y2="342.58184689500365" /><line stroke="black" stroke-width="1px" x1="226.24799710027844" x2="325.71400757566875" y1="249.86746086376962" y2="300.7842946795694" /><line stroke="black" stroke-width="1px" x1="226.24799710027844" x2="205.38795714026622" y1="249.86746086376962" y2="285.4576849466156" /><line stroke="black" stroke-width="1px" x1="325.71400757566875" x2="302.1061831375753" y1="300.7842946795694" y2="342.58184689500365" /><line stroke="black" stroke-width="1px" x1="232.45251032826775" x2="206.667631163725" y1="280.8730214025525" y2="294.09744393486125" /><line stroke="black" stroke-width="1px" x1="206.667631163725" x2="297.02530662614663" y1="294.09744393486125" y2="332.1207230518625" /><line stroke="black" stroke-width="1px" x1="297.02530662614663" x2="232.45251032826775" y1="332.1207230518625" y2="280.8730214025525" /><line stroke="black" stroke-width="1px" x1="232.45251032826775" x2="206.667631163725" y1="280.8730214025525" y2="294.09744393486125" /><line stroke="black" stroke-width="1px" x1="206.667631163725" x2="297.02530662614663" y1="294.09744393486125" y2="332.1207230518625" /><line stroke="black" stroke-width="1px" x1="297.02530662614663" x2="232.45251032826775" y1="332.1207230518625" y2="280.8730214025525" /><line stroke="black" stroke-width="1px" x1="232.45251032826775" x2="232.45251032826775" y1="280.8730214025525" y2="280.8730214025525" /><line stroke="black" stroke-width="1px" x1="206.667631163725" x2="206.667631163725" y1="294.09744393486125" y2="294.09744393486125" /><line stroke="black" stroke-width="1px" x1="297.02530662614663" x2="297.02530662614663" y1="332.1207230518625" y2="332.1207230518625" /><line stroke="black" stroke-width="1px" x1="203.83696924822183" x2="208.96705112514124" y1="187.55876445877047" y2="283.6699319011851" /><line stroke="black" stroke-width="1px" x1="241.8897267486407" x2="243.4809573521751" y1="187.55876445877047" y2="283.66993190118507" /></svg>