<?xml version="1.0" encoding="utf-8" ?>
<svg baseProfile="full" height="518px" version="1.1" viewBox="0,0,518,518" width="518px" xmlns="http://www.w3.org/2000/svg" xmlns:ev="http://www.w3.org/2001/xml-events" xmlns:xlink="http://www.w3.org/1999/xlink"><defs /><rect fill="white" height="100%" width="100%" x="0" y="0" /><line stroke="black" stroke-width="1px" x1="270.2310187896175" x2="350.74731885061885" y1="233.0826697945855" y2="269.45026988921944" /><line stroke="black" stroke-width="1px" x1="350.74731885061885" x2="243.93122115052105" y1="269.45026988921944" y2="333.8049143994531" /><line stroke="black" stroke-width="1px" x1="243.93122115052105" x2="163.4951280642302" y1="333.8049143994531" y2="283.0117005258311" /><line stroke="black" stroke-width="1px" x1="163.4951280642302" x2="270.2310187896175" y1="283.0117005258311" y2="233.0826697945855" /><line stroke="black" stroke-width="1px" x1="270.5904824887656" x2="354.05919975580576" y1="201.46215575388484" y2="235.1003497465905" /><line stroke="black" stroke-width="1px" x1="354.05919975580576" x2="243.27696343352787" y1="235.1003497465905" y2="295.2833629039759" /><line stroke="black" stroke-width="1px" x1="243.27696343352787" x2="159.9010993812659" y1="295.2833629039759" y2="247.71236489344318" /><line stroke="black" stroke-width="1px" x1="159.9010993812659" x2="270.5904824887656" y1="247.71236489344318" y2="201.46215575388484" /><line stroke="black" stroke-width="1px" x1="270.2310187896175" x2="270.5904824887656" y1="233.0826697945855" y2="201.46215575388484" /><line stroke="black" stroke-width="1px" x1="350.74731885061885" x2="354.05919975580576" y1="269.45026988921944" y2="235.1003497465905" /><line stroke="black" stroke-width="1px" x1="243.93122115052105" x2="243.27696343352787" y1="333.8049143994531" y2="295.2833629039759" /><line stroke="black" stroke-width="1px" x1="163.4951280642302" x2="159.9010993812659" y1="283.0117005258311" y2="247.71236489344318" /><line stroke="black" stroke-width="1px" x1="270.4265439068106" x2="352.54551754262894" y1="215.88314525798634" y2="250.79984638685616" /><line stroke="black" stroke-width="1px" x1="256.74276625464535" x2="337.49604155262705" y1="239.3922191950033" y2="277.43390960439706" /><line stroke="black" stroke-width="1px" x1="260.97558960995207" x2="175.47091778002653" y1="234.30993532358875" y2="273.89253560168004" /><line stroke="black" stroke-width="1px" x1="175.47091778002653" x2="219.852100200325" y1="273.89253560168004" y2="226.16058873365478" /><line stroke="black" stroke-width="1px" x1="219.852100200325" x2="260.97558960995207" y1="226.16058873365478" y2="234.30993532358875" /><line stroke="black" stroke-width="1px" x1="260.97558960995207" x2="175.47091778002653" y1="234.30993532358875" y2="273.89253560168004" /><line stroke="black" stroke-width="1px" x1="175.47091778002653" x2="219.852100200325" y1="273.89253560168004" y2="226.16058873365478" /><line stroke="black" stroke-width="1px" x1="219.852100200325" x2="260.97558960995207" y1="226.16058873365478" y2="234.30993532358875" /><line stroke="black" stroke-width="1px" x1="260.97558960995207" x2="260.97558960995207" y1="234.30993532358875" y2="234.30993532358875" /><line stroke="black" stroke-width="1px" x1="175.47091778002653" x2="175.47091778002653" y1="273.89253560168004" y2="273.89253560168004" /><line stroke="black" stroke-width="1px" x1="219.852100200325" x2="219.852100200325" y1="226.16058873365478" y2="226.16058873365478" /><line stroke="black" stroke-width="1px" x1="220.32743376866773" x2="218.71426687327462" y1="318.899762064073" y2="281.26885160045646" /><line stroke="black" stroke-width="1px" x1="268.67085292391425" x2="269.0742577482477" y1="318.899762064073" y2="281.26885160045646" /><line stroke="black" stroke-width="1px" x1="268.67085292391425" x2="220.32743376866773" y1="318.899762064073" y2="318.899762064073" /><line stroke="black" stroke-width="1px" x1="269.0742577482477" x2="218.71426687327462" y1="281.26885160045646" y2="281.26885160045646" /></svg>