<?xml version="1.0" encoding="utf-8" ?>
<svg baseProfile="full" height="518px" version="1.1" viewBox="0,0,518,518" width="518px" xmlns="http://www.w3.org/2000/svg" xmlns:ev="http://www.w3.org/2001/xml-events" xmlns:xlink="http://www.w3.org/1999/xlink"><defs /><rect fill="white" height="100%" width="100%" x="0" y="0" /><line stroke="black" stroke-width="1px" x1="175.5629187103847" x2="167.489179212867" y1="304.3869490650216" y2="215.68869538753773" /><line stroke="black" stroke-width="1px" x1="167.489179212867" x2="246.48154964455762" y1="215.68869538753773" y2="255.53601043607463" /><line stroke="black" stroke-width="1px" x1="246.48154964455762" x2="247.72887905268408" y1="255.53601043607463" y2="351.73696821313246" /><line stroke="black" stroke-width="1px" x1="247.72887905268408" x2="175.5629187103847" y1="351.73696821313246" y2="304.3869490650216" /><line stroke="black" stroke-width="1px" x1="218.06260324109164" x2="214.35463834075023" y1="282.9220012427913" y2="197.95164483856485" /><line stroke="black" stroke-width="1px" x1="214.35463834075023" x2="293.86739680500114" y1="197.95164483856485" y2="232.54772587265248" /><line stroke="black" stroke-width="1px" x1="293.86739680500114" x2="290.62156853149315" y1="232.54772587265248" y2="324.56601395981534" /><line stroke="black" stroke-width="1px" x1="290.62156853149315" x2="218.06260324109164" y1="324.56601395981534" y2="282.9220012427913" /><line stroke="black" stroke-width="1px" x1="175.5629187103847" x2="218.06260324109164" y1="304.3869490650216" y2="282.9220012427913" /><line stroke="black" stroke-width="1px" x1="167.489179212867" x2="214.35463834075023" y1="215.68869538753773" y2="197.95164483856485" /><line stroke="black" stroke-width="1px" x1="246.48154964455762" x2="293.86739680500114" y1="255.53601043607463" y2="232.54772587265248" /><line stroke="black" stroke-width="1px" x1="247.72887905268408" x2="290.62156853149315" y1="351.73696821313246" y2="324.56601395981534" /><line stroke="black" stroke-width="1px" x1="190.94381755801456" x2="270.3049615390684" y1="206.81187835261733" y2="243.9785643900366" /><line stroke="black" stroke-width="1px" x1="169.89459872593204" x2="246.85646259051236" y1="242.1146793118654" y2="284.45137493312313" /><line stroke="black" stroke-width="1px" x1="246.48154964455762" x2="343.6118525715125" y1="255.53601043607463" y2="267.56127321632766" /><line stroke="black" stroke-width="1px" x1="343.6118525715125" x2="300.4063942077034" y1="267.56127321632766" y2="247.65925226115374" /><line stroke="black" stroke-width="1px" x1="300.4063942077034" x2="246.48154964455762" y1="247.65925226115374" y2="255.53601043607463" /><line stroke="black" stroke-width="1px" x1="246.48154964455762" x2="343.6118525715125" y1="255.53601043607463" y2="267.56127321632766" /><line stroke="black" stroke-width="1px" x1="343.6118525715125" x2="300.4063942077034" y1="267.56127321632766" y2="247.65925226115374" /><line stroke="black" stroke-width="1px" x1="300.4063942077034" x2="246.48154964455762" y1="247.65925226115374" y2="255.53601043607463" /><line stroke="black" stroke-width="1px" x1="246.48154964455762" x2="246.48154964455762" y1="255.53601043607463" y2="255.53601043607463" /><line stroke="black" stroke-width="1px" x1="343.6118525715125" x2="343.6118525715125" y1="267.56127321632766" y2="267.56127321632766" /><line stroke="black" stroke-width="1px" x1="300.4063942077034" x2="300.4063942077034" y1="247.65925226115374" y2="247.65925226115374" /><line stroke="black" stroke-width="1px" x1="231.60909498165503" x2="274.5089100831721" y1="341.160346204553" y2="315.31842132062275" /><line stroke="black" stroke-width="1px" x1="247.48196198593664" x2="291.2678444607565" y1="332.6933553889269" y2="306.24427921859774" /><line stroke="black" stroke-width="1px" x1="247.48196198593664" x2="231.60909498165503" y1="332.6933553889269" y2="341.160346204553" /><line stroke="black" stroke-width="1px" x1="291.2678444607565" x2="274.5089100831721" y1="306.24427921859774" y2="315.31842132062275" /><line stroke="black" stroke-width="1px" x1="194.00550234608838" x2="236.71012055381303" y1="316.48762207136906" y2="293.62443401596954" /><line stroke="black" stroke-width="1px" x1="173.32450340893178" x2="217.03037408729853" y1="279.7956765444165" y2="259.2678185722489" /><line stroke="black" stroke-width="1px" x1="173.32450340893178" x2="194.00550234608838" y1="279.7956765444165" y2="316.48762207136906" /><line stroke="black" stroke-width="1px" x1="217.03037408729853" x2="236.71012055381303" y1="259.2678185722489" y2="293.62443401596954" /></svg>