<?xml version="1.0" encoding="utf-8" ?>
<svg baseProfile="full" height="518px" version="1.1" viewBox="0,0,518,518" width="518px" xmlns="http://www.w3.org/2000/svg" xmlns:ev="http://www.w3.org/2001/xml-events" xmlns:xlink="http://www.w3.org/1999/xlink"><defs /><rect fill="white" height="100%" width="100%" x="0" y="0" /><line stroke="black" stroke-width="1px" x1="90.56605513300894" x2="68.63901771486061" y1="357.5199417230143" y2="245.10685369273" /><line stroke="black" stroke-width="1px" x1="68.63901771486061" x2="149.03888561920127" y1="245.10685369273" y2="299.7981826508209" /><line stroke="black" stroke-width="1px" x1="149.03888561920127" x2="163.6626620620709" y1="299.7981826508209" y2="422.31297548060826" /><line stroke="black" stroke-width="1px" x1="163.6626620620709" x2="90.56605513300894" y1="422.31297548060826" y2="357.5199417230143" /><line stroke="black" stroke-width="1px" x1="221.23194174966443" x2="217.19341403982787" y1="289.87909256802305" y2="190.31157410091376" /><line stroke="black" stroke-width="1px" x1="217.19341403982787" x2="302.2767263746208" y1="190.31157410091376" y2="226.07189897767353" /><line stroke="black" stroke-width="1px" x1="302.2767263746208" x2="297.5674676725566" y1="226.07189897767353" y2="334.3404173440923" /><line stroke="black" stroke-width="1px" x1="297.5674676725566" x2="221.23194174966443" y1="334.3404173440923" y2="289.87909256802305" /><line stroke="black" stroke-width="1px" x1="90.56605513300894" x2="221.23194174966443" y1="357.5199417230143" y2="289.87909256802305" /><line stroke="black" stroke-width="1px" x1="68.63901771486061" x2="217.19341403982787" y1="245.10685369273" y2="190.31157410091376" /><line stroke="black" stroke-width="1px" x1="149.03888561920127" x2="302.2767263746208" y1="299.7981826508209" y2="226.07189897767353" /><line stroke="black" stroke-width="1px" x1="163.6626620620709" x2="297.5674676725566" y1="422.31297548060826" y2="334.3404173440923" /><line stroke="black" stroke-width="1px" x1="111.7902876919147" x2="243.7860886436612" y1="376.33315993439834" y2="303.0156661093398" /><line stroke="black" stroke-width="1px" x1="84.44441313328906" x2="220.0874838218374" y1="326.1361907911701" y2="261.66315744240745" /><line stroke="black" stroke-width="1px" x1="84.44441313328906" x2="111.7902876919147" y1="326.1361907911701" y2="376.33315993439834" /><line stroke="black" stroke-width="1px" x1="220.0874838218374" x2="243.7860886436612" y1="261.66315744240745" y2="303.0156661093398" /><line stroke="black" stroke-width="1px" x1="221.23194174966443" x2="146.3829130088501" y1="289.87909256802305" y2="300.87727873718256" /><line stroke="black" stroke-width="1px" x1="146.3829130088501" x2="184.63402272462145" y1="300.87727873718256" y2="258.9168785379675" /><line stroke="black" stroke-width="1px" x1="184.63402272462145" x2="221.23194174966443" y1="258.9168785379675" y2="289.87909256802305" /><line stroke="black" stroke-width="1px" x1="320.720002915592" x2="270.5050341980339" y1="238.37783916291835" y2="241.19196373251805" /><line stroke="black" stroke-width="1px" x1="270.5050341980339" x2="297.44985724428875" y1="241.19196373251805" y2="208.3830713418553" /><line stroke="black" stroke-width="1px" x1="297.44985724428875" x2="320.720002915592" y1="208.3830713418553" y2="238.37783916291835" /><line stroke="black" stroke-width="1px" x1="221.23194174966443" x2="320.720002915592" y1="289.87909256802305" y2="238.37783916291835" /><line stroke="black" stroke-width="1px" x1="146.3829130088501" x2="270.5050341980339" y1="300.87727873718256" y2="241.19196373251805" /><line stroke="black" stroke-width="1px" x1="184.63402272462145" x2="297.44985724428875" y1="258.9168785379675" y2="208.3830713418553" /><line stroke="black" stroke-width="1px" x1="84.79842952176645" x2="234.72645337848843" y1="256.0991566645739" y2="197.68067111444316" /><line stroke="black" stroke-width="1px" x1="73.86785139794233" x2="218.14129896123737" y1="271.91345459839926" y2="213.68111770643577" /></svg>