<?xml version="1.0" encoding="utf-8" ?>
<svg baseProfile="full" height="518px" version="1.1" viewBox="0,0,518,518" width="518px" xmlns="http://www.w3.org/2000/svg" xmlns:ev="http://www.w3.org/2001/xml-events" xmlns:xlink="http://www.w3.org/1999/xlink"><defs /><rect fill="white" height="100%" width="100%" x="0" y="0" /><line stroke="black" stroke-width="1px" x1="268.7452209630039" x2="269.93396925240063" y1="278.45084056253387" y2="163.47270560449408" /><line stroke="black" stroke-width="1px" x1="269.93396925240063" x2="340.6998376000318" y1="163.47270560449408" y2="187.89887224227158" /><line stroke="black" stroke-width="1px" x1="340.6998376000318" x2="330.96850966065506" y1="187.89887224227158" y2="310.9556795374991" /><line stroke="black" stroke-width="1px" x1="330.96850966065506" x2="268.7452209630039" y1="310.9556795374991" y2="278.45084056253387" /><line stroke="black" stroke-width="1px" x1="184.55285871760816" x2="174.09096409702605" y1="323.7893050832078" y2="197.70226464305023" /><line stroke="black" stroke-width="1px" x1="174.09096409702605" x2="244.80301330727696" y1="197.70226464305023" y2="230.6637184855117" /><line stroke="black" stroke-width="1px" x1="244.80301330727696" x2="246.74416489076089" y1="230.6637184855117" y2="366.07609848875387" /><line stroke="black" stroke-width="1px" x1="246.74416489076089" x2="184.55285871760816" y1="366.07609848875387" y2="323.7893050832078" /><line stroke="black" stroke-width="1px" x1="268.7452209630039" x2="184.55285871760816" y1="278.45084056253387" y2="323.7893050832078" /><line stroke="black" stroke-width="1px" x1="269.93396925240063" x2="174.09096409702605" y1="163.47270560449408" y2="197.70226464305023" /><line stroke="black" stroke-width="1px" x1="340.6998376000318" x2="244.80301330727696" y1="187.89887224227158" y2="230.6637184855117" /><line stroke="black" stroke-width="1px" x1="330.96850966065506" x2="246.74416489076089" y1="310.9556795374991" y2="366.07609848875387" /><line stroke="black" stroke-width="1px" x1="257.213188151405" x2="256.99075305794776" y1="284.66096041825176" y2="168.0952712487849" /><line stroke="black" stroke-width="1px" x1="280.63311497555253" x2="283.3261595482877" y1="284.6609604182517" y2="168.09527124878488" /><line stroke="black" stroke-width="1px" x1="280.63311497555253" x2="257.213188151405" y1="284.6609604182517" y2="284.66096041825176" /><line stroke="black" stroke-width="1px" x1="283.3261595482877" x2="256.99075305794776" y1="168.09527124878488" y2="168.0952712487849" /><line stroke="black" stroke-width="1px" x1="189.3463416135321" x2="239.65604504206607" y1="316.38026340407674" y2="349.649376738795" /><line stroke="black" stroke-width="1px" x1="239.65604504206607" x2="208.09283075319763" y1="349.649376738795" y2="227.98708759953507" /><line stroke="black" stroke-width="1px" x1="208.09283075319763" x2="189.3463416135321" y1="227.98708759953507" y2="316.38026340407674" /><line stroke="black" stroke-width="1px" x1="239.62020406208495" x2="290.1693698280658" y1="289.64862202920926" y2="318.20161170625727" /><line stroke="black" stroke-width="1px" x1="290.1693698280658" x2="264.4370708202787" y1="318.20161170625727" y2="204.41087776224578" /><line stroke="black" stroke-width="1px" x1="264.4370708202787" x2="239.62020406208495" y1="204.41087776224578" y2="289.64862202920926" /><line stroke="black" stroke-width="1px" x1="189.3463416135321" x2="239.62020406208495" y1="316.38026340407674" y2="289.64862202920926" /><line stroke="black" stroke-width="1px" x1="239.65604504206607" x2="290.1693698280658" y1="349.649376738795" y2="318.20161170625727" /><line stroke="black" stroke-width="1px" x1="208.09283075319763" x2="264.4370708202787" y1="227.98708759953507" y2="204.41087776224578" /><line stroke="black" stroke-width="1px" x1="242.00932286405103" x2="219.4693092004852" y1="213.79535595139765" y2="300.36326515761783" /><line stroke="black" stroke-width="1px" x1="271.0474773862465" x2="258.5890153055753" y1="233.64273981165547" y2="300.36326515761783" /><line stroke="black" stroke-width="1px" x1="271.0474773862465" x2="242.00932286405103" y1="233.64273981165547" y2="213.79535595139765" /><line stroke="black" stroke-width="1px" x1="258.5890153055753" x2="219.4693092004852" y1="300.36326515761783" y2="300.36326515761783" /></svg>