<?xml version="1.0" encoding="utf-8" ?>
<svg baseProfile="full" height="518px" version="1.1" viewBox="0,0,518,518" width="518px" xmlns="http://www.w3.org/2000/svg" xmlns:ev="http://www.w3.org/2001/xml-events" xmlns:xlink="http://www.w3.org/1999/xlink"><defs /><rect fill="white" height="100%" width="100%" x="0" y="0" /><line stroke="black" stroke-width="1px" x1="169.62120537233824" x2="153.4017284634623" y1="343.5758283603881" y2="184.34544261334736" /><line stroke="black" stroke-width="1px" x1="153.4017284634623" x2="230.11272093697062" y1="184.34544261334736" y2="219.57160836030727" /><line stroke="black" stroke-width="1px" x1="230.11272093697062" x2="235.07584199291372" y1="219.57160836030727" y2="391.6317990844748" /><line stroke="black" stroke-width="1px" x1="235.07584199291372" x2="169.62120537233824" y1="391.6317990844748" y2="343.5758283603881" /><line stroke="black" stroke-width="1px" x1="277.23805599879796" x2="279.9868148820834" y1="283.8932138294593" y2="142.65237288438385" /><line stroke="black" stroke-width="1px" x1="279.9868148820834" x2="356.8849717334493" y1="142.65237288438385" y2="166.37509268414897" /><line stroke="black" stroke-width="1px" x1="356.8849717334493" x2="342.79029054645736" y1="166.37509268414897" y2="318.2370212412086" /><line stroke="black" stroke-width="1px" x1="342.79029054645736" x2="277.23805599879796" y1="318.2370212412086" y2="283.8932138294593" /><line stroke="black" stroke-width="1px" x1="169.62120537233824" x2="277.23805599879796" y1="343.5758283603881" y2="283.8932138294593" /><line stroke="black" stroke-width="1px" x1="153.4017284634623" x2="279.9868148820834" y1="184.34544261334736" y2="142.65237288438385" /><line stroke="black" stroke-width="1px" x1="230.11272093697062" x2="356.8849717334493" y1="219.57160836030727" y2="166.37509268414897" /><line stroke="black" stroke-width="1px" x1="235.07584199291372" x2="342.79029054645736" y1="391.6317990844748" y2="318.2370212412086" /><line stroke="black" stroke-width="1px" x1="259.42237592043176" x2="259.4881380113596" y1="293.77351008914235" y2="149.40397995203017" /><line stroke="black" stroke-width="1px" x1="296.0966376944759" x2="301.8724225893327" y1="293.7735100891423" y2="149.40397995203014" /><line stroke="black" stroke-width="1px" x1="296.0966376944759" x2="259.42237592043176" y1="293.7735100891423" y2="293.77351008914235" /><line stroke="black" stroke-width="1px" x1="301.8724225893327" x2="259.4881380113596" y1="149.40397995203014" y2="149.40397995203017" /><line stroke="black" stroke-width="1px" x1="273.94566129047683" x2="187.97070357051484" y1="292.3063855838199" y2="340.8908549131367" /><line stroke="black" stroke-width="1px" x1="187.97070357051484" x2="286.44490762189713" y1="340.8908549131367" y2="347.2795541170815" /><line stroke="black" stroke-width="1px" x1="286.44490762189713" x2="273.94566129047683" y1="347.2795541170815" y2="292.3063855838199" /><line stroke="black" stroke-width="1px" x1="273.94566129047683" x2="187.97070357051484" y1="292.3063855838199" y2="340.8908549131367" /><line stroke="black" stroke-width="1px" x1="187.97070357051484" x2="286.44490762189713" y1="340.8908549131367" y2="347.2795541170815" /><line stroke="black" stroke-width="1px" x1="286.44490762189713" x2="273.94566129047683" y1="347.2795541170815" y2="292.3063855838199" /><line stroke="black" stroke-width="1px" x1="273.94566129047683" x2="273.94566129047683" y1="292.3063855838199" y2="292.3063855838199" /><line stroke="black" stroke-width="1px" x1="187.97070357051484" x2="187.97070357051484" y1="340.8908549131367" y2="340.8908549131367" /><line stroke="black" stroke-width="1px" x1="286.44490762189713" x2="286.44490762189713" y1="347.2795541170815" y2="347.2795541170815" /><line stroke="black" stroke-width="1px" x1="231.0700514501038" x2="354.2380232271417" y1="252.76009375469675" y2="194.89441139921723" /><line stroke="black" stroke-width="1px" x1="205.43759203379602" x2="332.55018786525284" y1="208.24063541179527" y2="158.86792628731467" /></svg>