<?xml version="1.0" encoding="utf-8" ?>
<svg baseProfile="full" height="518px" version="1.1" viewBox="0,0,518,518" width="518px" xmlns="http://www.w3.org/2000/svg" xmlns:ev="http://www.w3.org/2001/xml-events" xmlns:xlink="http://www.w3.org/1999/xlink"><defs /><rect fill="white" height="100%" width="100%" x="0" y="0" /><line stroke="black" stroke-width="1px" x1="264.3992165239651" x2="362.7052021200108" y1="290.4111038725346" y2="343.92823384883445" /><line stroke="black" stroke-width="1px" x1="362.7052021200108" x2="251.49352607349348" y1="343.92823384883445" y2="427.82703387674457" /><line stroke="black" stroke-width="1px" x1="251.49352607349348" x2="153.24352485658488" y1="427.82703387674457" y2="351.9510254215386" /><line stroke="black" stroke-width="1px" x1="153.24352485658488" x2="264.3992165239651" y1="351.9510254215386" y2="290.4111038725346" /><line stroke="black" stroke-width="1px" x1="264.6613633593004" x2="368.5488460094037" y1="245.22707591855243" y2="294.50486567745986" /><line stroke="black" stroke-width="1px" x1="368.5488460094037" x2="250.97703385196016" y1="294.50486567745986" y2="373.24984049684025" /><line stroke="black" stroke-width="1px" x1="250.97703385196016" x2="147.15964102770414" y1="373.24984049684025" y2="301.95536216701635" /><line stroke="black" stroke-width="1px" x1="147.15964102770414" x2="264.6613633593004" y1="301.95536216701635" y2="245.22707591855243" /><line stroke="black" stroke-width="1px" x1="264.3992165239651" x2="264.6613633593004" y1="290.4111038725346" y2="245.22707591855243" /><line stroke="black" stroke-width="1px" x1="362.7052021200108" x2="368.5488460094037" y1="343.92823384883445" y2="294.50486567745986" /><line stroke="black" stroke-width="1px" x1="251.49352607349348" x2="250.97703385196016" y1="427.82703387674457" y2="373.24984049684025" /><line stroke="black" stroke-width="1px" x1="153.24352485658488" x2="147.15964102770414" y1="351.9510254215386" y2="301.95536216701635" /><line stroke="black" stroke-width="1px" x1="251.23126823372849" x2="150.1381973579853" y1="400.1145219752906" y2="326.4323087133081" /><line stroke="black" stroke-width="1px" x1="277.2555166785982" x2="178.4636740991536" y1="408.3920233190895" y2="337.9882135982254" /><line stroke="black" stroke-width="1px" x1="263.6664501308068" x2="169.71447784878035" y1="254.53491536797108" y2="301.19631552528045" /><line stroke="black" stroke-width="1px" x1="169.71447784878035" x2="252.83864423509374" y1="301.19631552528045" y2="355.8336778935815" /><line stroke="black" stroke-width="1px" x1="252.83864423509374" x2="346.8190104223829" y1="355.8336778935815" y2="295.2361482337757" /><line stroke="black" stroke-width="1px" x1="346.8190104223829" x2="263.6664501308068" y1="295.2361482337757" y2="254.53491536797108" /><line stroke="black" stroke-width="1px" x1="264.312552030852" x2="155.23217995846034" y1="120.71730487942355" y2="151.99765097414235" /><line stroke="black" stroke-width="1px" x1="155.23217995846034" x2="251.6599974054168" y1="151.99765097414235" y2="190.3248311467636" /><line stroke="black" stroke-width="1px" x1="251.6599974054168" x2="360.7922458301527" y1="190.3248311467636" y2="147.92964274612987" /><line stroke="black" stroke-width="1px" x1="360.7922458301527" x2="264.312552030852" y1="147.92964274612987" y2="120.71730487942355" /><line stroke="black" stroke-width="1px" x1="263.6664501308068" x2="264.312552030852" y1="254.53491536797108" y2="120.71730487942355" /><line stroke="black" stroke-width="1px" x1="169.71447784878035" x2="155.23217995846034" y1="301.19631552528045" y2="151.99765097414235" /><line stroke="black" stroke-width="1px" x1="252.83864423509374" x2="251.6599974054168" y1="355.8336778935815" y2="190.3248311467636" /><line stroke="black" stroke-width="1px" x1="346.8190104223829" x2="360.7922458301527" y1="295.2361482337757" y2="147.92964274612987" /><line stroke="black" stroke-width="1px" x1="278.2746997768431" x2="281.7906222525197" y1="339.4327827635507" y2="178.6198261142437" /><line stroke="black" stroke-width="1px" x1="227.88665759848936" x2="222.21123328011328" y1="339.4327827635507" y2="178.6198261142437" /><line stroke="black" stroke-width="1px" x1="227.88665759848936" x2="278.2746997768431" y1="339.4327827635507" y2="339.4327827635507" /><line stroke="black" stroke-width="1px" x1="222.21123328011328" x2="281.7906222525197" y1="178.6198261142437" y2="178.6198261142437" /></svg>