<?xml version="1.0" encoding="utf-8" ?>
<svg baseProfile="full" height="518px" version="1.1" viewBox="0,0,518,518" width="518px" xmlns="http://www.w3.org/2000/svg" xmlns:ev="http://www.w3.org/2001/xml-events" xmlns:xlink="http://www.w3.org/1999/xlink"><defs /><rect fill="white" height="100%" width="100%" x="0" y="0" /><line stroke="black" stroke-width="1px" x1="190.6051251281296" x2="184.67374307143507" y1="288.5181020564588" y2="207.64838471290835" /><line stroke="black" stroke-width="1px" x1="184.67374307143507" x2="281.5671025475845" y1="207.64838471290835" y2="253.6705366379044" /><line stroke="black" stroke-width="1px" x1="281.5671025475845" x2="279.4868333398851" y1="253.6705366379044" y2="342.8430187352694" /><line stroke="black" stroke-width="1px" x1="279.4868333398851" x2="190.6051251281296" y1="342.8430187352694" y2="288.5181020564588" /><line stroke="black" stroke-width="1px" x1="236.54219808656404" x2="234.73082085513823" y1="265.85242694895993" y2="188.8108795315548" /><line stroke="black" stroke-width="1px" x1="234.73082085513823" x2="331.64428319146424" y1="188.8108795315548" y2="228.15009253466746" /><line stroke="black" stroke-width="1px" x1="331.64428319146424" x2="325.44349884090263" y1="228.15009253466746" y2="312.90037597970957" /><line stroke="black" stroke-width="1px" x1="325.44349884090263" x2="236.54219808656404" y1="312.90037597970957" y2="265.85242694895993" /><line stroke="black" stroke-width="1px" x1="190.6051251281296" x2="236.54219808656404" y1="288.5181020564588" y2="265.85242694895993" /><line stroke="black" stroke-width="1px" x1="184.67374307143507" x2="234.73082085513823" y1="207.64838471290835" y2="188.8108795315548" /><line stroke="black" stroke-width="1px" x1="281.5671025475845" x2="331.64428319146424" y1="253.6705366379044" y2="228.15009253466746" /><line stroke="black" stroke-width="1px" x1="279.4868333398851" x2="325.44349884090263" y1="342.8430187352694" y2="312.90037597970957" /><line stroke="black" stroke-width="1px" x1="296.48797747372174" x2="207.49219276740683" y1="331.76607963001646" y2="280.1859040303341" /><line stroke="black" stroke-width="1px" x1="279.9688565759979" x2="189.21639934876663" y1="322.180688959059" y2="269.58392108964165" /><line stroke="black" stroke-width="1px" x1="279.9688565759979" x2="296.48797747372174" y1="322.180688959059" y2="331.76607963001646" /><line stroke="black" stroke-width="1px" x1="189.21639934876663" x2="207.49219276740683" y1="269.58392108964165" y2="280.1859040303341" /><line stroke="black" stroke-width="1px" x1="325.44349884090263" x2="326.7788167947773" y1="312.90037597970957" y2="264.7954228192829" /><line stroke="black" stroke-width="1px" x1="326.7788167947773" x2="283.38341970031644" y1="264.7954228192829" y2="255.1784431528193" /><line stroke="black" stroke-width="1px" x1="283.38341970031644" x2="325.44349884090263" y1="255.1784431528193" y2="312.90037597970957" /><line stroke="black" stroke-width="1px" x1="284.2452427633658" x2="283.8049169634404" y1="339.7427208372677" y2="289.2556836147054" /><line stroke="black" stroke-width="1px" x1="283.8049169634404" x2="241.52544443930606" y1="289.2556836147054" y2="276.6753001345189" /><line stroke="black" stroke-width="1px" x1="241.52544443930606" x2="284.2452427633658" y1="276.6753001345189" y2="339.7427208372677" /><line stroke="black" stroke-width="1px" x1="325.44349884090263" x2="284.2452427633658" y1="312.90037597970957" y2="339.7427208372677" /><line stroke="black" stroke-width="1px" x1="326.7788167947773" x2="283.8049169634404" y1="264.7954228192829" y2="289.2556836147054" /><line stroke="black" stroke-width="1px" x1="283.38341970031644" x2="241.52544443930606" y1="255.1784431528193" y2="276.6753001345189" /><line stroke="black" stroke-width="1px" x1="211.32271090060232" x2="308.37483322163376" y1="197.61983147356813" y2="240.0087213478833" /><line stroke="black" stroke-width="1px" x1="186.949033138388" x2="280.7624344196677" y1="238.67017066941978" y2="288.16330996041677" /></svg>