<?xml version="1.0" encoding="utf-8" ?>
<svg baseProfile="full" height="518px" version="1.1" viewBox="0,0,518,518" width="518px" xmlns="http://www.w3.org/2000/svg" xmlns:ev="http://www.w3.org/2001/xml-events" xmlns:xlink="http://www.w3.org/1999/xlink"><defs /><rect fill="white" height="100%" width="100%" x="0" y="0" /><line stroke="black" stroke-width="1px" x1="146.97251421507087" x2="129.75473801133094" y1="319.6810713518995" y2="181.1508295086105" /><line stroke="black" stroke-width="1px" x1="129.75473801133094" x2="268.973734289252" y1="181.1508295086105" y2="247.164622455116" /><line stroke="black" stroke-width="1px" x1="268.973734289252" x2="267.3429082115961" y1="247.164622455116" y2="406.40310020615726" /><line stroke="black" stroke-width="1px" x1="267.3429082115961" x2="146.97251421507087" y1="406.40310020615726" y2="319.6810713518995" /><line stroke="black" stroke-width="1px" x1="253.16086078039496" x2="252.40626826760325" y1="265.92904133967534" y2="142.50147518918567" /><line stroke="black" stroke-width="1px" x1="252.40626826760325" x2="391.4850788484375" y1="142.50147518918567" y2="187.23782068895105" /><line stroke="black" stroke-width="1px" x1="391.4850788484375" x2="373.4534953621735" y1="187.23782068895105" y2="327.93954591980685" /><line stroke="black" stroke-width="1px" x1="373.4534953621735" x2="253.16086078039496" y1="327.93954591980685" y2="265.92904133967534" /><line stroke="black" stroke-width="1px" x1="146.97251421507087" x2="253.16086078039496" y1="319.6810713518995" y2="265.92904133967534" /><line stroke="black" stroke-width="1px" x1="129.75473801133094" x2="252.40626826760325" y1="181.1508295086105" y2="142.50147518918567" /><line stroke="black" stroke-width="1px" x1="268.973734289252" x2="391.4850788484375" y1="247.164622455116" y2="187.23782068895105" /><line stroke="black" stroke-width="1px" x1="267.3429082115961" x2="373.4534953621735" y1="406.40310020615726" y2="327.93954591980685" /><line stroke="black" stroke-width="1px" x1="268.7501837092044" x2="389.08131094316064" y1="268.9927343272967" y2="205.99459219405287" /><line stroke="black" stroke-width="1px" x1="251.1835775927439" x2="374.3591744579362" y1="238.72902277369937" y2="181.72907084697482" /><line stroke="black" stroke-width="1px" x1="254.18416172509404" x2="169.18764091407468" y1="276.0649006252344" y2="320.4911308012067" /><line stroke="black" stroke-width="1px" x1="169.18764091407468" x2="310.92859403020043" y1="320.4911308012067" y2="354.9743125589539" /><line stroke="black" stroke-width="1px" x1="310.92859403020043" x2="254.18416172509404" y1="354.9743125589539" y2="276.0649006252344" /><line stroke="black" stroke-width="1px" x1="254.18416172509404" x2="169.18764091407468" y1="276.0649006252344" y2="320.4911308012067" /><line stroke="black" stroke-width="1px" x1="169.18764091407468" x2="310.92859403020043" y1="320.4911308012067" y2="354.9743125589539" /><line stroke="black" stroke-width="1px" x1="310.92859403020043" x2="254.18416172509404" y1="354.9743125589539" y2="276.0649006252344" /><line stroke="black" stroke-width="1px" x1="254.18416172509404" x2="254.18416172509404" y1="276.0649006252344" y2="276.0649006252344" /><line stroke="black" stroke-width="1px" x1="169.18764091407468" x2="169.18764091407468" y1="320.4911308012067" y2="320.4911308012067" /><line stroke="black" stroke-width="1px" x1="310.92859403020043" x2="310.92859403020043" y1="354.9743125589539" y2="354.9743125589539" /><line stroke="black" stroke-width="1px" x1="164.89231089905786" x2="150.82413126443652" y1="310.61015650741535" y2="174.51154467104584" /><line stroke="black" stroke-width="1px" x1="160.19183300798963" x2="144.56653556082972" y1="329.2050590014392" y2="188.1741737557292" /></svg>