<?xml version="1.0" encoding="utf-8" ?>
<svg baseProfile="full" height="518px" version="1.1" viewBox="0,0,518,518" width="518px" xmlns="http://www.w3.org/2000/svg" xmlns:ev="http://www.w3.org/2001/xml-events" xmlns:xlink="http://www.w3.org/1999/xlink"><defs /><rect fill="white" height="100%" width="100%" x="0" y="0" /><line stroke="black" stroke-width="1px" x1="285.9610379685971" x2="349.67682264674966" y1="238.17641369935822" y2="266.763814175133" /><line stroke="black" stroke-width="1px" x1="349.67682264674966" x2="222.65675038754495" y1="266.763814175133" y2="342.52253415004816" /><line stroke="black" stroke-width="1px" x1="222.65675038754495" x2="159.125623561174" y1="342.52253415004816" y2="300.0782120596796" /><line stroke="black" stroke-width="1px" x1="159.125623561174" x2="285.9610379685971" y1="300.0782120596796" y2="238.17641369935822" /><line stroke="black" stroke-width="1px" x1="287.1654148909711" x2="354.1326042314158" y1="194.27142310699656" y2="219.87207320086463" /><line stroke="black" stroke-width="1px" x1="354.1326042314158" x2="220.43374296659655" y1="219.87207320086463" y2="288.78697565587805" /><line stroke="black" stroke-width="1px" x1="220.43374296659655" x2="153.69300100903612" y1="288.78697565587805" y2="249.98353970019625" /><line stroke="black" stroke-width="1px" x1="153.69300100903612" x2="287.1654148909711" y1="249.98353970019625" y2="194.27142310699656" /><line stroke="black" stroke-width="1px" x1="285.9610379685971" x2="287.1654148909711" y1="238.17641369935822" y2="194.27142310699656" /><line stroke="black" stroke-width="1px" x1="349.67682264674966" x2="354.1326042314158" y1="266.763814175133" y2="219.87207320086463" /><line stroke="black" stroke-width="1px" x1="222.65675038754495" x2="220.43374296659655" y1="342.52253415004816" y2="288.78697565587805" /><line stroke="black" stroke-width="1px" x1="159.125623561174" x2="153.69300100903612" y1="300.0782120596796" y2="249.98353970019625" /><line stroke="black" stroke-width="1px" x1="273.0900028922679" x2="273.73320531015247" y1="244.45809947068588" y2="199.8781009552957" /><line stroke="black" stroke-width="1px" x1="299.9617001960318" x2="301.83158374454473" y1="244.45809947068588" y2="199.8781009552957" /><line stroke="black" stroke-width="1px" x1="299.9617001960318" x2="273.0900028922679" y1="244.45809947068588" y2="244.45809947068588" /><line stroke="black" stroke-width="1px" x1="301.83158374454473" x2="273.73320531015247" y1="199.8781009552957" y2="199.8781009552957" /><line stroke="black" stroke-width="1px" x1="275.3358888623472" x2="173.68684549173838" y1="239.12488528144985" y2="288.0454203806302" /><line stroke="black" stroke-width="1px" x1="173.68684549173838" x2="227.13585145221936" y1="288.0454203806302" y2="224.28293018291896" /><line stroke="black" stroke-width="1px" x1="227.13585145221936" x2="275.3358888623472" y1="224.28293018291896" y2="239.12488528144985" /><line stroke="black" stroke-width="1px" x1="275.3358888623472" x2="173.68684549173838" y1="239.12488528144985" y2="288.0454203806302" /><line stroke="black" stroke-width="1px" x1="173.68684549173838" x2="227.13585145221936" y1="288.0454203806302" y2="224.28293018291896" /><line stroke="black" stroke-width="1px" x1="227.13585145221936" x2="275.3358888623472" y1="224.28293018291896" y2="239.12488528144985" /><line stroke="black" stroke-width="1px" x1="275.3358888623472" x2="275.3358888623472" y1="239.12488528144985" y2="239.12488528144985" /><line stroke="black" stroke-width="1px" x1="173.68684549173838" x2="173.68684549173838" y1="288.0454203806302" y2="288.0454203806302" /><line stroke="black" stroke-width="1px" x1="227.13585145221936" x2="227.13585145221936" y1="224.28293018291896" y2="224.28293018291896" /><line stroke="black" stroke-width="1px" x1="221.222247967064" x2="155.61200877929022" y1="307.8470814280338" y2="267.67887277065796" /><line stroke="black" stroke-width="1px" x1="237.3813505161743" x2="170.28934822447675" y1="280.0513536013892" y2="243.05613347297586" /><line stroke="black" stroke-width="1px" x1="237.3813505161743" x2="221.222247967064" y1="280.0513536013892" y2="307.8470814280338" /><line stroke="black" stroke-width="1px" x1="170.28934822447675" x2="155.61200877929022" y1="243.05613347297586" y2="267.67887277065796" /></svg>