<?xml version="1.0" encoding="utf-8" ?>
<svg baseProfile="full" height="518px" version="1.1" viewBox="0,0,518,518" width="518px" xmlns="http://www.w3.org/2000/svg" xmlns:ev="http://www.w3.org/2001/xml-events" xmlns:xlink="http://www.w3.org/1999/xlink"><defs /><rect fill="white" height="100%" width="100%" x="0" y="0" /><line stroke="black" stroke-width="1px" x1="241.44360281136125" x2="240.0807432262471" y1="260.86353207034364" y2="186.3283224783944" /><line stroke="black" stroke-width="1px" x1="240.0807432262471" x2="119.92557542417669" y1="186.3283224783944" y2="231.45977954330795" /><line stroke="black" stroke-width="1px" x1="119.92557542417669" x2="131.61377793428946" y1="231.45977954330795" y2="314.6258770297892" /><line stroke="black" stroke-width="1px" x1="131.61377793428946" x2="241.44360281136125" y1="314.6258770297892" y2="260.86353207034364" /><line stroke="black" stroke-width="1px" x1="362.82321203729504" x2="372.5986513939036" y1="323.62402891471004" y2="239.12923469617772" /><line stroke="black" stroke-width="1px" x1="372.5986513939036" x2="251.41667344948925" y1="239.12923469617772" y2="308.19970439826074" /><line stroke="black" stroke-width="1px" x1="251.41667344948925" x2="252.20353008792088" y1="308.19970439826074" y2="402.91608352768606" /><line stroke="black" stroke-width="1px" x1="252.20353008792088" x2="362.82321203729504" y1="402.91608352768606" y2="323.62402891471004" /><line stroke="black" stroke-width="1px" x1="241.44360281136125" x2="362.82321203729504" y1="260.86353207034364" y2="323.62402891471004" /><line stroke="black" stroke-width="1px" x1="240.0807432262471" x2="372.5986513939036" y1="186.3283224783944" y2="239.12923469617772" /><line stroke="black" stroke-width="1px" x1="119.92557542417669" x2="251.41667344948925" y1="231.45977954330795" y2="308.19970439826074" /><line stroke="black" stroke-width="1px" x1="131.61377793428946" x2="252.20353008792088" y1="314.6258770297892" y2="402.91608352768606" /><line stroke="black" stroke-width="1px" x1="122.6254442721754" x2="251.60148986250658" y1="250.6703943165463" y2="330.4466304451481" /><line stroke="black" stroke-width="1px" x1="138.4004880905661" x2="270.6810812387362" y1="224.5204215195675" y2="297.21950984205296" /><line stroke="black" stroke-width="1px" x1="372.5986513939036" x2="348.83323216178974" y1="239.12923469617772" y2="229.01219112576123" /><line stroke="black" stroke-width="1px" x1="348.83323216178974" x2="302.3674458562335" y1="229.01219112576123" y2="165.49158472113464" /><line stroke="black" stroke-width="1px" x1="302.3674458562335" x2="372.5986513939036" y1="165.49158472113464" y2="239.12923469617772" /><line stroke="black" stroke-width="1px" x1="372.5986513939036" x2="348.83323216178974" y1="239.12923469617772" y2="229.01219112576123" /><line stroke="black" stroke-width="1px" x1="348.83323216178974" x2="302.3674458562335" y1="229.01219112576123" y2="165.49158472113464" /><line stroke="black" stroke-width="1px" x1="302.3674458562335" x2="372.5986513939036" y1="165.49158472113464" y2="239.12923469617772" /><line stroke="black" stroke-width="1px" x1="372.5986513939036" x2="372.5986513939036" y1="239.12923469617772" y2="239.12923469617772" /><line stroke="black" stroke-width="1px" x1="348.83323216178974" x2="348.83323216178974" y1="229.01219112576123" y2="229.01219112576123" /><line stroke="black" stroke-width="1px" x1="302.3674458562335" x2="302.3674458562335" y1="165.49158472113464" y2="165.49158472113464" /><line stroke="black" stroke-width="1px" x1="232.57432907083088" x2="235.24300613965102" y1="297.20306574040245" y2="390.49837692358324" /><line stroke="black" stroke-width="1px" x1="270.70993190056197" x2="269.5273686716382" y1="297.20306574040245" y2="390.49837692358324" /></svg>