<?xml version="1.0" encoding="utf-8" ?>
<svg baseProfile="full" height="518px" version="1.1" viewBox="0,0,518,518" width="518px" xmlns="http://www.w3.org/2000/svg" xmlns:ev="http://www.w3.org/2001/xml-events" xmlns:xlink="http://www.w3.org/1999/xlink"><defs /><rect fill="white" height="100%" width="100%" x="0" y="0" /><line stroke="black" stroke-width="1px" x1="288.13528707739096" x2="291.4862435236523" y1="273.36509215309593" y2="164.3708648263654" /><line stroke="black" stroke-width="1px" x1="291.4862435236523" x2="163.9174904688822" y1="164.3708648263654" y2="211.73191206924076" /><line stroke="black" stroke-width="1px" x1="163.9174904688822" x2="175.52921061468015" y1="211.73191206924076" y2="334.9897767045512" /><line stroke="black" stroke-width="1px" x1="175.52921061468015" x2="288.13528707739096" y1="334.9897767045512" y2="273.36509215309593" /><line stroke="black" stroke-width="1px" x1="334.3640943685584" x2="343.703693519327" y1="296.4655302747264" y2="181.88781735522414" /><line stroke="black" stroke-width="1px" x1="343.703693519327" x2="215.96364753124453" y1="181.88781735522414" y2="237.78101672708314" /><line stroke="black" stroke-width="1px" x1="215.96364753124453" x2="221.65389046734794" y1="237.78101672708314" y2="367.7854323508247" /><line stroke="black" stroke-width="1px" x1="221.65389046734794" x2="334.3640943685584" y1="367.7854323508247" y2="296.4655302747264" /><line stroke="black" stroke-width="1px" x1="288.13528707739096" x2="334.3640943685584" y1="273.36509215309593" y2="296.4655302747264" /><line stroke="black" stroke-width="1px" x1="291.4862435236523" x2="343.703693519327" y1="164.3708648263654" y2="181.88781735522414" /><line stroke="black" stroke-width="1px" x1="163.9174904688822" x2="215.96364753124453" y1="211.73191206924076" y2="237.78101672708314" /><line stroke="black" stroke-width="1px" x1="175.52921061468015" x2="221.65389046734794" y1="334.9897767045512" y2="367.7854323508247" /><line stroke="black" stroke-width="1px" x1="309.44798031378747" x2="181.6285479913044" y1="170.3963388913516" y2="220.5962973964771" /><line stroke="black" stroke-width="1px" x1="290.8118537002649" x2="166.29454892096982" y1="186.30627308842304" y2="236.9642760289997" /><line stroke="black" stroke-width="1px" x1="290.8118537002649" x2="309.44798031378747" y1="186.30627308842304" y2="170.3963388913516" /><line stroke="black" stroke-width="1px" x1="166.29454892096982" x2="181.6285479913044" y1="236.9642760289997" y2="220.5962973964771" /><line stroke="black" stroke-width="1px" x1="282.8321984299467" x2="192.9340208894414" y1="280.89681470590943" y2="330.7683664938809" /><line stroke="black" stroke-width="1px" x1="192.9340208894414" x2="229.9420160840359" y1="330.7683664938809" y2="356.0142049062591" /><line stroke="black" stroke-width="1px" x1="229.9420160840359" x2="319.88256786569775" y1="356.0142049062591" y2="299.97791925686414" /><line stroke="black" stroke-width="1px" x1="319.88256786569775" x2="282.8321984299467" y1="299.97791925686414" y2="280.89681470590943" /><line stroke="black" stroke-width="1px" x1="282.8321984299467" x2="192.9340208894414" y1="280.89681470590943" y2="330.7683664938809" /><line stroke="black" stroke-width="1px" x1="192.9340208894414" x2="229.9420160840359" y1="330.7683664938809" y2="356.0142049062591" /><line stroke="black" stroke-width="1px" x1="229.9420160840359" x2="319.88256786569775" y1="356.0142049062591" y2="299.97791925686414" /><line stroke="black" stroke-width="1px" x1="319.88256786569775" x2="282.8321984299467" y1="299.97791925686414" y2="280.89681470590943" /><line stroke="black" stroke-width="1px" x1="282.8321984299467" x2="282.8321984299467" y1="280.89681470590943" y2="280.89681470590943" /><line stroke="black" stroke-width="1px" x1="192.9340208894414" x2="192.9340208894414" y1="330.7683664938809" y2="330.7683664938809" /><line stroke="black" stroke-width="1px" x1="229.9420160840359" x2="229.9420160840359" y1="356.0142049062591" y2="356.0142049062591" /><line stroke="black" stroke-width="1px" x1="319.88256786569775" x2="319.88256786569775" y1="299.97791925686414" y2="299.97791925686414" /><line stroke="black" stroke-width="1px" x1="183.5999948444246" x2="193.09801677656304" y1="221.58300666192332" y2="347.48158193423916" /><line stroke="black" stroke-width="1px" x1="188.6682086973252" x2="197.00284659377974" y1="202.54298525728777" y2="323.2381369622412" /><line stroke="black" stroke-width="1px" x1="292.8393831862326" x2="330.2364014986108" y1="265.6211613842021" y2="283.7492630648437" /><line stroke="black" stroke-width="1px" x1="330.2364014986108" x2="315.9417504047545" y1="283.7492630648437" y2="185.16093239580144" /><line stroke="black" stroke-width="1px" x1="315.9417504047545" x2="292.8393831862326" y1="185.16093239580144" y2="265.6211613842021" /><line stroke="black" stroke-width="1px" x1="292.8393831862326" x2="330.2364014986108" y1="265.6211613842021" y2="283.7492630648437" /><line stroke="black" stroke-width="1px" x1="330.2364014986108" x2="315.9417504047545" y1="283.7492630648437" y2="185.16093239580144" /><line stroke="black" stroke-width="1px" x1="315.9417504047545" x2="292.8393831862326" y1="185.16093239580144" y2="265.6211613842021" /><line stroke="black" stroke-width="1px" x1="292.8393831862326" x2="292.8393831862326" y1="265.6211613842021" y2="265.6211613842021" /><line stroke="black" stroke-width="1px" x1="330.2364014986108" x2="330.2364014986108" y1="283.7492630648437" y2="283.7492630648437" /><line stroke="black" stroke-width="1px" x1="315.9417504047545" x2="315.9417504047545" y1="185.16093239580144" y2="185.16093239580144" /><line stroke="black" stroke-width="1px" x1="321.2679333997984" x2="193.3924735983162" y1="174.36147999108252" y2="226.48414285175141" /><line stroke="black" stroke-width="1px" x1="341.5543932441896" x2="217.29849107014104" y1="208.25532049182613" y2="268.27805458153404" /></svg>