<?xml version="1.0" encoding="utf-8" ?>
<svg baseProfile="full" height="518px" version="1.1" viewBox="0,0,518,518" width="518px" xmlns="http://www.w3.org/2000/svg" xmlns:ev="http://www.w3.org/2001/xml-events" xmlns:xlink="http://www.w3.org/1999/xlink"><defs /><rect fill="white" height="100%" width="100%" x="0" y="0" /><line stroke="black" stroke-width="1px" x1="304.8712620766055" x2="308.9639172970464" y1="231.73312255366142" y2="143.46775007817627" /><line stroke="black" stroke-width="1px" x1="308.9639172970464" x2="177.4798345263408" y1="143.46775007817627" y2="189.0776338435814" /><line stroke="black" stroke-width="1px" x1="177.4798345263408" x2="185.49596136050735" y1="189.0776338435814" y2="290.55249348397024" /><line stroke="black" stroke-width="1px" x1="185.49596136050735" x2="304.8712620766055" y1="290.55249348397024" y2="231.73312255366142" /><line stroke="black" stroke-width="1px" x1="258.65810399129447" x2="258.6298208484522" y1="212.00247086300212" y2="128.53141341305118" /><line stroke="black" stroke-width="1px" x1="258.6298208484522" x2="128.45024028839438" y1="128.53141341305118" y2="167.11684373266442" /><line stroke="black" stroke-width="1px" x1="128.45024028839438" x2="140.26506083034562" y1="167.11684373266442" y2="262.4963728609534" /><line stroke="black" stroke-width="1px" x1="140.26506083034562" x2="258.65810399129447" y1="262.4963728609534" y2="212.00247086300212" /><line stroke="black" stroke-width="1px" x1="304.8712620766055" x2="258.65810399129447" y1="231.73312255366142" y2="212.00247086300212" /><line stroke="black" stroke-width="1px" x1="308.9639172970464" x2="258.6298208484522" y1="143.46775007817627" y2="128.53141341305118" /><line stroke="black" stroke-width="1px" x1="177.4798345263408" x2="128.45024028839438" y1="189.0776338435814" y2="167.11684373266442" /><line stroke="black" stroke-width="1px" x1="185.49596136050735" x2="140.26506083034562" y1="290.55249348397024" y2="262.4963728609534" /><line stroke="black" stroke-width="1px" x1="289.29231894217344" x2="238.88592975998745" y1="150.29153661977722" y2="134.38353346563133" /><line stroke="black" stroke-width="1px" x1="307.68424521955103" x2="258.6386279692729" y1="171.06614927937775" y2="154.52356329864836" /><line stroke="black" stroke-width="1px" x1="140.26506083034562" x2="271.09190367554345" y1="262.4963728609534" y2="409.3996381672157" /><line stroke="black" stroke-width="1px" x1="271.09190367554345" x2="244.63398808336078" y1="409.3996381672157" y2="324.01147333514655" /><line stroke="black" stroke-width="1px" x1="244.63398808336078" x2="140.26506083034562" y1="324.01147333514655" y2="262.4963728609534" /><line stroke="black" stroke-width="1px" x1="140.26506083034562" x2="271.09190367554345" y1="262.4963728609534" y2="409.3996381672157" /><line stroke="black" stroke-width="1px" x1="271.09190367554345" x2="244.63398808336078" y1="409.3996381672157" y2="324.01147333514655" /><line stroke="black" stroke-width="1px" x1="244.63398808336078" x2="140.26506083034562" y1="324.01147333514655" y2="262.4963728609534" /><line stroke="black" stroke-width="1px" x1="140.26506083034562" x2="140.26506083034562" y1="262.4963728609534" y2="262.4963728609534" /><line stroke="black" stroke-width="1px" x1="271.09190367554345" x2="271.09190367554345" y1="409.3996381672157" y2="409.3996381672157" /><line stroke="black" stroke-width="1px" x1="244.63398808336078" x2="244.63398808336078" y1="324.01147333514655" y2="324.01147333514655" /><line stroke="black" stroke-width="1px" x1="180.16823947001726" x2="132.38988519592635" y1="223.10971940806343" y2="198.9210911927791" /><line stroke="black" stroke-width="1px" x1="206.46193641221183" x2="156.78719930008378" y1="179.02417132221365" y2="158.71772497140182" /></svg>