<?xml version="1.0" encoding="utf-8" ?>
<svg baseProfile="full" height="518px" version="1.1" viewBox="0,0,518,518" width="518px" xmlns="http://www.w3.org/2000/svg" xmlns:ev="http://www.w3.org/2001/xml-events" xmlns:xlink="http://www.w3.org/1999/xlink"><defs /><rect fill="white" height="100%" width="100%" x="0" y="0" /><line stroke="black" stroke-width="1px" x1="268.7248264339241" x2="343.732149725752" y1="236.26087332665344" y2="270.58469977293964" /><line stroke="black" stroke-width="1px" x1="343.732149725752" x2="246.25559352870482" y1="270.58469977293964" y2="328.770959081878" /><line stroke="black" stroke-width="1px" x1="246.25559352870482" x2="171.30192619586495" y1="328.770959081878" y2="282.2149994881751" /><line stroke="black" stroke-width="1px" x1="171.30192619586495" x2="268.7248264339241" y1="282.2149994881751" y2="236.26087332665344" /><line stroke="black" stroke-width="1px" x1="269.0432436139279" x2="346.83784522723005" y1="204.01691853481114" y2="235.7480009133746" /><line stroke="black" stroke-width="1px" x1="346.83784522723005" x2="245.7031219571099" y1="235.7480009133746" y2="290.09149517800813" /><line stroke="black" stroke-width="1px" x1="245.7031219571099" x2="167.97073097674917" y1="290.09149517800813" y2="246.55434913904924" /><line stroke="black" stroke-width="1px" x1="167.97073097674917" x2="269.0432436139279" y1="246.55434913904924" y2="204.01691853481114" /><line stroke="black" stroke-width="1px" x1="268.7248264339241" x2="269.0432436139279" y1="236.26087332665344" y2="204.01691853481114" /><line stroke="black" stroke-width="1px" x1="343.732149725752" x2="346.83784522723005" y1="270.58469977293964" y2="235.7480009133746" /><line stroke="black" stroke-width="1px" x1="246.25559352870482" x2="245.7031219571099" y1="328.770959081878" y2="290.09149517800813" /><line stroke="black" stroke-width="1px" x1="171.30192619586495" x2="167.97073097674917" y1="282.2149994881751" y2="246.55434913904924" /><line stroke="black" stroke-width="1px" x1="246.93215884841567" x2="246.5229296374557" y1="246.54041738840297" y2="213.49482966974682" /><line stroke="black" stroke-width="1px" x1="291.1885539538977" x2="292.2800910706891" y1="246.54041738840297" y2="213.4948296697468" /><line stroke="black" stroke-width="1px" x1="291.1885539538977" x2="246.93215884841567" y1="246.54041738840297" y2="246.54041738840297" /><line stroke="black" stroke-width="1px" x1="292.2800910706891" x2="246.5229296374557" y1="213.4948296697468" y2="213.49482966974682" /><line stroke="black" stroke-width="1px" x1="177.68205757963466" x2="237.77215367224878" y1="282.8904332205321" y2="319.86145036058736" /><line stroke="black" stroke-width="1px" x1="237.77215367224878" x2="204.4937941575773" y1="319.86145036058736" y2="270.7347325808491" /><line stroke="black" stroke-width="1px" x1="204.4937941575773" x2="177.68205757963466" y1="270.7347325808491" y2="282.8904332205321" /><line stroke="black" stroke-width="1px" x1="177.68205757963466" x2="237.77215367224878" y1="282.8904332205321" y2="319.86145036058736" /><line stroke="black" stroke-width="1px" x1="237.77215367224878" x2="204.4937941575773" y1="319.86145036058736" y2="270.7347325808491" /><line stroke="black" stroke-width="1px" x1="204.4937941575773" x2="177.68205757963466" y1="270.7347325808491" y2="282.8904332205321" /><line stroke="black" stroke-width="1px" x1="177.68205757963466" x2="177.68205757963466" y1="282.8904332205321" y2="282.8904332205321" /><line stroke="black" stroke-width="1px" x1="237.77215367224878" x2="237.77215367224878" y1="319.86145036058736" y2="319.86145036058736" /><line stroke="black" stroke-width="1px" x1="204.4937941575773" x2="204.4937941575773" y1="270.7347325808491" y2="270.7347325808491" /><line stroke="black" stroke-width="1px" x1="268.9670940236623" x2="346.0929791817142" y1="211.72807264375018" y2="244.1031903084723" /><line stroke="black" stroke-width="1px" x1="249.34461837766918" x2="324.6182668581943" y1="245.40246656476725" y2="281.994267245596" /></svg>