<?xml version="1.0" encoding="utf-8" ?>
<svg baseProfile="full" height="518px" version="1.1" viewBox="0,0,518,518" width="518px" xmlns="http://www.w3.org/2000/svg" xmlns:ev="http://www.w3.org/2001/xml-events" xmlns:xlink="http://www.w3.org/1999/xlink"><defs /><rect fill="white" height="100%" width="100%" x="0" y="0" /><line stroke="black" stroke-width="1px" x1="254.93158438419337" x2="368.36143559906884" y1="262.3991896384362" y2="320.0812031982767" /><line stroke="black" stroke-width="1px" x1="368.36143559906884" x2="264.7261712309954" y1="320.0812031982767" y2="394.45001151914573" /><line stroke="black" stroke-width="1px" x1="264.7261712309954" x2="151.2489200177938" y1="394.45001151914573" y2="314.4597973622451" /><line stroke="black" stroke-width="1px" x1="151.2489200177938" x2="254.93158438419337" y1="314.4597973622451" y2="262.3991896384362" /><line stroke="black" stroke-width="1px" x1="254.46154370342245" x2="383.5577982257469" y1="151.64485240625856" y2="194.88973539171846" /><line stroke="black" stroke-width="1px" x1="383.5577982257469" x2="265.7033083311683" y1="194.88973539171846" y2="253.39933911028575" /><line stroke="black" stroke-width="1px" x1="265.7033083311683" x2="136.52692074237277" y1="253.39933911028575" y2="190.5956031532064" /><line stroke="black" stroke-width="1px" x1="136.52692074237277" x2="254.46154370342245" y1="190.5956031532064" y2="151.64485240625856" /><line stroke="black" stroke-width="1px" x1="254.93158438419337" x2="254.46154370342245" y1="262.3991896384362" y2="151.64485240625856" /><line stroke="black" stroke-width="1px" x1="368.36143559906884" x2="383.5577982257469" y1="320.0812031982767" y2="194.88973539171846" /><line stroke="black" stroke-width="1px" x1="264.7261712309954" x2="265.7033083311683" y1="394.45001151914573" y2="253.39933911028575" /><line stroke="black" stroke-width="1px" x1="151.2489200177938" x2="136.52692074237277" y1="314.4597973622451" y2="190.5956031532064" /><line stroke="black" stroke-width="1px" x1="139.78480295255594" x2="254.56405111428515" y1="218.00593970077153" y2="175.79837957089467" /><line stroke="black" stroke-width="1px" x1="154.49493233718036" x2="273.00947140959227" y1="199.33139672150335" y2="157.8580687868885" /><line stroke="black" stroke-width="1px" x1="154.49493233718036" x2="139.78480295255594" y1="199.33139672150335" y2="218.00593970077153" /><line stroke="black" stroke-width="1px" x1="273.00947140959227" x2="254.56405111428515" y1="157.8580687868885" y2="175.79837957089467" /><line stroke="black" stroke-width="1px" x1="264.7261712309954" x2="245.3890683976755" y1="394.45001151914573" y2="291.83491063796816" /><line stroke="black" stroke-width="1px" x1="245.3890683976755" x2="291.1528932096866" y1="291.83491063796816" y2="257.1037800752243" /><line stroke="black" stroke-width="1px" x1="291.1528932096866" x2="264.7261712309954" y1="257.1037800752243" y2="394.45001151914573" /><line stroke="black" stroke-width="1px" x1="264.7261712309954" x2="245.3890683976755" y1="394.45001151914573" y2="291.83491063796816" /><line stroke="black" stroke-width="1px" x1="245.3890683976755" x2="291.1528932096866" y1="291.83491063796816" y2="257.1037800752243" /><line stroke="black" stroke-width="1px" x1="291.1528932096866" x2="264.7261712309954" y1="257.1037800752243" y2="394.45001151914573" /><line stroke="black" stroke-width="1px" x1="264.7261712309954" x2="264.7261712309954" y1="394.45001151914573" y2="394.45001151914573" /><line stroke="black" stroke-width="1px" x1="245.3890683976755" x2="245.3890683976755" y1="291.83491063796816" y2="291.83491063796816" /><line stroke="black" stroke-width="1px" x1="291.1528932096866" x2="291.1528932096866" y1="257.1037800752243" y2="257.1037800752243" /><line stroke="black" stroke-width="1px" x1="233.78649018506832" x2="230.7666042459097" y1="273.01645590093773" y2="159.47067706742206" /><line stroke="black" stroke-width="1px" x1="275.8101019348139" x2="277.8234904254041" y1="273.0164559009377" y2="159.470677067422" /></svg>