<?xml version="1.0" encoding="utf-8" ?>
<svg baseProfile="full" height="518px" version="1.1" viewBox="0,0,518,518" width="518px" xmlns="http://www.w3.org/2000/svg" xmlns:ev="http://www.w3.org/2001/xml-events" xmlns:xlink="http://www.w3.org/1999/xlink"><defs /><rect fill="white" height="100%" width="100%" x="0" y="0" /><line stroke="black" stroke-width="1px" x1="264.80920360055427" x2="368.42243601412866" y1="256.8071210470634" y2="307.7976093755367" /><line stroke="black" stroke-width="1px" x1="368.42243601412866" x2="250.77012337522297" y1="307.7976093755367" y2="389.51786542699676" /><line stroke="black" stroke-width="1px" x1="250.77012337522297" x2="147.22859267419668" y1="389.51786542699676" y2="315.729101013022" /><line stroke="black" stroke-width="1px" x1="147.22859267419668" x2="264.80920360055427" y1="315.729101013022" y2="256.8071210470634" /><line stroke="black" stroke-width="1px" x1="265.4082836210474" x2="381.7331714780863" y1="157.3708338042597" y2="196.70730235028938" /><line stroke="black" stroke-width="1px" x1="381.7331714780863" x2="249.51376440659163" y1="196.70730235028938" y2="262.58089814125265" /><line stroke="black" stroke-width="1px" x1="249.51376440659163" x2="133.30387764459965" y1="262.58089814125265" y2="202.9450399557317" /><line stroke="black" stroke-width="1px" x1="133.30387764459965" x2="265.4082836210474" y1="202.9450399557317" y2="157.3708338042597" /><line stroke="black" stroke-width="1px" x1="264.80920360055427" x2="265.4082836210474" y1="256.8071210470634" y2="157.3708338042597" /><line stroke="black" stroke-width="1px" x1="368.42243601412866" x2="381.7331714780863" y1="307.7976093755367" y2="196.70730235028938" /><line stroke="black" stroke-width="1px" x1="250.77012337522297" x2="249.51376440659163" y1="389.51786542699676" y2="262.58089814125265" /><line stroke="black" stroke-width="1px" x1="147.22859267419668" x2="133.30387764459965" y1="315.729101013022" y2="202.9450399557317" /><line stroke="black" stroke-width="1px" x1="249.81280269819982" x2="248.84064204497653" y1="264.32211545446137" y2="163.08644265962346" /><line stroke="black" stroke-width="1px" x1="280.0797547885419" x2="282.31034889812963" y1="264.3221154544613" y2="163.08644265962343" /><line stroke="black" stroke-width="1px" x1="280.0797547885419" x2="249.81280269819982" y1="264.3221154544613" y2="264.32211545446137" /><line stroke="black" stroke-width="1px" x1="282.31034889812963" x2="248.84064204497653" y1="163.08644265962343" y2="163.08644265962346" /><line stroke="black" stroke-width="1px" x1="264.80920360055427" x2="221.82521306734233" y1="256.8071210470634" y2="223.00322328446663" /><line stroke="black" stroke-width="1px" x1="221.82521306734233" x2="208.11311606899721" y1="223.00322328446663" y2="281.06082560139225" /><line stroke="black" stroke-width="1px" x1="208.11311606899721" x2="264.80920360055427" y1="281.06082560139225" y2="256.8071210470634" /><line stroke="black" stroke-width="1px" x1="264.80920360055427" x2="221.82521306734233" y1="256.8071210470634" y2="223.00322328446663" /><line stroke="black" stroke-width="1px" x1="221.82521306734233" x2="208.11311606899721" y1="223.00322328446663" y2="281.06082560139225" /><line stroke="black" stroke-width="1px" x1="208.11311606899721" x2="264.80920360055427" y1="281.06082560139225" y2="256.8071210470634" /><line stroke="black" stroke-width="1px" x1="264.80920360055427" x2="264.80920360055427" y1="256.8071210470634" y2="256.8071210470634" /><line stroke="black" stroke-width="1px" x1="221.82521306734233" x2="221.82521306734233" y1="223.00322328446663" y2="223.00322328446663" /><line stroke="black" stroke-width="1px" x1="208.11311606899721" x2="208.11311606899721" y1="281.06082560139225" y2="281.06082560139225" /><line stroke="black" stroke-width="1px" x1="371.0969486669452" x2="250.52314123158874" y1="285.476346020194" y2="364.56387928972606" /><line stroke="black" stroke-width="1px" x1="347.10684373835807" x2="228.95606355845516" y1="297.30770925531056" y2="373.9720983339874" /><line stroke="black" stroke-width="1px" x1="347.10684373835807" x2="371.0969486669452" y1="297.30770925531056" y2="285.476346020194" /><line stroke="black" stroke-width="1px" x1="228.95606355845516" x2="250.52314123158874" y1="373.9720983339874" y2="364.56387928972606" /><line stroke="black" stroke-width="1px" x1="274.00782663245843" x2="357.64460606682684" y1="252.0789580663437" y2="292.0592455782819" /><line stroke="black" stroke-width="1px" x1="357.64460606682684" x2="366.96362318245383" y1="292.0592455782819" y2="204.29896375995435" /><line stroke="black" stroke-width="1px" x1="366.96362318245383" x2="275.2520957097023" y1="204.29896375995435" y2="171.74529476352274" /><line stroke="black" stroke-width="1px" x1="275.2520957097023" x2="274.00782663245843" y1="171.74529476352274" y2="252.0789580663437" /><line stroke="black" stroke-width="1px" x1="274.00782663245843" x2="357.64460606682684" y1="252.0789580663437" y2="292.0592455782819" /><line stroke="black" stroke-width="1px" x1="357.64460606682684" x2="366.96362318245383" y1="292.0592455782819" y2="204.29896375995435" /><line stroke="black" stroke-width="1px" x1="366.96362318245383" x2="275.2520957097023" y1="204.29896375995435" y2="171.74529476352274" /><line stroke="black" stroke-width="1px" x1="275.2520957097023" x2="274.00782663245843" y1="171.74529476352274" y2="252.0789580663437" /><line stroke="black" stroke-width="1px" x1="274.00782663245843" x2="274.00782663245843" y1="252.0789580663437" y2="252.0789580663437" /><line stroke="black" stroke-width="1px" x1="357.64460606682684" x2="357.64460606682684" y1="292.0592455782819" y2="292.0592455782819" /><line stroke="black" stroke-width="1px" x1="366.96362318245383" x2="366.96362318245383" y1="204.29896375995435" y2="204.29896375995435" /><line stroke="black" stroke-width="1px" x1="275.2520957097023" x2="275.2520957097023" y1="171.74529476352274" y2="171.74529476352274" /><line stroke="black" stroke-width="1px" x1="249.8677981226034" x2="137.15865226983487" y1="298.35090285287714" y2="234.16701726518065" /><line stroke="black" stroke-width="1px" x1="279.01512290892794" x2="161.91681363050628" y1="247.8829002579588" y2="193.07396992152655" /></svg>