<?xml version="1.0" encoding="utf-8" ?>
<svg baseProfile="full" height="518px" version="1.1" viewBox="0,0,518,518" width="518px" xmlns="http://www.w3.org/2000/svg" xmlns:ev="http://www.w3.org/2001/xml-events" xmlns:xlink="http://www.w3.org/1999/xlink"><defs /><rect fill="white" height="100%" width="100%" x="0" y="0" /><line stroke="black" stroke-width="1px" x1="286.59754498555344" x2="389.04203653348276" y1="227.41352089559044" y2="271.6853655323515" /><line stroke="black" stroke-width="1px" x1="389.04203653348276" x2="277.98057524095066" y1="271.6853655323515" y2="344.0946666853314" /><line stroke="black" stroke-width="1px" x1="277.98057524095066" x2="174.2301455218282" y1="344.0946666853314" y2="280.3406125692418" /><line stroke="black" stroke-width="1px" x1="174.2301455218282" x2="286.59754498555344" y1="280.3406125692418" y2="227.41352089559044" /><line stroke="black" stroke-width="1px" x1="288.13367297238676" x2="397.4606676435992" y1="172.10717185923903" y2="210.2270241049455" /><line stroke="black" stroke-width="1px" x1="397.4606676435992" x2="279.49756515623704" y1="210.2270241049455" y2="274.00725117687074" /><line stroke="black" stroke-width="1px" x1="279.49756515623704" x2="168.5903718859821" y1="274.00725117687074" y2="217.75627055906864" /><line stroke="black" stroke-width="1px" x1="168.5903718859821" x2="288.13367297238676" y1="217.75627055906864" y2="172.10717185923903" /><line stroke="black" stroke-width="1px" x1="286.59754498555344" x2="288.13367297238676" y1="227.41352089559044" y2="172.10717185923903" /><line stroke="black" stroke-width="1px" x1="389.04203653348276" x2="397.4606676435992" y1="271.6853655323515" y2="210.2270241049455" /><line stroke="black" stroke-width="1px" x1="277.98057524095066" x2="279.49756515623704" y1="344.0946666853314" y2="274.00725117687074" /><line stroke="black" stroke-width="1px" x1="174.2301455218282" x2="168.5903718859821" y1="280.3406125692418" y2="217.75627055906864" /><line stroke="black" stroke-width="1px" x1="288.13367297238676" x2="246.82132801291073" y1="172.10717185923903" y2="250.0834097553604" /><line stroke="black" stroke-width="1px" x1="246.82132801291073" x2="262.14650207636896" y1="250.0834097553604" y2="242.17220003508362" /><line stroke="black" stroke-width="1px" x1="262.14650207636896" x2="288.13367297238676" y1="242.17220003508362" y2="172.10717185923903" /><line stroke="black" stroke-width="1px" x1="288.13367297238676" x2="246.82132801291073" y1="172.10717185923903" y2="250.0834097553604" /><line stroke="black" stroke-width="1px" x1="246.82132801291073" x2="262.14650207636896" y1="250.0834097553604" y2="242.17220003508362" /><line stroke="black" stroke-width="1px" x1="262.14650207636896" x2="288.13367297238676" y1="242.17220003508362" y2="172.10717185923903" /><line stroke="black" stroke-width="1px" x1="288.13367297238676" x2="288.13367297238676" y1="172.10717185923903" y2="172.10717185923903" /><line stroke="black" stroke-width="1px" x1="246.82132801291073" x2="246.82132801291073" y1="250.0834097553604" y2="250.0834097553604" /><line stroke="black" stroke-width="1px" x1="262.14650207636896" x2="262.14650207636896" y1="242.17220003508362" y2="242.17220003508362" /></svg>