<?xml version="1.0" encoding="utf-8" ?>
<svg baseProfile="full" height="518px" version="1.1" viewBox="0,0,518,518" width="518px" xmlns="http://www.w3.org/2000/svg" xmlns:ev="http://www.w3.org/2001/xml-events" xmlns:xlink="http://www.w3.org/1999/xlink"><defs /><rect fill="white" height="100%" width="100%" x="0" y="0" /><line stroke="black" stroke-width="1px" x1="366.85811556980286" x2="386.2255460729692" y1="333.1052371919902" y2="173.66625632628444" /><line stroke="black" stroke-width="1px" x1="386.2255460729692" x2="261.5819386439232" y1="173.66625632628444" y2="230.7220810252868" /><line stroke="black" stroke-width="1px" x1="261.5819386439232" x2="261.1109843491388" y1="230.7220810252868" y2="411.3572651878829" /><line stroke="black" stroke-width="1px" x1="261.1109843491388" x2="366.85811556980286" y1="411.3572651878829" y2="333.1052371919902" /><line stroke="black" stroke-width="1px" x1="299.1856022562186" x2="305.6449474019116" y1="297.446564648936" y2="148.99207344491828" /><line stroke="black" stroke-width="1px" x1="305.6449474019116" x2="179.78110355817313" y1="148.99207344491828" y2="193.5778857948971" /><line stroke="black" stroke-width="1px" x1="179.78110355817313" x2="192.69451701212287" y1="193.5778857948971" y2="361.06181290846035" /><line stroke="black" stroke-width="1px" x1="192.69451701212287" x2="299.1856022562186" y1="361.06181290846035" y2="297.446564648936" /><line stroke="black" stroke-width="1px" x1="366.85811556980286" x2="299.1856022562186" y1="333.1052371919902" y2="297.446564648936" /><line stroke="black" stroke-width="1px" x1="386.2255460729692" x2="305.6449474019116" y1="173.66625632628444" y2="148.99207344491828" /><line stroke="black" stroke-width="1px" x1="261.5819386439232" x2="179.78110355817313" y1="230.7220810252868" y2="193.5778857948971" /><line stroke="black" stroke-width="1px" x1="261.1109843491388" x2="192.69451701212287" y1="411.3572651878829" y2="361.06181290846035" /><line stroke="black" stroke-width="1px" x1="368.8143999883792" x2="287.68024453155886" y1="181.63623825557505" y2="155.35586185817453" /><line stroke="black" stroke-width="1px" x1="382.9114951465645" x2="304.55432104151856" y1="200.9486003706653" y2="174.05783131571363" /><line stroke="black" stroke-width="1px" x1="290.4428666313996" x2="204.13301130822603" y1="289.8413537161677" y2="339.585502487521" /><line stroke="black" stroke-width="1px" x1="204.13301130822603" x2="195.91829892032797" y1="339.585502487521" y2="207.61545708369124" /><line stroke="black" stroke-width="1px" x1="195.91829892032797" x2="294.491754245491" y1="207.61545708369124" y2="169.93271757266768" /><line stroke="black" stroke-width="1px" x1="294.491754245491" x2="290.4428666313996" y1="169.93271757266768" y2="289.8413537161677" /><line stroke="black" stroke-width="1px" x1="321.3402009912443" x2="235.07923028961554" y1="305.98438573872374" y2="360.7582945998797" /><line stroke="black" stroke-width="1px" x1="235.07923028961554" x2="231.27880111548865" y1="360.7582945998797" y2="224.08229173180678" /><line stroke="black" stroke-width="1px" x1="231.27880111548865" x2="329.7863301165379" y1="224.08229173180678" y2="182.01014678981778" /><line stroke="black" stroke-width="1px" x1="329.7863301165379" x2="321.3402009912443" y1="182.01014678981778" y2="305.98438573872374" /><line stroke="black" stroke-width="1px" x1="290.4428666313996" x2="321.3402009912443" y1="289.8413537161677" y2="305.98438573872374" /><line stroke="black" stroke-width="1px" x1="204.13301130822603" x2="235.07923028961554" y1="339.585502487521" y2="360.7582945998797" /><line stroke="black" stroke-width="1px" x1="195.91829892032797" x2="231.27880111548865" y1="207.61545708369124" y2="224.08229173180678" /><line stroke="black" stroke-width="1px" x1="294.491754245491" x2="329.7863301165379" y1="169.93271757266768" y2="182.01014678981778" /><line stroke="black" stroke-width="1px" x1="293.72010208062613" x2="328.1688932338507" y1="192.78535451524294" y2="205.75125986119315" /><line stroke="black" stroke-width="1px" x1="277.538849410532" x2="312.96395187221134" y1="176.41348762119264" y2="189.19491269493687" /><line stroke="black" stroke-width="1px" x1="277.538849410532" x2="293.72010208062613" y1="176.41348762119264" y2="192.78535451524294" /><line stroke="black" stroke-width="1px" x1="312.96395187221134" x2="328.1688932338507" y1="189.19491269493687" y2="205.75125986119315" /><line stroke="black" stroke-width="1px" x1="314.4037148271406" x2="244.65112263419937" y1="299.6763254301583" y2="342.692510400401" /><line stroke="black" stroke-width="1px" x1="244.65112263419937" x2="284.07970746472677" y1="342.692510400401" y2="216.07214852648735" /><line stroke="black" stroke-width="1px" x1="284.07970746472677" x2="314.4037148271406" y1="216.07214852648735" y2="299.6763254301583" /><line stroke="black" stroke-width="1px" x1="240.2711438349352" x2="170.93226444892298" y1="261.22959857758894" y2="295.1495529116757" /><line stroke="black" stroke-width="1px" x1="170.93226444892298" x2="202.10656605817144" y1="295.1495529116757" y2="181.90827348831795" /><line stroke="black" stroke-width="1px" x1="202.10656605817144" x2="240.2711438349352" y1="181.90827348831795" y2="261.22959857758894" /><line stroke="black" stroke-width="1px" x1="314.4037148271406" x2="240.2711438349352" y1="299.6763254301583" y2="261.22959857758894" /><line stroke="black" stroke-width="1px" x1="244.65112263419937" x2="170.93226444892298" y1="342.692510400401" y2="295.1495529116757" /><line stroke="black" stroke-width="1px" x1="284.07970746472677" x2="202.10656605817144" y1="216.07214852648735" y2="181.90827348831795" /><line stroke="black" stroke-width="1px" x1="218.5079761673554" x2="255.3276093966348" y1="188.74387495247169" y2="269.0382016122341" /><line stroke="black" stroke-width="1px" x1="195.59702997812798" x2="224.30886456239483" y1="205.5542946052095" y2="269.03820161223416" /><line stroke="black" stroke-width="1px" x1="195.59702997812798" x2="218.5079761673554" y1="205.5542946052095" y2="188.74387495247169" /><line stroke="black" stroke-width="1px" x1="224.30886456239483" x2="255.3276093966348" y1="269.03820161223416" y2="269.0382016122341" /></svg>