<?xml version="1.0" encoding="utf-8" ?>
<svg baseProfile="full" height="518px" version="1.1" viewBox="0,0,518,518" width="518px" xmlns="http://www.w3.org/2000/svg" xmlns:ev="http://www.w3.org/2001/xml-events" xmlns:xlink="http://www.w3.org/1999/xlink"><defs /><rect fill="white" height="100%" width="100%" x="0" y="0" /><line stroke="black" stroke-width="1px" x1="252.77091317753275" x2="251.95754658754376" y1="274.2748579622201" y2="150.65198468667495" /><line stroke="black" stroke-width="1px" x1="251.95754658754376" x2="154.18786408205654" y1="150.65198468667495" y2="182.66836423151148" /><line stroke="black" stroke-width="1px" x1="154.18786408205654" x2="167.87998677406148" y1="182.66836423151148" y2="318.31440734098584" /><line stroke="black" stroke-width="1px" x1="167.87998677406148" x2="252.77091317753275" y1="318.31440734098584" y2="274.2748579622201" /><line stroke="black" stroke-width="1px" x1="352.16700835799276" x2="366.52970704331335" y1="326.85082743843367" y2="189.0037322315888" /><line stroke="black" stroke-width="1px" x1="366.52970704331335" x2="268.8361124930367" y1="189.0037322315888" y2="234.88005665779986" /><line stroke="black" stroke-width="1px" x1="268.8361124930367" x2="267.31895630572956" y1="234.88005665779986" y2="386.98698868349425" /><line stroke="black" stroke-width="1px" x1="267.31895630572956" x2="352.16700835799276" y1="386.98698868349425" y2="326.85082743843367" /><line stroke="black" stroke-width="1px" x1="252.77091317753275" x2="352.16700835799276" y1="274.2748579622201" y2="326.85082743843367" /><line stroke="black" stroke-width="1px" x1="251.95754658754376" x2="366.52970704331335" y1="150.65198468667495" y2="189.0037322315888" /><line stroke="black" stroke-width="1px" x1="154.18786408205654" x2="268.8361124930367" y1="182.66836423151148" y2="234.88005665779986" /><line stroke="black" stroke-width="1px" x1="167.87998677406148" x2="267.31895630572956" y1="318.31440734098584" y2="386.98698868349425" /><line stroke="black" stroke-width="1px" x1="335.59941953840365" x2="347.10169831247674" y1="318.08733383748574" y2="182.5004238957643" /><line stroke="black" stroke-width="1px" x1="339.2181722979997" x2="351.9230452650637" y1="336.0283309214831" y2="195.8629327514147" /><line stroke="black" stroke-width="1px" x1="339.2181722979997" x2="335.59941953840365" y1="336.0283309214831" y2="318.08733383748574" /><line stroke="black" stroke-width="1px" x1="351.9230452650637" x2="347.10169831247674" y1="195.8629327514147" y2="182.5004238957643" /><line stroke="black" stroke-width="1px" x1="253.88831596598854" x2="185.9434751413023" y1="282.9320256686205" y2="319.15113216188104" /><line stroke="black" stroke-width="1px" x1="185.9434751413023" x2="265.43913107498474" y1="319.15113216188104" y2="372.4228919679576" /><line stroke="black" stroke-width="1px" x1="265.43913107498474" x2="333.3665435492812" y1="372.4228919679576" y2="325.97996488796724" /><line stroke="black" stroke-width="1px" x1="333.3665435492812" x2="253.88831596598854" y1="325.97996488796724" y2="282.9320256686205" /><line stroke="black" stroke-width="1px" x1="253.88831596598854" x2="185.9434751413023" y1="282.9320256686205" y2="319.15113216188104" /><line stroke="black" stroke-width="1px" x1="185.9434751413023" x2="265.43913107498474" y1="319.15113216188104" y2="372.4228919679576" /><line stroke="black" stroke-width="1px" x1="265.43913107498474" x2="333.3665435492812" y1="372.4228919679576" y2="325.97996488796724" /><line stroke="black" stroke-width="1px" x1="333.3665435492812" x2="253.88831596598854" y1="325.97996488796724" y2="282.9320256686205" /><line stroke="black" stroke-width="1px" x1="253.88831596598854" x2="253.88831596598854" y1="282.9320256686205" y2="282.9320256686205" /><line stroke="black" stroke-width="1px" x1="185.9434751413023" x2="185.9434751413023" y1="319.15113216188104" y2="319.15113216188104" /><line stroke="black" stroke-width="1px" x1="265.43913107498474" x2="265.43913107498474" y1="372.4228919679576" y2="372.4228919679576" /><line stroke="black" stroke-width="1px" x1="333.3665435492812" x2="333.3665435492812" y1="325.97996488796724" y2="325.97996488796724" /><line stroke="black" stroke-width="1px" x1="274.3700694054721" x2="176.1212980905491" y1="158.15432568765175" y2="192.65701845149192" /><line stroke="black" stroke-width="1px" x1="252.14846647218602" x2="157.44444680970628" y1="179.66973018471845" y2="214.93089729530658" /><line stroke="black" stroke-width="1px" x1="252.14846647218602" x2="274.3700694054721" y1="179.66973018471845" y2="158.15432568765175" /><line stroke="black" stroke-width="1px" x1="157.44444680970628" x2="176.1212980905491" y1="214.93089729530658" y2="192.65701845149192" /></svg>