<?xml version="1.0" encoding="utf-8" ?>
<svg baseProfile="full" height="518px" version="1.1" viewBox="0,0,518,518" width="518px" xmlns="http://www.w3.org/2000/svg" xmlns:ev="http://www.w3.org/2001/xml-events" xmlns:xlink="http://www.w3.org/1999/xlink"><defs /><rect fill="white" height="100%" width="100%" x="0" y="0" /><line stroke="black" stroke-width="1px" x1="285.23878386665507" x2="289.2455009243066" y1="295.4724087456668" y2="154.13809395608013" /><line stroke="black" stroke-width="1px" x1="289.2455009243066" x2="185.51690138295328" y1="154.13809395608013" y2="190.77016497781466" /><line stroke="black" stroke-width="1px" x1="185.51690138295328" x2="196.65335705138926" y1="190.77016497781466" y2="346.9070747758955" /><line stroke="black" stroke-width="1px" x1="196.65335705138926" x2="285.23878386665507" y1="346.9070747758955" y2="295.4724087456668" /><line stroke="black" stroke-width="1px" x1="316.0100938735314" x2="325.18147289978583" y1="311.9344757202167" y2="165.68591905139598" /><line stroke="black" stroke-width="1px" x1="325.18147289978583" x2="221.38594907830307" y1="165.68591905139598" y2="206.71575364284055" /><line stroke="black" stroke-width="1px" x1="221.38594907830307" x2="227.3890058860232" y1="206.71575364284055" y2="368.5961049886538" /><line stroke="black" stroke-width="1px" x1="227.3890058860232" x2="316.0100938735314" y1="368.5961049886538" y2="311.9344757202167" /><line stroke="black" stroke-width="1px" x1="285.23878386665507" x2="316.0100938735314" y1="295.4724087456668" y2="311.9344757202167" /><line stroke="black" stroke-width="1px" x1="289.2455009243066" x2="325.18147289978583" y1="154.13809395608013" y2="165.68591905139598" /><line stroke="black" stroke-width="1px" x1="185.51690138295328" x2="221.38594907830307" y1="190.77016497781466" y2="206.71575364284055" /><line stroke="black" stroke-width="1px" x1="196.65335705138926" x2="227.3890058860232" y1="346.9070747758955" y2="368.5961049886538" /><line stroke="black" stroke-width="1px" x1="198.66780296356006" x2="223.60750844327606" y1="335.48862605564017" y2="352.5365267709934" /><line stroke="black" stroke-width="1px" x1="223.60750844327606" x2="203.9163901508651" y1="352.5365267709934" y2="216.98236382028767" /><line stroke="black" stroke-width="1px" x1="203.9163901508651" x2="198.66780296356006" y1="216.98236382028767" y2="335.48862605564017" /><line stroke="black" stroke-width="1px" x1="198.66780296356006" x2="223.60750844327606" y1="335.48862605564017" y2="352.5365267709934" /><line stroke="black" stroke-width="1px" x1="223.60750844327606" x2="203.9163901508651" y1="352.5365267709934" y2="216.98236382028767" /><line stroke="black" stroke-width="1px" x1="203.9163901508651" x2="198.66780296356006" y1="216.98236382028767" y2="335.48862605564017" /><line stroke="black" stroke-width="1px" x1="198.66780296356006" x2="198.66780296356006" y1="335.48862605564017" y2="335.48862605564017" /><line stroke="black" stroke-width="1px" x1="223.60750844327606" x2="223.60750844327606" y1="352.5365267709934" y2="352.5365267709934" /><line stroke="black" stroke-width="1px" x1="203.9163901508651" x2="203.9163901508651" y1="216.98236382028767" y2="216.98236382028767" /></svg>