<?xml version="1.0" encoding="utf-8" ?>
<svg baseProfile="full" height="518px" version="1.1" viewBox="0,0,518,518" width="518px" xmlns="http://www.w3.org/2000/svg" xmlns:ev="http://www.w3.org/2001/xml-events" xmlns:xlink="http://www.w3.org/1999/xlink"><defs /><rect fill="white" height="100%" width="100%" x="0" y="0" /><line stroke="black" stroke-width="1px" x1="272.9494861484915" x2="347.6392252434054" y1="243.2582167749453" y2="278.01391026055546" /><line stroke="black" stroke-width="1px" x1="347.6392252434054" x2="240.44689314608496" y1="278.01391026055546" y2="343.8928856634747" /><line stroke="black" stroke-width="1px" x1="240.44689314608496" x2="165.84672629824854" y1="343.8928856634747" y2="295.31299143402384" /><line stroke="black" stroke-width="1px" x1="165.84672629824854" x2="272.9494861484915" y1="295.31299143402384" y2="243.2582167749453" /><line stroke="black" stroke-width="1px" x1="273.68342929321483" x2="352.8658205848807" y1="191.81348003051224" y2="222.40924367554132" /><line stroke="black" stroke-width="1px" x1="352.8658205848807" x2="239.12563844931248" y1="222.40924367554132" y2="281.4279151172259" /><line stroke="black" stroke-width="1px" x1="239.12563844931248" x2="160.05684980111118" y1="281.4279151172259" y2="237.77580525312305" /><line stroke="black" stroke-width="1px" x1="160.05684980111118" x2="273.68342929321483" y1="237.77580525312305" y2="191.81348003051224" /><line stroke="black" stroke-width="1px" x1="272.9494861484915" x2="273.68342929321483" y1="243.2582167749453" y2="191.81348003051224" /><line stroke="black" stroke-width="1px" x1="347.6392252434054" x2="352.8658205848807" y1="278.01391026055546" y2="222.40924367554132" /><line stroke="black" stroke-width="1px" x1="240.44689314608496" x2="239.12563844931248" y1="343.8928856634747" y2="281.4279151172259" /><line stroke="black" stroke-width="1px" x1="165.84672629824854" x2="160.05684980111118" y1="295.31299143402384" y2="237.77580525312305" /><line stroke="black" stroke-width="1px" x1="163.88085965762593" x2="273.2001727483104" y1="275.7770937401353" y2="225.68668384931888" /><line stroke="black" stroke-width="1px" x1="180.08326653878942" x2="287.4311159991831" y1="304.58387712104235" y2="249.99701509399011" /><line stroke="black" stroke-width="1px" x1="180.08326653878942" x2="163.88085965762593" y1="304.58387712104235" y2="275.7770937401353" /><line stroke="black" stroke-width="1px" x1="287.4311159991831" x2="273.2001727483104" y1="249.99701509399011" y2="225.68668384931888" /><line stroke="black" stroke-width="1px" x1="338.9655496635395" x2="252.96213977663155" y1="278.286797476154" y2="330.3684927903639" /><line stroke="black" stroke-width="1px" x1="252.96213977663155" x2="301.0757738032746" y1="330.3684927903639" y2="255.37152537950936" /><line stroke="black" stroke-width="1px" x1="301.0757738032746" x2="338.9655496635395" y1="255.37152537950936" y2="278.286797476154" /><line stroke="black" stroke-width="1px" x1="338.9655496635395" x2="252.96213977663155" y1="278.286797476154" y2="330.3684927903639" /><line stroke="black" stroke-width="1px" x1="252.96213977663155" x2="301.0757738032746" y1="330.3684927903639" y2="255.37152537950936" /><line stroke="black" stroke-width="1px" x1="301.0757738032746" x2="338.9655496635395" y1="255.37152537950936" y2="278.286797476154" /><line stroke="black" stroke-width="1px" x1="338.9655496635395" x2="338.9655496635395" y1="278.286797476154" y2="278.286797476154" /><line stroke="black" stroke-width="1px" x1="252.96213977663155" x2="252.96213977663155" y1="330.3684927903639" y2="330.3684927903639" /><line stroke="black" stroke-width="1px" x1="301.0757738032746" x2="301.0757738032746" y1="255.37152537950936" y2="255.37152537950936" /><line stroke="black" stroke-width="1px" x1="239.54562846681213" x2="161.88664300014656" y1="301.28378706751664" y2="255.959466341144" /><line stroke="black" stroke-width="1px" x1="256.1583565059192" x2="176.75489410348922" y1="272.5898038018813" y2="231.02139139821335" /></svg>