<?xml version="1.0" encoding="utf-8" ?>
<svg baseProfile="full" height="518px" version="1.1" viewBox="0,0,518,518" width="518px" xmlns="http://www.w3.org/2000/svg" xmlns:ev="http://www.w3.org/2001/xml-events" xmlns:xlink="http://www.w3.org/1999/xlink"><defs /><rect fill="white" height="100%" width="100%" x="0" y="0" /><line stroke="black" stroke-width="1px" x1="327.08677201665046" x2="332.9711626221235" y1="235.55579114991787" y2="150.38645583567302" /><line stroke="black" stroke-width="1px" x1="332.9711626221235" x2="406.9510981689489" y1="150.38645583567302" y2="172.3183190120924" /><line stroke="black" stroke-width="1px" x1="406.9510981689489" x2="394.07037185404" y1="172.3183190120924" y2="263.6197442257508" /><line stroke="black" stroke-width="1px" x1="394.07037185404" x2="327.08677201665046" y1="263.6197442257508" y2="235.55579114991787" /><line stroke="black" stroke-width="1px" x1="231.4058039064997" x2="228.58220973044834" y1="285.1653327715712" y2="189.40254310023886" /><line stroke="black" stroke-width="1px" x1="228.58220973044834" x2="304.841939158948" y1="189.40254310023886" y2="220.74336961048917" /><line stroke="black" stroke-width="1px" x1="304.841939158948" x2="300.1102177254589" y1="220.74336961048917" y2="323.99095655774073" /><line stroke="black" stroke-width="1px" x1="300.1102177254589" x2="231.4058039064997" y1="323.99095655774073" y2="285.1653327715712" /><line stroke="black" stroke-width="1px" x1="327.08677201665046" x2="231.4058039064997" y1="235.55579114991787" y2="285.1653327715712" /><line stroke="black" stroke-width="1px" x1="332.9711626221235" x2="228.58220973044834" y1="150.38645583567302" y2="189.40254310023886" /><line stroke="black" stroke-width="1px" x1="406.9510981689489" x2="304.841939158948" y1="172.3183190120924" y2="220.74336961048917" /><line stroke="black" stroke-width="1px" x1="394.07037185404" x2="300.1102177254589" y1="263.6197442257508" y2="323.99095655774073" /><line stroke="black" stroke-width="1px" x1="237.4453031970435" x2="292.90131534600107" y1="279.8671726836351" y2="310.4265534488366" /><line stroke="black" stroke-width="1px" x1="292.90131534600107" x2="295.9497664231417" y1="310.4265534488366" y2="228.54404188768385" /><line stroke="black" stroke-width="1px" x1="295.9497664231417" x2="235.67929737234365" y1="228.54404188768385" y2="202.75655354546424" /><line stroke="black" stroke-width="1px" x1="235.67929737234365" x2="237.4453031970435" y1="202.75655354546424" y2="279.8671726836351" /><line stroke="black" stroke-width="1px" x1="86.86141460124989" x2="139.449501705174" y1="357.4510904060061" y2="404.42563812500634" /><line stroke="black" stroke-width="1px" x1="139.449501705174" x2="125.67071282919687" y1="404.42563812500634" y2="310.3081254311628" /><line stroke="black" stroke-width="1px" x1="125.67071282919687" x2="69.22592661339948" y1="310.3081254311628" y2="268.9781585457151" /><line stroke="black" stroke-width="1px" x1="69.22592661339948" x2="86.86141460124989" y1="268.9781585457151" y2="357.4510904060061" /><line stroke="black" stroke-width="1px" x1="237.4453031970435" x2="86.86141460124989" y1="279.8671726836351" y2="357.4510904060061" /><line stroke="black" stroke-width="1px" x1="292.90131534600107" x2="139.449501705174" y1="310.4265534488366" y2="404.42563812500634" /><line stroke="black" stroke-width="1px" x1="295.9497664231417" x2="125.67071282919687" y1="228.54404188768385" y2="310.3081254311628" /><line stroke="black" stroke-width="1px" x1="235.67929737234365" x2="69.22592661339948" y1="202.75655354546424" y2="268.9781585457151" /></svg>