<?xml version="1.0" encoding="utf-8" ?>
<svg baseProfile="full" height="518px" version="1.1" viewBox="0,0,518,518" width="518px" xmlns="http://www.w3.org/2000/svg" xmlns:ev="http://www.w3.org/2001/xml-events" xmlns:xlink="http://www.w3.org/1999/xlink"><defs /><rect fill="white" height="100%" width="100%" x="0" y="0" /><line stroke="black" stroke-width="1px" x1="175.28205222150712" x2="167.78812614851233" y1="287.7872682777639" y2="204.2491571150976" /><line stroke="black" stroke-width="1px" x1="167.78812614851233" x2="287.47463924808665" y1="204.2491571150976" y2="262.10288141715193" /><line stroke="black" stroke-width="1px" x1="287.47463924808665" x2="284.6762304281613" y1="262.10288141715193" y2="356.3434194158466" /><line stroke="black" stroke-width="1px" x1="284.6762304281613" x2="175.28205222150712" y1="356.3434194158466" y2="287.7872682777639" /><line stroke="black" stroke-width="1px" x1="239.43390725399993" x2="237.84997477882484" y1="256.8678828883877" y2="178.81627593190228" /><line stroke="black" stroke-width="1px" x1="237.84997477882484" x2="357.3871916421464" y1="178.81627593190228" y2="225.16856294193764" /><line stroke="black" stroke-width="1px" x1="357.3871916421464" x2="348.723841332451" y1="225.16856294193764" y2="312.85763642814163" /><line stroke="black" stroke-width="1px" x1="348.723841332451" x2="239.43390725399993" y1="312.85763642814163" y2="256.8678828883877" /><line stroke="black" stroke-width="1px" x1="175.28205222150712" x2="239.43390725399993" y1="287.7872682777639" y2="256.8678828883877" /><line stroke="black" stroke-width="1px" x1="167.78812614851233" x2="237.84997477882484" y1="204.2491571150976" y2="178.81627593190228" /><line stroke="black" stroke-width="1px" x1="287.47463924808665" x2="357.3871916421464" y1="262.10288141715193" y2="225.16856294193764" /><line stroke="black" stroke-width="1px" x1="284.6762304281613" x2="348.723841332451" y1="356.3434194158466" y2="312.85763642814163" /><line stroke="black" stroke-width="1px" x1="335.4712744176777" x2="225.9776990211095" y1="321.8556027964277" y2="263.3533958641497" /><line stroke="black" stroke-width="1px" x1="350.47612836186374" x2="239.1098558831752" y1="295.1212618619264" y2="240.89956944969316" /><line stroke="black" stroke-width="1px" x1="286.78385257591856" x2="355.2667519572565" y1="285.36613986742475" y2="246.6313209633104" /><line stroke="black" stroke-width="1px" x1="267.680690523554" x2="337.95538334381337" y1="252.53493910935495" y2="217.63359785739675" /><line stroke="black" stroke-width="1px" x1="242.9655563248206" x2="191.57431077501747" y1="264.6330165397743" y2="290.14225390165166" /><line stroke="black" stroke-width="1px" x1="191.57431077501747" x2="305.6998238867772" y1="290.14225390165166" y2="326.2155723490939" /><line stroke="black" stroke-width="1px" x1="305.6998238867772" x2="242.9655563248206" y1="326.2155723490939" y2="264.6330165397743" /><line stroke="black" stroke-width="1px" x1="242.9655563248206" x2="191.57431077501747" y1="264.6330165397743" y2="290.14225390165166" /><line stroke="black" stroke-width="1px" x1="191.57431077501747" x2="305.6998238867772" y1="290.14225390165166" y2="326.2155723490939" /><line stroke="black" stroke-width="1px" x1="305.6998238867772" x2="242.9655563248206" y1="326.2155723490939" y2="264.6330165397743" /><line stroke="black" stroke-width="1px" x1="242.9655563248206" x2="242.9655563248206" y1="264.6330165397743" y2="264.6330165397743" /><line stroke="black" stroke-width="1px" x1="191.57431077501747" x2="191.57431077501747" y1="290.14225390165166" y2="290.14225390165166" /><line stroke="black" stroke-width="1px" x1="305.6998238867772" x2="305.6998238867772" y1="326.2155723490939" y2="326.2155723490939" /><line stroke="black" stroke-width="1px" x1="268.45906910732117" x2="332.7581683689634" y1="346.18029939640707" y2="304.6783461590094" /><line stroke="black" stroke-width="1px" x1="285.20948255240137" x2="350.38980794369377" y1="338.3853688552881" y2="295.99498360024654" /></svg>