<?xml version="1.0" encoding="utf-8" ?>
<svg baseProfile="full" height="518px" version="1.1" viewBox="0,0,518,518" width="518px" xmlns="http://www.w3.org/2000/svg" xmlns:ev="http://www.w3.org/2001/xml-events" xmlns:xlink="http://www.w3.org/1999/xlink"><defs /><rect fill="white" height="100%" width="100%" x="0" y="0" /><line stroke="black" stroke-width="1px" x1="314.94461949168556" x2="321.97523243256444" y1="298.5040773398952" y2="182.56959196274153" /><line stroke="black" stroke-width="1px" x1="321.97523243256444" x2="221.48496937598958" y1="182.56959196274153" y2="225.00612585318817" /><line stroke="black" stroke-width="1px" x1="221.48496937598958" x2="226.30732445892335" y1="225.00612585318817" y2="353.0394092563573" /><line stroke="black" stroke-width="1px" x1="226.30732445892335" x2="314.94461949168556" y1="353.0394092563573" y2="298.5040773398952" /><line stroke="black" stroke-width="1px" x1="286.22408404878104" x2="289.4875511140266" y1="283.6688346383538" y2="171.30355885575085" /><line stroke="black" stroke-width="1px" x1="289.4875511140266" x2="189.05315952472517" y1="171.30355885575085" y2="209.60855859021024" /><line stroke="black" stroke-width="1px" x1="189.05315952472517" x2="197.62068189600274" y1="209.60855859021024" y2="333.49351350565803" /><line stroke="black" stroke-width="1px" x1="197.62068189600274" x2="286.22408404878104" y1="333.49351350565803" y2="283.6688346383538" /><line stroke="black" stroke-width="1px" x1="314.94461949168556" x2="286.22408404878104" y1="298.5040773398952" y2="283.6688346383538" /><line stroke="black" stroke-width="1px" x1="321.97523243256444" x2="289.4875511140266" y1="182.56959196274153" y2="171.30355885575085" /><line stroke="black" stroke-width="1px" x1="221.48496937598958" x2="189.05315952472517" y1="225.00612585318817" y2="209.60855859021024" /><line stroke="black" stroke-width="1px" x1="226.30732445892335" x2="197.62068189600274" y1="353.0394092563573" y2="333.49351350565803" /><line stroke="black" stroke-width="1px" x1="303.3980711149058" x2="270.7996081080909" y1="190.41463397841704" y2="178.43101430753666" /><line stroke="black" stroke-width="1px" x1="320.41472697230927" x2="288.7661018041272" y1="208.30225552767814" y2="196.1439660206742" /><line stroke="black" stroke-width="1px" x1="203.6334506360725" x2="292.27359138918376" y1="337.590366272889" y2="286.7936339582705" /><line stroke="black" stroke-width="1px" x1="225.24076336555655" x2="316.5229718539707" y1="324.7222662037665" y2="272.47711917791287" /><line stroke="black" stroke-width="1px" x1="225.24076336555655" x2="203.6334506360725" y1="324.7222662037665" y2="337.590366272889" /><line stroke="black" stroke-width="1px" x1="316.5229718539707" x2="292.27359138918376" y1="272.47711917791287" y2="286.7936339582705" /></svg>