<?xml version="1.0" encoding="utf-8" ?>
<svg baseProfile="full" height="518px" version="1.1" viewBox="0,0,518,518" width="518px" xmlns="http://www.w3.org/2000/svg" xmlns:ev="http://www.w3.org/2001/xml-events" xmlns:xlink="http://www.w3.org/1999/xlink"><defs /><rect fill="white" height="100%" width="100%" x="0" y="0" /><line stroke="black" stroke-width="1px" x1="253.26136508711483" x2="334.8718196355224" y1="214.3186412654841" y2="249.75535547419685" /><line stroke="black" stroke-width="1px" x1="334.8718196355224" x2="266.2611324601144" y1="249.75535547419685" y2="287.5418586535" /><line stroke="black" stroke-width="1px" x1="266.2611324601144" x2="184.6299446806138" y1="287.5418586535" y2="243.59105568306762" /><line stroke="black" stroke-width="1px" x1="184.6299446806138" x2="253.26136508711483" y1="243.59105568306762" y2="214.3186412654841" /><line stroke="black" stroke-width="1px" x1="253.0552364951949" x2="337.96125686565307" y1="178.15818750046432" y2="210.20593145756035" /><line stroke="black" stroke-width="1px" x1="337.96125686565307" x2="266.5943196459164" y1="210.20593145756035" y2="244.70753234479545" /><line stroke="black" stroke-width="1px" x1="266.5943196459164" x2="181.6639887299184" y1="244.70753234479545" y2="204.6098317187338" /><line stroke="black" stroke-width="1px" x1="181.6639887299184" x2="253.0552364951949" y1="204.6098317187338" y2="178.15818750046432" /><line stroke="black" stroke-width="1px" x1="253.26136508711483" x2="253.0552364951949" y1="214.3186412654841" y2="178.15818750046432" /><line stroke="black" stroke-width="1px" x1="334.8718196355224" x2="337.96125686565307" y1="249.75535547419685" y2="210.20593145756035" /><line stroke="black" stroke-width="1px" x1="266.2611324601144" x2="266.5943196459164" y1="287.5418586535" y2="244.70753234479545" /><line stroke="black" stroke-width="1px" x1="184.6299446806138" x2="181.6639887299184" y1="243.59105568306762" y2="204.6098317187338" /><line stroke="black" stroke-width="1px" x1="266.449030095952" x2="182.9531245785422" y1="263.38586169722777" y2="221.55279852977944" /><line stroke="black" stroke-width="1px" x1="285.26338313161875" x2="203.4500701485623" y1="277.07659974161913" y2="235.56396679541695" /><line stroke="black" stroke-width="1px" x1="285.26338313161875" x2="266.449030095952" y1="277.07659974161913" y2="263.38586169722777" /><line stroke="black" stroke-width="1px" x1="203.4500701485623" x2="182.9531245785422" y1="235.56396679541695" y2="221.55279852977944" /><line stroke="black" stroke-width="1px" x1="266.2611324601144" x2="267.2468883966787" y1="287.5418586535" y2="279.8032975959619" /><line stroke="black" stroke-width="1px" x1="267.2468883966787" x2="274.10930787463025" y1="279.8032975959619" y2="273.90046328665574" /><line stroke="black" stroke-width="1px" x1="274.10930787463025" x2="266.2611324601144" y1="273.90046328665574" y2="287.5418586535" /><line stroke="black" stroke-width="1px" x1="266.2611324601144" x2="267.2468883966787" y1="287.5418586535" y2="279.8032975959619" /><line stroke="black" stroke-width="1px" x1="267.2468883966787" x2="274.10930787463025" y1="279.8032975959619" y2="273.90046328665574" /><line stroke="black" stroke-width="1px" x1="274.10930787463025" x2="266.2611324601144" y1="273.90046328665574" y2="287.5418586535" /><line stroke="black" stroke-width="1px" x1="266.2611324601144" x2="266.2611324601144" y1="287.5418586535" y2="287.5418586535" /><line stroke="black" stroke-width="1px" x1="267.2468883966787" x2="267.2468883966787" y1="279.8032975959619" y2="279.8032975959619" /><line stroke="black" stroke-width="1px" x1="274.10930787463025" x2="274.10930787463025" y1="273.90046328665574" y2="273.90046328665574" /><line stroke="black" stroke-width="1px" x1="336.09305687109224" x2="266.3924452357123" y1="234.12168964554547" y2="270.66037425631407" /><line stroke="black" stroke-width="1px" x1="317.1990616725817" x2="245.59234770351011" y1="202.36924905704694" y2="234.79198421939748" /></svg>