<?xml version="1.0" encoding="utf-8" ?>
<svg baseProfile="full" height="518px" version="1.1" viewBox="0,0,518,518" width="518px" xmlns="http://www.w3.org/2000/svg" xmlns:ev="http://www.w3.org/2001/xml-events" xmlns:xlink="http://www.w3.org/1999/xlink"><defs /><rect fill="white" height="100%" width="100%" x="0" y="0" /><line stroke="black" stroke-width="1px" x1="249.19397383789027" x2="247.77433713149338" y1="273.4998571051045" y2="136.32439765015152" /><line stroke="black" stroke-width="1px" x1="247.77433713149338" x2="134.51274715991943" y1="136.32439765015152" y2="170.6894172318244" /><line stroke="black" stroke-width="1px" x1="134.51274715991943" x2="152.5914083785592" y1="170.6894172318244" y2="323.2248794497063" /><line stroke="black" stroke-width="1px" x1="152.5914083785592" x2="249.19397383789027" y1="323.2248794497063" y2="273.4998571051045" /><line stroke="black" stroke-width="1px" x1="369.28120480344296" x2="388.8205303781426" y1="337.2328892507536" y2="180.64441060083402" /><line stroke="black" stroke-width="1px" x1="388.8205303781426" x2="275.77450957782287" y1="180.64441060083402" y2="234.19606945100074" /><line stroke="black" stroke-width="1px" x1="275.77450957782287" x2="272.7910546083345" y1="234.19606945100074" y2="409.7105594506567" /><line stroke="black" stroke-width="1px" x1="272.7910546083345" x2="369.28120480344296" y1="409.7105594506567" y2="337.2328892507536" /><line stroke="black" stroke-width="1px" x1="249.19397383789027" x2="369.28120480344296" y1="273.4998571051045" y2="337.2328892507536" /><line stroke="black" stroke-width="1px" x1="247.77433713149338" x2="388.8205303781426" y1="136.32439765015152" y2="180.64441060083402" /><line stroke="black" stroke-width="1px" x1="134.51274715991943" x2="275.77450957782287" y1="170.6894172318244" y2="234.19606945100074" /><line stroke="black" stroke-width="1px" x1="152.5914083785592" x2="272.7910546083345" y1="323.2248794497063" y2="409.7105594506567" /><line stroke="black" stroke-width="1px" x1="156.16736913164516" x2="171.63281133109092" y1="180.42462457284387" y2="336.9254911750832" /><line stroke="black" stroke-width="1px" x1="164.11775959484123" x2="177.4391540107618" y1="161.7068766168013" y2="310.43479772776266" /><line stroke="black" stroke-width="1px" x1="250.92175204974208" x2="173.57314342695602" y1="283.47320448748275" y2="324.58125319249496" /><line stroke="black" stroke-width="1px" x1="173.57314342695602" x2="269.6019938561157" y1="324.58125319249496" y2="391.3021720273095" /><line stroke="black" stroke-width="1px" x1="269.6019938561157" x2="346.9050439689441" y1="391.3021720273095" y2="335.78637222295197" /><line stroke="black" stroke-width="1px" x1="346.9050439689441" x2="250.92175204974208" y1="335.78637222295197" y2="283.47320448748275" /><line stroke="black" stroke-width="1px" x1="250.92175204974208" x2="173.57314342695602" y1="283.47320448748275" y2="324.58125319249496" /><line stroke="black" stroke-width="1px" x1="173.57314342695602" x2="269.6019938561157" y1="324.58125319249496" y2="391.3021720273095" /><line stroke="black" stroke-width="1px" x1="269.6019938561157" x2="346.9050439689441" y1="391.3021720273095" y2="335.78637222295197" /><line stroke="black" stroke-width="1px" x1="346.9050439689441" x2="250.92175204974208" y1="335.78637222295197" y2="283.47320448748275" /><line stroke="black" stroke-width="1px" x1="250.92175204974208" x2="250.92175204974208" y1="283.47320448748275" y2="283.47320448748275" /><line stroke="black" stroke-width="1px" x1="173.57314342695602" x2="173.57314342695602" y1="324.58125319249496" y2="324.58125319249496" /><line stroke="black" stroke-width="1px" x1="269.6019938561157" x2="269.6019938561157" y1="391.3021720273095" y2="391.3021720273095" /><line stroke="black" stroke-width="1px" x1="346.9050439689441" x2="346.9050439689441" y1="335.78637222295197" y2="335.78637222295197" /><line stroke="black" stroke-width="1px" x1="267.06221296550626" x2="268.2673537388418" y1="282.98293910766284" y2="142.76378279433595" /><line stroke="black" stroke-width="1px" x1="230.77085391328364" x2="226.55115702719286" y1="282.98293910766284" y2="142.76378279433595" /></svg>