<?xml version="1.0" encoding="utf-8" ?>
<svg baseProfile="full" height="518px" version="1.1" viewBox="0,0,518,518" width="518px" xmlns="http://www.w3.org/2000/svg" xmlns:ev="http://www.w3.org/2001/xml-events" xmlns:xlink="http://www.w3.org/1999/xlink"><defs /><rect fill="white" height="100%" width="100%" x="0" y="0" /><line stroke="black" stroke-width="1px" x1="282.02866987765475" x2="285.56822163400307" y1="309.22396593158004" y2="169.0778517551645" /><line stroke="black" stroke-width="1px" x1="285.56822163400307" x2="206.6238782267303" y1="169.0778517551645" y2="198.7089413537729" /><line stroke="black" stroke-width="1px" x1="206.6238782267303" x2="214.3652724768026" y1="198.7089413537729" y2="349.81171227781414" /><line stroke="black" stroke-width="1px" x1="214.3652724768026" x2="282.02866987765475" y1="349.81171227781414" y2="309.22396593158004" /><line stroke="black" stroke-width="1px" x1="310.76022160777154" x2="319.11545271285655" y1="325.26376316976484" y2="180.6677895050312" /><line stroke="black" stroke-width="1px" x1="319.11545271285655" x2="240.22134864759653" y1="180.6677895050312" y2="213.56230982803513" /><line stroke="black" stroke-width="1px" x1="240.22134864759653" x2="243.1307051202223" y1="213.56230982803513" y2="369.6479422000823" /><line stroke="black" stroke-width="1px" x1="243.1307051202223" x2="310.76022160777154" y1="369.6479422000823" y2="325.26376316976484" /><line stroke="black" stroke-width="1px" x1="282.02866987765475" x2="310.76022160777154" y1="309.22396593158004" y2="325.26376316976484" /><line stroke="black" stroke-width="1px" x1="285.56822163400307" x2="319.11545271285655" y1="169.0778517551645" y2="180.6677895050312" /><line stroke="black" stroke-width="1px" x1="206.6238782267303" x2="240.22134864759653" y1="198.7089413537729" y2="213.56230982803513" /><line stroke="black" stroke-width="1px" x1="214.3652724768026" x2="243.1307051202223" y1="349.81171227781414" y2="369.6479422000823" /><line stroke="black" stroke-width="1px" x1="299.94960878739266" x2="220.97358497779885" y1="174.04635068947994" y2="205.0529154447168" /><line stroke="black" stroke-width="1px" x1="317.7675960040388" x2="240.6980861028361" y1="203.99385322736646" y2="239.139054333788" /><line stroke="black" stroke-width="1px" x1="317.7675960040388" x2="299.94960878739266" y1="203.99385322736646" y2="174.04635068947994" /><line stroke="black" stroke-width="1px" x1="240.6980861028361" x2="220.97358497779885" y1="239.139054333788" y2="205.0529154447168" /><line stroke="black" stroke-width="1px" x1="319.11545271285655" x2="220.63374398196925" y1="180.6677895050312" y2="175.3257997353303" /><line stroke="black" stroke-width="1px" x1="220.63374398196925" x2="266.8710318054962" y1="175.3257997353303" y2="191.05018099740988" /><line stroke="black" stroke-width="1px" x1="266.8710318054962" x2="319.11545271285655" y1="191.05018099740988" y2="180.6677895050312" /><line stroke="black" stroke-width="1px" x1="319.11545271285655" x2="220.63374398196925" y1="180.6677895050312" y2="175.3257997353303" /><line stroke="black" stroke-width="1px" x1="220.63374398196925" x2="266.8710318054962" y1="175.3257997353303" y2="191.05018099740988" /><line stroke="black" stroke-width="1px" x1="266.8710318054962" x2="319.11545271285655" y1="191.05018099740988" y2="180.6677895050312" /><line stroke="black" stroke-width="1px" x1="319.11545271285655" x2="319.11545271285655" y1="180.6677895050312" y2="180.6677895050312" /><line stroke="black" stroke-width="1px" x1="220.63374398196925" x2="220.63374398196925" y1="175.3257997353303" y2="175.3257997353303" /><line stroke="black" stroke-width="1px" x1="266.8710318054962" x2="266.8710318054962" y1="191.05018099740988" y2="191.05018099740988" /><line stroke="black" stroke-width="1px" x1="299.84426053239" x2="306.31712430706455" y1="319.16977270403214" y2="176.2462076112283" /><line stroke="black" stroke-width="1px" x1="265.44812188724006" x2="266.4699989890547" y1="319.16977270403214" y2="176.24620761122827" /><line stroke="black" stroke-width="1px" x1="265.44812188724006" x2="299.84426053239" y1="319.16977270403214" y2="319.16977270403214" /><line stroke="black" stroke-width="1px" x1="266.4699989890547" x2="306.31712430706455" y1="176.24620761122827" y2="176.2462076112283" /></svg>