<?xml version="1.0" encoding="utf-8" ?>
<svg baseProfile="full" height="518px" version="1.1" viewBox="0,0,518,518" width="518px" xmlns="http://www.w3.org/2000/svg" xmlns:ev="http://www.w3.org/2001/xml-events" xmlns:xlink="http://www.w3.org/1999/xlink"><defs /><rect fill="white" height="100%" width="100%" x="0" y="0" /><line stroke="black" stroke-width="1px" x1="243.91275424892552" x2="317.74643282519787" y1="274.55306676503284" y2="314.1928966420776" /><line stroke="black" stroke-width="1px" x1="317.74643282519787" x2="225.19101177557866" y1="314.1928966420776" y2="373.9051674262694" /><line stroke="black" stroke-width="1px" x1="225.19101177557866" x2="152.16304889657982" y1="373.9051674262694" y2="321.5473892245078" /><line stroke="black" stroke-width="1px" x1="152.16304889657982" x2="243.91275424892552" y1="321.5473892245078" y2="274.55306676503284" /><line stroke="black" stroke-width="1px" x1="242.4813237873157" x2="324.0477029902403" y1="184.75447207271097" y2="216.9237598403201" /><line stroke="black" stroke-width="1px" x1="324.0477029902403" x2="220.91562224357634" y1="216.9237598403201" y2="266.7803606115573" /><line stroke="black" stroke-width="1px" x1="220.91562224357634" x2="140.4546869576925" y1="266.7803606115573" y2="222.97243141324083" /><line stroke="black" stroke-width="1px" x1="140.4546869576925" x2="242.4813237873157" y1="222.97243141324083" y2="184.75447207271097" /><line stroke="black" stroke-width="1px" x1="243.91275424892552" x2="242.4813237873157" y1="274.55306676503284" y2="184.75447207271097" /><line stroke="black" stroke-width="1px" x1="317.74643282519787" x2="324.0477029902403" y1="314.1928966420776" y2="216.9237598403201" /><line stroke="black" stroke-width="1px" x1="225.19101177557866" x2="220.91562224357634" y1="373.9051674262694" y2="266.7803606115573" /><line stroke="black" stroke-width="1px" x1="152.16304889657982" x2="140.4546869576925" y1="321.5473892245078" y2="222.97243141324083" /><line stroke="black" stroke-width="1px" x1="317.74643282519787" x2="274.50014317150004" y1="314.1928966420776" y2="276.84851719696115" /><line stroke="black" stroke-width="1px" x1="274.50014317150004" x2="282.647756085312" y1="276.84851719696115" y2="248.45290218957916" /><line stroke="black" stroke-width="1px" x1="282.647756085312" x2="317.74643282519787" y1="248.45290218957916" y2="314.1928966420776" /><line stroke="black" stroke-width="1px" x1="317.74643282519787" x2="274.50014317150004" y1="314.1928966420776" y2="276.84851719696115" /><line stroke="black" stroke-width="1px" x1="274.50014317150004" x2="282.647756085312" y1="276.84851719696115" y2="248.45290218957916" /><line stroke="black" stroke-width="1px" x1="282.647756085312" x2="317.74643282519787" y1="248.45290218957916" y2="314.1928966420776" /><line stroke="black" stroke-width="1px" x1="317.74643282519787" x2="317.74643282519787" y1="314.1928966420776" y2="314.1928966420776" /><line stroke="black" stroke-width="1px" x1="274.50014317150004" x2="274.50014317150004" y1="276.84851719696115" y2="276.84851719696115" /><line stroke="black" stroke-width="1px" x1="282.647756085312" x2="282.647756085312" y1="248.45290218957916" y2="248.45290218957916" /></svg>