<?xml version="1.0" encoding="utf-8" ?>
<svg baseProfile="full" height="518px" version="1.1" viewBox="0,0,518,518" width="518px" xmlns="http://www.w3.org/2000/svg" xmlns:ev="http://www.w3.org/2001/xml-events" xmlns:xlink="http://www.w3.org/1999/xlink"><defs /><rect fill="white" height="100%" width="100%" x="0" y="0" /><line stroke="black" stroke-width="1px" x1="254.33106478963748" x2="352.3806646628624" y1="270.0554314957241" y2="321.1422838452605" /><line stroke="black" stroke-width="1px" x1="352.3806646628624" x2="265.2447219698483" y1="321.1422838452605" y2="382.01632331006317" /><line stroke="black" stroke-width="1px" x1="265.2447219698483" x2="167.16237795396327" y1="382.01632331006317" y2="314.81650882581727" /><line stroke="black" stroke-width="1px" x1="167.16237795396327" x2="254.33106478963748" y1="314.81650882581727" y2="270.0554314957241" /><line stroke="black" stroke-width="1px" x1="253.77106357161796" x2="365.54900493418137" y1="155.99388742246305" y2="194.242296764723" /><line stroke="black" stroke-width="1px" x1="365.54900493418137" x2="266.2887830125318" y1="194.242296764723" y2="241.74110955675766" /><line stroke="black" stroke-width="1px" x1="266.2887830125318" x2="154.4552454501581" y1="241.74110955675766" y2="189.42831901845423" /><line stroke="black" stroke-width="1px" x1="154.4552454501581" x2="253.77106357161796" y1="189.42831901845423" y2="155.99388742246305" /><line stroke="black" stroke-width="1px" x1="254.33106478963748" x2="253.77106357161796" y1="270.0554314957241" y2="155.99388742246305" /><line stroke="black" stroke-width="1px" x1="352.3806646628624" x2="365.54900493418137" y1="321.1422838452605" y2="194.242296764723" /><line stroke="black" stroke-width="1px" x1="265.2447219698483" x2="266.2887830125318" y1="382.01632331006317" y2="241.74110955675766" /><line stroke="black" stroke-width="1px" x1="167.16237795396327" x2="154.4552454501581" y1="314.81650882581727" y2="189.42831901845423" /><line stroke="black" stroke-width="1px" x1="266.0101673147224" x2="157.7844359204468" y1="279.1746263411631" y2="222.2792526550101" /><line stroke="black" stroke-width="1px" x1="295.7203796314685" x2="183.3396696211595" y1="227.65726135544062" y2="179.7044470069094" /><line stroke="black" stroke-width="1px" x1="174.5710967065158" x2="253.81555995374137" y1="309.3548451995104" y2="362.1487368519189" /><line stroke="black" stroke-width="1px" x1="253.81555995374137" x2="205.90092256642828" y1="362.1487368519189" y2="228.15114333168768" /><line stroke="black" stroke-width="1px" x1="205.90092256642828" x2="174.5710967065158" y1="228.15114333168768" y2="309.3548451995104" /><line stroke="black" stroke-width="1px" x1="174.5710967065158" x2="253.81555995374137" y1="309.3548451995104" y2="362.1487368519189" /><line stroke="black" stroke-width="1px" x1="253.81555995374137" x2="205.90092256642828" y1="362.1487368519189" y2="228.15114333168768" /><line stroke="black" stroke-width="1px" x1="205.90092256642828" x2="174.5710967065158" y1="228.15114333168768" y2="309.3548451995104" /><line stroke="black" stroke-width="1px" x1="174.5710967065158" x2="174.5710967065158" y1="309.3548451995104" y2="309.3548451995104" /><line stroke="black" stroke-width="1px" x1="253.81555995374137" x2="253.81555995374137" y1="362.1487368519189" y2="362.1487368519189" /><line stroke="black" stroke-width="1px" x1="205.90092256642828" x2="205.90092256642828" y1="228.15114333168768" y2="228.15114333168768" /><line stroke="black" stroke-width="1px" x1="165.27248593971012" x2="254.24661408748503" y1="296.1679161139971" y2="252.8544376842362" /><line stroke="black" stroke-width="1px" x1="181.07645641132763" x2="268.49303061346495" y1="324.34955476222655" y2="277.4342505623649" /></svg>