<?xml version="1.0" encoding="utf-8" ?>
<svg baseProfile="full" height="518px" version="1.1" viewBox="0,0,518,518" width="518px" xmlns="http://www.w3.org/2000/svg" xmlns:ev="http://www.w3.org/2001/xml-events" xmlns:xlink="http://www.w3.org/1999/xlink"><defs /><rect fill="white" height="100%" width="100%" x="0" y="0" /><line stroke="black" stroke-width="1px" x1="307.99236303975346" x2="314.1495693234652" y1="266.1090118840758" y2="146.0977567187037" /><line stroke="black" stroke-width="1px" x1="314.1495693234652" x2="410.1133919312346" y1="146.0977567187037" y2="174.72478149104307" /><line stroke="black" stroke-width="1px" x1="410.1133919312346" x2="391.2085500179111" y1="174.72478149104307" y2="305.62120420965255" /><line stroke="black" stroke-width="1px" x1="391.2085500179111" x2="307.99236303975346" y1="305.62120420965255" y2="266.1090118840758" /><line stroke="black" stroke-width="1px" x1="220.61521185959998" x2="214.97498771991988" y1="314.45957098445047" y2="181.24922847473047" /><line stroke="black" stroke-width="1px" x1="214.97498771991988" x2="313.49459017068824" y1="181.24922847473047" y2="221.31589079906811" /><line stroke="black" stroke-width="1px" x1="313.49459017068824" x2="305.52987190004666" y1="221.31589079906811" y2="367.4299837630357" /><line stroke="black" stroke-width="1px" x1="305.52987190004666" x2="220.61521185959998" y1="367.4299837630357" y2="314.45957098445047" /><line stroke="black" stroke-width="1px" x1="307.99236303975346" x2="220.61521185959998" y1="266.1090118840758" y2="314.45957098445047" /><line stroke="black" stroke-width="1px" x1="314.1495693234652" x2="214.97498771991988" y1="146.0977567187037" y2="181.24922847473047" /><line stroke="black" stroke-width="1px" x1="410.1133919312346" x2="313.49459017068824" y1="174.72478149104307" y2="221.31589079906811" /><line stroke="black" stroke-width="1px" x1="391.2085500179111" x2="305.52987190004666" y1="305.62120420965255" y2="367.4299837630357" /><line stroke="black" stroke-width="1px" x1="321.929543875607" x2="234.62570473030792" y1="272.7265774041967" y2="323.1994233284312" /><line stroke="black" stroke-width="1px" x1="308.7969737878523" x2="219.89006618953064" y1="250.42619384136455" y2="297.33314113216915" /><line stroke="black" stroke-width="1px" x1="214.97498771991988" x2="187.66954103021743" y1="181.24922847473047" y2="281.8612424165065" /><line stroke="black" stroke-width="1px" x1="187.66954103021743" x2="205.52920992386203" y1="281.8612424165065" y2="260.0838313640472" /><line stroke="black" stroke-width="1px" x1="205.52920992386203" x2="214.97498771991988" y1="260.0838313640472" y2="181.24922847473047" /><line stroke="black" stroke-width="1px" x1="127.87824822198249" x2="111.17316453649639" y1="212.1198258495957" y2="318.73510421961043" /><line stroke="black" stroke-width="1px" x1="111.17316453649639" x2="125.19910577216945" y1="318.73510421961043" y2="297.2832463926715" /><line stroke="black" stroke-width="1px" x1="125.19910577216945" x2="127.87824822198249" y1="297.2832463926715" y2="212.1198258495957" /><line stroke="black" stroke-width="1px" x1="214.97498771991988" x2="127.87824822198249" y1="181.24922847473047" y2="212.1198258495957" /><line stroke="black" stroke-width="1px" x1="187.66954103021743" x2="111.17316453649639" y1="281.8612424165065" y2="318.73510421961043" /><line stroke="black" stroke-width="1px" x1="205.52920992386203" x2="125.19910577216945" y1="260.0838313640472" y2="297.2832463926715" /><line stroke="black" stroke-width="1px" x1="406.4777738977774" x2="311.9325243313408" y1="199.89766561949583" y2="249.97225069914822" /><line stroke="black" stroke-width="1px" x1="386.8881961225741" x2="289.2219873352106" y1="167.79645957045375" y2="211.44453365440418" /></svg>