<?xml version="1.0" encoding="utf-8" ?>
<svg baseProfile="full" height="518px" version="1.1" viewBox="0,0,518,518" width="518px" xmlns="http://www.w3.org/2000/svg" xmlns:ev="http://www.w3.org/2001/xml-events" xmlns:xlink="http://www.w3.org/1999/xlink"><defs /><rect fill="white" height="100%" width="100%" x="0" y="0" /><line stroke="black" stroke-width="1px" x1="249.0887595022523" x2="248.2958385315912" y1="210.56778743850532" y2="129.72873172397635" /><line stroke="black" stroke-width="1px" x1="248.2958385315912" x2="138.0305041055403" y1="129.72873172397635" y2="162.09605283574842" /><line stroke="black" stroke-width="1px" x1="138.0305041055403" x2="148.37715634092967" y1="162.09605283574842" y2="252.66767605014485" /><line stroke="black" stroke-width="1px" x1="148.37715634092967" x2="249.0887595022523" y1="252.66767605014485" y2="210.56778743850532" /><line stroke="black" stroke-width="1px" x1="285.5091568998388" x2="287.7626696047512" y1="226.27033318607215" y2="141.7071121341146" /><line stroke="black" stroke-width="1px" x1="287.7626696047512" x2="176.5110950235468" y1="141.7071121341146" y2="178.643268158021" /><line stroke="black" stroke-width="1px" x1="176.5110950235468" x2="184.04055974243946" y1="178.643268158021" y2="273.7906246476274" /><line stroke="black" stroke-width="1px" x1="184.04055974243946" x2="285.5091568998388" y1="273.7906246476274" y2="226.27033318607215" /><line stroke="black" stroke-width="1px" x1="249.0887595022523" x2="285.5091568998388" y1="210.56778743850532" y2="226.27033318607215" /><line stroke="black" stroke-width="1px" x1="248.2958385315912" x2="287.7626696047512" y1="129.72873172397635" y2="141.7071121341146" /><line stroke="black" stroke-width="1px" x1="138.0305041055403" x2="176.5110950235468" y1="162.09605283574842" y2="178.643268158021" /><line stroke="black" stroke-width="1px" x1="148.37715634092967" x2="184.04055974243946" y1="252.66767605014485" y2="273.7906246476274" /><line stroke="black" stroke-width="1px" x1="265.12359045941866" x2="265.62695429787163" y1="217.4811569965237" y2="134.9888119466784" /><line stroke="black" stroke-width="1px" x1="232.55055585384122" x2="230.37639123284183" y1="217.48115699652368" y2="134.9888119466784" /><line stroke="black" stroke-width="1px" x1="138.0305041055403" x2="195.72238298793823" y1="162.09605283574842" y2="370.109390205832" /><line stroke="black" stroke-width="1px" x1="195.72238298793823" x2="198.08472324136815" y1="370.109390205832" y2="306.14846244377094" /><line stroke="black" stroke-width="1px" x1="198.08472324136815" x2="138.0305041055403" y1="306.14846244377094" y2="162.09605283574842" /><line stroke="black" stroke-width="1px" x1="138.0305041055403" x2="195.72238298793823" y1="162.09605283574842" y2="370.109390205832" /><line stroke="black" stroke-width="1px" x1="195.72238298793823" x2="198.08472324136815" y1="370.109390205832" y2="306.14846244377094" /><line stroke="black" stroke-width="1px" x1="198.08472324136815" x2="138.0305041055403" y1="306.14846244377094" y2="162.09605283574842" /><line stroke="black" stroke-width="1px" x1="138.0305041055403" x2="138.0305041055403" y1="162.09605283574842" y2="162.09605283574842" /><line stroke="black" stroke-width="1px" x1="195.72238298793823" x2="195.72238298793823" y1="370.109390205832" y2="370.109390205832" /><line stroke="black" stroke-width="1px" x1="198.08472324136815" x2="198.08472324136815" y1="306.14846244377094" y2="306.14846244377094" /><line stroke="black" stroke-width="1px" x1="264.31683303567104" x2="153.55252032689424" y1="134.59118359813021" y2="168.7707461947416" /><line stroke="black" stroke-width="1px" x1="286.93568510362087" x2="179.29898461534478" y1="172.73976308087094" y2="213.87290728215214" /><line stroke="black" stroke-width="1px" x1="276.816088530891" x2="195.0962154301107" y1="222.47186809986664" y2="259.71195002072216" /><line stroke="black" stroke-width="1px" x1="195.0962154301107" x2="190.1019183221004" y1="259.71195002072216" y2="184.58182352205688" /><line stroke="black" stroke-width="1px" x1="190.1019183221004" x2="278.03608840939427" y1="184.58182352205688" y2="154.0932948943385" /><line stroke="black" stroke-width="1px" x1="278.03608840939427" x2="276.816088530891" y1="154.0932948943385" y2="222.47186809986664" /><line stroke="black" stroke-width="1px" x1="390.0635653906053" x2="309.89071997714876" y1="271.2895083776129" y2="323.6026474844673" /><line stroke="black" stroke-width="1px" x1="309.89071997714876" x2="314.7339170489181" y1="323.6026474844673" y2="238.1959319242304" /><line stroke="black" stroke-width="1px" x1="314.7339170489181" x2="400.70557998547315" y1="238.1959319242304" y2="194.1732331631307" /><line stroke="black" stroke-width="1px" x1="400.70557998547315" x2="390.0635653906053" y1="194.1732331631307" y2="271.2895083776129" /><line stroke="black" stroke-width="1px" x1="276.816088530891" x2="390.0635653906053" y1="222.47186809986664" y2="271.2895083776129" /><line stroke="black" stroke-width="1px" x1="195.0962154301107" x2="309.89071997714876" y1="259.71195002072216" y2="323.6026474844673" /><line stroke="black" stroke-width="1px" x1="190.1019183221004" x2="314.7339170489181" y1="184.58182352205688" y2="238.1959319242304" /><line stroke="black" stroke-width="1px" x1="278.03608840939427" x2="400.70557998547315" y1="154.0932948943385" y2="194.1732331631307" /><line stroke="black" stroke-width="1px" x1="169.8636647460467" x2="271.1094191511096" y1="265.3938426324809" y2="220.06192918970692" /><line stroke="black" stroke-width="1px" x1="182.43564016620675" x2="285.99485894870423" y1="253.5097865325616" y2="208.0443300070955" /><line stroke="black" stroke-width="1px" x1="182.43564016620675" x2="169.8636647460467" y1="253.5097865325616" y2="265.3938426324809" /><line stroke="black" stroke-width="1px" x1="285.99485894870423" x2="271.1094191511096" y1="208.0443300070955" y2="220.06192918970692" /></svg>