<?xml version="1.0" encoding="utf-8" ?>
<svg baseProfile="full" height="518px" version="1.1" viewBox="0,0,518,518" width="518px" xmlns="http://www.w3.org/2000/svg" xmlns:ev="http://www.w3.org/2001/xml-events" xmlns:xlink="http://www.w3.org/1999/xlink"><defs /><rect fill="white" height="100%" width="100%" x="0" y="0" /><line stroke="black" stroke-width="1px" x1="274.74538932283843" x2="364.1298106135306" y1="218.97417179397095" y2="257.15078740656554" /><line stroke="black" stroke-width="1px" x1="364.1298106135306" x2="236.86758575787817" y1="257.15078740656554" y2="332.8183087849187" /><line stroke="black" stroke-width="1px" x1="236.86758575787817" x2="147.6596568256045" y1="332.8183087849187" y2="275.98545222734265" /><line stroke="black" stroke-width="1px" x1="147.6596568256045" x2="274.74538932283843" y1="275.98545222734265" y2="218.97417179397095" /><line stroke="black" stroke-width="1px" x1="275.5241743951098" x2="370.0769955769381" y1="169.41142214372678" y2="202.62431428990055" /><line stroke="black" stroke-width="1px" x1="370.0769955769381" x2="235.2973295715718" y1="202.62431428990055" y2="269.8013598401698" /><line stroke="black" stroke-width="1px" x1="235.2973295715718" x2="140.96669149290398" y1="269.8013598401698" y2="219.17640374358874" /><line stroke="black" stroke-width="1px" x1="140.96669149290398" x2="275.5241743951098" y1="219.17640374358874" y2="169.41142214372678" /><line stroke="black" stroke-width="1px" x1="274.74538932283843" x2="275.5241743951098" y1="218.97417179397095" y2="169.41142214372678" /><line stroke="black" stroke-width="1px" x1="364.1298106135306" x2="370.0769955769381" y1="257.15078740656554" y2="202.62431428990055" /><line stroke="black" stroke-width="1px" x1="236.86758575787817" x2="235.2973295715718" y1="332.8183087849187" y2="269.8013598401698" /><line stroke="black" stroke-width="1px" x1="147.6596568256045" x2="140.96669149290398" y1="275.98545222734265" y2="219.17640374358874" /><line stroke="black" stroke-width="1px" x1="236.1264672764773" x2="144.48379118896733" y1="303.0760120108458" y2="249.0291038882707" /><line stroke="black" stroke-width="1px" x1="262.19145766303285" x2="172.38556537032255" y1="317.7612514300012" y2="264.89328886397294" /><line stroke="black" stroke-width="1px" x1="262.19145766303285" x2="236.1264672764773" y1="317.7612514300012" y2="303.0760120108458" /><line stroke="black" stroke-width="1px" x1="172.38556537032255" x2="144.48379118896733" y1="264.89328886397294" y2="249.0291038882707" /><line stroke="black" stroke-width="1px" x1="235.2973295715718" x2="284.58812638648635" y1="269.8013598401698" y2="332.22141196738596" /><line stroke="black" stroke-width="1px" x1="284.58812638648635" x2="279.41821021073486" y1="332.22141196738596" y2="319.0252091574888" /><line stroke="black" stroke-width="1px" x1="279.41821021073486" x2="235.2973295715718" y1="319.0252091574888" y2="269.8013598401698" /><line stroke="black" stroke-width="1px" x1="235.2973295715718" x2="284.58812638648635" y1="269.8013598401698" y2="332.22141196738596" /><line stroke="black" stroke-width="1px" x1="284.58812638648635" x2="279.41821021073486" y1="332.22141196738596" y2="319.0252091574888" /><line stroke="black" stroke-width="1px" x1="279.41821021073486" x2="235.2973295715718" y1="319.0252091574888" y2="269.8013598401698" /><line stroke="black" stroke-width="1px" x1="235.2973295715718" x2="235.2973295715718" y1="269.8013598401698" y2="269.8013598401698" /><line stroke="black" stroke-width="1px" x1="284.58812638648635" x2="284.58812638648635" y1="332.22141196738596" y2="332.22141196738596" /><line stroke="black" stroke-width="1px" x1="279.41821021073486" x2="279.41821021073486" y1="319.0252091574888" y2="319.0252091574888" /><line stroke="black" stroke-width="1px" x1="344.3348774496226" x2="349.35094528078514" y1="268.9204506358703" y2="212.95461756255003" /><line stroke="black" stroke-width="1px" x1="338.46769349256067" x2="342.8002060007134" y1="246.1903452289904" y2="193.04299181886745" /><line stroke="black" stroke-width="1px" x1="338.46769349256067" x2="344.3348774496226" y1="246.1903452289904" y2="268.9204506358703" /><line stroke="black" stroke-width="1px" x1="342.8002060007134" x2="349.35094528078514" y1="193.04299181886745" y2="212.95461756255003" /></svg>