<?xml version="1.0" encoding="utf-8" ?>
<svg baseProfile="full" height="518px" version="1.1" viewBox="0,0,518,518" width="518px" xmlns="http://www.w3.org/2000/svg" xmlns:ev="http://www.w3.org/2001/xml-events" xmlns:xlink="http://www.w3.org/1999/xlink"><defs /><rect fill="white" height="100%" width="100%" x="0" y="0" /><line stroke="black" stroke-width="1px" x1="203.33603347864533" x2="194.93896722974438" y1="315.6444637199094" y2="179.06476147877493" /><line stroke="black" stroke-width="1px" x1="194.93896722974438" x2="275.81153268334685" y1="179.06476147877493" y2="212.7900843996731" /><line stroke="black" stroke-width="1px" x1="275.81153268334685" x2="273.344485573554" y1="212.7900843996731" y2="360.74632365920917" /><line stroke="black" stroke-width="1px" x1="273.344485573554" x2="203.33603347864533" y1="360.74632365920917" y2="315.6444637199094" /><line stroke="black" stroke-width="1px" x1="246.98953136995684" x2="245.30708592123236" y1="292.01321492622986" y2="161.87531326570618" /><line stroke="black" stroke-width="1px" x1="245.30708592123236" x2="326.1487656240794" y1="161.87531326570618" y2="190.66843730457717" /><line stroke="black" stroke-width="1px" x1="326.1487656240794" x2="316.980640430278" y1="190.66843730457717" y2="331.348136175532" /><line stroke="black" stroke-width="1px" x1="316.980640430278" x2="246.98953136995684" y1="331.348136175532" y2="292.01321492622986" /><line stroke="black" stroke-width="1px" x1="203.33603347864533" x2="246.98953136995684" y1="315.6444637199094" y2="292.01321492622986" /><line stroke="black" stroke-width="1px" x1="194.93896722974438" x2="245.30708592123236" y1="179.06476147877493" y2="161.87531326570618" /><line stroke="black" stroke-width="1px" x1="275.81153268334685" x2="326.1487656240794" y1="212.7900843996731" y2="190.66843730457717" /><line stroke="black" stroke-width="1px" x1="273.344485573554" x2="316.980640430278" y1="360.74632365920917" y2="331.348136175532" /><line stroke="black" stroke-width="1px" x1="220.58729452294105" x2="271.12018592900574" y1="189.76057798332496" y2="171.06908302758592" /><line stroke="black" stroke-width="1px" x1="197.0892987106887" x2="245.7349217150795" y1="214.04026657563523" y2="194.96860167440133" /><line stroke="black" stroke-width="1px" x1="197.0892987106887" x2="220.58729452294105" y1="214.04026657563523" y2="189.76057798332496" /><line stroke="black" stroke-width="1px" x1="245.7349217150795" x2="271.12018592900574" y1="194.96860167440133" y2="171.06908302758592" /><line stroke="black" stroke-width="1px" x1="313.6435566961058" x2="278.2805141044544" y1="321.7380628028376" y2="344.8478150777377" /><line stroke="black" stroke-width="1px" x1="278.2805141044544" x2="280.86615678125503" y1="344.8478150777377" y2="227.346299443026" /><line stroke="black" stroke-width="1px" x1="280.86615678125503" x2="320.50274278048795" y1="227.346299443026" y2="208.85377437629134" /><line stroke="black" stroke-width="1px" x1="320.50274278048795" x2="313.6435566961058" y1="208.85377437629134" y2="321.7380628028376" /><line stroke="black" stroke-width="1px" x1="313.6435566961058" x2="278.2805141044544" y1="321.7380628028376" y2="344.8478150777377" /><line stroke="black" stroke-width="1px" x1="278.2805141044544" x2="280.86615678125503" y1="344.8478150777377" y2="227.346299443026" /><line stroke="black" stroke-width="1px" x1="280.86615678125503" x2="320.50274278048795" y1="227.346299443026" y2="208.85377437629134" /><line stroke="black" stroke-width="1px" x1="320.50274278048795" x2="313.6435566961058" y1="208.85377437629134" y2="321.7380628028376" /><line stroke="black" stroke-width="1px" x1="313.6435566961058" x2="313.6435566961058" y1="321.7380628028376" y2="321.7380628028376" /><line stroke="black" stroke-width="1px" x1="278.2805141044544" x2="278.2805141044544" y1="344.8478150777377" y2="344.8478150777377" /><line stroke="black" stroke-width="1px" x1="280.86615678125503" x2="280.86615678125503" y1="227.346299443026" y2="227.346299443026" /><line stroke="black" stroke-width="1px" x1="320.50274278048795" x2="320.50274278048795" y1="208.85377437629134" y2="208.85377437629134" /><line stroke="black" stroke-width="1px" x1="215.30568325719878" x2="259.0303890420363" y1="323.3557250273716" y2="298.7801628238137" /><line stroke="black" stroke-width="1px" x1="202.41065838244734" x2="246.80256515404488" y1="300.59308132589484" y2="277.55129520179884" /><line stroke="black" stroke-width="1px" x1="202.41065838244734" x2="215.30568325719878" y1="300.59308132589484" y2="323.3557250273716" /><line stroke="black" stroke-width="1px" x1="246.80256515404488" x2="259.0303890420363" y1="277.55129520179884" y2="298.7801628238137" /></svg>