<?xml version="1.0" encoding="utf-8" ?>
<svg baseProfile="full" height="518px" version="1.1" viewBox="0,0,518,518" width="518px" xmlns="http://www.w3.org/2000/svg" xmlns:ev="http://www.w3.org/2001/xml-events" xmlns:xlink="http://www.w3.org/1999/xlink"><defs /><rect fill="white" height="100%" width="100%" x="0" y="0" /><line stroke="black" stroke-width="1px" x1="199.95865438515776" x2="193.35654545148512" y1="290.0215963183292" y2="185.91476155559124" /><line stroke="black" stroke-width="1px" x1="193.35654545148512" x2="305.0848707191663" y1="185.91476155559124" y2="233.96494749000536" /><line stroke="black" stroke-width="1px" x1="305.0848707191663" x2="299.6563119802397" y1="233.96494749000536" y2="350.2358896069312" /><line stroke="black" stroke-width="1px" x1="299.6563119802397" x2="199.95865438515776" y1="350.2358896069312" y2="290.0215963183292" /><line stroke="black" stroke-width="1px" x1="225.55556666547335" x2="221.96709235456893" y1="277.1682867203677" y2="175.8953082757631" /><line stroke="black" stroke-width="1px" x1="221.96709235456893" x2="333.62488091216926" y1="175.8953082757631" y2="219.79047814962487" /><line stroke="black" stroke-width="1px" x1="333.62488091216926" x2="325.20837916432936" y1="219.79047814962487" y2="332.71420671754265" /><line stroke="black" stroke-width="1px" x1="325.20837916432936" x2="225.55556666547335" y1="332.71420671754265" y2="277.1682867203677" /><line stroke="black" stroke-width="1px" x1="199.95865438515776" x2="225.55556666547335" y1="290.0215963183292" y2="277.1682867203677" /><line stroke="black" stroke-width="1px" x1="193.35654545148512" x2="221.96709235456893" y1="185.91476155559124" y2="175.8953082757631" /><line stroke="black" stroke-width="1px" x1="305.0848707191663" x2="333.62488091216926" y1="233.96494749000536" y2="219.79047814962487" /><line stroke="black" stroke-width="1px" x1="299.6563119802397" x2="325.20837916432936" y1="350.2358896069312" y2="332.71420671754265" /><line stroke="black" stroke-width="1px" x1="306.0327886028707" x2="206.31646778911926" y1="345.863382266198" y2="286.8290650023536" /><line stroke="black" stroke-width="1px" x1="326.99977128622083" x2="224.7810624392777" y1="308.6791997999598" y2="255.31043209774433" /><line stroke="black" stroke-width="1px" x1="326.99977128622083" x2="306.0327886028707" y1="308.6791997999598" y2="345.863382266198" /><line stroke="black" stroke-width="1px" x1="224.7810624392777" x2="206.31646778911926" y1="255.31043209774433" y2="286.8290650023536" /><line stroke="black" stroke-width="1px" x1="228.78009632138392" x2="205.84549900991362" y1="180.6551645917334" y2="188.93092518162896" /><line stroke="black" stroke-width="1px" x1="205.84549900991362" x2="294.9882352226693" y1="188.93092518162896" y2="226.9110055765504" /><line stroke="black" stroke-width="1px" x1="294.9882352226693" x2="317.8941075728719" y1="226.9110055765504" y2="215.99139393224365" /><line stroke="black" stroke-width="1px" x1="317.8941075728719" x2="228.78009632138392" y1="215.99139393224365" y2="180.6551645917334" /><line stroke="black" stroke-width="1px" x1="228.78009632138392" x2="205.84549900991362" y1="180.6551645917334" y2="188.93092518162896" /><line stroke="black" stroke-width="1px" x1="205.84549900991362" x2="294.9882352226693" y1="188.93092518162896" y2="226.9110055765504" /><line stroke="black" stroke-width="1px" x1="294.9882352226693" x2="317.8941075728719" y1="226.9110055765504" y2="215.99139393224365" /><line stroke="black" stroke-width="1px" x1="317.8941075728719" x2="228.78009632138392" y1="215.99139393224365" y2="180.6551645917334" /><line stroke="black" stroke-width="1px" x1="228.78009632138392" x2="228.78009632138392" y1="180.6551645917334" y2="180.6551645917334" /><line stroke="black" stroke-width="1px" x1="205.84549900991362" x2="205.84549900991362" y1="188.93092518162896" y2="188.93092518162896" /><line stroke="black" stroke-width="1px" x1="294.9882352226693" x2="294.9882352226693" y1="226.9110055765504" y2="226.9110055765504" /><line stroke="black" stroke-width="1px" x1="317.8941075728719" x2="317.8941075728719" y1="215.99139393224365" y2="215.99139393224365" /><line stroke="black" stroke-width="1px" x1="276.24845119686245" x2="301.92254082711827" y1="336.09826763597556" y2="319.73481074353816" /><line stroke="black" stroke-width="1px" x1="300.87141062664364" x2="327.1005769728752" y1="324.2104432266052" y2="307.32669559584934" /></svg>