<?xml version="1.0" encoding="utf-8" ?>
<svg baseProfile="full" height="518px" version="1.1" viewBox="0,0,518,518" width="518px" xmlns="http://www.w3.org/2000/svg" xmlns:ev="http://www.w3.org/2001/xml-events" xmlns:xlink="http://www.w3.org/1999/xlink"><defs /><rect fill="white" height="100%" width="100%" x="0" y="0" /><line stroke="black" stroke-width="1px" x1="92.46053819515785" x2="70.28569255254794" y1="360.58049943339677" y2="246.01127517435805" /><line stroke="black" stroke-width="1px" x1="70.28569255254794" x2="189.5472118928345" y1="246.01127517435805" y2="327.0810764140465" /><line stroke="black" stroke-width="1px" x1="189.5472118928345" x2="199.54887592943274" y1="327.0810764140465" y2="455.8154288294476" /><line stroke="black" stroke-width="1px" x1="199.54887592943274" x2="92.46053819515785" y1="455.8154288294476" y2="360.58049943339677" /><line stroke="black" stroke-width="1px" x1="216.68134776661708" x2="212.00865064159217" y1="295.6546447347531" y2="193.47769567508638" /><line stroke="black" stroke-width="1px" x1="212.00865064159217" x2="336.28301110030304" y1="193.47769567508638" y2="246.8275666927999" /><line stroke="black" stroke-width="1px" x1="336.28301110030304" x2="327.18062820610317" y1="246.8275666927999" y2="361.5687999398967" /><line stroke="black" stroke-width="1px" x1="327.18062820610317" x2="216.68134776661708" y1="361.5687999398967" y2="295.6546447347531" /><line stroke="black" stroke-width="1px" x1="92.46053819515785" x2="216.68134776661708" y1="360.58049943339677" y2="295.6546447347531" /><line stroke="black" stroke-width="1px" x1="70.28569255254794" x2="212.00865064159217" y1="246.01127517435805" y2="193.47769567508638" /><line stroke="black" stroke-width="1px" x1="189.5472118928345" x2="336.28301110030304" y1="327.0810764140465" y2="246.8275666927999" /><line stroke="black" stroke-width="1px" x1="199.54887592943274" x2="327.18062820610317" y1="455.8154288294476" y2="361.5687999398967" /><line stroke="black" stroke-width="1px" x1="101.15431903660064" x2="222.62138224001126" y1="234.56895513461944" y2="308.9919784174056" /><line stroke="black" stroke-width="1px" x1="76.05518309527793" x2="192.20859077138684" y1="275.8200984917246" y2="361.3364648382901" /><line stroke="black" stroke-width="1px" x1="76.05518309527793" x2="101.15431903660064" y1="275.8200984917246" y2="234.56895513461944" /><line stroke="black" stroke-width="1px" x1="192.20859077138684" x2="222.62138224001126" y1="361.3364648382901" y2="308.9919784174056" /><line stroke="black" stroke-width="1px" x1="216.68134776661708" x2="221.02711519905748" y1="295.6546447347531" y2="309.14789755384436" /><line stroke="black" stroke-width="1px" x1="221.02711519905748" x2="78.60903638017535" y1="309.14789755384436" y2="238.12066309046827" /><line stroke="black" stroke-width="1px" x1="78.60903638017535" x2="216.68134776661708" y1="238.12066309046827" y2="295.6546447347531" /><line stroke="black" stroke-width="1px" x1="323.3616513174301" x2="336.68239696843705" y1="239.89659653460146" y2="246.01501034333955" /><line stroke="black" stroke-width="1px" x1="336.68239696843705" x2="224.5050921572648" y1="246.01501034333955" y2="184.89336887078727" /><line stroke="black" stroke-width="1px" x1="224.5050921572648" x2="323.3616513174301" y1="184.89336887078727" y2="239.89659653460146" /><line stroke="black" stroke-width="1px" x1="216.68134776661708" x2="323.3616513174301" y1="295.6546447347531" y2="239.89659653460146" /><line stroke="black" stroke-width="1px" x1="221.02711519905748" x2="336.68239696843705" y1="309.14789755384436" y2="246.01501034333955" /><line stroke="black" stroke-width="1px" x1="78.60903638017535" x2="224.5050921572648" y1="238.12066309046827" y2="184.89336887078727" /><line stroke="black" stroke-width="1px" x1="184.28188145235944" x2="308.5780274220276" y1="203.75539840653335" y2="261.9801210725786" /><line stroke="black" stroke-width="1px" x1="213.44876868005116" x2="333.4375772325795" y1="224.9684735959315" y2="282.6960414538096" /></svg>