<?xml version="1.0" encoding="utf-8" ?>
<svg baseProfile="full" height="518px" version="1.1" viewBox="0,0,518,518" width="518px" xmlns="http://www.w3.org/2000/svg" xmlns:ev="http://www.w3.org/2001/xml-events" xmlns:xlink="http://www.w3.org/1999/xlink"><defs /><rect fill="white" height="100%" width="100%" x="0" y="0" /><line stroke="black" stroke-width="1px" x1="244.68237087452383" x2="243.4398321690026" y1="253.09629079510384" y2="169.09544378043955" /><line stroke="black" stroke-width="1px" x1="243.4398321690026" x2="148.80316638177584" y1="169.09544378043955" y2="202.34104919306952" /><line stroke="black" stroke-width="1px" x1="148.80316638177584" x2="158.7560071722917" y1="202.34104919306952" y2="294.34761230239974" /><line stroke="black" stroke-width="1px" x1="158.7560071722917" x2="244.68237087452383" y1="294.34761230239974" y2="253.09629079510384" /><line stroke="black" stroke-width="1px" x1="364.5754994959367" x2="375.67378848597747" y1="313.2828394968341" y2="217.85898271886697" /><line stroke="black" stroke-width="1px" x1="375.67378848597747" x2="281.2404809424268" y1="217.85898271886697" y2="268.1706057553545" /><line stroke="black" stroke-width="1px" x1="281.2404809424268" x2="278.78616563849687" y1="268.1706057553545" y2="373.3218029738792" /><line stroke="black" stroke-width="1px" x1="278.78616563849687" x2="364.5754994959367" y1="373.3218029738792" y2="313.2828394968341" /><line stroke="black" stroke-width="1px" x1="244.68237087452383" x2="364.5754994959367" y1="253.09629079510384" y2="313.2828394968341" /><line stroke="black" stroke-width="1px" x1="243.4398321690026" x2="375.67378848597747" y1="169.09544378043955" y2="217.85898271886697" /><line stroke="black" stroke-width="1px" x1="148.80316638177584" x2="281.2404809424268" y1="202.34104919306952" y2="268.1706057553545" /><line stroke="black" stroke-width="1px" x1="158.7560071722917" x2="278.78616563849687" y1="294.34761230239974" y2="373.3218029738792" /><line stroke="black" stroke-width="1px" x1="224.22544956394822" x2="356.96874187291115" y1="175.8454045596068" y2="227.82454760859102" /><line stroke="black" stroke-width="1px" x1="243.79269423157058" x2="372.4841464043635" y1="192.95040459843477" y2="245.28374607131147" /><line stroke="black" stroke-width="1px" x1="243.79269423157058" x2="224.22544956394822" y1="192.95040459843477" y2="175.8454045596068" /><line stroke="black" stroke-width="1px" x1="372.4841464043635" x2="356.96874187291115" y1="245.28374607131147" y2="227.82454760859102" /><line stroke="black" stroke-width="1px" x1="261.483869637292" x2="261.70572121064765" y1="261.53067093994565" y2="175.83130358782637" /><line stroke="black" stroke-width="1px" x1="227.1135854526948" x2="224.26558927375638" y1="261.53067093994565" y2="175.83130358782637" /></svg>