<?xml version="1.0" encoding="utf-8" ?>
<svg baseProfile="full" height="518px" version="1.1" viewBox="0,0,518,518" width="518px" xmlns="http://www.w3.org/2000/svg" xmlns:ev="http://www.w3.org/2001/xml-events" xmlns:xlink="http://www.w3.org/1999/xlink"><defs /><rect fill="white" height="100%" width="100%" x="0" y="0" /><line stroke="black" stroke-width="1px" x1="107.81733554544775" x2="89.51900073328264" y1="329.19406210855664" y2="221.25125421774078" /><line stroke="black" stroke-width="1px" x1="89.51900073328264" x2="207.79658760190915" y1="221.25125421774078" y2="292.16883668438146" /><line stroke="black" stroke-width="1px" x1="207.79658760190915" x2="214.5283780971218" y1="292.16883668438146" y2="414.2874016167574" /><line stroke="black" stroke-width="1px" x1="214.5283780971218" x2="107.81733554544775" y1="414.2874016167574" y2="329.19406210855664" /><line stroke="black" stroke-width="1px" x1="166.31411684316765" x2="156.015928578329" y1="300.34404249226293" y2="198.0482084972201" /><line stroke="black" stroke-width="1px" x1="156.015928578329" x2="277.3992270313622" y1="198.0482084972201" y2="256.6070116035282" /><line stroke="black" stroke-width="1px" x1="277.3992270313622" x2="275.19422764910047" y1="256.6070116035282" y2="372.18514541811027" /><line stroke="black" stroke-width="1px" x1="275.19422764910047" x2="166.31411684316765" y1="372.18514541811027" y2="300.34404249226293" /><line stroke="black" stroke-width="1px" x1="107.81733554544775" x2="166.31411684316765" y1="329.19406210855664" y2="300.34404249226293" /><line stroke="black" stroke-width="1px" x1="89.51900073328264" x2="156.015928578329" y1="221.25125421774078" y2="198.0482084972201" /><line stroke="black" stroke-width="1px" x1="207.79658760190915" x2="277.3992270313622" y1="292.16883668438146" y2="256.6070116035282" /><line stroke="black" stroke-width="1px" x1="214.5283780971218" x2="275.19422764910047" y1="414.2874016167574" y2="372.18514541811027" /><line stroke="black" stroke-width="1px" x1="231.8377338054433" x2="235.30063770381977" y1="279.8855807182073" y2="399.8713998258868" /><line stroke="black" stroke-width="1px" x1="187.3103580374404" x2="196.45003507495915" y1="279.8855807182073" y2="399.87139982588684" /><line stroke="black" stroke-width="1px" x1="187.3103580374404" x2="231.8377338054433" y1="279.8855807182073" y2="279.8855807182073" /><line stroke="black" stroke-width="1px" x1="196.45003507495915" x2="235.30063770381977" y1="399.87139982588684" y2="399.8713998258868" /><line stroke="black" stroke-width="1px" x1="277.3992270313622" x2="304.1488362829439" y1="256.6070116035282" y2="283.75427395491334" /><line stroke="black" stroke-width="1px" x1="304.1488362829439" x2="305.11214560132885" y1="283.75427395491334" y2="292.0703457682814" /><line stroke="black" stroke-width="1px" x1="305.11214560132885" x2="277.3992270313622" y1="292.0703457682814" y2="256.6070116035282" /><line stroke="black" stroke-width="1px" x1="277.3992270313622" x2="304.1488362829439" y1="256.6070116035282" y2="283.75427395491334" /><line stroke="black" stroke-width="1px" x1="304.1488362829439" x2="305.11214560132885" y1="283.75427395491334" y2="292.0703457682814" /><line stroke="black" stroke-width="1px" x1="305.11214560132885" x2="277.3992270313622" y1="292.0703457682814" y2="256.6070116035282" /><line stroke="black" stroke-width="1px" x1="277.3992270313622" x2="277.3992270313622" y1="256.6070116035282" y2="256.6070116035282" /><line stroke="black" stroke-width="1px" x1="304.1488362829439" x2="304.1488362829439" y1="283.75427395491334" y2="283.75427395491334" /><line stroke="black" stroke-width="1px" x1="305.11214560132885" x2="305.11214560132885" y1="292.0703457682814" y2="292.0703457682814" /><line stroke="black" stroke-width="1px" x1="138.13121589510772" x2="124.12630558573233" y1="314.24356357971266" y2="209.17558541952872" /><line stroke="black" stroke-width="1px" x1="187.37979282134688" x2="179.08125167770913" y1="314.24356357971266" y2="209.17558541952872" /><line stroke="black" stroke-width="1px" x1="187.37979282134688" x2="138.13121589510772" y1="314.24356357971266" y2="314.24356357971266" /><line stroke="black" stroke-width="1px" x1="179.08125167770913" x2="124.12630558573233" y1="209.17558541952872" y2="209.17558541952872" /><line stroke="black" stroke-width="1px" x1="166.31411684316765" x2="271.6515893703682" y1="300.34404249226293" y2="316.32898964151354" /><line stroke="black" stroke-width="1px" x1="271.6515893703682" x2="204.78559725488225" y1="316.32898964151354" y2="264.17802143616717" /><line stroke="black" stroke-width="1px" x1="204.78559725488225" x2="166.31411684316765" y1="264.17802143616717" y2="300.34404249226293" /><line stroke="black" stroke-width="1px" x1="258.63227765912586" x2="355.2569452337437" y1="254.81366130897615" y2="266.06142260296406" /><line stroke="black" stroke-width="1px" x1="355.2569452337437" x2="296.04676412410794" y1="266.06142260296406" y2="221.42463561290828" /><line stroke="black" stroke-width="1px" x1="296.04676412410794" x2="258.63227765912586" y1="221.42463561290828" y2="254.81366130897615" /><line stroke="black" stroke-width="1px" x1="166.31411684316765" x2="258.63227765912586" y1="300.34404249226293" y2="254.81366130897615" /><line stroke="black" stroke-width="1px" x1="271.6515893703682" x2="355.2569452337437" y1="316.32898964151354" y2="266.06142260296406" /><line stroke="black" stroke-width="1px" x1="204.78559725488225" x2="296.04676412410794" y1="264.17802143616717" y2="221.42463561290828" /><line stroke="black" stroke-width="1px" x1="188.66054792714857" x2="280.4215399738712" y1="279.33675375622164" y2="235.36872679126424" /><line stroke="black" stroke-width="1px" x1="225.14896165158382" x2="314.10431644066534" y1="280.06007351687373" y2="235.037684943453" /></svg>