<?xml version="1.0" encoding="utf-8" ?>
<svg baseProfile="full" height="518px" version="1.1" viewBox="0,0,518,518" width="518px" xmlns="http://www.w3.org/2000/svg" xmlns:ev="http://www.w3.org/2001/xml-events" xmlns:xlink="http://www.w3.org/1999/xlink"><defs /><rect fill="white" height="100%" width="100%" x="0" y="0" /><line stroke="black" stroke-width="1px" x1="270.2227146365085" x2="271.0803489776096" y1="236.0779801464803" y2="160.80856114368538" /><line stroke="black" stroke-width="1px" x1="271.0803489776096" x2="131.8379316281547" y1="160.80856114368538" y2="210.03895633703726" /><line stroke="black" stroke-width="1px" x1="131.8379316281547" x2="142.69279799707203" y1="210.03895633703726" y2="296.33948810580273" /><line stroke="black" stroke-width="1px" x1="142.69279799707203" x2="270.2227146365085" y1="296.33948810580273" y2="236.0779801464803" /><line stroke="black" stroke-width="1px" x1="339.0201610924946" x2="345.8348470952151" y1="267.4685835962357" y2="186.2614240782204" /><line stroke="black" stroke-width="1px" x1="345.8348470952151" x2="205.545051306881" y1="186.2614240782204" y2="248.98823396317096" /><line stroke="black" stroke-width="1px" x1="205.545051306881" x2="210.6991243650241" y1="248.98823396317096" y2="342.71137070984827" /><line stroke="black" stroke-width="1px" x1="210.6991243650241" x2="339.0201610924946" y1="342.71137070984827" y2="267.4685835962357" /><line stroke="black" stroke-width="1px" x1="270.2227146365085" x2="339.0201610924946" y1="236.0779801464803" y2="267.4685835962357" /><line stroke="black" stroke-width="1px" x1="271.0803489776096" x2="345.8348470952151" y1="160.80856114368538" y2="186.2614240782204" /><line stroke="black" stroke-width="1px" x1="131.8379316281547" x2="205.545051306881" y1="210.03895633703726" y2="248.98823396317096" /><line stroke="black" stroke-width="1px" x1="142.69279799707203" x2="210.6991243650241" y1="296.33948810580273" y2="342.71137070984827" /><line stroke="black" stroke-width="1px" x1="252.53260726510607" x2="327.5590224346615" y1="167.36628020539302" y2="194.43296765009126" /><line stroke="black" stroke-width="1px" x1="270.8043959868289" x2="343.6301019962896" y1="185.02729900518514" y2="212.53425409174235" /><line stroke="black" stroke-width="1px" x1="266.2498788943639" x2="155.06711069667125" y1="167.30810088248438" y2="207.45792588880866" /><line stroke="black" stroke-width="1px" x1="155.06711069667125" x2="214.34714742343908" y1="207.45792588880866" y2="237.14475444495056" /><line stroke="black" stroke-width="1px" x1="214.34714742343908" x2="326.13543497746934" y1="237.14475444495056" y2="188.45025659520837" /><line stroke="black" stroke-width="1px" x1="326.13543497746934" x2="266.2498788943639" y1="188.45025659520837" y2="167.30810088248438" /><line stroke="black" stroke-width="1px" x1="266.2498788943639" x2="155.06711069667125" y1="167.30810088248438" y2="207.45792588880866" /><line stroke="black" stroke-width="1px" x1="155.06711069667125" x2="214.34714742343908" y1="207.45792588880866" y2="237.14475444495056" /><line stroke="black" stroke-width="1px" x1="214.34714742343908" x2="326.13543497746934" y1="237.14475444495056" y2="188.45025659520837" /><line stroke="black" stroke-width="1px" x1="326.13543497746934" x2="266.2498788943639" y1="188.45025659520837" y2="167.30810088248438" /><line stroke="black" stroke-width="1px" x1="266.2498788943639" x2="266.2498788943639" y1="167.30810088248438" y2="167.30810088248438" /><line stroke="black" stroke-width="1px" x1="155.06711069667125" x2="155.06711069667125" y1="207.45792588880866" y2="207.45792588880866" /><line stroke="black" stroke-width="1px" x1="214.34714742343908" x2="214.34714742343908" y1="237.14475444495056" y2="237.14475444495056" /><line stroke="black" stroke-width="1px" x1="326.13543497746934" x2="326.13543497746934" y1="188.45025659520837" y2="188.45025659520837" /><line stroke="black" stroke-width="1px" x1="163.207735165557" x2="231.71764542272146" y1="286.64559758943926" y2="330.3868746979738" /><line stroke="black" stroke-width="1px" x1="139.98845960884202" x2="209.4267494188011" y1="274.8389156385789" y2="319.5741412347061" /><line stroke="black" stroke-width="1px" x1="345.8348470952151" x2="363.9770035709213" y1="186.2614240782204" y2="299.41915738908244" /><line stroke="black" stroke-width="1px" x1="363.9770035709213" x2="306.66364854346614" y1="299.41915738908244" y2="173.39596752067843" /><line stroke="black" stroke-width="1px" x1="306.66364854346614" x2="345.8348470952151" y1="173.39596752067843" y2="186.2614240782204" /><line stroke="black" stroke-width="1px" x1="345.8348470952151" x2="363.9770035709213" y1="186.2614240782204" y2="299.41915738908244" /><line stroke="black" stroke-width="1px" x1="363.9770035709213" x2="306.66364854346614" y1="299.41915738908244" y2="173.39596752067843" /><line stroke="black" stroke-width="1px" x1="306.66364854346614" x2="345.8348470952151" y1="173.39596752067843" y2="186.2614240782204" /><line stroke="black" stroke-width="1px" x1="345.8348470952151" x2="345.8348470952151" y1="186.2614240782204" y2="186.2614240782204" /><line stroke="black" stroke-width="1px" x1="363.9770035709213" x2="363.9770035709213" y1="299.41915738908244" y2="299.41915738908244" /><line stroke="black" stroke-width="1px" x1="306.66364854346614" x2="306.66364854346614" y1="173.39596752067843" y2="173.39596752067843" /><line stroke="black" stroke-width="1px" x1="257.06402973207855" x2="326.033760177006" y1="242.29583252181314" y2="275.0833365968008" /><line stroke="black" stroke-width="1px" x1="270.41333703933316" x2="340.5253220483674" y1="219.34819587605892" y2="249.5323432771579" /><line stroke="black" stroke-width="1px" x1="270.41333703933316" x2="257.06402973207855" y1="219.34819587605892" y2="242.29583252181314" /><line stroke="black" stroke-width="1px" x1="340.5253220483674" x2="326.033760177006" y1="249.5323432771579" y2="275.0833365968008" /></svg>