<?xml version="1.0" encoding="utf-8" ?>
<svg baseProfile="full" height="518px" version="1.1" viewBox="0,0,518,518" width="518px" xmlns="http://www.w3.org/2000/svg" xmlns:ev="http://www.w3.org/2001/xml-events" xmlns:xlink="http://www.w3.org/1999/xlink"><defs /><rect fill="white" height="100%" width="100%" x="0" y="0" /><line stroke="black" stroke-width="1px" x1="354.3374639392442" x2="363.69939994000026" y1="314.30665460609316" y2="225.26852023833797" /><line stroke="black" stroke-width="1px" x1="363.69939994000026" x2="289.7286282059195" y1="225.26852023833797" y2="264.8201912965688" /><line stroke="black" stroke-width="1px" x1="289.7286282059195" x2="286.6402901267876" y1="264.8201912965688" y2="360.9225576029057" /><line stroke="black" stroke-width="1px" x1="286.6402901267876" x2="354.3374639392442" y1="360.9225576029057" y2="314.30665460609316" /><line stroke="black" stroke-width="1px" x1="316.18550101167904" x2="321.48323644018154" y1="294.83511751275" y2="209.03143828171352" /><line stroke="black" stroke-width="1px" x1="321.48323644018154" x2="246.7910688608211" y1="209.03143828171352" y2="243.96116171078472" /><line stroke="black" stroke-width="1px" x1="246.7910688608211" x2="247.9471409545379" y1="243.96116171078472" y2="336.4803206979088" /><line stroke="black" stroke-width="1px" x1="247.9471409545379" x2="316.18550101167904" y1="336.4803206979088" y2="294.83511751275" /><line stroke="black" stroke-width="1px" x1="354.3374639392442" x2="316.18550101167904" y1="314.30665460609316" y2="294.83511751275" /><line stroke="black" stroke-width="1px" x1="363.69939994000026" x2="321.48323644018154" y1="225.26852023833797" y2="209.03143828171352" /><line stroke="black" stroke-width="1px" x1="289.7286282059195" x2="246.7910688608211" y1="264.8201912965688" y2="243.96116171078472" /><line stroke="black" stroke-width="1px" x1="286.6402901267876" x2="247.9471409545379" y1="360.9225576029057" y2="336.4803206979088" /><line stroke="black" stroke-width="1px" x1="344.10889266761365" x2="301.5884801398266" y1="235.74343190056575" y2="218.33520275637304" /><line stroke="black" stroke-width="1px" x1="360.77277627263936" x2="319.8328868578465" y1="253.10262541885695" y2="235.76098491401478" /><line stroke="black" stroke-width="1px" x1="310.45167243003476" x2="255.4468393661253" y1="290.63157361452375" y2="323.48223894359626" /><line stroke="black" stroke-width="1px" x1="255.4468393661253" x2="286.1339279433072" y1="323.48223894359626" y2="235.1249053627668" /><line stroke="black" stroke-width="1px" x1="286.1339279433072" x2="310.45167243003476" y1="235.1249053627668" y2="290.63157361452375" /><line stroke="black" stroke-width="1px" x1="231.8659911612694" x2="177.18233380496812" y1="250.66883718465655" y2="276.2193471048979" /><line stroke="black" stroke-width="1px" x1="177.18233380496812" x2="201.9651455051483" y1="276.2193471048979" y2="197.7548266531427" /><line stroke="black" stroke-width="1px" x1="201.9651455051483" x2="231.8659911612694" y1="197.7548266531427" y2="250.66883718465655" /><line stroke="black" stroke-width="1px" x1="310.45167243003476" x2="231.8659911612694" y1="290.63157361452375" y2="250.66883718465655" /><line stroke="black" stroke-width="1px" x1="255.4468393661253" x2="177.18233380496812" y1="323.48223894359626" y2="276.2193471048979" /><line stroke="black" stroke-width="1px" x1="286.1339279433072" x2="201.9651455051483" y1="235.1249053627668" y2="197.7548266531427" /><line stroke="black" stroke-width="1px" x1="294.8034129946203" x2="212.52802100281048" y1="254.91350997284673" y2="216.44741186475676" /><line stroke="black" stroke-width="1px" x1="275.81299242242164" x2="193.6501831049652" y1="264.8419748198936" y2="224.08071514383394" /></svg>