<?xml version="1.0" encoding="utf-8" ?>
<svg baseProfile="full" height="518px" version="1.1" viewBox="0,0,518,518" width="518px" xmlns="http://www.w3.org/2000/svg" xmlns:ev="http://www.w3.org/2001/xml-events" xmlns:xlink="http://www.w3.org/1999/xlink"><defs /><rect fill="white" height="100%" width="100%" x="0" y="0" /><line stroke="black" stroke-width="1px" x1="262.45093162761793" x2="374.36947564026775" y1="183.18598850785736" y2="225.68672555313023" /><line stroke="black" stroke-width="1px" x1="374.36947564026775" x2="254.02346137304625" y1="225.68672555313023" y2="291.4359776446135" /><line stroke="black" stroke-width="1px" x1="254.02346137304625" x2="142.15485357269176" y1="291.4359776446135" y2="229.36233315955178" /><line stroke="black" stroke-width="1px" x1="142.15485357269176" x2="262.45093162761793" y1="229.36233315955178" y2="183.18598850785736" /><line stroke="black" stroke-width="1px" x1="262.2697042433676" x2="367.3234095998865" y1="237.68879120761687" y2="286.47613591926245" /><line stroke="black" stroke-width="1px" x1="367.3234095998865" x2="254.3917924845378" y1="286.47613591926245" y2="360.2383713254214" /><line stroke="black" stroke-width="1px" x1="254.3917924845378" x2="149.376680794149" y1="360.2383713254214" y2="290.6540549240971" /><line stroke="black" stroke-width="1px" x1="149.376680794149" x2="262.2697042433676" y1="290.6540549240971" y2="237.68879120761687" /><line stroke="black" stroke-width="1px" x1="262.45093162761793" x2="262.2697042433676" y1="183.18598850785736" y2="237.68879120761687" /><line stroke="black" stroke-width="1px" x1="374.36947564026775" x2="367.3234095998865" y1="225.68672555313023" y2="286.47613591926245" /><line stroke="black" stroke-width="1px" x1="254.02346137304625" x2="254.3917924845378" y1="291.4359776446135" y2="360.2383713254214" /><line stroke="black" stroke-width="1px" x1="142.15485357269176" x2="149.376680794149" y1="229.36233315955178" y2="290.6540549240971" /><line stroke="black" stroke-width="1px" x1="172.8052164315993" x2="177.93008406918887" y1="217.59701427337677" y2="277.2578459444893" /><line stroke="black" stroke-width="1px" x1="165.22331306530106" x2="171.25786501031683" y1="242.1625581870929" y2="305.1527991640924" /><line stroke="black" stroke-width="1px" x1="271.4978836817434" x2="355.88411895810265" y1="236.700767645119" y2="275.20944288866394" /><line stroke="black" stroke-width="1px" x1="355.88411895810265" x2="360.8082055965764" y1="275.20944288866394" y2="227.13867546698265" /><line stroke="black" stroke-width="1px" x1="360.8082055965764" x2="272.0572245489787" y1="227.13867546698265" y2="192.64734034305351" /><line stroke="black" stroke-width="1px" x1="272.0572245489787" x2="271.4978836817434" y1="192.64734034305351" y2="236.700767645119" /><line stroke="black" stroke-width="1px" x1="271.4978836817434" x2="355.88411895810265" y1="236.700767645119" y2="275.20944288866394" /><line stroke="black" stroke-width="1px" x1="355.88411895810265" x2="360.8082055965764" y1="275.20944288866394" y2="227.13867546698265" /><line stroke="black" stroke-width="1px" x1="360.8082055965764" x2="272.0572245489787" y1="227.13867546698265" y2="192.64734034305351" /><line stroke="black" stroke-width="1px" x1="272.0572245489787" x2="271.4978836817434" y1="192.64734034305351" y2="236.700767645119" /><line stroke="black" stroke-width="1px" x1="271.4978836817434" x2="271.4978836817434" y1="236.700767645119" y2="236.700767645119" /><line stroke="black" stroke-width="1px" x1="355.88411895810265" x2="355.88411895810265" y1="275.20944288866394" y2="275.20944288866394" /><line stroke="black" stroke-width="1px" x1="360.8082055965764" x2="360.8082055965764" y1="227.13867546698265" y2="227.13867546698265" /><line stroke="black" stroke-width="1px" x1="272.0572245489787" x2="272.0572245489787" y1="192.64734034305351" y2="192.64734034305351" /><line stroke="black" stroke-width="1px" x1="371.2258682551503" x2="254.18905650670024" y1="252.80796430802104" y2="322.3683133117028" /><line stroke="black" stroke-width="1px" x1="349.26982239974416" x2="228.28138207127083" y1="216.15520625296443" y2="277.15221466316694" /><line stroke="black" stroke-width="1px" x1="349.26982239974416" x2="371.2258682551503" y1="216.15520625296443" y2="252.80796430802104" /><line stroke="black" stroke-width="1px" x1="228.28138207127083" x2="254.18905650670024" y1="277.15221466316694" y2="322.3683133117028" /></svg>