<?xml version="1.0" encoding="utf-8" ?>
<svg baseProfile="full" height="518px" version="1.1" viewBox="0,0,518,518" width="518px" xmlns="http://www.w3.org/2000/svg" xmlns:ev="http://www.w3.org/2001/xml-events" xmlns:xlink="http://www.w3.org/1999/xlink"><defs /><rect fill="white" height="100%" width="100%" x="0" y="0" /><line stroke="black" stroke-width="1px" x1="262.09145689618697" x2="376.86366889328724" y1="131.54702453085528" y2="165.95910233868338" /><line stroke="black" stroke-width="1px" x1="376.86366889328724" x2="299.02865480669186" y1="165.95910233868338" y2="199.80509531700633" /><line stroke="black" stroke-width="1px" x1="299.02865480669186" x2="183.3085360308423" y1="199.80509531700633" y2="155.39728039250608" /><line stroke="black" stroke-width="1px" x1="183.3085360308423" x2="262.09145689618697" y1="155.39728039250608" y2="131.54702453085528" /><line stroke="black" stroke-width="1px" x1="261.9524336279907" x2="370.66897021945397" y1="180.54115619807925" y2="221.41160743425078" /><line stroke="black" stroke-width="1px" x1="370.66897021945397" x2="296.6307518205228" y1="221.41160743425078" y2="260.9811243587919" /><line stroke="black" stroke-width="1px" x1="296.6307518205228" x2="187.11143372670495" y1="260.9811243587919" y2="208.93681444256384" /><line stroke="black" stroke-width="1px" x1="187.11143372670495" x2="261.9524336279907" y1="208.93681444256384" y2="180.54115619807925" /><line stroke="black" stroke-width="1px" x1="262.09145689618697" x2="261.9524336279907" y1="131.54702453085528" y2="180.54115619807925" /><line stroke="black" stroke-width="1px" x1="376.86366889328724" x2="370.66897021945397" y1="165.95910233868338" y2="221.41160743425078" /><line stroke="black" stroke-width="1px" x1="299.02865480669186" x2="296.6307518205228" y1="199.80509531700633" y2="260.9811243587919" /><line stroke="black" stroke-width="1px" x1="183.3085360308423" x2="187.11143372670495" y1="155.39728039250608" y2="208.93681444256384" /><line stroke="black" stroke-width="1px" x1="296.6307518205228" x2="278.4768427610017" y1="260.9811243587919" y2="220.2407617995917" /><line stroke="black" stroke-width="1px" x1="278.4768427610017" x2="155.5350790374087" y1="220.2407617995917" y2="187.19273713666144" /><line stroke="black" stroke-width="1px" x1="155.5350790374087" x2="296.6307518205228" y1="187.19273713666144" y2="260.9811243587919" /><line stroke="black" stroke-width="1px" x1="290.799180468744" x2="275.7439749305272" y1="409.7579432849062" y2="360.6649607072761" /><line stroke="black" stroke-width="1px" x1="275.7439749305272" x2="168.95821525360498" y1="360.6649607072761" y2="321.3185386842971" /><line stroke="black" stroke-width="1px" x1="168.95821525360498" x2="290.799180468744" y1="321.3185386842971" y2="409.7579432849062" /><line stroke="black" stroke-width="1px" x1="296.6307518205228" x2="290.799180468744" y1="260.9811243587919" y2="409.7579432849062" /><line stroke="black" stroke-width="1px" x1="278.4768427610017" x2="275.7439749305272" y1="220.2407617995917" y2="360.6649607072761" /><line stroke="black" stroke-width="1px" x1="155.5350790374087" x2="168.95821525360498" y1="187.19273713666144" y2="321.3185386842971" /></svg>