<?xml version="1.0" encoding="utf-8" ?>
<svg baseProfile="full" height="518px" version="1.1" viewBox="0,0,518,518" width="518px" xmlns="http://www.w3.org/2000/svg" xmlns:ev="http://www.w3.org/2001/xml-events" xmlns:xlink="http://www.w3.org/1999/xlink"><defs /><rect fill="white" height="100%" width="100%" x="0" y="0" /><line stroke="black" stroke-width="1px" x1="397.686498403261" x2="412.0170886961653" y1="317.1507041434347" y2="223.75228748243472" /><line stroke="black" stroke-width="1px" x1="412.0170886961653" x2="281.14736124485194" y1="223.75228748243472" y2="300.2447093522552" /><line stroke="black" stroke-width="1px" x1="281.14736124485194" x2="278.581713753674" y1="300.2447093522552" y2="406.9123190251613" /><line stroke="black" stroke-width="1px" x1="278.581713753674" x2="397.686498403261" y1="406.9123190251613" y2="317.1507041434347" /><line stroke="black" stroke-width="1px" x1="344.6535169611924" x2="352.84488477348447" y1="291.395168026912" y2="202.49085789758988" /><line stroke="black" stroke-width="1px" x1="352.84488477348447" x2="219.70497217891057" y1="202.49085789758988" y2="266.729571594664" /><line stroke="black" stroke-width="1px" x1="219.70497217891057" x2="223.8803309358195" y1="266.729571594664" y2="368.13017449736947" /><line stroke="black" stroke-width="1px" x1="223.8803309358195" x2="344.6535169611924" y1="368.13017449736947" y2="291.395168026912" /><line stroke="black" stroke-width="1px" x1="397.686498403261" x2="344.6535169611924" y1="317.1507041434347" y2="291.395168026912" /><line stroke="black" stroke-width="1px" x1="412.0170886961653" x2="352.84488477348447" y1="223.75228748243472" y2="202.49085789758988" /><line stroke="black" stroke-width="1px" x1="281.14736124485194" x2="219.70497217891057" y1="300.2447093522552" y2="266.729571594664" /><line stroke="black" stroke-width="1px" x1="278.581713753674" x2="223.8803309358195" y1="406.9123190251613" y2="368.13017449736947" /><line stroke="black" stroke-width="1px" x1="381.49302770901824" x2="328.00515287367347" y1="329.3546813751771" y2="301.9729491389372" /><line stroke="black" stroke-width="1px" x1="401.3130130054528" x2="346.7372914508691" y1="293.5152003072517" y2="268.779099781046" /><line stroke="black" stroke-width="1px" x1="412.0170886961653" x2="372.7382692594347" y1="223.75228748243472" y2="200.6072005298455" /><line stroke="black" stroke-width="1px" x1="372.7382692594347" x2="404.0964502979315" y1="200.6072005298455" y2="272.01247010477795" /><line stroke="black" stroke-width="1px" x1="404.0964502979315" x2="412.0170886961653" y1="272.01247010477795" y2="223.75228748243472" /><line stroke="black" stroke-width="1px" x1="412.0170886961653" x2="372.7382692594347" y1="223.75228748243472" y2="200.6072005298455" /><line stroke="black" stroke-width="1px" x1="372.7382692594347" x2="404.0964502979315" y1="200.6072005298455" y2="272.01247010477795" /><line stroke="black" stroke-width="1px" x1="404.0964502979315" x2="412.0170886961653" y1="272.01247010477795" y2="223.75228748243472" /><line stroke="black" stroke-width="1px" x1="412.0170886961653" x2="412.0170886961653" y1="223.75228748243472" y2="223.75228748243472" /><line stroke="black" stroke-width="1px" x1="372.7382692594347" x2="372.7382692594347" y1="200.6072005298455" y2="200.6072005298455" /><line stroke="black" stroke-width="1px" x1="404.0964502979315" x2="404.0964502979315" y1="272.01247010477795" y2="272.01247010477795" /><line stroke="black" stroke-width="1px" x1="258.40831451160244" x2="258.4747727247891" y1="287.8411831331941" y2="392.65691536213944" /><line stroke="black" stroke-width="1px" x1="302.36836662086546" x2="297.4972244161588" y1="287.841183133194" y2="392.65691536213944" /><line stroke="black" stroke-width="1px" x1="335.22953865630643" x2="238.05189623467064" y1="289.53481786389403" y2="349.9285189152813" /><line stroke="black" stroke-width="1px" x1="238.05189623467064" x2="236.1291064359941" y1="349.9285189152813" y2="269.9717947677323" /><line stroke="black" stroke-width="1px" x1="236.1291064359941" x2="341.12052712719867" y1="269.9717947677323" y2="217.54937227470077" /><line stroke="black" stroke-width="1px" x1="341.12052712719867" x2="335.22953865630643" y1="217.54937227470077" y2="289.53481786389403" /><line stroke="black" stroke-width="1px" x1="230.35561204483628" x2="134.39375275176235" y1="238.20565766667085" y2="281.1569375967671" /><line stroke="black" stroke-width="1px" x1="134.39375275176235" x2="125.01123285653915" y1="281.1569375967671" y2="210.38711777578874" /><line stroke="black" stroke-width="1px" x1="125.01123285653915" x2="228.48661382031304" y1="210.38711777578874" y2="174.07813089196048" /><line stroke="black" stroke-width="1px" x1="228.48661382031304" x2="230.35561204483628" y1="174.07813089196048" y2="238.20565766667085" /><line stroke="black" stroke-width="1px" x1="335.22953865630643" x2="230.35561204483628" y1="289.53481786389403" y2="238.20565766667085" /><line stroke="black" stroke-width="1px" x1="238.05189623467064" x2="134.39375275176235" y1="349.9285189152813" y2="281.1569375967671" /><line stroke="black" stroke-width="1px" x1="236.1291064359941" x2="125.01123285653915" y1="269.9717947677323" y2="210.38711777578874" /><line stroke="black" stroke-width="1px" x1="341.12052712719867" x2="228.48661382031304" y1="217.54937227470077" y2="174.07813089196048" /><line stroke="black" stroke-width="1px" x1="209.46629216757972" x2="314.68129173075863" y1="255.6744083554225" y2="207.34510652427628" /><line stroke="black" stroke-width="1px" x1="236.94056476244415" x2="338.65360711764004" y1="303.71523859599563" y2="247.69411572453458" /></svg>