<?xml version="1.0" encoding="utf-8" ?>
<svg baseProfile="full" height="518px" version="1.1" viewBox="0,0,518,518" width="518px" xmlns="http://www.w3.org/2000/svg" xmlns:ev="http://www.w3.org/2001/xml-events" xmlns:xlink="http://www.w3.org/1999/xlink"><defs /><rect fill="white" height="100%" width="100%" x="0" y="0" /><line stroke="black" stroke-width="1px" x1="323.6288524038775" x2="334.75453607731293" y1="319.3580331000979" y2="164.1379156606386" /><line stroke="black" stroke-width="1px" x1="334.75453607731293" x2="230.43905702424166" y1="164.1379156606386" y2="205.7857134780444" /><line stroke="black" stroke-width="1px" x1="230.43905702424166" x2="235.2762599990683" y1="205.7857134780444" y2="377.73152133427595" /><line stroke="black" stroke-width="1px" x1="235.2762599990683" x2="323.6288524038775" y1="377.73152133427595" y2="319.3580331000979" /><line stroke="black" stroke-width="1px" x1="278.24980312754775" x2="281.3166648647134" y1="294.86592151351635" y2="147.31054587554314" /><line stroke="black" stroke-width="1px" x1="281.3166648647134" x2="177.0858423559352" y1="147.31054587554314" y2="182.49891334059248" /><line stroke="black" stroke-width="1px" x1="177.0858423559352" x2="189.94083701383892" y1="182.49891334059248" y2="345.47793891725576" /><line stroke="black" stroke-width="1px" x1="189.94083701383892" x2="278.24980312754775" y1="345.47793891725576" y2="294.86592151351635" /><line stroke="black" stroke-width="1px" x1="323.6288524038775" x2="278.24980312754775" y1="319.3580331000979" y2="294.86592151351635" /><line stroke="black" stroke-width="1px" x1="334.75453607731293" x2="281.3166648647134" y1="164.1379156606386" y2="147.31054587554314" /><line stroke="black" stroke-width="1px" x1="230.43905702424166" x2="177.0858423559352" y1="205.7857134780444" y2="182.49891334059248" /><line stroke="black" stroke-width="1px" x1="235.2762599990683" x2="189.94083701383892" y1="377.73152133427595" y2="345.47793891725576" /><line stroke="black" stroke-width="1px" x1="306.13013135372495" x2="314.00873974444585" y1="309.91357281682895" y2="157.60514819708138" /><line stroke="black" stroke-width="1px" x1="308.58836436223424" x2="317.3869947561671" y1="329.2951014739668" y2="171.07188036170209" /><line stroke="black" stroke-width="1px" x1="274.6958422362144" x2="204.12881183939243" y1="301.7190008632777" y2="342.7058986180677" /><line stroke="black" stroke-width="1px" x1="204.12881183939243" x2="240.45208869022693" y1="342.7058986180677" y2="367.751005001702" /><line stroke="black" stroke-width="1px" x1="240.45208869022693" x2="311.0369111620063" y1="367.751005001702" y2="321.818241057657" /><line stroke="black" stroke-width="1px" x1="311.0369111620063" x2="274.6958422362144" y1="321.818241057657" y2="301.7190008632777" /><line stroke="black" stroke-width="1px" x1="274.6958422362144" x2="204.12881183939243" y1="301.7190008632777" y2="342.7058986180677" /><line stroke="black" stroke-width="1px" x1="204.12881183939243" x2="240.45208869022693" y1="342.7058986180677" y2="367.751005001702" /><line stroke="black" stroke-width="1px" x1="240.45208869022693" x2="311.0369111620063" y1="367.751005001702" y2="321.818241057657" /><line stroke="black" stroke-width="1px" x1="311.0369111620063" x2="274.6958422362144" y1="321.818241057657" y2="301.7190008632777" /><line stroke="black" stroke-width="1px" x1="274.6958422362144" x2="274.6958422362144" y1="301.7190008632777" y2="301.7190008632777" /><line stroke="black" stroke-width="1px" x1="204.12881183939243" x2="204.12881183939243" y1="342.7058986180677" y2="342.7058986180677" /><line stroke="black" stroke-width="1px" x1="240.45208869022693" x2="240.45208869022693" y1="367.751005001702" y2="367.751005001702" /><line stroke="black" stroke-width="1px" x1="311.0369111620063" x2="311.0369111620063" y1="321.818241057657" y2="321.818241057657" /><line stroke="black" stroke-width="1px" x1="253.8632644807525" x2="208.37532378786884" y1="365.45131248144384" y2="334.91268595942086" /><line stroke="black" stroke-width="1px" x1="234.70596127301178" x2="188.40527957450152" y1="357.4593773532433" y2="326.0097351692024" /></svg>