<?xml version="1.0" encoding="utf-8" ?>
<svg baseProfile="full" height="518px" version="1.1" viewBox="0,0,518,518" width="518px" xmlns="http://www.w3.org/2000/svg" xmlns:ev="http://www.w3.org/2001/xml-events" xmlns:xlink="http://www.w3.org/1999/xlink"><defs /><rect fill="white" height="100%" width="100%" x="0" y="0" /><line stroke="black" stroke-width="1px" x1="260.21852413507446" x2="260.3315243630001" y1="257.4723408110546" y2="168.11666964713132" /><line stroke="black" stroke-width="1px" x1="260.3315243630001" x2="150.57567447731773" y1="168.11666964713132" y2="207.5233663226056" /><line stroke="black" stroke-width="1px" x1="150.57567447731773" x2="161.2004524945015" y1="207.5233663226056" y2="306.8393158145102" /><line stroke="black" stroke-width="1px" x1="161.2004524945015" x2="260.21852413507446" y1="306.8393158145102" y2="257.4723408110546" /><line stroke="black" stroke-width="1px" x1="356.37231334700266" x2="366.8994701150939" y1="305.2294681596662" y2="206.22023814308474" /><line stroke="black" stroke-width="1px" x1="366.8994701150939" x2="257.1282588196424" y1="206.22023814308474" y2="261.3465949760003" /><line stroke="black" stroke-width="1px" x1="257.1282588196424" x2="257.34411831822223" y1="261.3465949760003" y2="372.0223720211865" /><line stroke="black" stroke-width="1px" x1="257.34411831822223" x2="356.37231334700266" y1="372.0223720211865" y2="305.2294681596662" /><line stroke="black" stroke-width="1px" x1="260.21852413507446" x2="356.37231334700266" y1="257.4723408110546" y2="305.2294681596662" /><line stroke="black" stroke-width="1px" x1="260.3315243630001" x2="366.8994701150939" y1="168.11666964713132" y2="206.22023814308474" /><line stroke="black" stroke-width="1px" x1="150.57567447731773" x2="257.1282588196424" y1="207.5233663226056" y2="261.3465949760003" /><line stroke="black" stroke-width="1px" x1="161.2004524945015" x2="257.34411831822223" y1="306.8393158145102" y2="372.0223720211865" /><line stroke="black" stroke-width="1px" x1="237.07598022452626" x2="239.53398437039903" y1="251.21752694345892" y2="359.94753638616993" /><line stroke="black" stroke-width="1px" x1="277.29792231828674" x2="275.2464568762823" y1="251.21752694345892" y2="359.94753638616993" /><line stroke="black" stroke-width="1px" x1="260.09687726176287" x2="172.30271174499399" y1="174.94599160963372" y2="207.39248328943057" /><line stroke="black" stroke-width="1px" x1="172.30271174499399" x2="257.56098958683003" y1="207.39248328943057" y2="248.75211707014512" /><line stroke="black" stroke-width="1px" x1="257.56098958683003" x2="345.3613815060094" y1="248.75211707014512" y2="206.34998295510027" /><line stroke="black" stroke-width="1px" x1="345.3613815060094" x2="260.09687726176287" y1="206.34998295510027" y2="174.94599160963372" /><line stroke="black" stroke-width="1px" x1="260.09687726176287" x2="172.30271174499399" y1="174.94599160963372" y2="207.39248328943057" /><line stroke="black" stroke-width="1px" x1="172.30271174499399" x2="257.56098958683003" y1="207.39248328943057" y2="248.75211707014512" /><line stroke="black" stroke-width="1px" x1="257.56098958683003" x2="345.3613815060094" y1="248.75211707014512" y2="206.34998295510027" /><line stroke="black" stroke-width="1px" x1="345.3613815060094" x2="260.09687726176287" y1="206.34998295510027" y2="174.94599160963372" /><line stroke="black" stroke-width="1px" x1="260.09687726176287" x2="260.09687726176287" y1="174.94599160963372" y2="174.94599160963372" /><line stroke="black" stroke-width="1px" x1="172.30271174499399" x2="172.30271174499399" y1="207.39248328943057" y2="207.39248328943057" /><line stroke="black" stroke-width="1px" x1="257.56098958683003" x2="257.56098958683003" y1="248.75211707014512" y2="248.75211707014512" /><line stroke="black" stroke-width="1px" x1="345.3613815060094" x2="345.3613815060094" y1="206.34998295510027" y2="206.34998295510027" /><line stroke="black" stroke-width="1px" x1="246.92022972809235" x2="343.33998975140196" y1="264.10240900669777" y2="314.0195580604283" /><line stroke="black" stroke-width="1px" x1="260.2391143714793" x2="358.26868646515567" y1="241.19047636571665" y2="287.39384108687625" /></svg>