<?xml version="1.0" encoding="utf-8" ?>
<svg baseProfile="full" height="518px" version="1.1" viewBox="0,0,518,518" width="518px" xmlns="http://www.w3.org/2000/svg" xmlns:ev="http://www.w3.org/2001/xml-events" xmlns:xlink="http://www.w3.org/1999/xlink"><defs /><rect fill="white" height="100%" width="100%" x="0" y="0" /><line stroke="black" stroke-width="1px" x1="301.7950695140804" x2="307.8147031110698" y1="264.30870365178595" y2="129.73475780974132" /><line stroke="black" stroke-width="1px" x1="307.8147031110698" x2="398.37717864653735" y1="129.73475780974132" y2="154.85135050636822" /><line stroke="black" stroke-width="1px" x1="398.37717864653735" x2="379.24403788289055" y1="154.85135050636822" y2="301.2118498895491" /><line stroke="black" stroke-width="1px" x1="379.24403788289055" x2="301.7950695140804" y1="301.2118498895491" y2="264.30870365178595" /><line stroke="black" stroke-width="1px" x1="211.4188309672482" x2="203.5482609159625" y1="313.52920225223244" y2="163.416557067406" /><line stroke="black" stroke-width="1px" x1="203.5482609159625" x2="296.0943721979988" y1="163.416557067406" y2="198.97114596179864" /><line stroke="black" stroke-width="1px" x1="296.0943721979988" x2="290.13141427398233" y1="198.97114596179864" y2="363.26786772605413" /><line stroke="black" stroke-width="1px" x1="290.13141427398233" x2="211.4188309672482" y1="363.26786772605413" y2="313.52920225223244" /><line stroke="black" stroke-width="1px" x1="301.7950695140804" x2="211.4188309672482" y1="264.30870365178595" y2="313.52920225223244" /><line stroke="black" stroke-width="1px" x1="307.8147031110698" x2="203.5482609159625" y1="129.73475780974132" y2="163.416557067406" /><line stroke="black" stroke-width="1px" x1="398.37717864653735" x2="296.0943721979988" y1="154.85135050636822" y2="198.97114596179864" /><line stroke="black" stroke-width="1px" x1="379.24403788289055" x2="290.13141427398233" y1="301.2118498895491" y2="363.26786772605413" /><line stroke="black" stroke-width="1px" x1="384.03595561534405" x2="366.4501098093795" y1="161.03745204861815" y2="310.12125235774664" /><line stroke="black" stroke-width="1px" x1="377.27766553858714" x2="361.4209566909645" y1="148.999612535469" y2="292.719447918472" /><line stroke="black" stroke-width="1px" x1="217.860253780944" x2="281.69336769269125" y1="304.81456203197166" y2="343.79116119289415" /><line stroke="black" stroke-width="1px" x1="281.69336769269125" x2="285.05331598689463" y1="343.79116119289415" y2="213.90865826527096" /><line stroke="black" stroke-width="1px" x1="285.05331598689463" x2="212.431941289035" y1="213.90865826527096" y2="183.92187591031927" /><line stroke="black" stroke-width="1px" x1="212.431941289035" x2="217.860253780944" y1="183.92187591031927" y2="304.81456203197166" /><line stroke="black" stroke-width="1px" x1="122.28081678125221" x2="184.38996687757339" y1="356.1396675653329" y2="407.56353696778297" /><line stroke="black" stroke-width="1px" x1="184.38996687757339" x2="171.3010794617358" y1="407.56353696778297" y2="264.85687771009435" /><line stroke="black" stroke-width="1px" x1="171.3010794617358" x2="101.32740017635692" y1="264.85687771009435" y2="223.58788365493496" /><line stroke="black" stroke-width="1px" x1="101.32740017635692" x2="122.28081678125221" y1="223.58788365493496" y2="356.1396675653329" /><line stroke="black" stroke-width="1px" x1="217.860253780944" x2="122.28081678125221" y1="304.81456203197166" y2="356.1396675653329" /><line stroke="black" stroke-width="1px" x1="281.69336769269125" x2="184.38996687757339" y1="343.79116119289415" y2="407.56353696778297" /><line stroke="black" stroke-width="1px" x1="285.05331598689463" x2="171.3010794617358" y1="213.90865826527096" y2="264.85687771009435" /><line stroke="black" stroke-width="1px" x1="212.431941289035" x2="101.32740017635692" y1="183.92187591031927" y2="223.58788365493496" /><line stroke="black" stroke-width="1px" x1="213.83715352268626" x2="106.82686909786682" y1="215.21703103455303" y2="258.37764753218363" /><line stroke="black" stroke-width="1px" x1="235.99539336854556" x2="123.72735771074457" y1="193.65168496418787" y2="236.7989041952773" /></svg>