<?xml version="1.0" encoding="utf-8" ?>
<svg baseProfile="full" height="518px" version="1.1" viewBox="0,0,518,518" width="518px" xmlns="http://www.w3.org/2000/svg" xmlns:ev="http://www.w3.org/2001/xml-events" xmlns:xlink="http://www.w3.org/1999/xlink"><defs /><rect fill="white" height="100%" width="100%" x="0" y="0" /><line stroke="black" stroke-width="1px" x1="267.623692914336" x2="268.87410379953263" y1="282.26127310542245" y2="146.14273216140674" /><line stroke="black" stroke-width="1px" x1="268.87410379953263" x2="147.94262811503665" y1="146.14273216140674" y2="185.94116391511395" /><line stroke="black" stroke-width="1px" x1="147.94262811503665" x2="164.30295289799966" y1="185.94116391511395" y2="338.42416688923015" /><line stroke="black" stroke-width="1px" x1="164.30295289799966" x2="267.623692914336" y1="338.42416688923015" y2="282.26127310542245" /><line stroke="black" stroke-width="1px" x1="310.84461296666836" x2="318.9398596494308" y1="305.13179780663495" y2="162.11967718519895" /><line stroke="black" stroke-width="1px" x1="318.9398596494308" x2="197.2445461014815" y1="162.11967718519895" y2="208.9623313485196" /><line stroke="black" stroke-width="1px" x1="197.2445461014815" x2="207.05345496940174" y1="208.9623313485196" y2="369.7135222742513" /><line stroke="black" stroke-width="1px" x1="207.05345496940174" x2="310.84461296666836" y1="369.7135222742513" y2="305.13179780663495" /><line stroke="black" stroke-width="1px" x1="267.623692914336" x2="310.84461296666836" y1="282.26127310542245" y2="305.13179780663495" /><line stroke="black" stroke-width="1px" x1="268.87410379953263" x2="318.9398596494308" y1="146.14273216140674" y2="162.11967718519895" /><line stroke="black" stroke-width="1px" x1="147.94262811503665" x2="197.2445461014815" y1="185.94116391511395" y2="208.9623313485196" /><line stroke="black" stroke-width="1px" x1="164.30295289799966" x2="207.05345496940174" y1="338.42416688923015" y2="369.7135222742513" /><line stroke="black" stroke-width="1px" x1="286.5872264429552" x2="165.218688268298" y1="151.79533006729108" y2="194.00809294386218" /><line stroke="black" stroke-width="1px" x1="268.66514009246777" x2="150.73170214261012" y1="168.8903227755539" y2="211.93614805408336" /><line stroke="black" stroke-width="1px" x1="268.66514009246777" x2="286.5872264429552" y1="168.8903227755539" y2="151.79533006729108" /><line stroke="black" stroke-width="1px" x1="150.73170214261012" x2="165.218688268298" y1="211.93614805408336" y2="194.00809294386218" /><line stroke="black" stroke-width="1px" x1="310.84461296666836" x2="357.40665759023676" y1="305.13179780663495" y2="232.65394201987206" /><line stroke="black" stroke-width="1px" x1="357.40665759023676" x2="329.80252477916326" y1="232.65394201987206" y2="228.41211552532573" /><line stroke="black" stroke-width="1px" x1="329.80252477916326" x2="310.84461296666836" y1="228.41211552532573" y2="305.13179780663495" /><line stroke="black" stroke-width="1px" x1="269.32188393238863" x2="307.5780411454301" y1="283.15987775286453" y2="212.82848323849387" /><line stroke="black" stroke-width="1px" x1="307.5780411454301" x2="283.6922471599713" y1="212.82848323849387" y2="209.6296127080616" /><line stroke="black" stroke-width="1px" x1="283.6922471599713" x2="269.32188393238863" y1="209.6296127080616" y2="283.15987775286453" /><line stroke="black" stroke-width="1px" x1="310.84461296666836" x2="269.32188393238863" y1="305.13179780663495" y2="283.15987775286453" /><line stroke="black" stroke-width="1px" x1="357.40665759023676" x2="307.5780411454301" y1="232.65394201987206" y2="212.82848323849387" /><line stroke="black" stroke-width="1px" x1="329.80252477916326" x2="283.6922471599713" y1="228.41211552532573" y2="209.6296127080616" /><line stroke="black" stroke-width="1px" x1="150.5487993098721" x2="198.8250403901847" y1="210.2314402589539" y2="234.86392168659262" /><line stroke="black" stroke-width="1px" x1="169.45414365005473" x2="219.1571619237808" y1="178.86174494587212" y2="200.5277823519122" /></svg>