<?xml version="1.0" encoding="utf-8" ?>
<svg baseProfile="full" height="518px" version="1.1" viewBox="0,0,518,518" width="518px" xmlns="http://www.w3.org/2000/svg" xmlns:ev="http://www.w3.org/2001/xml-events" xmlns:xlink="http://www.w3.org/1999/xlink"><defs /><rect fill="white" height="100%" width="100%" x="0" y="0" /><line stroke="black" stroke-width="1px" x1="181.955387893999" x2="170.47392054770506" y1="315.6992049520412" y2="180.7837832538723" /><line stroke="black" stroke-width="1px" x1="170.47392054770506" x2="274.5270587694948" y1="180.7837832538723" y2="226.41967267136633" /><line stroke="black" stroke-width="1px" x1="274.5270587694948" x2="272.191246419769" y1="226.41967267136633" y2="376.04357291213097" /><line stroke="black" stroke-width="1px" x1="272.191246419769" x2="181.955387893999" y1="376.04357291213097" y2="315.6992049520412" /><line stroke="black" stroke-width="1px" x1="248.68366107676763" x2="247.30812248696552" y1="280.64670746351334" y2="155.26005954026354" /><line stroke="black" stroke-width="1px" x1="247.30812248696552" x2="351.286747076636" y1="155.26005954026354" y2="191.08369743420627" /><line stroke="black" stroke-width="1px" x1="351.286747076636" x2="338.87744407421235" y1="191.08369743420627" y2="329.5748127273847" /><line stroke="black" stroke-width="1px" x1="338.87744407421235" x2="248.68366107676763" y1="329.5748127273847" y2="280.64670746351334" /><line stroke="black" stroke-width="1px" x1="181.955387893999" x2="248.68366107676763" y1="315.6992049520412" y2="280.64670746351334" /><line stroke="black" stroke-width="1px" x1="170.47392054770506" x2="247.30812248696552" y1="180.7837832538723" y2="155.26005954026354" /><line stroke="black" stroke-width="1px" x1="274.5270587694948" x2="351.286747076636" y1="226.41967267136633" y2="191.08369743420627" /><line stroke="black" stroke-width="1px" x1="272.191246419769" x2="338.87744407421235" y1="376.04357291213097" y2="329.5748127273847" /><line stroke="black" stroke-width="1px" x1="222.156640323366" x2="326.4901432902203" y1="163.61518610537004" y2="202.49870180285922" /><line stroke="black" stroke-width="1px" x1="247.65175305745086" x2="348.1417501596187" y1="186.58356124101098" y2="226.18269780080718" /><line stroke="black" stroke-width="1px" x1="247.65175305745086" x2="222.156640323366" y1="186.58356124101098" y2="163.61518610537004" /><line stroke="black" stroke-width="1px" x1="348.1417501596187" x2="326.4901432902203" y1="226.18269780080718" y2="202.49870180285922" /><line stroke="black" stroke-width="1px" x1="250.56305358748344" x2="197.14494302720072" y1="288.2735288428206" y2="317.04231958130794" /><line stroke="black" stroke-width="1px" x1="197.14494302720072" x2="269.2668845565622" y1="317.04231958130794" y2="364.17612880348025" /><line stroke="black" stroke-width="1px" x1="269.2668845565622" x2="322.6678566834536" y1="364.17612880348025" y2="328.14150320857476" /><line stroke="black" stroke-width="1px" x1="322.6678566834536" x2="250.56305358748344" y1="328.14150320857476" y2="288.2735288428206" /><line stroke="black" stroke-width="1px" x1="250.56305358748344" x2="197.14494302720072" y1="288.2735288428206" y2="317.04231958130794" /><line stroke="black" stroke-width="1px" x1="197.14494302720072" x2="269.2668845565622" y1="317.04231958130794" y2="364.17612880348025" /><line stroke="black" stroke-width="1px" x1="269.2668845565622" x2="322.6678566834536" y1="364.17612880348025" y2="328.14150320857476" /><line stroke="black" stroke-width="1px" x1="322.6678566834536" x2="250.56305358748344" y1="328.14150320857476" y2="288.2735288428206" /><line stroke="black" stroke-width="1px" x1="250.56305358748344" x2="250.56305358748344" y1="288.2735288428206" y2="288.2735288428206" /><line stroke="black" stroke-width="1px" x1="197.14494302720072" x2="197.14494302720072" y1="317.04231958130794" y2="317.04231958130794" /><line stroke="black" stroke-width="1px" x1="269.2668845565622" x2="269.2668845565622" y1="364.17612880348025" y2="364.17612880348025" /><line stroke="black" stroke-width="1px" x1="322.6678566834536" x2="322.6678566834536" y1="328.14150320857476" y2="328.14150320857476" /><line stroke="black" stroke-width="1px" x1="195.22344898382124" x2="272.4116530592756" y1="191.63849424238913" y2="163.90895052752992" /><line stroke="black" stroke-width="1px" x1="173.4665198599909" x2="247.66301913523785" y1="215.94895735690346" y2="187.61051587494393" /></svg>