<?xml version="1.0" encoding="utf-8" ?>
<svg baseProfile="full" height="518px" version="1.1" viewBox="0,0,518,518" width="518px" xmlns="http://www.w3.org/2000/svg" xmlns:ev="http://www.w3.org/2001/xml-events" xmlns:xlink="http://www.w3.org/1999/xlink"><defs /><rect fill="white" height="100%" width="100%" x="0" y="0" /><line stroke="black" stroke-width="1px" x1="353.00743718294075" x2="362.7280087428654" y1="267.61903949938795" y2="169.0344686751992" /><line stroke="black" stroke-width="1px" x1="362.7280087428654" x2="228.91341427722583" y1="169.0344686751992" y2="226.4583004658087" /><line stroke="black" stroke-width="1px" x1="228.91341427722583" x2="232.3543989154258" y1="226.4583004658087" y2="340.20666953639744" /><line stroke="black" stroke-width="1px" x1="232.3543989154258" x2="353.00743718294075" y1="340.20666953639744" y2="267.61903949938795" /><line stroke="black" stroke-width="1px" x1="266.4257716796016" x2="267.0950581408742" y1="228.8476409219357" y2="139.42217721760753" /><line stroke="black" stroke-width="1px" x1="267.0950581408742" x2="133.9612757477155" y1="139.42217721760753" y2="181.70038041980297" /><line stroke="black" stroke-width="1px" x1="133.9612757477155" x2="146.25894478477977" y1="181.70038041980297" y2="283.91919890149126" /><line stroke="black" stroke-width="1px" x1="146.25894478477977" x2="266.4257716796016" y1="283.91919890149126" y2="228.8476409219357" /><line stroke="black" stroke-width="1px" x1="353.00743718294075" x2="266.4257716796016" y1="267.61903949938795" y2="228.8476409219357" /><line stroke="black" stroke-width="1px" x1="362.7280087428654" x2="267.0950581408742" y1="169.0344686751992" y2="139.42217721760753" /><line stroke="black" stroke-width="1px" x1="228.91341427722583" x2="133.9612757477155" y1="226.4583004658087" y2="181.70038041980297" /><line stroke="black" stroke-width="1px" x1="232.3543989154258" x2="146.25894478477977" y1="340.20666953639744" y2="283.91919890149126" /><line stroke="black" stroke-width="1px" x1="133.9612757477155" x2="360.4610164045001" y1="181.70038041980297" y2="325.2121325287967" /><line stroke="black" stroke-width="1px" x1="360.4610164045001" x2="268.87959272367044" y1="325.2121325287967" y2="290.71959888741134" /><line stroke="black" stroke-width="1px" x1="268.87959272367044" x2="133.9612757477155" y1="290.71959888741134" y2="181.70038041980297" /><line stroke="black" stroke-width="1px" x1="133.9612757477155" x2="360.4610164045001" y1="181.70038041980297" y2="325.2121325287967" /><line stroke="black" stroke-width="1px" x1="360.4610164045001" x2="268.87959272367044" y1="325.2121325287967" y2="290.71959888741134" /><line stroke="black" stroke-width="1px" x1="268.87959272367044" x2="133.9612757477155" y1="290.71959888741134" y2="181.70038041980297" /><line stroke="black" stroke-width="1px" x1="133.9612757477155" x2="133.9612757477155" y1="181.70038041980297" y2="181.70038041980297" /><line stroke="black" stroke-width="1px" x1="360.4610164045001" x2="360.4610164045001" y1="325.2121325287967" y2="325.2121325287967" /><line stroke="black" stroke-width="1px" x1="268.87959272367044" x2="268.87959272367044" y1="290.71959888741134" y2="290.71959888741134" /></svg>