<?xml version="1.0" encoding="utf-8" ?>
<svg baseProfile="full" height="518px" version="1.1" viewBox="0,0,518,518" width="518px" xmlns="http://www.w3.org/2000/svg" xmlns:ev="http://www.w3.org/2001/xml-events" xmlns:xlink="http://www.w3.org/1999/xlink"><defs /><rect fill="white" height="100%" width="100%" x="0" y="0" /><line stroke="black" stroke-width="1px" x1="267.6210076349148" x2="331.82350662512863" y1="241.43302561801875" y2="271.3732802145892" /><line stroke="black" stroke-width="1px" x1="331.82350662512863" x2="248.1330210456098" y1="271.3732802145892" y2="320.3999427613335" /><line stroke="black" stroke-width="1px" x1="248.1330210456098" x2="183.95985565015656" y1="320.3999427613335" y2="281.5108010162151" /><line stroke="black" stroke-width="1px" x1="183.95985565015656" x2="267.6210076349148" y1="281.5108010162151" y2="241.43302561801875" /><line stroke="black" stroke-width="1px" x1="267.9094248147035" x2="334.5093572188878" y1="208.66051043669253" y2="236.34844289088525" /><line stroke="black" stroke-width="1px" x1="334.5093572188878" x2="247.67072034445044" y1="236.34844289088525" y2="282.08560366763965" /><line stroke="black" stroke-width="1px" x1="247.67072034445044" x2="181.10480498575248" y1="282.08560366763965" y2="245.76500047927138" /><line stroke="black" stroke-width="1px" x1="181.10480498575248" x2="267.9094248147035" y1="245.76500047927138" y2="208.66051043669253" /><line stroke="black" stroke-width="1px" x1="267.6210076349148" x2="267.9094248147035" y1="241.43302561801875" y2="208.66051043669253" /><line stroke="black" stroke-width="1px" x1="331.82350662512863" x2="334.5093572188878" y1="271.3732802145892" y2="236.34844289088525" /><line stroke="black" stroke-width="1px" x1="248.1330210456098" x2="247.67072034445044" y1="320.3999427613335" y2="282.08560366763965" /><line stroke="black" stroke-width="1px" x1="183.95985565015656" x2="181.10480498575248" y1="281.5108010162151" y2="245.76500047927138" /><line stroke="black" stroke-width="1px" x1="267.6941814670309" x2="332.5032472767895" y1="233.11836653405834" y2="262.5091215744737" /><line stroke="black" stroke-width="1px" x1="248.13335410636157" x2="314.9409772419062" y1="217.1137588942623" y2="246.65493978398993" /><line stroke="black" stroke-width="1px" x1="266.28310180896244" x2="196.88012158811668" y1="214.56073584369364" y2="244.79665126734298" /><line stroke="black" stroke-width="1px" x1="196.88012158811668" x2="250.176235181217" y1="244.79665126734298" y2="272.99571054965384" /><line stroke="black" stroke-width="1px" x1="250.176235181217" x2="319.59307520580194" y1="272.99571054965384" y2="237.26406127727688" /><line stroke="black" stroke-width="1px" x1="319.59307520580194" x2="266.28310180896244" y1="237.26406127727688" y2="214.56073584369364" /><line stroke="black" stroke-width="1px" x1="266.06571261033355" x2="198.93055599859332" y1="244.602218286622" y2="277.0198139099957" /><line stroke="black" stroke-width="1px" x1="198.93055599859332" x2="250.49332294387452" y1="277.0198139099957" y2="307.0638816574219" /><line stroke="black" stroke-width="1px" x1="250.49332294387452" x2="317.6406106839015" y1="307.0638816574219" y2="268.96347162557925" /><line stroke="black" stroke-width="1px" x1="317.6406106839015" x2="266.06571261033355" y1="268.96347162557925" y2="244.602218286622" /><line stroke="black" stroke-width="1px" x1="266.28310180896244" x2="266.06571261033355" y1="214.56073584369364" y2="244.602218286622" /><line stroke="black" stroke-width="1px" x1="196.88012158811668" x2="198.93055599859332" y1="244.79665126734298" y2="277.0198139099957" /><line stroke="black" stroke-width="1px" x1="250.176235181217" x2="250.49332294387452" y1="272.99571054965384" y2="307.0638816574219" /><line stroke="black" stroke-width="1px" x1="319.59307520580194" x2="317.6406106839015" y1="237.26406127727688" y2="268.96347162557925" /><line stroke="black" stroke-width="1px" x1="250.23905830888995" x2="319.2074334872349" y1="279.7454792734572" y2="243.52518149081192" /><line stroke="black" stroke-width="1px" x1="228.77084062467776" x2="296.01925315306465" y1="294.4068469576977" y2="258.7506861812037" /><line stroke="black" stroke-width="1px" x1="228.77084062467776" x2="250.23905830888995" y1="294.4068469576977" y2="279.7454792734572" /><line stroke="black" stroke-width="1px" x1="296.01925315306465" x2="319.2074334872349" y1="258.7506861812037" y2="243.52518149081192" /></svg>