<?xml version="1.0" encoding="utf-8" ?>
<svg baseProfile="full" height="518px" version="1.1" viewBox="0,0,518,518" width="518px" xmlns="http://www.w3.org/2000/svg" xmlns:ev="http://www.w3.org/2001/xml-events" xmlns:xlink="http://www.w3.org/1999/xlink"><defs /><rect fill="white" height="100%" width="100%" x="0" y="0" /><line stroke="black" stroke-width="1px" x1="250.28576227418696" x2="351.5012699427862" y1="174.861790825242" y2="212.7053981464181" /><line stroke="black" stroke-width="1px" x1="351.5012699427862" x2="270.598447669573" y1="212.7053981464181" y2="253.1503283886645" /><line stroke="black" stroke-width="1px" x1="270.598447669573" x2="169.32547108508118" y1="253.1503283886645" y2="204.3205897053861" /><line stroke="black" stroke-width="1px" x1="169.32547108508118" x2="250.28576227418696" y1="204.3205897053861" y2="174.861790825242" /><line stroke="black" stroke-width="1px" x1="251.02013109007288" x2="342.5791042165345" y1="263.0246431207374" y2="309.96270018711954" /><line stroke="black" stroke-width="1px" x1="342.5791042165345" x2="269.3328152313695" y1="309.96270018711954" y2="358.76599177755236" /><line stroke="black" stroke-width="1px" x1="269.3328152313695" x2="177.7354536897834" y1="358.76599177755236" y2="299.6708990976057" /><line stroke="black" stroke-width="1px" x1="177.7354536897834" x2="251.02013109007288" y1="299.6708990976057" y2="263.0246431207374" /><line stroke="black" stroke-width="1px" x1="250.28576227418696" x2="251.02013109007288" y1="174.861790825242" y2="263.0246431207374" /><line stroke="black" stroke-width="1px" x1="351.5012699427862" x2="342.5791042165345" y1="212.7053981464181" y2="309.96270018711954" /><line stroke="black" stroke-width="1px" x1="270.598447669573" x2="269.3328152313695" y1="253.1503283886645" y2="358.76599177755236" /><line stroke="black" stroke-width="1px" x1="169.32547108508118" x2="177.7354536897834" y1="204.3205897053861" y2="299.6708990976057" /><line stroke="black" stroke-width="1px" x1="349.1448588385885" x2="270.2607003888399" y1="238.39178343947665" y2="281.3349750804435" /><line stroke="black" stroke-width="1px" x1="328.7356753941921" x2="247.46262422681968" y1="204.19353825088768" y2="241.99516882850688" /><line stroke="black" stroke-width="1px" x1="328.7356753941921" x2="349.1448588385885" y1="204.19353825088768" y2="238.39178343947665" /><line stroke="black" stroke-width="1px" x1="247.46262422681968" x2="270.2607003888399" y1="241.99516882850688" y2="281.3349750804435" /><line stroke="black" stroke-width="1px" x1="259.1230128979777" x2="332.95211692780794" y1="258.96685775578874" y2="295.8705163984488" /><line stroke="black" stroke-width="1px" x1="332.95211692780794" x2="296.77166795083195" y1="295.8705163984488" y2="202.4501114676557" /><line stroke="black" stroke-width="1px" x1="296.77166795083195" x2="259.1230128979777" y1="202.4501114676557" y2="258.96685775578874" /><line stroke="black" stroke-width="1px" x1="259.1230128979777" x2="332.95211692780794" y1="258.96685775578874" y2="295.8705163984488" /><line stroke="black" stroke-width="1px" x1="332.95211692780794" x2="296.77166795083195" y1="295.8705163984488" y2="202.4501114676557" /><line stroke="black" stroke-width="1px" x1="296.77166795083195" x2="259.1230128979777" y1="202.4501114676557" y2="258.96685775578874" /><line stroke="black" stroke-width="1px" x1="259.1230128979777" x2="259.1230128979777" y1="258.96685775578874" y2="258.96685775578874" /><line stroke="black" stroke-width="1px" x1="332.95211692780794" x2="332.95211692780794" y1="295.8705163984488" y2="295.8705163984488" /><line stroke="black" stroke-width="1px" x1="296.77166795083195" x2="296.77166795083195" y1="202.4501114676557" y2="202.4501114676557" /><line stroke="black" stroke-width="1px" x1="196.33520090047097" x2="202.01466046195105" y1="194.49263347212508" y2="287.52999791810953" /><line stroke="black" stroke-width="1px" x1="191.33507937900646" x2="197.9094998621862" y1="214.93273381094667" y2="312.6864173202174" /></svg>