<?xml version="1.0" encoding="utf-8" ?>
<svg baseProfile="full" height="518px" version="1.1" viewBox="0,0,518,518" width="518px" xmlns="http://www.w3.org/2000/svg" xmlns:ev="http://www.w3.org/2001/xml-events" xmlns:xlink="http://www.w3.org/1999/xlink"><defs /><rect fill="white" height="100%" width="100%" x="0" y="0" /><line stroke="black" stroke-width="1px" x1="314.4593753417267" x2="321.0644280042613" y1="300.8050635225204" y2="191.20911446702186" /><line stroke="black" stroke-width="1px" x1="321.0644280042613" x2="234.86723578429115" y1="191.20911446702186" y2="228.83807274933147" /><line stroke="black" stroke-width="1px" x1="234.86723578429115" x2="237.7716669637435" y1="228.83807274933147" y2="348.2503447228559" /><line stroke="black" stroke-width="1px" x1="237.7716669637435" x2="314.4593753417267" y1="348.2503447228559" y2="300.8050635225204" /><line stroke="black" stroke-width="1px" x1="276.75564793952316" x2="278.7430660950808" y1="281.1915963150121" y2="175.99416756546094" /><line stroke="black" stroke-width="1px" x1="278.7430660950808" x2="192.58482407518272" y1="175.99416756546094" y2="208.93649619584926" /><line stroke="black" stroke-width="1px" x1="192.58482407518272" x2="200.09236132073204" y1="208.93649619584926" y2="323.3428308152634" /><line stroke="black" stroke-width="1px" x1="200.09236132073204" x2="276.75564793952316" y1="323.3428308152634" y2="281.1915963150121" /><line stroke="black" stroke-width="1px" x1="314.4593753417267" x2="276.75564793952316" y1="300.8050635225204" y2="281.1915963150121" /><line stroke="black" stroke-width="1px" x1="321.0644280042613" x2="278.7430660950808" y1="191.20911446702186" y2="175.99416756546094" /><line stroke="black" stroke-width="1px" x1="234.86723578429115" x2="192.58482407518272" y1="228.83807274933147" y2="208.93649619584926" /><line stroke="black" stroke-width="1px" x1="237.7716669637435" x2="200.09236132073204" y1="348.2503447228559" y2="323.3428308152634" /><line stroke="black" stroke-width="1px" x1="275.08707329356827" x2="206.2377254838695" y1="180.39743322647638" y2="207.05269372778253" /><line stroke="black" stroke-width="1px" x1="206.2377254838695" x2="240.11370879885925" y1="207.05269372778253" y2="222.51923797018895" /><line stroke="black" stroke-width="1px" x1="240.11370879885925" x2="308.9789461829658" y1="222.51923797018895" y2="192.87664723542278" /><line stroke="black" stroke-width="1px" x1="308.9789461829658" x2="275.08707329356827" y1="192.87664723542278" y2="180.39743322647638" /><line stroke="black" stroke-width="1px" x1="275.08707329356827" x2="206.2377254838695" y1="180.39743322647638" y2="207.05269372778253" /><line stroke="black" stroke-width="1px" x1="206.2377254838695" x2="240.11370879885925" y1="207.05269372778253" y2="222.51923797018895" /><line stroke="black" stroke-width="1px" x1="240.11370879885925" x2="308.9789461829658" y1="222.51923797018895" y2="192.87664723542278" /><line stroke="black" stroke-width="1px" x1="308.9789461829658" x2="275.08707329356827" y1="192.87664723542278" y2="180.39743322647638" /><line stroke="black" stroke-width="1px" x1="275.08707329356827" x2="275.08707329356827" y1="180.39743322647638" y2="180.39743322647638" /><line stroke="black" stroke-width="1px" x1="206.2377254838695" x2="206.2377254838695" y1="207.05269372778253" y2="207.05269372778253" /><line stroke="black" stroke-width="1px" x1="240.11370879885925" x2="240.11370879885925" y1="222.51923797018895" y2="222.51923797018895" /><line stroke="black" stroke-width="1px" x1="308.9789461829658" x2="308.9789461829658" y1="192.87664723542278" y2="192.87664723542278" /></svg>