<?xml version="1.0" encoding="utf-8" ?>
<svg baseProfile="full" height="518px" version="1.1" viewBox="0,0,518,518" width="518px" xmlns="http://www.w3.org/2000/svg" xmlns:ev="http://www.w3.org/2001/xml-events" xmlns:xlink="http://www.w3.org/1999/xlink"><defs /><rect fill="white" height="100%" width="100%" x="0" y="0" /><line stroke="black" stroke-width="1px" x1="265.11650787896235" x2="340.64907314378445" y1="266.4883278232402" y2="304.7714151197218" /><line stroke="black" stroke-width="1px" x1="340.64907314378445" x2="245.47129014702327" y1="304.7714151197218" y2="367.0859895696266" /><line stroke="black" stroke-width="1px" x1="245.47129014702327" x2="170.06810651546286" y1="367.0859895696266" y2="315.5905817519386" /><line stroke="black" stroke-width="1px" x1="170.06810651546286" x2="265.11650787896235" y1="315.5905817519386" y2="266.4883278232402" /><line stroke="black" stroke-width="1px" x1="265.91707463802385" x2="352.76754683279125" y1="141.5521748203954" y2="168.77924267321094" /><line stroke="black" stroke-width="1px" x1="352.76754683279125" x2="243.06105418085613" y1="168.77924267321094" y2="214.95008978441513" /><line stroke="black" stroke-width="1px" x1="243.06105418085613" x2="156.4191904302639" y1="214.95008978441513" y2="176.62757510659344" /><line stroke="black" stroke-width="1px" x1="156.4191904302639" x2="265.91707463802385" y1="176.62757510659344" y2="141.5521748203954" /><line stroke="black" stroke-width="1px" x1="265.11650787896235" x2="265.91707463802385" y1="266.4883278232402" y2="141.5521748203954" /><line stroke="black" stroke-width="1px" x1="340.64907314378445" x2="352.76754683279125" y1="304.7714151197218" y2="168.77924267321094" /><line stroke="black" stroke-width="1px" x1="245.47129014702327" x2="243.06105418085613" y1="367.0859895696266" y2="214.95008978441513" /><line stroke="black" stroke-width="1px" x1="170.06810651546286" x2="156.4191904302639" y1="315.5905817519386" y2="176.62757510659344" /><line stroke="black" stroke-width="1px" x1="167.95136164828776" x2="265.24275289887566" y1="294.03947621303547" y2="246.78657660110505" /><line stroke="black" stroke-width="1px" x1="186.2584351061721" x2="281.5600128209431" y1="326.64750976647383" y2="274.8225891176485" /><line stroke="black" stroke-width="1px" x1="256.712902269463" x2="179.79572129604273" y1="259.5410144641974" y2="297.92759995028734" /><line stroke="black" stroke-width="1px" x1="179.79572129604273" x2="170.3780330949857" y1="297.92759995028734" y2="188.16743771173228" /><line stroke="black" stroke-width="1px" x1="170.3780330949857" x2="256.47303153199687" y1="188.16743771173228" y2="158.70025945145863" /><line stroke="black" stroke-width="1px" x1="256.47303153199687" x2="256.712902269463" y1="158.70025945145863" y2="259.5410144641974" /><line stroke="black" stroke-width="1px" x1="256.712902269463" x2="179.79572129604273" y1="259.5410144641974" y2="297.92759995028734" /><line stroke="black" stroke-width="1px" x1="179.79572129604273" x2="170.3780330949857" y1="297.92759995028734" y2="188.16743771173228" /><line stroke="black" stroke-width="1px" x1="170.3780330949857" x2="256.47303153199687" y1="188.16743771173228" y2="158.70025945145863" /><line stroke="black" stroke-width="1px" x1="256.47303153199687" x2="256.712902269463" y1="158.70025945145863" y2="259.5410144641974" /><line stroke="black" stroke-width="1px" x1="256.712902269463" x2="256.712902269463" y1="259.5410144641974" y2="259.5410144641974" /><line stroke="black" stroke-width="1px" x1="179.79572129604273" x2="179.79572129604273" y1="297.92759995028734" y2="297.92759995028734" /><line stroke="black" stroke-width="1px" x1="170.3780330949857" x2="170.3780330949857" y1="188.16743771173228" y2="188.16743771173228" /><line stroke="black" stroke-width="1px" x1="256.47303153199687" x2="256.47303153199687" y1="158.70025945145863" y2="158.70025945145863" /><line stroke="black" stroke-width="1px" x1="265.7393291565167" x2="350.0446025399214" y1="169.29106907472692" y2="199.33582259747243" /><line stroke="black" stroke-width="1px" x1="244.73956737395866" x2="331.94719470239323" y1="148.33595470550765" y2="177.5416529169139" /><line stroke="black" stroke-width="1px" x1="265.11650787896235" x2="278.5659227341139" y1="266.4883278232402" y2="373.2187526593194" /><line stroke="black" stroke-width="1px" x1="278.5659227341139" x2="260.4068687607399" y1="373.2187526593194" y2="291.4642746391238" /><line stroke="black" stroke-width="1px" x1="260.4068687607399" x2="265.11650787896235" y1="291.4642746391238" y2="266.4883278232402" /><line stroke="black" stroke-width="1px" x1="265.11650787896235" x2="278.5659227341139" y1="266.4883278232402" y2="373.2187526593194" /><line stroke="black" stroke-width="1px" x1="278.5659227341139" x2="260.4068687607399" y1="373.2187526593194" y2="291.4642746391238" /><line stroke="black" stroke-width="1px" x1="260.4068687607399" x2="265.11650787896235" y1="291.4642746391238" y2="266.4883278232402" /><line stroke="black" stroke-width="1px" x1="265.11650787896235" x2="265.11650787896235" y1="266.4883278232402" y2="266.4883278232402" /><line stroke="black" stroke-width="1px" x1="278.5659227341139" x2="278.5659227341139" y1="373.2187526593194" y2="373.2187526593194" /><line stroke="black" stroke-width="1px" x1="260.4068687607399" x2="260.4068687607399" y1="291.4642746391238" y2="291.4642746391238" /><line stroke="black" stroke-width="1px" x1="229.4352118991842" x2="224.32582098718453" y1="356.134404379221" y2="206.66331918673183" /><line stroke="black" stroke-width="1px" x1="262.19847809501954" x2="262.7512395372865" y1="356.13440437922105" y2="206.66331918673183" /></svg>