<?xml version="1.0" encoding="utf-8" ?>
<svg baseProfile="full" height="518px" version="1.1" viewBox="0,0,518,518" width="518px" xmlns="http://www.w3.org/2000/svg" xmlns:ev="http://www.w3.org/2001/xml-events" xmlns:xlink="http://www.w3.org/1999/xlink"><defs /><rect fill="white" height="100%" width="100%" x="0" y="0" /><line stroke="black" stroke-width="1px" x1="335.21667415725244" x2="346.9262667110127" y1="318.81891270417486" y2="180.20745625532058" /><line stroke="black" stroke-width="1px" x1="346.9262667110127" x2="247.45831368933244" y1="180.20745625532058" y2="223.6814980790174" /><line stroke="black" stroke-width="1px" x1="247.45831368933244" x2="249.22924946553428" y1="223.6814980790174" y2="376.712612268298" /><line stroke="black" stroke-width="1px" x1="249.22924946553428" x2="335.21667415725244" y1="376.712612268298" y2="318.81891270417486" /><line stroke="black" stroke-width="1px" x1="266.67032394991816" x2="267.72077111835523" y1="282.47181719099046" y2="153.93696050119635" /><line stroke="black" stroke-width="1px" x1="267.72077111835523" x2="168.3068287931547" y1="153.93696050119635" y2="187.81915996368855" /><line stroke="black" stroke-width="1px" x1="168.3068287931547" x2="180.71299075069763" y1="187.81915996368855" y2="329.154606031319" /><line stroke="black" stroke-width="1px" x1="180.71299075069763" x2="266.67032394991816" y1="329.154606031319" y2="282.47181719099046" /><line stroke="black" stroke-width="1px" x1="335.21667415725244" x2="266.67032394991816" y1="318.81891270417486" y2="282.47181719099046" /><line stroke="black" stroke-width="1px" x1="346.9262667110127" x2="267.72077111835523" y1="180.20745625532058" y2="153.93696050119635" /><line stroke="black" stroke-width="1px" x1="247.45831368933244" x2="168.3068287931547" y1="223.6814980790174" y2="187.81915996368855" /><line stroke="black" stroke-width="1px" x1="249.22924946553428" x2="180.71299075069763" y1="376.712612268298" y2="329.154606031319" /><line stroke="black" stroke-width="1px" x1="316.96743722434877" x2="217.1592176272848" y1="170.27085656689067" y2="209.95343689366806" /><line stroke="black" stroke-width="1px" x1="343.954664180515" x2="247.91571183178345" y1="215.383586667058" y2="263.2064477175108" /><line stroke="black" stroke-width="1px" x1="266.1514051082363" x2="186.67306478506066" y1="159.33880808308538" y2="187.0364996427405" /><line stroke="black" stroke-width="1px" x1="186.67306478506066" x2="292.39408637040066" y1="187.0364996427405" y2="196.74390126229844" /><line stroke="black" stroke-width="1px" x1="292.39408637040066" x2="266.1514051082363" y1="196.74390126229844" y2="159.33880808308538" /><line stroke="black" stroke-width="1px" x1="266.1514051082363" x2="186.67306478506066" y1="159.33880808308538" y2="187.0364996427405" /><line stroke="black" stroke-width="1px" x1="186.67306478506066" x2="292.39408637040066" y1="187.0364996427405" y2="196.74390126229844" /><line stroke="black" stroke-width="1px" x1="292.39408637040066" x2="266.1514051082363" y1="196.74390126229844" y2="159.33880808308538" /><line stroke="black" stroke-width="1px" x1="266.1514051082363" x2="266.1514051082363" y1="159.33880808308538" y2="159.33880808308538" /><line stroke="black" stroke-width="1px" x1="186.67306478506066" x2="186.67306478506066" y1="187.0364996427405" y2="187.0364996427405" /><line stroke="black" stroke-width="1px" x1="292.39408637040066" x2="292.39408637040066" y1="196.74390126229844" y2="196.74390126229844" /><line stroke="black" stroke-width="1px" x1="247.70593838104102" x2="170.01269400155422" y1="245.0793844293692" y2="207.2529881682131" /><line stroke="black" stroke-width="1px" x1="264.53186383625086" x2="185.09957553458355" y1="216.2192329914436" y2="182.0958662152625" /></svg>