<?xml version="1.0" encoding="utf-8" ?>
<svg baseProfile="full" height="518px" version="1.1" viewBox="0,0,518,518" width="518px" xmlns="http://www.w3.org/2000/svg" xmlns:ev="http://www.w3.org/2001/xml-events" xmlns:xlink="http://www.w3.org/1999/xlink"><defs /><rect fill="white" height="100%" width="100%" x="0" y="0" /><line stroke="black" stroke-width="1px" x1="269.04691861477585" x2="353.1116410796205" y1="192.60482814952897" y2="225.4204322591355" /><line stroke="black" stroke-width="1px" x1="353.1116410796205" x2="265.08246432546343" y1="225.4204322591355" y2="271.60281217542786" /><line stroke="black" stroke-width="1px" x1="265.08246432546343" x2="180.7265321069708" y1="271.60281217542786" y2="228.17904313362962" /><line stroke="black" stroke-width="1px" x1="180.7265321069708" x2="269.04691861477585" y1="228.17904313362962" y2="192.60482814952897" /><line stroke="black" stroke-width="1px" x1="268.33371238128814" x2="345.63719110999364" y1="265.6100999191671" y2="304.4927025907724" /><line stroke="black" stroke-width="1px" x1="345.63719110999364" x2="264.5287546847916" y1="304.4927025907724" y2="358.03259001628237" /><line stroke="black" stroke-width="1px" x1="264.5287546847916" x2="186.9980437910148" y1="358.03259001628237" y2="307.7291872901901" /><line stroke="black" stroke-width="1px" x1="186.9980437910148" x2="268.33371238128814" y1="307.7291872901901" y2="265.6100999191671" /><line stroke="black" stroke-width="1px" x1="269.04691861477585" x2="268.33371238128814" y1="192.60482814952897" y2="265.6100999191671" /><line stroke="black" stroke-width="1px" x1="353.1116410796205" x2="345.63719110999364" y1="225.4204322591355" y2="304.4927025907724" /><line stroke="black" stroke-width="1px" x1="265.08246432546343" x2="264.5287546847916" y1="271.60281217542786" y2="358.03259001628237" /><line stroke="black" stroke-width="1px" x1="180.7265321069708" x2="186.9980437910148" y1="228.17904313362962" y2="307.7291872901901" /><line stroke="black" stroke-width="1px" x1="350.4755027572572" x2="264.8855706106771" y1="253.30816217966952" y2="302.336393058352" /><line stroke="black" stroke-width="1px" x1="328.03863728621667" x2="239.59974708493286" y1="215.6329049563827" y2="258.4851143572812" /><line stroke="black" stroke-width="1px" x1="328.03863728621667" x2="350.4755027572572" y1="215.6329049563827" y2="253.30816217966952" /><line stroke="black" stroke-width="1px" x1="239.59974708493286" x2="264.8855706106771" y1="258.4851143572812" y2="302.336393058352" /><line stroke="black" stroke-width="1px" x1="186.9980437910148" x2="178.22395224511996" y1="307.7291872901901" y2="267.6252535322698" /><line stroke="black" stroke-width="1px" x1="178.22395224511996" x2="223.2563708491391" y1="267.6252535322698" y2="277.8845001471124" /><line stroke="black" stroke-width="1px" x1="223.2563708491391" x2="186.9980437910148" y1="277.8845001471124" y2="307.7291872901901" /><line stroke="black" stroke-width="1px" x1="183.32823237741997" x2="173.66166696253674" y1="261.17995933904103" y2="213.7764114036594" /><line stroke="black" stroke-width="1px" x1="173.66166696253674" x2="221.52989140828208" y1="213.7764114036594" y2="232.3290150922595" /><line stroke="black" stroke-width="1px" x1="221.52989140828208" x2="183.32823237741997" y1="232.3290150922595" y2="261.17995933904103" /><line stroke="black" stroke-width="1px" x1="186.9980437910148" x2="183.32823237741997" y1="307.7291872901901" y2="261.17995933904103" /><line stroke="black" stroke-width="1px" x1="178.22395224511996" x2="173.66166696253674" y1="267.6252535322698" y2="213.7764114036594" /><line stroke="black" stroke-width="1px" x1="223.2563708491391" x2="221.52989140828208" y1="277.8845001471124" y2="232.3290150922595" /><line stroke="black" stroke-width="1px" x1="208.8109488939753" x2="206.33349443019074" y1="289.77470948331535" y2="243.8057523096844" /><line stroke="black" stroke-width="1px" x1="213.33999708498612" x2="211.05280120286236" y1="275.62536046230053" y2="228.2683400903869" /></svg>