<?xml version="1.0" encoding="utf-8" ?>
<svg baseProfile="full" height="518px" version="1.1" viewBox="0,0,518,518" width="518px" xmlns="http://www.w3.org/2000/svg" xmlns:ev="http://www.w3.org/2001/xml-events" xmlns:xlink="http://www.w3.org/1999/xlink"><defs /><rect fill="white" height="100%" width="100%" x="0" y="0" /><line stroke="black" stroke-width="1px" x1="203.54118241740065" x2="197.26177062762045" y1="299.0910467113561" y2="194.7032532169789" /><line stroke="black" stroke-width="1px" x1="197.26177062762045" x2="281.525396986675" y1="194.7032532169789" y2="231.97539483056545" /><line stroke="black" stroke-width="1px" x1="281.525396986675" x2="278.9394969907237" y1="231.97539483056545" y2="345.5179832288411" /><line stroke="black" stroke-width="1px" x1="278.9394969907237" x2="203.54118241740065" y1="345.5179832288411" y2="299.0910467113561" /><line stroke="black" stroke-width="1px" x1="242.31701231762898" x2="240.5443399065323" y1="279.01523682043506" y2="178.92042270742002" /><line stroke="black" stroke-width="1px" x1="240.5443399065323" x2="324.7718668625016" y1="178.92042270742002" y2="211.45367460728218" /><line stroke="black" stroke-width="1px" x1="324.7718668625016" x2="317.6921720149217" y1="211.45367460728218" y2="320.12445660576765" /><line stroke="black" stroke-width="1px" x1="317.6921720149217" x2="242.31701231762898" y1="320.12445660576765" y2="279.01523682043506" /><line stroke="black" stroke-width="1px" x1="203.54118241740065" x2="242.31701231762898" y1="299.0910467113561" y2="279.01523682043506" /><line stroke="black" stroke-width="1px" x1="197.26177062762045" x2="240.5443399065323" y1="194.7032532169789" y2="178.92042270742002" /><line stroke="black" stroke-width="1px" x1="281.525396986675" x2="324.7718668625016" y1="231.97539483056545" y2="211.45367460728218" /><line stroke="black" stroke-width="1px" x1="278.9394969907237" x2="317.6921720149217" y1="345.5179832288411" y2="320.12445660576765" /><line stroke="black" stroke-width="1px" x1="305.6223297011864" x2="300.4554346999861" y1="220.5406924646528" y2="331.41920071384357" /><line stroke="black" stroke-width="1px" x1="255.67419965872134" x2="256.04277972043167" y1="220.5406924646528" y2="331.41920071384357" /><line stroke="black" stroke-width="1px" x1="255.67419965872134" x2="305.6223297011864" y1="220.5406924646528" y2="220.5406924646528" /><line stroke="black" stroke-width="1px" x1="256.04277972043167" x2="300.4554346999861" y1="331.41920071384357" y2="331.41920071384357" /><line stroke="black" stroke-width="1px" x1="245.43201821108576" x2="214.38717367026152" y1="284.6717740227138" y2="301.0895241712272" /><line stroke="black" stroke-width="1px" x1="214.38717367026152" x2="290.5585104784002" y1="301.0895241712272" y2="327.5646763691824" /><line stroke="black" stroke-width="1px" x1="290.5585104784002" x2="245.43201821108576" y1="327.5646763691824" y2="284.6717740227138" /><line stroke="black" stroke-width="1px" x1="245.43201821108576" x2="214.38717367026152" y1="284.6717740227138" y2="301.0895241712272" /><line stroke="black" stroke-width="1px" x1="214.38717367026152" x2="290.5585104784002" y1="301.0895241712272" y2="327.5646763691824" /><line stroke="black" stroke-width="1px" x1="290.5585104784002" x2="245.43201821108576" y1="327.5646763691824" y2="284.6717740227138" /><line stroke="black" stroke-width="1px" x1="245.43201821108576" x2="245.43201821108576" y1="284.6717740227138" y2="284.6717740227138" /><line stroke="black" stroke-width="1px" x1="214.38717367026152" x2="214.38717367026152" y1="301.0895241712272" y2="301.0895241712272" /><line stroke="black" stroke-width="1px" x1="290.5585104784002" x2="290.5585104784002" y1="327.5646763691824" y2="327.5646763691824" /><line stroke="black" stroke-width="1px" x1="224.43907990153338" x2="220.6560718666697" y1="288.2713629524036" y2="186.17260687373206" /><line stroke="black" stroke-width="1px" x1="259.2884359792461" x2="259.3200079288332" y1="288.2713629524036" y2="186.17260687373206" /></svg>