<?xml version="1.0" encoding="utf-8" ?>
<svg baseProfile="full" height="518px" version="1.1" viewBox="0,0,518,518" width="518px" xmlns="http://www.w3.org/2000/svg" xmlns:ev="http://www.w3.org/2001/xml-events" xmlns:xlink="http://www.w3.org/1999/xlink"><defs /><rect fill="white" height="100%" width="100%" x="0" y="0" /><line stroke="black" stroke-width="1px" x1="247.04613925620717" x2="358.4381862251738" y1="240.69285727692682" y2="294.2066576417947" /><line stroke="black" stroke-width="1px" x1="358.4381862251738" x2="275.22977995835214" y1="294.2066576417947" y2="348.85081965317613" /><line stroke="black" stroke-width="1px" x1="275.22977995835214" x2="163.74123639920032" y1="348.85081965317613" y2="279.2487778578063" /><line stroke="black" stroke-width="1px" x1="163.74123639920032" x2="247.04613925620717" y1="279.2487778578063" y2="240.69285727692682" /><line stroke="black" stroke-width="1px" x1="246.42015390297803" x2="364.62436853833015" y1="189.35583440879918" y2="236.54784658063988" /><line stroke="black" stroke-width="1px" x1="364.62436853833015" x2="276.40572028321134" y1="236.54784658063988" y2="285.65657667026966" /><line stroke="black" stroke-width="1px" x1="276.40572028321134" x2="158.0789463572723" y1="285.65657667026966" y2="223.26832468159796" /><line stroke="black" stroke-width="1px" x1="158.0789463572723" x2="246.42015390297803" y1="223.26832468159796" y2="189.35583440879918" /><line stroke="black" stroke-width="1px" x1="247.04613925620717" x2="246.42015390297803" y1="240.69285727692682" y2="189.35583440879918" /><line stroke="black" stroke-width="1px" x1="358.4381862251738" x2="364.62436853833015" y1="294.2066576417947" y2="236.54784658063988" /><line stroke="black" stroke-width="1px" x1="275.22977995835214" x2="276.40572028321134" y1="348.85081965317613" y2="285.65657667026966" /><line stroke="black" stroke-width="1px" x1="163.74123639920032" x2="158.0789463572723" y1="279.2487778578063" y2="223.26832468159796" /><line stroke="black" stroke-width="1px" x1="231.35692670971207" x2="229.872717313157" y1="247.95427902010485" y2="195.70807701428686" /><line stroke="black" stroke-width="1px" x1="262.1612053954565" x2="262.33093655027807" y1="247.95427902010488" y2="195.70807701428686" /><line stroke="black" stroke-width="1px" x1="172.6668236399421" x2="262.0938943228505" y1="279.756421130558" y2="334.76950890992583" /><line stroke="black" stroke-width="1px" x1="262.0938943228505" x2="211.7133560544685" y1="334.76950890992583" y2="257.67575667181154" /><line stroke="black" stroke-width="1px" x1="211.7133560544685" x2="172.6668236399421" y1="257.67575667181154" y2="279.756421130558" /><line stroke="black" stroke-width="1px" x1="172.6668236399421" x2="262.0938943228505" y1="279.756421130558" y2="334.76950890992583" /><line stroke="black" stroke-width="1px" x1="262.0938943228505" x2="211.7133560544685" y1="334.76950890992583" y2="257.67575667181154" /><line stroke="black" stroke-width="1px" x1="211.7133560544685" x2="172.6668236399421" y1="257.67575667181154" y2="279.756421130558" /><line stroke="black" stroke-width="1px" x1="172.6668236399421" x2="172.6668236399421" y1="279.756421130558" y2="279.756421130558" /><line stroke="black" stroke-width="1px" x1="262.0938943228505" x2="262.0938943228505" y1="334.76950890992583" y2="334.76950890992583" /><line stroke="black" stroke-width="1px" x1="211.7133560544685" x2="211.7133560544685" y1="257.67575667181154" y2="257.67575667181154" /><line stroke="black" stroke-width="1px" x1="275.8140072493449" x2="160.910830506505" y1="317.4548375580269" y2="251.2658586903978" /><line stroke="black" stroke-width="1px" x1="302.18712534845304" x2="183.4286506198804" y1="271.30482579080746" y2="213.53706083421113" /></svg>