<?xml version="1.0" encoding="utf-8" ?>
<svg baseProfile="full" height="518px" version="1.1" viewBox="0,0,518,518" width="518px" xmlns="http://www.w3.org/2000/svg" xmlns:ev="http://www.w3.org/2001/xml-events" xmlns:xlink="http://www.w3.org/1999/xlink"><defs /><rect fill="white" height="100%" width="100%" x="0" y="0" /><line stroke="black" stroke-width="1px" x1="273.0098903603506" x2="274.42654606645823" y1="259.42611703489933" y2="162.19058050899798" /><line stroke="black" stroke-width="1px" x1="274.42654606645823" x2="142.32759201129528" y1="162.19058050899798" y2="209.43669358401286" /><line stroke="black" stroke-width="1px" x1="142.32759201129528" x2="155.05640394523806" y1="209.43669358401286" y2="319.8000555081647" /><line stroke="black" stroke-width="1px" x1="155.05640394523806" x2="273.0098903603506" y1="319.8000555081647" y2="259.42611703489933" /><line stroke="black" stroke-width="1px" x1="357.814813386019" x2="369.2493938847622" y1="300.977267450964" y2="194.51147427684208" /><line stroke="black" stroke-width="1px" x1="369.2493938847622" x2="236.94858083601224" y1="194.51147427684208" y2="258.3292962965597" /><line stroke="black" stroke-width="1px" x1="236.94858083601224" x2="239.73343084143178" y1="258.3292962965597" y2="379.9075166786484" /><line stroke="black" stroke-width="1px" x1="239.73343084143178" x2="357.814813386019" y1="379.9075166786484" y2="300.977267450964" /><line stroke="black" stroke-width="1px" x1="273.0098903603506" x2="357.814813386019" y1="259.42611703489933" y2="300.977267450964" /><line stroke="black" stroke-width="1px" x1="274.42654606645823" x2="369.2493938847622" y1="162.19058050899798" y2="194.51147427684208" /><line stroke="black" stroke-width="1px" x1="142.32759201129528" x2="236.94858083601224" y1="209.43669358401286" y2="258.3292962965597" /><line stroke="black" stroke-width="1px" x1="155.05640394523806" x2="239.73343084143178" y1="319.8000555081647" y2="379.9075166786484" /><line stroke="black" stroke-width="1px" x1="211.91240287450572" x2="217.6479250576621" y1="245.39259041642833" y2="364.2302576865982" /><line stroke="black" stroke-width="1px" x1="263.7676832739662" x2="263.18695384945937" y1="245.39259041642833" y2="364.2302576865982" /><line stroke="black" stroke-width="1px" x1="161.3928694539104" x2="229.71951539447937" y1="315.043711736088" y2="362.3820743730902" /><line stroke="black" stroke-width="1px" x1="229.71951539447937" x2="186.68376204511486" y1="362.3820743730902" y2="244.8045136303656" /><line stroke="black" stroke-width="1px" x1="186.68376204511486" x2="161.3928694539104" y1="244.8045136303656" y2="315.043711736088" /><line stroke="black" stroke-width="1px" x1="161.3928694539104" x2="229.71951539447937" y1="315.043711736088" y2="362.3820743730902" /><line stroke="black" stroke-width="1px" x1="229.71951539447937" x2="186.68376204511486" y1="362.3820743730902" y2="244.8045136303656" /><line stroke="black" stroke-width="1px" x1="186.68376204511486" x2="161.3928694539104" y1="244.8045136303656" y2="315.043711736088" /><line stroke="black" stroke-width="1px" x1="161.3928694539104" x2="161.3928694539104" y1="315.043711736088" y2="315.043711736088" /><line stroke="black" stroke-width="1px" x1="229.71951539447937" x2="229.71951539447937" y1="362.3820743730902" y2="362.3820743730902" /><line stroke="black" stroke-width="1px" x1="186.68376204511486" x2="186.68376204511486" y1="244.8045136303656" y2="244.8045136303656" /><line stroke="black" stroke-width="1px" x1="340.5562203068779" x2="349.74882520355925" y1="292.52122066245397" y2="187.86459725026913" /><line stroke="black" stroke-width="1px" x1="344.54558040546254" x2="354.71557395700074" y1="309.84694566480147" y2="201.52213968427785" /></svg>