<?xml version="1.0" encoding="utf-8" ?>
<svg baseProfile="full" height="518px" version="1.1" viewBox="0,0,518,518" width="518px" xmlns="http://www.w3.org/2000/svg" xmlns:ev="http://www.w3.org/2001/xml-events" xmlns:xlink="http://www.w3.org/1999/xlink"><defs /><rect fill="white" height="100%" width="100%" x="0" y="0" /><line stroke="black" stroke-width="1px" x1="306.57658456079355" x2="312.5579138319013" y1="277.89975878372036" y2="159.32961877769776" /><line stroke="black" stroke-width="1px" x1="312.5579138319013" x2="181.81228099652333" y1="159.32961877769776" y2="208.48887931778907" /><line stroke="black" stroke-width="1px" x1="181.81228099652333" x2="192.09460182271997" y1="208.48887931778907" y2="343.37115344117746" /><line stroke="black" stroke-width="1px" x1="192.09460182271997" x2="306.57658456079355" y1="343.37115344117746" y2="277.89975878372036" /><line stroke="black" stroke-width="1px" x1="334.70474933167105" x2="344.6620556954972" y1="291.76424800358717" y2="169.53985859082707" /><line stroke="black" stroke-width="1px" x1="344.6620556954972" x2="214.00441137597966" y1="169.53985859082707" y2="223.9049264578577" /><line stroke="black" stroke-width="1px" x1="214.00441137597966" x2="220.29258417125337" y1="223.9049264578577" y2="363.25378713981524" /><line stroke="black" stroke-width="1px" x1="220.29258417125337" x2="334.70474933167105" y1="363.25378713981524" y2="291.76424800358717" /><line stroke="black" stroke-width="1px" x1="306.57658456079355" x2="334.70474933167105" y1="277.89975878372036" y2="291.76424800358717" /><line stroke="black" stroke-width="1px" x1="312.5579138319013" x2="344.6620556954972" y1="159.32961877769776" y2="169.53985859082707" /><line stroke="black" stroke-width="1px" x1="181.81228099652333" x2="214.00441137597966" y1="208.48887931778907" y2="223.9049264578577" /><line stroke="black" stroke-width="1px" x1="192.09460182271997" x2="220.29258417125337" y1="343.37115344117746" y2="363.25378713981524" /><line stroke="black" stroke-width="1px" x1="294.3416682788112" x2="326.61930513113" y1="166.17877420864176" y2="177.0472292008542" /><line stroke="black" stroke-width="1px" x1="311.2749145687187" x2="342.517560054784" y1="184.7629957693324" y2="195.8632095762615" /><line stroke="black" stroke-width="1px" x1="311.2749145687187" x2="294.3416682788112" y1="184.7629957693324" y2="166.17877420864176" /><line stroke="black" stroke-width="1px" x1="342.517560054784" x2="326.61930513113" y1="195.8632095762615" y2="177.0472292008542" /><line stroke="black" stroke-width="1px" x1="214.00441137597966" x2="162.62881830364086" y1="223.9049264578577" y2="255.24249206663583" /><line stroke="black" stroke-width="1px" x1="162.62881830364086" x2="174.25229596725978" y1="255.24249206663583" y2="313.39760097661247" /><line stroke="black" stroke-width="1px" x1="174.25229596725978" x2="214.00441137597966" y1="313.39760097661247" y2="223.9049264578577" /><line stroke="black" stroke-width="1px" x1="214.00441137597966" x2="162.62881830364086" y1="223.9049264578577" y2="255.24249206663583" /><line stroke="black" stroke-width="1px" x1="162.62881830364086" x2="174.25229596725978" y1="255.24249206663583" y2="313.39760097661247" /><line stroke="black" stroke-width="1px" x1="174.25229596725978" x2="214.00441137597966" y1="313.39760097661247" y2="223.9049264578577" /><line stroke="black" stroke-width="1px" x1="214.00441137597966" x2="214.00441137597966" y1="223.9049264578577" y2="223.9049264578577" /><line stroke="black" stroke-width="1px" x1="162.62881830364086" x2="162.62881830364086" y1="255.24249206663583" y2="255.24249206663583" /><line stroke="black" stroke-width="1px" x1="174.25229596725978" x2="174.25229596725978" y1="313.39760097661247" y2="313.39760097661247" /><line stroke="black" stroke-width="1px" x1="295.36596213012854" x2="323.5805841635418" y1="284.3110303913504" y2="298.71509488276126" /><line stroke="black" stroke-width="1px" x1="307.3074761319283" x2="335.9160016582772" y1="263.41102024573735" y2="276.89631378173266" /><line stroke="black" stroke-width="1px" x1="307.3074761319283" x2="295.36596213012854" y1="263.41102024573735" y2="284.3110303913504" /><line stroke="black" stroke-width="1px" x1="335.9160016582772" x2="323.5805841635418" y1="276.89631378173266" y2="298.71509488276126" /></svg>