<?xml version="1.0" encoding="utf-8" ?>
<svg baseProfile="full" height="518px" version="1.1" viewBox="0,0,518,518" width="518px" xmlns="http://www.w3.org/2000/svg" xmlns:ev="http://www.w3.org/2001/xml-events" xmlns:xlink="http://www.w3.org/1999/xlink"><defs /><rect fill="white" height="100%" width="100%" x="0" y="0" /><line stroke="black" stroke-width="1px" x1="260.16173617362335" x2="333.22219407549085" y1="297.74896477475255" y2="338.61929981854394" /><line stroke="black" stroke-width="1px" x1="333.22219407549085" x2="257.5334879440925" y1="338.61929981854394" y2="392.04239622703506" /><line stroke="black" stroke-width="1px" x1="257.5334879440925" x2="184.4771271634566" y1="392.04239622703506" y2="340.24092156398353" /><line stroke="black" stroke-width="1px" x1="184.4771271634566" x2="260.16173617362335" y1="340.24092156398353" y2="297.74896477475255" /><line stroke="black" stroke-width="1px" x1="260.2505375399469" x2="339.5961562957223" y1="227.1748813705715" y2="262.8408667149102" /><line stroke="black" stroke-width="1px" x1="339.5961562957223" x2="257.38908587017954" y1="262.8408667149102" y2="310.41518977051015" /><line stroke="black" stroke-width="1px" x1="257.38908587017954" x2="178.0491814663758" y1="310.41518977051015" y2="264.26889899093095" /><line stroke="black" stroke-width="1px" x1="178.0491814663758" x2="260.2505375399469" y1="264.26889899093095" y2="227.1748813705715" /><line stroke="black" stroke-width="1px" x1="260.16173617362335" x2="260.2505375399469" y1="297.74896477475255" y2="227.1748813705715" /><line stroke="black" stroke-width="1px" x1="333.22219407549085" x2="339.5961562957223" y1="338.61929981854394" y2="262.8408667149102" /><line stroke="black" stroke-width="1px" x1="257.5334879440925" x2="257.38908587017954" y1="392.04239622703506" y2="310.41518977051015" /><line stroke="black" stroke-width="1px" x1="184.4771271634566" x2="178.0491814663758" y1="340.24092156398353" y2="264.26889899093095" /><line stroke="black" stroke-width="1px" x1="257.49403705986083" x2="182.70669704467912" y1="369.7417090913846" y2="319.3161715293251" /><line stroke="black" stroke-width="1px" x1="277.5165280656593" x2="204.260682370163" y1="377.93783646489703" y2="329.1337495249787" /><line stroke="black" stroke-width="1px" x1="260.02332272036836" x2="194.26783047210762" y1="233.7846144143206" y2="264.1255304488824" /><line stroke="black" stroke-width="1px" x1="194.26783047210762" x2="292.39924140337985" y1="264.1255304488824" y2="280.49005575226784" /><line stroke="black" stroke-width="1px" x1="292.39924140337985" x2="260.02332272036836" y1="280.49005575226784" y2="233.7846144143206" /><line stroke="black" stroke-width="1px" x1="260.120574289912" x2="187.41741602653866" y1="139.9618201994772" y2="162.8593356439968" /><line stroke="black" stroke-width="1px" x1="187.41741602653866" x2="296.1311564441807" y1="162.8593356439968" y2="175.39758548270822" /><line stroke="black" stroke-width="1px" x1="296.1311564441807" x2="260.120574289912" y1="175.39758548270822" y2="139.9618201994772" /><line stroke="black" stroke-width="1px" x1="260.02332272036836" x2="260.120574289912" y1="233.7846144143206" y2="139.9618201994772" /><line stroke="black" stroke-width="1px" x1="194.26783047210762" x2="187.41741602653866" y1="264.1255304488824" y2="162.8593356439968" /><line stroke="black" stroke-width="1px" x1="292.39924140337985" x2="296.1311564441807" y1="280.49005575226784" y2="175.39758548270822" /><line stroke="black" stroke-width="1px" x1="312.6358956326794" x2="317.4240954441606" y1="353.1496553050682" y2="275.67213269118645" /><line stroke="black" stroke-width="1px" x1="309.00558216271634" x2="313.14254773623725" y1="325.07242273997497" y2="250.94992642126238" /><line stroke="black" stroke-width="1px" x1="309.00558216271634" x2="312.6358956326794" y1="325.07242273997497" y2="353.1496553050682" /><line stroke="black" stroke-width="1px" x1="313.14254773623725" x2="317.4240954441606" y1="250.94992642126238" y2="275.67213269118645" /><line stroke="black" stroke-width="1px" x1="266.84578935560046" x2="325.6984143561925" y1="294.8116035709443" y2="327.128766436731" /><line stroke="black" stroke-width="1px" x1="325.6984143561925" x2="330.18672604617484" y1="327.128766436731" y2="266.97591690264454" /><line stroke="black" stroke-width="1px" x1="330.18672604617484" x2="267.3271766560603" y1="266.97591690264454" y2="237.98252872714875" /><line stroke="black" stroke-width="1px" x1="267.3271766560603" x2="266.84578935560046" y1="237.98252872714875" y2="294.8116035709443" /><line stroke="black" stroke-width="1px" x1="266.84578935560046" x2="325.6984143561925" y1="294.8116035709443" y2="327.128766436731" /><line stroke="black" stroke-width="1px" x1="325.6984143561925" x2="330.18672604617484" y1="327.128766436731" y2="266.97591690264454" /><line stroke="black" stroke-width="1px" x1="330.18672604617484" x2="267.3271766560603" y1="266.97591690264454" y2="237.98252872714875" /><line stroke="black" stroke-width="1px" x1="267.3271766560603" x2="266.84578935560046" y1="237.98252872714875" y2="294.8116035709443" /><line stroke="black" stroke-width="1px" x1="266.84578935560046" x2="266.84578935560046" y1="294.8116035709443" y2="294.8116035709443" /><line stroke="black" stroke-width="1px" x1="325.6984143561925" x2="325.6984143561925" y1="327.128766436731" y2="327.128766436731" /><line stroke="black" stroke-width="1px" x1="330.18672604617484" x2="330.18672604617484" y1="266.97591690264454" y2="266.97591690264454" /><line stroke="black" stroke-width="1px" x1="267.3271766560603" x2="267.3271766560603" y1="237.98252872714875" y2="237.98252872714875" /><line stroke="black" stroke-width="1px" x1="282.96333555717626" x2="285.5230163412032" y1="266.8778351606246" y2="164.95877721322898" /><line stroke="black" stroke-width="1px" x1="265.7388549975884" x2="266.48097001075996" y1="276.0441340662832" y2="171.97794925422028" /></svg>