<?xml version="1.0" encoding="utf-8" ?>
<svg baseProfile="full" height="518px" version="1.1" viewBox="0,0,518,518" width="518px" xmlns="http://www.w3.org/2000/svg" xmlns:ev="http://www.w3.org/2001/xml-events" xmlns:xlink="http://www.w3.org/1999/xlink"><defs /><rect fill="white" height="100%" width="100%" x="0" y="0" /><line stroke="black" stroke-width="1px" x1="247.65940940986167" x2="341.4032372733865" y1="260.1589422710847" y2="308.0470261714696" /><line stroke="black" stroke-width="1px" x1="341.4032372733865" x2="273.6082093556226" y1="308.0470261714696" y2="352.89081585963015" /><line stroke="black" stroke-width="1px" x1="273.6082093556226" x2="179.8138411485507" y1="352.89081585963015" y2="293.6127840187944" /><line stroke="black" stroke-width="1px" x1="179.8138411485507" x2="247.65940940986167" y1="293.6127840187944" y2="260.1589422710847" /><line stroke="black" stroke-width="1px" x1="246.7137274420317" x2="349.3964147563348" y1="180.03288457476668" y2="219.48714036118304" /><line stroke="black" stroke-width="1px" x1="349.3964147563348" x2="275.21600210896736" y1="219.48714036118304" y2="257.342819083124" /><line stroke="black" stroke-width="1px" x1="275.21600210896736" x2="172.46044596752023" y1="257.342819083124" y2="207.49100700477976" /><line stroke="black" stroke-width="1px" x1="172.46044596752023" x2="246.7137274420317" y1="207.49100700477976" y2="180.03288457476668" /><line stroke="black" stroke-width="1px" x1="247.65940940986167" x2="246.7137274420317" y1="260.1589422710847" y2="180.03288457476668" /><line stroke="black" stroke-width="1px" x1="341.4032372733865" x2="349.3964147563348" y1="308.0470261714696" y2="219.48714036118304" /><line stroke="black" stroke-width="1px" x1="273.6082093556226" x2="275.21600210896736" y1="352.89081585963015" y2="257.342819083124" /><line stroke="black" stroke-width="1px" x1="179.8138411485507" x2="172.46044596752023" y1="293.6127840187944" y2="207.49100700477976" /><line stroke="black" stroke-width="1px" x1="347.5390645378864" x2="274.83899936308853" y1="240.06553032016953" y2="279.7473591415546" /><line stroke="black" stroke-width="1px" x1="331.0669715100254" x2="256.589819880183" y1="212.44433147901077" y2="248.30633511014867" /><line stroke="black" stroke-width="1px" x1="196.6693564963506" x2="191.02885532699818" y1="285.3015301304112" y2="200.62459453924905" /><line stroke="black" stroke-width="1px" x1="193.61002823444966" x2="187.37454614691083" y1="302.33197295298015" y2="214.7265760326689" /><line stroke="black" stroke-width="1px" x1="193.61002823444966" x2="196.6693564963506" y1="302.33197295298015" y2="285.3015301304112" /><line stroke="black" stroke-width="1px" x1="187.37454614691083" x2="191.02885532699818" y1="214.7265760326689" y2="200.62459453924905" /></svg>