<?xml version="1.0" encoding="utf-8" ?>
<svg baseProfile="full" height="518px" version="1.1" viewBox="0,0,518,518" width="518px" xmlns="http://www.w3.org/2000/svg" xmlns:ev="http://www.w3.org/2001/xml-events" xmlns:xlink="http://www.w3.org/1999/xlink"><defs /><rect fill="white" height="100%" width="100%" x="0" y="0" /><line stroke="black" stroke-width="1px" x1="286.3852651732287" x2="290.38718939893704" y1="288.7785567891532" y2="152.54497388901845" /><line stroke="black" stroke-width="1px" x1="290.38718939893704" x2="172.72358098556043" y1="152.54497388901845" y2="193.86869574432058" /><line stroke="black" stroke-width="1px" x1="172.72358098556043" x2="185.53098168543804" y1="193.86869574432058" y2="346.34656468400203" /><line stroke="black" stroke-width="1px" x1="185.53098168543804" x2="286.3852651732287" y1="346.34656468400203" y2="288.7785567891532" /><line stroke="black" stroke-width="1px" x1="325.8248474709785" x2="336.256070755261" y1="309.4470343367316" y2="167.15104739028823" /><line stroke="black" stroke-width="1px" x1="336.256070755261" x2="218.4722409357357" y1="167.15104739028823" y2="214.93038200659402" /><line stroke="black" stroke-width="1px" x1="218.4722409357357" x2="224.90556677597098" y1="214.93038200659402" y2="374.6371070047463" /><line stroke="black" stroke-width="1px" x1="224.90556677597098" x2="325.8248474709785" y1="374.6371070047463" y2="309.4470343367316" /><line stroke="black" stroke-width="1px" x1="286.3852651732287" x2="325.8248474709785" y1="288.7785567891532" y2="309.4470343367316" /><line stroke="black" stroke-width="1px" x1="290.38718939893704" x2="336.256070755261" y1="152.54497388901845" y2="167.15104739028823" /><line stroke="black" stroke-width="1px" x1="172.72358098556043" x2="218.4722409357357" y1="193.86869574432058" y2="214.93038200659402" /><line stroke="black" stroke-width="1px" x1="185.53098168543804" x2="224.90556677597098" y1="346.34656468400203" y2="374.6371070047463" /><line stroke="black" stroke-width="1px" x1="316.13403260421734" x2="198.25367491967413" y1="160.74356677295293" y2="205.62219473800232" /><line stroke="black" stroke-width="1px" x1="289.4701354259517" x2="175.71376949722116" y1="183.76334320496443" y2="229.4682356252193" /><line stroke="black" stroke-width="1px" x1="290.38718939893704" x2="298.3763920292171" y1="152.54497388901845" y2="183.04628419287747" /><line stroke="black" stroke-width="1px" x1="298.3763920292171" x2="292.78544711189375" y1="183.04628419287747" y2="199.46550396976255" /><line stroke="black" stroke-width="1px" x1="292.78544711189375" x2="290.38718939893704" y1="199.46550396976255" y2="152.54497388901845" /><line stroke="black" stroke-width="1px" x1="290.38718939893704" x2="298.3763920292171" y1="152.54497388901845" y2="183.04628419287747" /><line stroke="black" stroke-width="1px" x1="298.3763920292171" x2="292.78544711189375" y1="183.04628419287747" y2="199.46550396976255" /><line stroke="black" stroke-width="1px" x1="292.78544711189375" x2="290.38718939893704" y1="199.46550396976255" y2="152.54497388901845" /><line stroke="black" stroke-width="1px" x1="290.38718939893704" x2="290.38718939893704" y1="152.54497388901845" y2="152.54497388901845" /><line stroke="black" stroke-width="1px" x1="298.3763920292171" x2="298.3763920292171" y1="183.04628419287747" y2="183.04628419287747" /><line stroke="black" stroke-width="1px" x1="292.78544711189375" x2="292.78544711189375" y1="199.46550396976255" y2="199.46550396976255" /><line stroke="black" stroke-width="1px" x1="204.3053617814205" x2="243.84134352285645" y1="335.63007725075136" y2="362.40530497788313" /><line stroke="black" stroke-width="1px" x1="183.876518054904" x2="224.08326890589183" y1="326.6494306180359" y2="354.2236376632815" /><line stroke="black" stroke-width="1px" x1="183.876518054904" x2="204.3053617814205" y1="326.6494306180359" y2="335.63007725075136" /><line stroke="black" stroke-width="1px" x1="224.08326890589183" x2="243.84134352285645" y1="354.2236376632815" y2="362.40530497788313" /></svg>