<?xml version="1.0" encoding="utf-8" ?>
<svg baseProfile="full" height="518px" version="1.1" viewBox="0,0,518,518" width="518px" xmlns="http://www.w3.org/2000/svg" xmlns:ev="http://www.w3.org/2001/xml-events" xmlns:xlink="http://www.w3.org/1999/xlink"><defs /><rect fill="white" height="100%" width="100%" x="0" y="0" /><line stroke="black" stroke-width="1px" x1="247.1747456515161" x2="343.74144056468975" y1="251.0456653890621" y2="299.01582380344126" /><line stroke="black" stroke-width="1px" x1="343.74144056468975" x2="241.70754125980167" y1="299.01582380344126" y2="365.13528503657005" /><line stroke="black" stroke-width="1px" x1="241.70754125980167" x2="145.83383152546574" y1="365.13528503657005" y2="299.56465413682184" /><line stroke="black" stroke-width="1px" x1="145.83383152546574" x2="247.1747456515161" y1="299.56465413682184" y2="251.0456653890621" /><line stroke="black" stroke-width="1px" x1="246.62658654755563" x2="348.3046398906471" y1="206.0821668547739" y2="249.36683698052184" /><line stroke="black" stroke-width="1px" x1="348.3046398906471" x2="240.59468724831504" y1="249.36683698052184" y2="310.0543981195332" /><line stroke="black" stroke-width="1px" x1="240.59468724831504" x2="139.73023078461705" y1="310.0543981195332" y2="249.86564772368956" /><line stroke="black" stroke-width="1px" x1="139.73023078461705" x2="246.62658654755563" y1="249.86564772368956" y2="206.0821668547739" /><line stroke="black" stroke-width="1px" x1="247.1747456515161" x2="246.62658654755563" y1="251.0456653890621" y2="206.0821668547739" /><line stroke="black" stroke-width="1px" x1="343.74144056468975" x2="348.3046398906471" y1="299.01582380344126" y2="249.36683698052184" /><line stroke="black" stroke-width="1px" x1="241.70754125980167" x2="240.59468724831504" y1="365.13528503657005" y2="310.0543981195332" /><line stroke="black" stroke-width="1px" x1="145.83383152546574" x2="139.73023078461705" y1="299.56465413682184" y2="249.86564772368956" /><line stroke="black" stroke-width="1px" x1="143.25302566764765" x2="246.94199958427765" y1="278.55025750036754" y2="231.95435161259235" /><line stroke="black" stroke-width="1px" x1="160.662526109277" x2="262.4172789844542" y1="309.70640062785134" y2="258.6174968499496" /><line stroke="black" stroke-width="1px" x1="160.662526109277" x2="143.25302566764765" y1="309.70640062785134" y2="278.55025750036754" /><line stroke="black" stroke-width="1px" x1="262.4172789844542" x2="246.94199958427765" y1="258.6174968499496" y2="231.95435161259235" /><line stroke="black" stroke-width="1px" x1="343.74144056468975" x2="293.7408866800527" y1="299.01582380344126" y2="307.54058465747124" /><line stroke="black" stroke-width="1px" x1="293.7408866800527" x2="309.80241561332707" y1="307.54058465747124" y2="193.46841966029933" /><line stroke="black" stroke-width="1px" x1="309.80241561332707" x2="343.74144056468975" y1="193.46841966029933" y2="299.01582380344126" /><line stroke="black" stroke-width="1px" x1="343.74144056468975" x2="293.7408866800527" y1="299.01582380344126" y2="307.54058465747124" /><line stroke="black" stroke-width="1px" x1="293.7408866800527" x2="309.80241561332707" y1="307.54058465747124" y2="193.46841966029933" /><line stroke="black" stroke-width="1px" x1="309.80241561332707" x2="343.74144056468975" y1="193.46841966029933" y2="299.01582380344126" /><line stroke="black" stroke-width="1px" x1="343.74144056468975" x2="343.74144056468975" y1="299.01582380344126" y2="299.01582380344126" /><line stroke="black" stroke-width="1px" x1="293.7408866800527" x2="293.7408866800527" y1="307.54058465747124" y2="307.54058465747124" /><line stroke="black" stroke-width="1px" x1="309.80241561332707" x2="309.80241561332707" y1="193.46841966029933" y2="193.46841966029933" /><line stroke="black" stroke-width="1px" x1="231.3077985161711" x2="229.99146271801163" y1="258.6422835581418" y2="212.89571649119102" /><line stroke="black" stroke-width="1px" x1="262.4671760572807" x2="262.6319866435891" y1="258.64228355814186" y2="212.89571649119102" /></svg>