<?xml version="1.0" encoding="utf-8" ?>
<svg baseProfile="full" height="518px" version="1.1" viewBox="0,0,518,518" width="518px" xmlns="http://www.w3.org/2000/svg" xmlns:ev="http://www.w3.org/2001/xml-events" xmlns:xlink="http://www.w3.org/1999/xlink"><defs /><rect fill="white" height="100%" width="100%" x="0" y="0" /><line stroke="black" stroke-width="1px" x1="286.3153547060674" x2="290.69028313043975" y1="296.39888453132755" y2="148.30681275945142" /><line stroke="black" stroke-width="1px" x1="290.69028313043975" x2="179.41081015400505" y1="148.30681275945142" y2="186.63426459495685" /><line stroke="black" stroke-width="1px" x1="179.41081015400505" x2="192.0844669582763" y1="186.63426459495685" y2="351.3495344501032" /><line stroke="black" stroke-width="1px" x1="192.0844669582763" x2="286.3153547060674" y1="351.3495344501032" y2="296.39888453132755" /><line stroke="black" stroke-width="1px" x1="319.9291010650491" x2="330.26148556024435" y1="314.3992221138605" y2="160.65265497313007" /><line stroke="black" stroke-width="1px" x1="330.26148556024435" x2="218.89167386845423" y1="160.65265497313007" y2="204.08558743316206" /><line stroke="black" stroke-width="1px" x1="218.89167386845423" x2="225.65167218798496" y1="204.08558743316206" y2="375.48468647188594" /><line stroke="black" stroke-width="1px" x1="225.65167218798496" x2="319.9291010650491" y1="375.48468647188594" y2="314.3992221138605" /><line stroke="black" stroke-width="1px" x1="286.3153547060674" x2="319.9291010650491" y1="296.39888453132755" y2="314.3992221138605" /><line stroke="black" stroke-width="1px" x1="290.69028313043975" x2="330.26148556024435" y1="148.30681275945142" y2="160.65265497313007" /><line stroke="black" stroke-width="1px" x1="179.41081015400505" x2="218.89167386845423" y1="186.63426459495685" y2="204.08558743316206" /><line stroke="black" stroke-width="1px" x1="192.0844669582763" x2="225.65167218798496" y1="351.3495344501032" y2="375.48468647188594" /><line stroke="black" stroke-width="1px" x1="312.01171713950185" x2="200.57767170253138" y1="154.9588992233942" y2="195.99043615763054" /><line stroke="black" stroke-width="1px" x1="328.7643600767063" x2="219.89480065977693" y1="182.9299815457059" y2="229.5197695331143" /><line stroke="black" stroke-width="1px" x1="284.8957330919828" x2="196.06412445572374" y1="152.80847239120365" y2="183.76599827840482" /><line stroke="black" stroke-width="1px" x1="196.06412445572374" x2="275.32088288184724" y1="183.76599827840482" y2="178.89637427759908" /><line stroke="black" stroke-width="1px" x1="275.32088288184724" x2="284.8957330919828" y1="178.89637427759908" y2="152.80847239120365" /><line stroke="black" stroke-width="1px" x1="284.8957330919828" x2="196.06412445572374" y1="152.80847239120365" y2="183.76599827840482" /><line stroke="black" stroke-width="1px" x1="196.06412445572374" x2="275.32088288184724" y1="183.76599827840482" y2="178.89637427759908" /><line stroke="black" stroke-width="1px" x1="275.32088288184724" x2="284.8957330919828" y1="178.89637427759908" y2="152.80847239120365" /><line stroke="black" stroke-width="1px" x1="284.8957330919828" x2="284.8957330919828" y1="152.80847239120365" y2="152.80847239120365" /><line stroke="black" stroke-width="1px" x1="196.06412445572374" x2="196.06412445572374" y1="183.76599827840482" y2="183.76599827840482" /><line stroke="black" stroke-width="1px" x1="275.32088288184724" x2="275.32088288184724" y1="178.89637427759908" y2="178.89637427759908" /><line stroke="black" stroke-width="1px" x1="208.48610193785174" x2="302.8047816746807" y1="363.14247195946393" y2="305.2290592106891" /><line stroke="black" stroke-width="1px" x1="190.53259186123654" x2="286.862869285354" y1="331.1803339314151" y2="277.8654228362385" /></svg>