<?xml version="1.0" encoding="utf-8" ?>
<svg baseProfile="full" height="518px" version="1.1" viewBox="0,0,518,518" width="518px" xmlns="http://www.w3.org/2000/svg" xmlns:ev="http://www.w3.org/2001/xml-events" xmlns:xlink="http://www.w3.org/1999/xlink"><defs /><rect fill="white" height="100%" width="100%" x="0" y="0" /><line stroke="black" stroke-width="1px" x1="182.70205607581636" x2="171.62644222325304" y1="304.46523522251505" y2="171.41448774229394" /><line stroke="black" stroke-width="1px" x1="171.62644222325304" x2="302.94008964178863" y1="171.41448774229394" y2="226.6656704696913" /><line stroke="black" stroke-width="1px" x1="302.94008964178863" x2="296.25088619259316" y1="226.6656704696913" y2="378.042099625829" /><line stroke="black" stroke-width="1px" x1="296.25088619259316" x2="182.70205607581636" y1="378.042099625829" y2="304.46523522251505" /><line stroke="black" stroke-width="1px" x1="230.02768110446317" x2="226.13657638204413" y1="280.319949824011" y2="153.97884887494604" /><line stroke="black" stroke-width="1px" x1="226.13657638204413" x2="357.25724655779226" y1="153.97884887494604" y2="200.4494205570497" /><line stroke="black" stroke-width="1px" x1="357.25724655779226" x2="343.46823978742566" y1="200.4494205570497" y2="343.67314642482546" /><line stroke="black" stroke-width="1px" x1="343.46823978742566" x2="230.02768110446317" y1="343.67314642482546" y2="280.319949824011" /><line stroke="black" stroke-width="1px" x1="182.70205607581636" x2="230.02768110446317" y1="304.46523522251505" y2="280.319949824011" /><line stroke="black" stroke-width="1px" x1="171.62644222325304" x2="226.13657638204413" y1="171.41448774229394" y2="153.97884887494604" /><line stroke="black" stroke-width="1px" x1="302.94008964178863" x2="357.25724655779226" y1="226.6656704696913" y2="200.4494205570497" /><line stroke="black" stroke-width="1px" x1="296.25088619259316" x2="343.46823978742566" y1="378.042099625829" y2="343.67314642482546" /><line stroke="black" stroke-width="1px" x1="200.1503606514377" x2="331.6010695977377" y1="162.29081287943706" y2="212.83240938004488" /><line stroke="black" stroke-width="1px" x1="174.43905622488182" x2="301.20359831378937" y1="205.20226693644128" y2="265.96240564744124" /><line stroke="black" stroke-width="1px" x1="174.43905622488182" x2="200.1503606514377" y1="205.20226693644128" y2="162.29081287943706" /><line stroke="black" stroke-width="1px" x1="301.20359831378937" x2="331.6010695977377" y1="265.96240564744124" y2="212.83240938004488" /><line stroke="black" stroke-width="1px" x1="225.17470636511308" x2="186.8247305963768" y1="271.2702196027935" y2="290.18151834680725" /><line stroke="black" stroke-width="1px" x1="186.8247305963768" x2="178.6282567518158" y1="290.18151834680725" y2="184.47133141978213" /><line stroke="black" stroke-width="1px" x1="178.6282567518158" x2="221.56189960070168" y1="184.47133141978213" y2="169.82860553574773" /><line stroke="black" stroke-width="1px" x1="221.56189960070168" x2="225.17470636511308" y1="169.82860553574773" y2="271.2702196027935" /><line stroke="black" stroke-width="1px" x1="225.17470636511308" x2="186.8247305963768" y1="271.2702196027935" y2="290.18151834680725" /><line stroke="black" stroke-width="1px" x1="186.8247305963768" x2="178.6282567518158" y1="290.18151834680725" y2="184.47133141978213" /><line stroke="black" stroke-width="1px" x1="178.6282567518158" x2="221.56189960070168" y1="184.47133141978213" y2="169.82860553574773" /><line stroke="black" stroke-width="1px" x1="221.56189960070168" x2="225.17470636511308" y1="169.82860553574773" y2="271.2702196027935" /><line stroke="black" stroke-width="1px" x1="225.17470636511308" x2="225.17470636511308" y1="271.2702196027935" y2="271.2702196027935" /><line stroke="black" stroke-width="1px" x1="186.8247305963768" x2="186.8247305963768" y1="290.18151834680725" y2="290.18151834680725" /><line stroke="black" stroke-width="1px" x1="178.6282567518158" x2="178.6282567518158" y1="184.47133141978213" y2="184.47133141978213" /><line stroke="black" stroke-width="1px" x1="221.56189960070168" x2="221.56189960070168" y1="169.82860553574773" y2="169.82860553574773" /><line stroke="black" stroke-width="1px" x1="343.24481847149684" x2="331.1609752880381" y1="207.21253809579193" y2="352.63145868521684" /><line stroke="black" stroke-width="1px" x1="339.1109241331314" x2="328.10643865316126" y1="194.0181692839172" y2="335.0940348733603" /><line stroke="black" stroke-width="1px" x1="339.1109241331314" x2="343.24481847149684" y1="194.0181692839172" y2="207.21253809579193" /><line stroke="black" stroke-width="1px" x1="328.10643865316126" x2="331.1609752880381" y1="335.0940348733603" y2="352.63145868521684" /></svg>