<?xml version="1.0" encoding="utf-8" ?>
<svg baseProfile="full" height="518px" version="1.1" viewBox="0,0,518,518" width="518px" xmlns="http://www.w3.org/2000/svg" xmlns:ev="http://www.w3.org/2001/xml-events" xmlns:xlink="http://www.w3.org/1999/xlink"><defs /><rect fill="white" height="100%" width="100%" x="0" y="0" /><line stroke="black" stroke-width="1px" x1="254.66731222015056" x2="344.8420566768802" y1="235.91212657832915" y2="278.03790412710333" /><line stroke="black" stroke-width="1px" x1="344.8420566768802" x2="264.6599167921034" y1="278.03790412710333" y2="327.07210482453365" /><line stroke="black" stroke-width="1px" x1="264.6599167921034" x2="174.46183445182194" y1="327.07210482453365" y2="272.8778451858531" /><line stroke="black" stroke-width="1px" x1="174.46183445182194" x2="254.66731222015056" y1="272.8778451858531" y2="235.91212657832915" /><line stroke="black" stroke-width="1px" x1="254.53254207479986" x2="347.90367205521795" y1="205.26965813212968" y2="244.40551017122522" /><line stroke="black" stroke-width="1px" x1="347.90367205521795" x2="264.8921140143971" y1="244.40551017122522" y2="290.39768879334827" /><line stroke="black" stroke-width="1px" x1="264.8921140143971" x2="171.49412875926063" y1="290.39768879334827" y2="239.59309793204753" /><line stroke="black" stroke-width="1px" x1="171.49412875926063" x2="254.53254207479986" y1="239.59309793204753" y2="205.26965813212968" /><line stroke="black" stroke-width="1px" x1="254.66731222015056" x2="254.53254207479986" y1="235.91212657832915" y2="205.26965813212968" /><line stroke="black" stroke-width="1px" x1="344.8420566768802" x2="347.90367205521795" y1="278.03790412710333" y2="244.40551017122522" /><line stroke="black" stroke-width="1px" x1="264.6599167921034" x2="264.8921140143971" y1="327.07210482453365" y2="290.39768879334827" /><line stroke="black" stroke-width="1px" x1="174.46183445182194" x2="171.49412875926063" y1="272.8778451858531" y2="239.59309793204753" /><line stroke="black" stroke-width="1px" x1="191.83507687940488" x2="189.53562082829995" y1="264.87073134839994" y2="232.13575328627158" /><line stroke="black" stroke-width="1px" x1="188.45843553035508" x2="185.91758928861327" y1="281.2875077111317" y2="247.43885615687583" /><line stroke="black" stroke-width="1px" x1="188.45843553035508" x2="191.83507687940488" y1="281.2875077111317" y2="264.87073134839994" /><line stroke="black" stroke-width="1px" x1="185.91758928861327" x2="189.53562082829995" y1="247.43885615687583" y2="232.13575328627158" /><line stroke="black" stroke-width="1px" x1="255.33747741170052" x2="188.88506378704793" y1="211.88407815252324" y2="240.06751868624707" /><line stroke="black" stroke-width="1px" x1="188.88506378704793" x2="298.6172672106312" y1="240.06751868624707" y2="260.73753612298424" /><line stroke="black" stroke-width="1px" x1="298.6172672106312" x2="255.33747741170052" y1="260.73753612298424" y2="211.88407815252324" /><line stroke="black" stroke-width="1px" x1="255.43961582712697" x2="191.0356585514259" y1="240.026536878037" y2="270.15595937499705" /><line stroke="black" stroke-width="1px" x1="191.0356585514259" x2="297.32159150493976" y1="270.15595937499705" y2="292.1436751194032" /><line stroke="black" stroke-width="1px" x1="297.32159150493976" x2="255.43961582712697" y1="292.1436751194032" y2="240.026536878037" /><line stroke="black" stroke-width="1px" x1="255.33747741170052" x2="255.43961582712697" y1="211.88407815252324" y2="240.026536878037" /><line stroke="black" stroke-width="1px" x1="188.88506378704793" x2="191.0356585514259" y1="240.06751868624707" y2="270.15595937499705" /><line stroke="black" stroke-width="1px" x1="298.6172672106312" x2="297.32159150493976" y1="260.73753612298424" y2="292.1436751194032" /><line stroke="black" stroke-width="1px" x1="249.7530899604099" x2="249.38282695720451" y1="318.1155458518285" y2="281.961286430506" /><line stroke="black" stroke-width="1px" x1="279.30594046988574" x2="280.119027054388" y1="318.1155458518285" y2="281.961286430506" /></svg>