<?xml version="1.0" encoding="utf-8" ?>
<svg baseProfile="full" height="518px" version="1.1" viewBox="0,0,518,518" width="518px" xmlns="http://www.w3.org/2000/svg" xmlns:ev="http://www.w3.org/2001/xml-events" xmlns:xlink="http://www.w3.org/1999/xlink"><defs /><rect fill="white" height="100%" width="100%" x="0" y="0" /><line stroke="black" stroke-width="1px" x1="280.14455409966257" x2="379.6671945906506" y1="280.1582382879835" y2="331.50981964532184" /><line stroke="black" stroke-width="1px" x1="379.6671945906506" x2="274.5695151934503" y1="331.50981964532184" y2="410.8724428613897" /><line stroke="black" stroke-width="1px" x1="274.5695151934503" x2="174.1038870583559" y1="410.8724428613897" y2="338.6037307357551" /><line stroke="black" stroke-width="1px" x1="174.1038870583559" x2="280.14455409966257" y1="338.6037307357551" y2="280.1582382879835" /><line stroke="black" stroke-width="1px" x1="281.17873476751714" x2="386.50587177370824" y1="234.1402605979286" y2="281.09736338266055" /><line stroke="black" stroke-width="1px" x1="386.50587177370824" x2="275.6422765614082" y1="281.09736338266055" y2="355.0515721128965" /><line stroke="black" stroke-width="1px" x1="275.6422765614082" x2="169.20067422409164" y1="355.0515721128965" y2="287.63890706906164" /><line stroke="black" stroke-width="1px" x1="169.20067422409164" x2="281.17873476751714" y1="287.63890706906164" y2="234.1402605979286" /><line stroke="black" stroke-width="1px" x1="280.14455409966257" x2="281.17873476751714" y1="280.1582382879835" y2="234.1402605979286" /><line stroke="black" stroke-width="1px" x1="379.6671945906506" x2="386.50587177370824" y1="331.50981964532184" y2="281.09736338266055" /><line stroke="black" stroke-width="1px" x1="274.5695151934503" x2="275.6422765614082" y1="410.8724428613897" y2="355.0515721128965" /><line stroke="black" stroke-width="1px" x1="174.1038870583559" x2="169.20067422409164" y1="338.6037307357551" y2="287.63890706906164" /><line stroke="black" stroke-width="1px" x1="257.86847464552204" x2="257.79262591489453" y1="398.8587550563048" y2="343.74685202450826" /><line stroke="black" stroke-width="1px" x1="290.4789024862487" x2="292.58900526536945" y1="398.8587550563048" y2="343.74685202450826" /><line stroke="black" stroke-width="1px" x1="275.6422765614082" x2="335.8059535189848" y1="355.0515721128965" y2="314.2402934326806" /><line stroke="black" stroke-width="1px" x1="335.8059535189848" x2="163.3412825419698" y1="314.2402934326806" y2="264.31839264498535" /><line stroke="black" stroke-width="1px" x1="163.3412825419698" x2="275.6422765614082" y1="264.31839264498535" y2="355.0515721128965" /><line stroke="black" stroke-width="1px" x1="277.64582305970464" x2="344.0485699420345" y1="250.7975287995269" y2="216.92614923791314" /><line stroke="black" stroke-width="1px" x1="344.0485699420345" x2="154.8881011546295" y1="216.92614923791314" y2="179.7757339577169" /><line stroke="black" stroke-width="1px" x1="154.8881011546295" x2="277.64582305970464" y1="179.7757339577169" y2="250.7975287995269" /><line stroke="black" stroke-width="1px" x1="275.6422765614082" x2="277.64582305970464" y1="355.0515721128965" y2="250.7975287995269" /><line stroke="black" stroke-width="1px" x1="335.8059535189848" x2="344.0485699420345" y1="314.2402934326806" y2="216.92614923791314" /><line stroke="black" stroke-width="1px" x1="163.3412825419698" x2="154.8881011546295" y1="264.31839264498535" y2="179.7757339577169" /><line stroke="black" stroke-width="1px" x1="172.59766609474656" x2="280.4640959859174" y1="322.9478152354143" y2="265.9395704577106" /><line stroke="black" stroke-width="1px" x1="186.2437162096636" x2="292.4482671152047" y1="347.3363673048563" y2="286.50669444628016" /><line stroke="black" stroke-width="1px" x1="386.50587177370824" x2="295.4205734857583" y1="281.09736338266055" y2="254.3864864731107" /><line stroke="black" stroke-width="1px" x1="295.4205734857583" x2="244.73041172394036" y1="254.3864864731107" y2="272.4046796873673" /><line stroke="black" stroke-width="1px" x1="244.73041172394036" x2="386.50587177370824" y1="272.4046796873673" y2="281.09736338266055" /><line stroke="black" stroke-width="1px" x1="386.50587177370824" x2="295.4205734857583" y1="281.09736338266055" y2="254.3864864731107" /><line stroke="black" stroke-width="1px" x1="295.4205734857583" x2="244.73041172394036" y1="254.3864864731107" y2="272.4046796873673" /><line stroke="black" stroke-width="1px" x1="244.73041172394036" x2="386.50587177370824" y1="272.4046796873673" y2="281.09736338266055" /><line stroke="black" stroke-width="1px" x1="386.50587177370824" x2="386.50587177370824" y1="281.09736338266055" y2="281.09736338266055" /><line stroke="black" stroke-width="1px" x1="295.4205734857583" x2="295.4205734857583" y1="254.3864864731107" y2="254.3864864731107" /><line stroke="black" stroke-width="1px" x1="244.73041172394036" x2="244.73041172394036" y1="272.4046796873673" y2="272.4046796873673" /><line stroke="black" stroke-width="1px" x1="308.1909694103327" x2="313.31858768048113" y1="306.24681575915963" y2="210.89089456822407" /><line stroke="black" stroke-width="1px" x1="316.0876542549509" x2="322.45679889884224" y1="327.6159554111169" y2="227.939896511161" /></svg>