<?xml version="1.0" encoding="utf-8" ?>
<svg baseProfile="full" height="518px" version="1.1" viewBox="0,0,518,518" width="518px" xmlns="http://www.w3.org/2000/svg" xmlns:ev="http://www.w3.org/2001/xml-events" xmlns:xlink="http://www.w3.org/1999/xlink"><defs /><rect fill="white" height="100%" width="100%" x="0" y="0" /><line stroke="black" stroke-width="1px" x1="287.3716719532033" x2="290.3752131567627" y1="272.71297322842815" y2="172.320436133925" /><line stroke="black" stroke-width="1px" x1="290.3752131567627" x2="173.81995750710473" y1="172.320436133925" y2="217.0328213408868" /><line stroke="black" stroke-width="1px" x1="173.81995750710473" x2="183.35788020596644" y1="217.0328213408868" y2="329.45388727762094" /><line stroke="black" stroke-width="1px" x1="183.35788020596644" x2="287.3716719532033" y1="329.45388727762094" y2="272.71297322842815" /><line stroke="black" stroke-width="1px" x1="327.54824205392737" x2="335.28953583309243" y1="292.77289135873883" y2="187.94310243179257" /><line stroke="black" stroke-width="1px" x1="335.28953583309243" x2="218.6193942653191" y1="187.94310243179257" y2="239.48270943281966" /><line stroke="black" stroke-width="1px" x1="218.6193942653191" x2="223.46149640232426" y1="239.48270943281966" y2="357.18138850271043" /><line stroke="black" stroke-width="1px" x1="223.46149640232426" x2="327.54824205392737" y1="357.18138850271043" y2="292.77289135873883" /><line stroke="black" stroke-width="1px" x1="287.3716719532033" x2="327.54824205392737" y1="272.71297322842815" y2="292.77289135873883" /><line stroke="black" stroke-width="1px" x1="290.3752131567627" x2="335.28953583309243" y1="172.320436133925" y2="187.94310243179257" /><line stroke="black" stroke-width="1px" x1="173.81995750710473" x2="218.6193942653191" y1="217.0328213408868" y2="239.48270943281966" /><line stroke="black" stroke-width="1px" x1="183.35788020596644" x2="223.46149640232426" y1="329.45388727762094" y2="357.18138850271043" /><line stroke="black" stroke-width="1px" x1="309.48900624361534" x2="315.0298657287025" y1="283.7560242906288" y2="180.89612840467288" /><line stroke="black" stroke-width="1px" x1="267.1282614850179" x2="268.02028844489143" y1="283.7560242906288" y2="180.89612840467288" /><line stroke="black" stroke-width="1px" x1="186.30834034566053" x2="218.71743361833228" y1="321.9256690194486" y2="343.78789554300215" /><line stroke="black" stroke-width="1px" x1="218.71743361833228" x2="196.17530215630003" y1="343.78789554300215" y2="240.66346451827127" /><line stroke="black" stroke-width="1px" x1="196.17530215630003" x2="186.30834034566053" y1="240.66346451827127" y2="321.9256690194486" /><line stroke="black" stroke-width="1px" x1="186.30834034566053" x2="218.71743361833228" y1="321.9256690194486" y2="343.78789554300215" /><line stroke="black" stroke-width="1px" x1="218.71743361833228" x2="196.17530215630003" y1="343.78789554300215" y2="240.66346451827127" /><line stroke="black" stroke-width="1px" x1="196.17530215630003" x2="186.30834034566053" y1="240.66346451827127" y2="321.9256690194486" /><line stroke="black" stroke-width="1px" x1="186.30834034566053" x2="186.30834034566053" y1="321.9256690194486" y2="321.9256690194486" /><line stroke="black" stroke-width="1px" x1="218.71743361833228" x2="218.71743361833228" y1="343.78789554300215" y2="343.78789554300215" /><line stroke="black" stroke-width="1px" x1="196.17530215630003" x2="196.17530215630003" y1="240.66346451827127" y2="240.66346451827127" /><line stroke="black" stroke-width="1px" x1="318.00098348994453" x2="201.23868081525347" y1="181.92958006440398" y2="230.77288850319871" /><line stroke="black" stroke-width="1px" x1="333.7822540585489" x2="219.57802609299281" y1="208.35416481830143" y2="262.7845103116701" /></svg>