<?xml version="1.0" encoding="utf-8" ?>
<svg baseProfile="full" height="518px" version="1.1" viewBox="0,0,518,518" width="518px" xmlns="http://www.w3.org/2000/svg" xmlns:ev="http://www.w3.org/2001/xml-events" xmlns:xlink="http://www.w3.org/1999/xlink"><defs /><rect fill="white" height="100%" width="100%" x="0" y="0" /><line stroke="black" stroke-width="1px" x1="290.67773199114464" x2="295.3570547162858" y1="291.0692780469557" y2="153.69901615384035" /><line stroke="black" stroke-width="1px" x1="295.3570547162858" x2="177.11914584249575" y1="153.69901615384035" y2="195.791094820359" /><line stroke="black" stroke-width="1px" x1="177.11914584249575" x2="189.40807753636062" y1="195.791094820359" y2="349.6618622388168" /><line stroke="black" stroke-width="1px" x1="189.40807753636062" x2="290.67773199114464" y1="349.6618622388168" y2="291.0692780469557" /><line stroke="black" stroke-width="1px" x1="321.40349542931" x2="331.10779162288543" y1="307.17312503704403" y2="165.06055359549745" /><line stroke="black" stroke-width="1px" x1="331.10779162288543" x2="212.76807570943268" y1="165.06055359549745" y2="212.19663556928677" /><line stroke="black" stroke-width="1px" x1="212.76807570943268" x2="220.07891353287582" y1="212.19663556928677" y2="371.7271922693389" /><line stroke="black" stroke-width="1px" x1="220.07891353287582" x2="321.40349542931" y1="371.7271922693389" y2="307.17312503704403" /><line stroke="black" stroke-width="1px" x1="290.67773199114464" x2="321.40349542931" y1="291.0692780469557" y2="307.17312503704403" /><line stroke="black" stroke-width="1px" x1="295.3570547162858" x2="331.10779162288543" y1="153.69901615384035" y2="165.06055359549745" /><line stroke="black" stroke-width="1px" x1="177.11914584249575" x2="212.76807570943268" y1="195.791094820359" y2="212.19663556928677" /><line stroke="black" stroke-width="1px" x1="189.40807753636062" x2="220.07891353287582" y1="349.6618622388168" y2="371.7271922693389" /><line stroke="black" stroke-width="1px" x1="214.69344466404323" x2="245.52276459560642" y1="335.0322576427791" y2="355.5168705348674" /><line stroke="black" stroke-width="1px" x1="187.24758825808595" x2="218.80366302680477" y1="322.6101907405175" y2="343.89981761288345" /><line stroke="black" stroke-width="1px" x1="284.8227563968349" x2="203.9604771452669" y1="297.7584851692977" y2="344.9775096112168" /><line stroke="black" stroke-width="1px" x1="203.9604771452669" x2="271.59212552873856" y1="344.9775096112168" y2="334.89680284482006" /><line stroke="black" stroke-width="1px" x1="271.59212552873856" x2="284.8227563968349" y1="334.89680284482006" y2="297.7584851692977" /><line stroke="black" stroke-width="1px" x1="284.8227563968349" x2="203.9604771452669" y1="297.7584851692977" y2="344.9775096112168" /><line stroke="black" stroke-width="1px" x1="203.9604771452669" x2="271.59212552873856" y1="344.9775096112168" y2="334.89680284482006" /><line stroke="black" stroke-width="1px" x1="271.59212552873856" x2="284.8227563968349" y1="334.89680284482006" y2="297.7584851692977" /><line stroke="black" stroke-width="1px" x1="284.8227563968349" x2="284.8227563968349" y1="297.7584851692977" y2="297.7584851692977" /><line stroke="black" stroke-width="1px" x1="203.9604771452669" x2="203.9604771452669" y1="344.9775096112168" y2="344.9775096112168" /><line stroke="black" stroke-width="1px" x1="271.59212552873856" x2="271.59212552873856" y1="334.89680284482006" y2="334.89680284482006" /><line stroke="black" stroke-width="1px" x1="317.348853271199" x2="198.9607533353088" y1="160.68798097836407" y2="205.84254329533167" /><line stroke="black" stroke-width="1px" x1="294.4473787491934" x2="179.55632959430756" y1="180.40425389389924" y2="226.30728154619914" /><line stroke="black" stroke-width="1px" x1="294.4473787491934" x2="317.348853271199" y1="180.40425389389924" y2="160.68798097836407" /><line stroke="black" stroke-width="1px" x1="179.55632959430756" x2="198.9607533353088" y1="226.30728154619914" y2="205.84254329533167" /></svg>