<?xml version="1.0" encoding="utf-8" ?>
<svg baseProfile="full" height="518px" version="1.1" viewBox="0,0,518,518" width="518px" xmlns="http://www.w3.org/2000/svg" xmlns:ev="http://www.w3.org/2001/xml-events" xmlns:xlink="http://www.w3.org/1999/xlink"><defs /><rect fill="white" height="100%" width="100%" x="0" y="0" /><line stroke="black" stroke-width="1px" x1="171.04246821959617" x2="162.3183353799279" y1="294.73057271077676" y2="202.85504853055883" /><line stroke="black" stroke-width="1px" x1="162.3183353799279" x2="279.49995386124533" y1="202.85504853055883" y2="259.7668623688617" /><line stroke="black" stroke-width="1px" x1="279.49995386124533" x2="277.29495809381655" y1="259.7668623688617" y2="363.16111361825386" /><line stroke="black" stroke-width="1px" x1="277.29495809381655" x2="171.04246821959617" y1="363.16111361825386" y2="294.73057271077676" /><line stroke="black" stroke-width="1px" x1="245.21278940017993" x2="243.99663552899426" y1="258.4842479621107" y2="173.57935332201205" /><line stroke="black" stroke-width="1px" x1="243.99663552899426" x2="361.05042482345584" y1="173.57935332201205" y2="217.5445379092309" /><line stroke="black" stroke-width="1px" x1="361.05042482345584" x2="351.3789449673943" y1="217.5445379092309" y2="312.64627721682547" /><line stroke="black" stroke-width="1px" x1="351.3789449673943" x2="245.21278940017993" y1="312.64627721682547" y2="258.4842479621107" /><line stroke="black" stroke-width="1px" x1="171.04246821959617" x2="245.21278940017993" y1="294.73057271077676" y2="258.4842479621107" /><line stroke="black" stroke-width="1px" x1="162.3183353799279" x2="243.99663552899426" y1="202.85504853055883" y2="173.57935332201205" /><line stroke="black" stroke-width="1px" x1="279.49995386124533" x2="361.05042482345584" y1="259.7668623688617" y2="217.5445379092309" /><line stroke="black" stroke-width="1px" x1="277.29495809381655" x2="351.3789449673943" y1="363.16111361825386" y2="312.64627721682547" /><line stroke="black" stroke-width="1px" x1="298.75395184206883" x2="192.23255370482548" y1="348.5291046743771" y2="284.3751811238966" /><line stroke="black" stroke-width="1px" x1="277.84377186856074" x2="168.83955969586566" y1="337.42673800029166" y2="271.53131852031584" /><line stroke="black" stroke-width="1px" x1="277.84377186856074" x2="298.75395184206883" y1="337.42673800029166" y2="348.5291046743771" /><line stroke="black" stroke-width="1px" x1="168.83955969586566" x2="192.23255370482548" y1="271.53131852031584" y2="284.3751811238966" /><line stroke="black" stroke-width="1px" x1="247.69160060571775" x2="188.2955711720563" y1="266.5720486973675" y2="296.4445991788717" /><line stroke="black" stroke-width="1px" x1="188.2955711720563" x2="273.17259163948523" y1="296.4445991788717" y2="349.71076356099553" /><line stroke="black" stroke-width="1px" x1="273.17259163948523" x2="332.53352068350324" y1="349.71076356099553" y2="310.77406002122456" /><line stroke="black" stroke-width="1px" x1="332.53352068350324" x2="247.69160060571775" y1="310.77406002122456" y2="266.5720486973675" /><line stroke="black" stroke-width="1px" x1="247.69160060571775" x2="188.2955711720563" y1="266.5720486973675" y2="296.4445991788717" /><line stroke="black" stroke-width="1px" x1="188.2955711720563" x2="273.17259163948523" y1="296.4445991788717" y2="349.71076356099553" /><line stroke="black" stroke-width="1px" x1="273.17259163948523" x2="332.53352068350324" y1="349.71076356099553" y2="310.77406002122456" /><line stroke="black" stroke-width="1px" x1="332.53352068350324" x2="247.69160060571775" y1="310.77406002122456" y2="266.5720486973675" /><line stroke="black" stroke-width="1px" x1="247.69160060571775" x2="247.69160060571775" y1="266.5720486973675" y2="266.5720486973675" /><line stroke="black" stroke-width="1px" x1="188.2955711720563" x2="188.2955711720563" y1="296.4445991788717" y2="296.4445991788717" /><line stroke="black" stroke-width="1px" x1="273.17259163948523" x2="273.17259163948523" y1="349.71076356099553" y2="349.71076356099553" /><line stroke="black" stroke-width="1px" x1="332.53352068350324" x2="332.53352068350324" y1="310.77406002122456" y2="310.77406002122456" /><line stroke="black" stroke-width="1px" x1="336.87395414283566" x2="329.1954886070646" y1="230.0617775685692" y2="327.7722675441622" /><line stroke="black" stroke-width="1px" x1="330.46639086900365" x2="323.9466325218425" y1="206.05723189091236" y2="298.6513303219104" /></svg>