<?xml version="1.0" encoding="utf-8" ?>
<svg baseProfile="full" height="518px" version="1.1" viewBox="0,0,518,518" width="518px" xmlns="http://www.w3.org/2000/svg" xmlns:ev="http://www.w3.org/2001/xml-events" xmlns:xlink="http://www.w3.org/1999/xlink"><defs /><rect fill="white" height="100%" width="100%" x="0" y="0" /><line stroke="black" stroke-width="1px" x1="318.15831930311447" x2="327.6946539763927" y1="308.41877894248785" y2="161.3059158745191" /><line stroke="black" stroke-width="1px" x1="327.6946539763927" x2="210.43734895287056" y1="161.3059158745191" y2="206.9636922339173" /><line stroke="black" stroke-width="1px" x1="210.43734895287056" x2="218.3348324874159" y1="206.9636922339173" y2="371.8755801569365" /><line stroke="black" stroke-width="1px" x1="218.3348324874159" x2="318.15831930311447" y1="371.8755801569365" y2="308.41877894248785" /><line stroke="black" stroke-width="1px" x1="292.43869497690224" x2="297.6005607887811" y1="294.8305443709319" y2="151.85521344358312" /><line stroke="black" stroke-width="1px" x1="297.6005607887811" x2="180.42896683958088" y1="151.85521344358312" y2="193.36452277924644" /><line stroke="black" stroke-width="1px" x1="180.42896683958088" x2="192.660416233439" y1="193.36452277924644" y2="353.3448216445929" /><line stroke="black" stroke-width="1px" x1="192.660416233439" x2="292.43869497690224" y1="353.3448216445929" y2="294.8305443709319" /><line stroke="black" stroke-width="1px" x1="318.15831930311447" x2="292.43869497690224" y1="308.41877894248785" y2="294.8305443709319" /><line stroke="black" stroke-width="1px" x1="327.6946539763927" x2="297.6005607887811" y1="161.3059158745191" y2="151.85521344358312" /><line stroke="black" stroke-width="1px" x1="210.43734895287056" x2="180.42896683958088" y1="206.9636922339173" y2="193.36452277924644" /><line stroke="black" stroke-width="1px" x1="218.3348324874159" x2="192.660416233439" y1="371.8755801569365" y2="353.3448216445929" /><line stroke="black" stroke-width="1px" x1="194.57155970575832" x2="204.81335938591465" y1="199.7736492756193" y2="362.11632603032103" /><line stroke="black" stroke-width="1px" x1="228.90266039635773" x2="233.6870525330969" y1="199.7736492756193" y2="362.11632603032103" /><line stroke="black" stroke-width="1px" x1="286.2349390838652" x2="206.56484651317666" y1="301.280526581434" y2="348.36728008241147" /><line stroke="black" stroke-width="1px" x1="206.56484651317666" x2="227.15604905769624" y1="348.36728008241147" y2="362.70425057300594" /><line stroke="black" stroke-width="1px" x1="227.15604905769624" x2="306.84457327422217" y1="362.70425057300594" y2="312.468901094191" /><line stroke="black" stroke-width="1px" x1="306.84457327422217" x2="286.2349390838652" y1="312.468901094191" y2="301.280526581434" /><line stroke="black" stroke-width="1px" x1="286.2349390838652" x2="206.56484651317666" y1="301.280526581434" y2="348.36728008241147" /><line stroke="black" stroke-width="1px" x1="206.56484651317666" x2="227.15604905769624" y1="348.36728008241147" y2="362.70425057300594" /><line stroke="black" stroke-width="1px" x1="227.15604905769624" x2="306.84457327422217" y1="362.70425057300594" y2="312.468901094191" /><line stroke="black" stroke-width="1px" x1="306.84457327422217" x2="286.2349390838652" y1="312.468901094191" y2="301.280526581434" /><line stroke="black" stroke-width="1px" x1="286.2349390838652" x2="286.2349390838652" y1="301.280526581434" y2="301.280526581434" /><line stroke="black" stroke-width="1px" x1="206.56484651317666" x2="206.56484651317666" y1="348.36728008241147" y2="348.36728008241147" /><line stroke="black" stroke-width="1px" x1="227.15604905769624" x2="227.15604905769624" y1="362.70425057300594" y2="362.70425057300594" /><line stroke="black" stroke-width="1px" x1="306.84457327422217" x2="306.84457327422217" y1="312.468901094191" y2="312.468901094191" /><line stroke="black" stroke-width="1px" x1="302.4342457109189" x2="276.63846778257835" y1="318.41441668316827" y2="304.09647766501644" /><line stroke="black" stroke-width="1px" x1="319.45645632407513" x2="293.14494556999273" y1="288.3929870265246" y2="275.26854567806134" /></svg>