<?xml version="1.0" encoding="utf-8" ?>
<svg baseProfile="full" height="518px" version="1.1" viewBox="0,0,518,518" width="518px" xmlns="http://www.w3.org/2000/svg" xmlns:ev="http://www.w3.org/2001/xml-events" xmlns:xlink="http://www.w3.org/1999/xlink"><defs /><rect fill="white" height="100%" width="100%" x="0" y="0" /><line stroke="black" stroke-width="1px" x1="279.4296307445856" x2="348.41946734044495" y1="191.34930738844298" y2="217.7268545606953" /><line stroke="black" stroke-width="1px" x1="348.41946734044495" x2="231.6685985053841" y1="217.7268545606953" y2="276.82923384435577" /><line stroke="black" stroke-width="1px" x1="231.6685985053841" x2="162.81389152439036" y1="276.82923384435577" y2="238.87011966977147" /><line stroke="black" stroke-width="1px" x1="162.81389152439036" x2="279.4296307445856" y1="238.87011966977147" y2="191.34930738844298" /><line stroke="black" stroke-width="1px" x1="278.6865476565951" x2="344.84153477844836" y1="228.80162592895866" y2="257.8718585899134" /><line stroke="black" stroke-width="1px" x1="344.84153477844836" x2="232.9824192380335" y1="257.8718585899134" y2="322.216891570326" /><line stroke="black" stroke-width="1px" x1="232.9824192380335" x2="166.94132127159776" y1="322.216891570326" y2="281.01538278986595" /><line stroke="black" stroke-width="1px" x1="166.94132127159776" x2="278.6865476565951" y1="281.01538278986595" y2="228.80162592895866" /><line stroke="black" stroke-width="1px" x1="279.4296307445856" x2="278.6865476565951" y1="191.34930738844298" y2="228.80162592895866" /><line stroke="black" stroke-width="1px" x1="348.41946734044495" x2="344.84153477844836" y1="217.7268545606953" y2="257.8718585899134" /><line stroke="black" stroke-width="1px" x1="231.6685985053841" x2="232.9824192380335" y1="276.82923384435577" y2="322.216891570326" /><line stroke="black" stroke-width="1px" x1="162.81389152439036" x2="166.94132127159776" y1="238.87011966977147" y2="281.01538278986595" /><line stroke="black" stroke-width="1px" x1="258.80461901851146" x2="258.8119527698683" y1="199.75398172390555" y2="238.08817264505097" /><line stroke="black" stroke-width="1px" x1="301.4118531725652" x2="299.81989686555175" y1="199.75398172390553" y2="238.08817264505095" /><line stroke="black" stroke-width="1px" x1="278.6865476565951" x2="302.3077182169091" y1="228.80162592895866" y2="275.982068760735" /><line stroke="black" stroke-width="1px" x1="302.3077182169091" x2="307.28174553181884" y1="275.982068760735" y2="265.3248812355976" /><line stroke="black" stroke-width="1px" x1="307.28174553181884" x2="278.6865476565951" y1="265.3248812355976" y2="228.80162592895866" /><line stroke="black" stroke-width="1px" x1="278.6865476565951" x2="302.3077182169091" y1="228.80162592895866" y2="275.982068760735" /><line stroke="black" stroke-width="1px" x1="302.3077182169091" x2="307.28174553181884" y1="275.982068760735" y2="265.3248812355976" /><line stroke="black" stroke-width="1px" x1="307.28174553181884" x2="278.6865476565951" y1="265.3248812355976" y2="228.80162592895866" /><line stroke="black" stroke-width="1px" x1="278.6865476565951" x2="278.6865476565951" y1="228.80162592895866" y2="228.80162592895866" /><line stroke="black" stroke-width="1px" x1="302.3077182169091" x2="302.3077182169091" y1="275.982068760735" y2="275.982068760735" /><line stroke="black" stroke-width="1px" x1="307.28174553181884" x2="307.28174553181884" y1="265.3248812355976" y2="265.3248812355976" /><line stroke="black" stroke-width="1px" x1="346.7044854446837" x2="232.30110579081773" y1="236.96923935202628" y2="298.68002632085506" /><line stroke="black" stroke-width="1px" x1="331.32770562842217" x2="214.35531696313697" y1="211.19199706484738" y2="267.28454387885654" /></svg>