<?xml version="1.0" encoding="utf-8" ?>
<svg baseProfile="full" height="518px" version="1.1" viewBox="0,0,518,518" width="518px" xmlns="http://www.w3.org/2000/svg" xmlns:ev="http://www.w3.org/2001/xml-events" xmlns:xlink="http://www.w3.org/1999/xlink"><defs /><rect fill="white" height="100%" width="100%" x="0" y="0" /><line stroke="black" stroke-width="1px" x1="247.70965303268895" x2="347.30733101067926" y1="235.53023708166492" y2="282.51143566257446" /><line stroke="black" stroke-width="1px" x1="347.30733101067926" x2="273.8126408540888" y1="282.51143566257446" y2="328.2508643516981" /><line stroke="black" stroke-width="1px" x1="273.8126408540888" x2="174.15220866502625" y1="328.2508643516981" y2="269.0274993826239" /><line stroke="black" stroke-width="1px" x1="174.15220866502625" x2="247.70965303268895" y1="269.0274993826239" y2="235.53023708166492" /><line stroke="black" stroke-width="1px" x1="247.35481261279782" x2="350.53748057933484" y1="204.5573587421019" y2="248.18189836701293" /><line stroke="black" stroke-width="1px" x1="350.53748057933484" x2="274.42946693695336" y1="248.18189836701293" y2="291.0739417499789" /><line stroke="black" stroke-width="1px" x1="274.42946693695336" x2="171.1744582236136" y1="291.0739417499789" y2="235.616838586634" /><line stroke="black" stroke-width="1px" x1="171.1744582236136" x2="247.35481261279782" y1="235.616838586634" y2="204.5573587421019" /><line stroke="black" stroke-width="1px" x1="247.70965303268895" x2="247.35481261279782" y1="235.53023708166492" y2="204.5573587421019" /><line stroke="black" stroke-width="1px" x1="347.30733101067926" x2="350.53748057933484" y1="282.51143566257446" y2="248.18189836701293" /><line stroke="black" stroke-width="1px" x1="273.8126408540888" x2="274.42946693695336" y1="328.2508643516981" y2="291.0739417499789" /><line stroke="black" stroke-width="1px" x1="174.15220866502625" x2="171.1744582236136" y1="269.0274993826239" y2="235.616838586634" /><line stroke="black" stroke-width="1px" x1="333.42465846822495" x2="336.2179024117315" y1="291.15131848155255" y2="256.25195483802554" /><line stroke="black" stroke-width="1px" x1="329.86682443230563" x2="332.39485670959016" y1="274.2845781740766" y2="240.51138907021698" /><line stroke="black" stroke-width="1px" x1="329.86682443230563" x2="333.42465846822495" y1="274.2845781740766" y2="291.15131848155255" /><line stroke="black" stroke-width="1px" x1="332.39485670959016" x2="336.2179024117315" y1="240.51138907021698" y2="256.25195483802554" /><line stroke="black" stroke-width="1px" x1="274.17885716902526" x2="172.37976006926397" y1="306.1785234210861" y2="249.14044706696768" /><line stroke="black" stroke-width="1px" x1="291.79495884421453" x2="191.90662437110035" y1="317.0595667270391" y2="260.9423310489605" /></svg>