<?xml version="1.0" encoding="utf-8" ?>
<svg baseProfile="full" height="518px" version="1.1" viewBox="0,0,518,518" width="518px" xmlns="http://www.w3.org/2000/svg" xmlns:ev="http://www.w3.org/2001/xml-events" xmlns:xlink="http://www.w3.org/1999/xlink"><defs /><rect fill="white" height="100%" width="100%" x="0" y="0" /><line stroke="black" stroke-width="1px" x1="271.1564924135807" x2="353.00501089058196" y1="179.4424169131123" y2="209.64123989272838" /><line stroke="black" stroke-width="1px" x1="353.00501089058196" x2="276.26855304138064" y1="209.64123989272838" y2="247.67912887538748" /><line stroke="black" stroke-width="1px" x1="276.26855304138064" x2="193.9679248532355" y1="247.67912887538748" y2="209.02239123669364" /><line stroke="black" stroke-width="1px" x1="193.9679248532355" x2="271.1564924135807" y1="209.02239123669364" y2="179.4424169131123" /><line stroke="black" stroke-width="1px" x1="270.05438515877665" x2="343.52278975677655" y1="273.8725624338363" y2="311.6591597208103" /><line stroke="black" stroke-width="1px" x1="343.52278975677655" x2="274.31017583336137" y1="311.6591597208103" y2="358.0638732569173" /><line stroke="black" stroke-width="1px" x1="274.31017583336137" x2="200.5142097694318" y1="358.0638732569173" y2="310.8933362685664" /><line stroke="black" stroke-width="1px" x1="200.5142097694318" x2="270.05438515877665" y1="310.8933362685664" y2="273.8725624338363" /><line stroke="black" stroke-width="1px" x1="271.1564924135807" x2="270.05438515877665" y1="179.4424169131123" y2="273.8725624338363" /><line stroke="black" stroke-width="1px" x1="353.00501089058196" x2="343.52278975677655" y1="209.64123989272838" y2="311.6591597208103" /><line stroke="black" stroke-width="1px" x1="276.26855304138064" x2="274.31017583336137" y1="247.67912887538748" y2="358.0638732569173" /><line stroke="black" stroke-width="1px" x1="193.9679248532355" x2="200.5142097694318" y1="209.02239123669364" y2="310.8933362685664" /><line stroke="black" stroke-width="1px" x1="195.29455989804893" x2="270.935108508" y1="229.6670114232024" y2="198.41091052279432" /><line stroke="black" stroke-width="1px" x1="209.05151126339973" x2="286.3478524162656" y1="216.10717607181442" y2="185.04741991227604" /><line stroke="black" stroke-width="1px" x1="200.5142097694318" x2="184.01151853895777" y1="310.8933362685664" y2="269.5096609802396" /><line stroke="black" stroke-width="1px" x1="184.01151853895777" x2="186.94673187179916" y1="269.5096609802396" y2="292.7810114774424" /><line stroke="black" stroke-width="1px" x1="186.94673187179916" x2="200.5142097694318" y1="292.7810114774424" y2="310.8933362685664" /><line stroke="black" stroke-width="1px" x1="200.5142097694318" x2="184.01151853895777" y1="310.8933362685664" y2="269.5096609802396" /><line stroke="black" stroke-width="1px" x1="184.01151853895777" x2="186.94673187179916" y1="269.5096609802396" y2="292.7810114774424" /><line stroke="black" stroke-width="1px" x1="186.94673187179916" x2="200.5142097694318" y1="292.7810114774424" y2="310.8933362685664" /><line stroke="black" stroke-width="1px" x1="200.5142097694318" x2="200.5142097694318" y1="310.8933362685664" y2="310.8933362685664" /><line stroke="black" stroke-width="1px" x1="184.01151853895777" x2="184.01151853895777" y1="269.5096609802396" y2="269.5096609802396" /><line stroke="black" stroke-width="1px" x1="186.94673187179916" x2="186.94673187179916" y1="292.7810114774424" y2="292.7810114774424" /><line stroke="black" stroke-width="1px" x1="350.26857371308074" x2="275.69772991247333" y1="239.08219308813895" y2="279.85381152257116" /><line stroke="black" stroke-width="1px" x1="326.95868508975195" x2="249.801099236682" y1="200.0311895611553" y2="235.24732318669334" /><line stroke="black" stroke-width="1px" x1="326.95868508975195" x2="350.26857371308074" y1="200.0311895611553" y2="239.08219308813895" /><line stroke="black" stroke-width="1px" x1="249.801099236682" x2="275.69772991247333" y1="235.24732318669334" y2="279.85381152257116" /></svg>