<?xml version="1.0" encoding="utf-8" ?>
<svg baseProfile="full" height="518px" version="1.1" viewBox="0,0,518,518" width="518px" xmlns="http://www.w3.org/2000/svg" xmlns:ev="http://www.w3.org/2001/xml-events" xmlns:xlink="http://www.w3.org/1999/xlink"><defs /><rect fill="white" height="100%" width="100%" x="0" y="0" /><line stroke="black" stroke-width="1px" x1="273.0261371262447" x2="368.0204400517447" y1="170.97604999227752" y2="204.69798962959948" /><line stroke="black" stroke-width="1px" x1="368.0204400517447" x2="239.05010988397134" y1="204.69798962959948" y2="269.2335985726631" /><line stroke="black" stroke-width="1px" x1="239.05010988397134" x2="144.2320877105379" y1="269.2335985726631" y2="218.7410228976126" /><line stroke="black" stroke-width="1px" x1="144.2320877105379" x2="273.0261371262447" y1="218.7410228976126" y2="170.97604999227752" /><line stroke="black" stroke-width="1px" x1="271.9390094427673" x2="358.4532698391782" y1="252.3627389526927" y2="293.8868149061963" /><line stroke="black" stroke-width="1px" x1="358.4532698391782" x2="241.1797041230255" y1="293.8868149061963" y2="370.83498487709426" /><line stroke="black" stroke-width="1px" x1="241.1797041230255" x2="154.78576985012973" y1="370.83498487709426" y2="310.90808442577924" /><line stroke="black" stroke-width="1px" x1="154.78576985012973" x2="271.9390094427673" y1="310.90808442577924" y2="252.3627389526927" /><line stroke="black" stroke-width="1px" x1="273.0261371262447" x2="271.9390094427673" y1="170.97604999227752" y2="252.3627389526927" /><line stroke="black" stroke-width="1px" x1="368.0204400517447" x2="358.4532698391782" y1="204.69798962959948" y2="293.8868149061963" /><line stroke="black" stroke-width="1px" x1="239.05010988397134" x2="241.1797041230255" y1="269.2335985726631" y2="370.83498487709426" /><line stroke="black" stroke-width="1px" x1="144.2320877105379" x2="154.78576985012973" y1="218.7410228976126" y2="310.90808442577924" /><line stroke="black" stroke-width="1px" x1="161.422797349569" x2="231.01549570482985" y1="307.625619880029" y2="354.889108269555" /><line stroke="black" stroke-width="1px" x1="231.01549570482985" x2="188.498283175182" y1="354.889108269555" y2="252.52017927631974" /><line stroke="black" stroke-width="1px" x1="188.498283175182" x2="161.422797349569" y1="252.52017927631974" y2="307.625619880029" /><line stroke="black" stroke-width="1px" x1="161.422797349569" x2="231.01549570482985" y1="307.625619880029" y2="354.889108269555" /><line stroke="black" stroke-width="1px" x1="231.01549570482985" x2="188.498283175182" y1="354.889108269555" y2="252.52017927631974" /><line stroke="black" stroke-width="1px" x1="188.498283175182" x2="161.422797349569" y1="252.52017927631974" y2="307.625619880029" /><line stroke="black" stroke-width="1px" x1="161.422797349569" x2="161.422797349569" y1="307.625619880029" y2="307.625619880029" /><line stroke="black" stroke-width="1px" x1="231.01549570482985" x2="231.01549570482985" y1="354.889108269555" y2="354.889108269555" /><line stroke="black" stroke-width="1px" x1="188.498283175182" x2="188.498283175182" y1="252.52017927631974" y2="252.52017927631974" /></svg>