<?xml version="1.0" encoding="utf-8" ?>
<svg baseProfile="full" height="518px" version="1.1" viewBox="0,0,518,518" width="518px" xmlns="http://www.w3.org/2000/svg" xmlns:ev="http://www.w3.org/2001/xml-events" xmlns:xlink="http://www.w3.org/1999/xlink"><defs /><rect fill="white" height="100%" width="100%" x="0" y="0" /><line stroke="black" stroke-width="1px" x1="203.88690368533597" x2="198.040666123011" y1="289.59705218173843" y2="190.79352533365113" /><line stroke="black" stroke-width="1px" x1="198.040666123011" x2="299.36283720144485" y1="190.79352533365113" y2="234.86844771984468" /><line stroke="black" stroke-width="1px" x1="299.36283720144485" x2="294.89098140230027" y1="234.86844771984468" y2="344.12649093469577" /><line stroke="black" stroke-width="1px" x1="294.89098140230027" x2="203.88690368533597" y1="344.12649093469577" y2="289.59705218173843" /><line stroke="black" stroke-width="1px" x1="229.05452997361542" x2="226.00448056632513" y1="276.9033667006356" y2="180.7409868380952" /><line stroke="black" stroke-width="1px" x1="226.00448056632513" x2="327.27579472021404" y1="180.7409868380952" y2="221.09543296430223" /><line stroke="black" stroke-width="1px" x1="327.27579472021404" x2="320.02544202831643" y1="221.09543296430223" y2="327.2804420748159" /><line stroke="black" stroke-width="1px" x1="320.02544202831643" x2="229.05452997361542" y1="327.2804420748159" y2="276.9033667006356" /><line stroke="black" stroke-width="1px" x1="203.88690368533597" x2="229.05452997361542" y1="289.59705218173843" y2="276.9033667006356" /><line stroke="black" stroke-width="1px" x1="198.040666123011" x2="226.00448056632513" y1="190.79352533365113" y2="180.7409868380952" /><line stroke="black" stroke-width="1px" x1="299.36283720144485" x2="327.27579472021404" y1="234.86844771984468" y2="221.09543296430223" /><line stroke="black" stroke-width="1px" x1="294.89098140230027" x2="320.02544202831643" y1="344.12649093469577" y2="327.2804420748159" /><line stroke="black" stroke-width="1px" x1="307.60794178185637" x2="216.58545217808464" y1="335.6031118540477" y2="283.1923408757481" /><line stroke="black" stroke-width="1px" x1="321.0874431415539" x2="228.60191707364712" y1="311.7269093466061" y2="262.63332454544764" /><line stroke="black" stroke-width="1px" x1="226.31670134057063" x2="205.98170254685132" y1="269.3017988851219" y2="279.28708183652816" /><line stroke="black" stroke-width="1px" x1="205.98170254685132" x2="212.78684325488666" y1="279.28708183652816" y2="196.31423069510637" /><line stroke="black" stroke-width="1px" x1="212.78684325488666" x2="226.31670134057063" y1="196.31423069510637" y2="269.3017988851219" /><line stroke="black" stroke-width="1px" x1="226.31670134057063" x2="205.98170254685132" y1="269.3017988851219" y2="279.28708183652816" /><line stroke="black" stroke-width="1px" x1="205.98170254685132" x2="212.78684325488666" y1="279.28708183652816" y2="196.31423069510637" /><line stroke="black" stroke-width="1px" x1="212.78684325488666" x2="226.31670134057063" y1="196.31423069510637" y2="269.3017988851219" /><line stroke="black" stroke-width="1px" x1="226.31670134057063" x2="226.31670134057063" y1="269.3017988851219" y2="269.3017988851219" /><line stroke="black" stroke-width="1px" x1="205.98170254685132" x2="205.98170254685132" y1="279.28708183652816" y2="279.28708183652816" /><line stroke="black" stroke-width="1px" x1="212.78684325488666" x2="212.78684325488666" y1="196.31423069510637" y2="196.31423069510637" /><line stroke="black" stroke-width="1px" x1="316.03124900271246" x2="309.86898624542033" y1="226.64379859278796" y2="334.0876758924686" /><line stroke="black" stroke-width="1px" x1="280.45550258132135" x2="278.1372218701699" y1="226.64379859278796" y2="334.0876758924686" /><line stroke="black" stroke-width="1px" x1="280.45550258132135" x2="316.03124900271246" y1="226.64379859278796" y2="226.64379859278796" /><line stroke="black" stroke-width="1px" x1="278.1372218701699" x2="309.86898624542033" y1="334.0876758924686" y2="334.0876758924686" /></svg>