<?xml version="1.0" encoding="utf-8" ?>
<svg baseProfile="full" height="518px" version="1.1" viewBox="0,0,518,518" width="518px" xmlns="http://www.w3.org/2000/svg" xmlns:ev="http://www.w3.org/2001/xml-events" xmlns:xlink="http://www.w3.org/1999/xlink"><defs /><rect fill="white" height="100%" width="100%" x="0" y="0" /><line stroke="black" stroke-width="1px" x1="244.35944431853392" x2="242.61117912411984" y1="256.4483201163609" y2="141.26542501937809" /><line stroke="black" stroke-width="1px" x1="242.61117912411984" x2="115.01551378786883" y1="141.26542501937809" y2="180.63420076921778" /><line stroke="black" stroke-width="1px" x1="115.01551378786883" x2="132.9827293458643" y1="180.63420076921778" y2="310.46058251943487" /><line stroke="black" stroke-width="1px" x1="132.9827293458643" x2="244.35944431853392" y1="310.46058251943487" y2="256.4483201163609" /><line stroke="black" stroke-width="1px" x1="279.1758755504723" x2="281.7359541848298" y1="274.12145113010854" y2="153.9702357939766" /><line stroke="black" stroke-width="1px" x1="281.7359541848298" x2="152.64968809727117" y1="153.9702357939766" y2="198.96902194923717" /><line stroke="black" stroke-width="1px" x1="152.64968809727117" x2="166.79134005727485" y1="198.96902194923717" y2="334.874654926536" /><line stroke="black" stroke-width="1px" x1="166.79134005727485" x2="279.1758755504723" y1="334.874654926536" y2="274.12145113010854" /><line stroke="black" stroke-width="1px" x1="244.35944431853392" x2="279.1758755504723" y1="256.4483201163609" y2="274.12145113010854" /><line stroke="black" stroke-width="1px" x1="242.61117912411984" x2="281.7359541848298" y1="141.26542501937809" y2="153.9702357939766" /><line stroke="black" stroke-width="1px" x1="115.01551378786883" x2="152.64968809727117" y1="180.63420076921778" y2="198.96902194923717" /><line stroke="black" stroke-width="1px" x1="132.9827293458643" x2="166.79134005727485" y1="310.46058251943487" y2="334.874654926536" /><line stroke="black" stroke-width="1px" x1="154.57163087674394" x2="266.66795489408804" y1="326.05048680931395" y2="267.77231904941846" /><line stroke="black" stroke-width="1px" x1="165.04543570107992" x2="279.49842914780646" y1="318.0959760764568" y2="258.9831634968201" /><line stroke="black" stroke-width="1px" x1="269.63271905766607" x2="178.7794753011395" y1="268.4531273868291" y2="316.0072494440375" /><line stroke="black" stroke-width="1px" x1="178.7794753011395" x2="169.2808915066945" y1="316.0072494440375" y2="208.84741441152212" /><line stroke="black" stroke-width="1px" x1="169.2808915066945" x2="270.7170127940413" y1="208.84741441152212" y2="171.31228532701726" /><line stroke="black" stroke-width="1px" x1="270.7170127940413" x2="269.63271905766607" y1="171.31228532701726" y2="268.4531273868291" /><line stroke="black" stroke-width="1px" x1="384.53005777316815" x2="294.8569528508338" y1="326.6308068927532" y2="394.13602487176803" /><line stroke="black" stroke-width="1px" x1="294.8569528508338" x2="300.1095579488318" y1="394.13602487176803" y2="273.0064200414614" /><line stroke="black" stroke-width="1px" x1="300.1095579488318" x2="399.86270760969853" y1="273.0064200414614" y2="217.38618714136692" /><line stroke="black" stroke-width="1px" x1="399.86270760969853" x2="384.53005777316815" y1="217.38618714136692" y2="326.6308068927532" /><line stroke="black" stroke-width="1px" x1="269.63271905766607" x2="384.53005777316815" y1="268.4531273868291" y2="326.6308068927532" /><line stroke="black" stroke-width="1px" x1="178.7794753011395" x2="294.8569528508338" y1="316.0072494440375" y2="394.13602487176803" /><line stroke="black" stroke-width="1px" x1="169.2808915066945" x2="300.1095579488318" y1="208.84741441152212" y2="273.0064200414614" /><line stroke="black" stroke-width="1px" x1="270.7170127940413" x2="399.86270760969853" y1="171.31228532701726" y2="217.38618714136692" /><line stroke="black" stroke-width="1px" x1="264.2690289819875" x2="135.73451387528223" y1="148.2982803853683" y2="190.72819561837866" /><line stroke="black" stroke-width="1px" x1="281.2453180879647" x2="155.41116456499003" y1="176.9970766632273" y2="225.50766173182376" /><line stroke="black" stroke-width="1px" x1="281.2453180879647" x2="264.2690289819875" y1="176.9970766632273" y2="148.2982803853683" /><line stroke="black" stroke-width="1px" x1="155.41116456499003" x2="135.73451387528223" y1="225.50766173182376" y2="190.72819561837866" /></svg>